<?xml version="1.0" encoding="UTF-8"?>
<svg id="Layer_2" data-name="Layer 2" xmlns="http://www.w3.org/2000/svg" viewBox="0 0 459.71 99.72">
  <g id="Layer_1-2" data-name="Layer 1">
    <g id="uuid-73ed8e8c-a623-4b47-880e-14f89a47620e" data-name="Layer 1-2">
      <g>
        <path d="M415.94,34.22c.23.22,1.42,1.58,1.57,1.55,4.77-6.67,13.9-7.13,21.33-5.87,6.5,1.25,12.25,3.53,18.77.87l.05,53.33c-4.16,2.45-8.98,1.59-13.34.29-8.4-1.91-20.33-3.41-26.76,3.56-4.58-5.82-13.15-5.92-19.88-5.02-6.7.98-13.7,5.19-20.11.67l-.08-52.21c4.52,2.22,9.17.61,13.67-.59,7.94-1.92,18.91-3.68,24.78,3.41h0ZM393.12,47.66c-.17-4.82-7.42-5.69-9.95-2.08-5.45,8.1,6.37,15.86,10.01,6.78.1-.44.34-1-.27-1.08-.3-.04-1.78-.03-2.01.06-.16.07-.46,1.13-.65,1.43-.77,1.26-2.17,1.51-3.51,1.07-2.44-.79-2.64-4.77-1.58-6.7.95-1.72,3.61-2.12,4.9-.58.26.31.5,1.07.81,1.17.25.08,2.15.08,2.24-.06h0ZM426.95,45.38c0-.32.15-1.36-.15-1.67-.27-.17-1.95-.15-2.16.12s-.2,1.63.22,1.76c.27.08,2.01.09,2.1-.21ZM422,46.73c-.21-2.32.76-2.47-2.25-2.25-.4.24-.01,1.94-.22,2.38-.23.48-1.17.08-1.35.45-.09.19-.09,1.16.04,1.31.31.34,1.23-.17,1.33.47.15,1.65-.13,3.48.02,5.1.14,1.52,1.09,1.87,2.47,1.94.39.02,1.61.09,1.74-.34.04-.15.05-1.27,0-1.41-.12-.37-1.41.19-1.69-.74-.19-.61-.18-3.67-.1-4.4.11-.94,1.19-.24,1.69-.6.69-2.6-1.16-.79-1.69-1.91h0ZM400.04,49c.15-.18.05-1.88-.07-2-.43-.48-1.8.14-2.24.46-.17.12-.77.76-.86.75-.3-.03-.11-.97-.42-1.1-.38-.16-2.37-.27-2.14.61.31,2.65-.53,5.73.22,8.24.2.15,2.01.16,2.16-.1.37-.61-.01-3.65.14-4.63.35-2.12,1.7-1.97,3.22-2.22h0ZM408.76,51.96c1.01-6.44-9.31-7.09-8.79.16.27,3.48,4.24,5.23,7.1,3.41.51-.33,1.59-1.52,1.45-2.14-.05-.2-1.5-.19-1.74-.13-.35.08-.41.4-.65.61-.78.68-2.36.76-3.12,0-.31-.31-.85-1.39-.39-1.72.51-.37,5.7.19,6.14-.19h0ZM415.32,55.52c.27.69,1.41.56,2.04.5.7-.11.33-.75.32-1.2-.03-1.43.25-5.58-.31-6.62-1.03-1.9-5.64-1.7-7.05-.3-1.49,1.91-.56,2.18,1.38,1.83.4-.16.26-.36.46-.62.51-.71,1.55-.8,2.34-.55.84.27.98,1.59.04,1.94-1.78.65-5.05-.09-5.3,2.8-.24,2.88,2.74,3.43,4.87,2.62.36-.14.91-.66,1.21-.4h0ZM444.73,51.96c1.01-6.44-9.31-7.09-8.79.16.27,3.48,4.24,5.23,7.1,3.41.51-.33,1.59-1.52,1.45-2.14-.05-.2-1.5-.19-1.74-.13-.35.08-.41.4-.65.61-.78.68-2.36.76-3.12,0-.31-.31-.85-1.39-.39-1.72.51-.37,5.7.19,6.14-.19h0ZM426.95,55.81v-8.54c0-.25-2.68-.57-2.43.44l.06,7.95c.06.61,2.28.43,2.37.15h0ZM433.13,55.92c1.07-2.65,2.23-5.96,2.86-8.7-.17-.25-2.01-.31-2.25.09l-1.59,5.06c-.07.34-.39.52-.52.12l-1.61-5.14c-.29-.43-2.57-.54-2.49.14l2.89,8.36c.29.37,2.43.19,2.71.07h0ZM391.93,59.48c-1.87-2.33-6.32-1.82-9.01-1.75-1.56.18-.09,9.84-.58,11.75,0,.31.14.67.5.67,3.24-.23,7.45.97,9.47-2.32,1.39-2.26,1.42-6.3-.38-8.36h0ZM396.82,59.5c0-.32.15-1.36-.15-1.67-.27-.17-1.95-.15-2.16.12s-.2,1.63.22,1.76c.27.08,2.01.09,2.1-.21ZM426.14,60.84c-.21-2.32.76-2.47-2.25-2.25-.4.24-.01,1.94-.22,2.38-.23.48-1.17.08-1.35.45-.09.19-.09,1.16.04,1.31.31.34,1.23-.17,1.33.47.15,1.65-.13,3.48.02,5.1.14,1.52,1.09,1.87,2.47,1.94.39.02,1.61.09,1.74-.34.04-.15.05-1.27,0-1.41-.12-.37-1.41.19-1.69-.74-.19-.61-.18-3.67-.1-4.4.11-.94,1.19-.24,1.69-.6.69-2.6-1.16-.79-1.69-1.91h0ZM404,63.11c.15-.18.05-1.88-.07-2-.43-.48-1.8.14-2.24.46-.17.12-.77.76-.86.75-.3-.03-.11-.97-.42-1.1-.38-.16-2.37-.27-2.14.61.31,2.65-.53,5.73.22,8.24.2.15,2.01.16,2.16-.1.37-.61-.01-3.65.14-4.63.35-2.12,1.7-1.97,3.22-2.22h0ZM412.81,66.08c1.01-6.44-9.31-7.09-8.79.16.27,3.48,4.24,5.23,7.1,3.41.51-.33,1.59-1.52,1.45-2.14-.05-.2-1.5-.19-1.74-.13-.35.08-.41.4-.65.61-.78.68-2.36.76-3.12,0-.31-.31-.85-1.39-.39-1.72.51-.37,5.7.19,6.14-.19h0ZM417.13,61.01c-4.46.53-5.1,7.56-.93,9.06,2.35.97,6.01-.4,5.85-3.24-.09-.13-1.71-.12-1.94-.04-3.41,5.99-6.8-4.19-1.68-3.98,1.06.18.91.82,1.37,1.32.22.24,1.73.26,2.05.17.69-.2-.21-1.69-.48-2-1.05-1.24-2.7-1.46-4.24-1.28h0ZM431.88,61c-2.93.33-4.33,3-3.82,5.75.95,5.1,8.77,4.76,9.15-.51.24-3.36-1.93-5.63-5.33-5.24h0ZM443.92,63.11c.15-.18.05-1.88-.07-2-.43-.48-1.8.14-2.24.46-.17.12-.77.76-.86.75-.3-.03-.11-.97-.42-1.1-.38-.16-2.37-.27-2.14.61.31,2.65-.53,5.73.22,8.24.2.15,2.01.16,2.16-.1.37-.61-.01-3.65.14-4.63.35-2.12,1.7-1.97,3.22-2.22h0ZM396.82,69.93v-8.54c0-.25-2.68-.57-2.43.44l.06,7.95c.06.61,2.28.43,2.37.15h0ZM446.24,61.16c-.44-.09-1.54,0-2.07,0-.12,0-.18.35-.12.47.83,2.39,1.89,4.72,2.68,7.12.23.71.73,1.78-.15,2.28-.57.32-1.61-.02-1.79.28-.35,2.26.42,2.06,2.34,1.98,1.17-.66,1.59-.62,2.12-2.01,1.36-2.98,2.18-6.42,3.52-9.43.09-.14.1-.7-.07-.7h-1.98c-.89.14-1.78,7.7-2.6,5.03-.67-1.48-.77-3.97-1.89-5.03h0Z"/>
        <path d="M410.74.03c14.64-.19,29.92.24,43.59,5.91,1.96.63,8,13.69,4.07,13.1l-21.52-4.74c-1.76-1.18-.04-3.74-4.5-4.67-9.95.2-20.11-.36-30.03-.19-2.16.19-4.11,1.57-4.58,3.78-.14.65.18,1.14-.61,1.46l-21.53,5.18c-.97.09-.88-1.93-.83-2.54.19-2.81,3.02-9.82,5.42-11.39,9.41-4.16,20.3-5.47,30.53-5.89Z"/>
        <path d="M397.7,16.67c.36.32.24,1.54.3,1.99.1.78.47,2.03.45,2.79.95,1.55-19.93,5.38-20.31,5.87-.77.12-1.24.19-1.61-.58-.26-.53-.75-2.85-.82-3.49-.03-.31-.1-1.41.14-1.55l21.32-5.12c.17-.04.41-.02.54.1h0Z"/>
        <path d="M436.54,16.48l22.24,4.8c.22.14.2.65.17.89-.31,1.08-.38,4.95-1.91,4.82l-20.68-4.95c-.55-.22-.62-.67-.6-1.2.15-1.12.06-3.46.78-4.34h0Z"/>
        <path d="M385.47,60.01c.65-.15,2.43,0,3.08.21,2.75.92,2.79,6.47.18,7.46-.74.28-2.31.31-3.11.23-1.35-.03-.23-6.07-.58-7.33,0-.28.14-.5.43-.56h0Z"/>
        <path d="M414.61,51.92c.9-.35.58,1.09.47,1.55-2.16,3.47-6.2-1.36-.47-1.55Z"/>
        <path d="M406.24,50.44c-.79.28-2.55.24-3.36.21-.82-.11-.22-1.16.14-1.48,1.05-1.04,3.57-.35,3.21,1.28h0Z"/>
        <path d="M442.21,50.44c-.79.28-2.55.24-3.36.21-.82-.11-.22-1.16.14-1.48,1.05-1.04,3.57-.35,3.21,1.28h0Z"/>
        <path d="M410.29,64.55c-.79.28-2.55.24-3.36.21-.82-.11-.22-1.16.14-1.48,1.05-1.04,3.57-.35,3.21,1.28h0Z"/>
        <path d="M432.42,62.8c3.31-.3,3.24,6.64-.5,5.67-2.06-.53-2.21-5.42.5-5.67Z"/>
      </g>
    </g>
    <g>
      <path d="M6.09,22.12c2.72-.04,4.58.76,5.61,2.42.14.22.25.46.33.69.08.24.15.5.22.78.03.11.04.24.03.39,0,.15-.04.26-.09.33-.07.08-.17.14-.29.16-.13.02-.27.03-.42.03h-1.7c-.13,0-.23-.01-.31-.04-.17-.07-.27-.18-.31-.34s-.1-.31-.17-.46c-.06-.14-.13-.29-.23-.44-.1-.15-.2-.27-.31-.36-.2-.14-.39-.26-.57-.36-.17-.07-.37-.13-.62-.18-.25-.05-.5-.08-.76-.09-.26-.01-.51,0-.77.02-.25.03-.48.08-.67.17-.32.14-.57.3-.75.49-.18.19-.3.47-.37.85-.03.1-.04.21-.02.33.01.12.03.21.06.28.11.29.27.5.47.62.2.12.44.24.72.35.15.07.31.12.47.16.16.04.33.08.49.14.38.13.77.23,1.17.33.4.09.79.19,1.19.3.07.03.14.04.21.04s.14.01.21.04c.28.1.57.19.87.27s.57.2.81.36c.38.24.7.48.98.71s.53.55.77.92c.07.11.13.24.18.38.05.14.1.28.16.42.01.04.02.08.02.12s0,.07.02.09c.06.22.08.5.08.84.03.07.03.14,0,.21v.38c-.03.15-.05.3-.07.44s-.05.28-.09.42c-.08.25-.18.48-.27.69-.1.21-.22.41-.36.61-.06.07-.11.13-.17.18-.06.05-.1.11-.15.18-.07.08-.15.16-.23.24-.08.08-.17.15-.27.22-.07.06-.14.11-.22.17-.08.06-.16.11-.24.17-.24.15-.49.28-.75.38-.26.1-.53.2-.81.29-.2.07-.4.12-.61.14-.21.02-.42.05-.63.09-.1.03-.19.04-.28.03-.09,0-.18,0-.26.03h-.17s-.07,0-.12-.01-.09,0-.12.01c-.07.01-.19.02-.36.02s-.29,0-.36-.02h-.21c-.1-.03-.2-.04-.3-.03-.1,0-.2,0-.28-.03-.07,0-.13,0-.19-.01-.06,0-.12-.02-.19-.03-.17-.04-.34-.08-.52-.11-.18-.03-.35-.07-.5-.13-.69-.22-1.29-.51-1.81-.85-.52-.34-.95-.79-1.3-1.35-.22-.34-.4-.74-.52-1.2-.03-.08-.05-.17-.05-.25,0-.08-.02-.17-.05-.27-.03-.11-.05-.25-.06-.41-.01-.16.01-.28.08-.37.07-.11.17-.18.3-.2.13-.02.28-.03.45-.03h1.68c.13,0,.24.02.34.06.15.07.25.19.27.35.03.16.08.33.15.49.06.17.13.32.21.46.08.14.17.27.27.4.07.08.15.16.23.23.08.07.17.13.25.19.31.2.69.36,1.13.48.1.03.19.04.28.04s.19.01.3.04h.11c.11.03.27.04.46.04s.35-.01.46-.04c.04-.01.11-.02.21-.02.07-.01.14-.02.22-.03.08,0,.15-.02.22-.05.48-.13.85-.29,1.13-.5.28-.21.48-.56.59-1.05.03-.1.03-.21.01-.34s-.05-.22-.07-.29c-.14-.38-.38-.67-.71-.88-.04-.03-.12-.07-.23-.13-.21-.13-.44-.23-.7-.3-.26-.08-.51-.16-.77-.24-.1-.03-.19-.05-.28-.07-.09-.02-.19-.04-.3-.07-.22-.07-.45-.13-.68-.18s-.45-.11-.66-.18c-.07-.03-.13-.04-.17-.04s-.09-.01-.15-.04c-.11-.03-.21-.06-.3-.08-.09-.03-.19-.06-.3-.08-.32-.11-.63-.23-.92-.35-.29-.12-.57-.25-.82-.41-.32-.21-.62-.46-.88-.74-.27-.28-.48-.6-.63-.97-.06-.13-.1-.25-.13-.39-.03-.13-.06-.28-.1-.43-.03-.13-.05-.31-.06-.55-.01-.24,0-.43.02-.59.01-.06.02-.14.02-.25.04-.15.08-.3.1-.44.03-.14.07-.28.13-.42.21-.49.48-.91.81-1.25.33-.34.71-.65,1.14-.93.28-.17.58-.3.9-.4.32-.1.66-.19,1.03-.27.14-.03.28-.04.41-.05.13,0,.27-.02.41-.05.04-.01.11-.01.2,0,.09.01.15,0,.18-.02Z"/>
      <path d="M27.47,36.4c.01.06.04.13.07.21.03.08.06.17.08.26s.02.18.01.26c-.01.08-.06.15-.15.19-.11.07-.3.1-.56.08-.26-.01-.47-.02-.64-.02h-.99c-.11,0-.21,0-.3.01-.09,0-.18,0-.26-.03-.15-.04-.27-.13-.34-.25-.07-.11-.12-.23-.16-.36-.04-.13-.08-.25-.14-.38-.07-.22-.14-.45-.22-.67-.08-.22-.16-.44-.24-.65-.04-.13-.08-.24-.12-.35-.04-.11-.07-.2-.12-.28s-.1-.16-.19-.22c-.08-.06-.2-.11-.34-.14-.07,0-.14,0-.2-.01-.06,0-.13-.01-.2-.01h-3.32c-.24,0-.49,0-.77,0-.27,0-.49.04-.64.16-.11.08-.19.2-.23.34s-.09.28-.15.42c-.11.24-.21.49-.28.75-.08.26-.16.51-.26.77-.06.14-.11.29-.16.44-.05.15-.13.27-.24.36-.07.06-.17.09-.3.12-.13.02-.28.03-.44.03s-.33,0-.49-.01c-.17,0-.31-.01-.44-.01-.18,0-.4,0-.66.01-.26,0-.44-.02-.56-.09-.07-.04-.11-.1-.12-.19,0-.08,0-.17.02-.26.02-.09.04-.18.07-.26.03-.08.06-.15.08-.21.14-.32.27-.65.39-.99.12-.34.24-.67.37-.99.06-.11.1-.22.13-.34.03-.11.07-.22.13-.34.11-.29.22-.59.34-.9.11-.31.22-.61.34-.9.11-.28.22-.56.31-.83.1-.27.2-.55.31-.83.32-.77.62-1.55.89-2.33s.57-1.56.89-2.33c.03-.07.05-.13.06-.19.01-.06.03-.12.06-.19.11-.29.22-.59.34-.9.11-.31.23-.61.36-.9.07-.15.13-.31.18-.47.05-.16.14-.29.26-.39.07-.04.16-.08.27-.11.03-.01.06-.02.08-.01.03,0,.06,0,.08,0h1.85c.15,0,.31,0,.47-.01.16,0,.29.02.39.09.15.08.26.21.3.37.05.16.11.33.18.49.1.24.19.47.27.7.08.23.17.46.27.7.03.08.06.17.08.25.03.08.06.17.08.25.11.28.22.56.31.83.1.27.2.55.31.83.28.7.54,1.41.79,2.12.24.71.51,1.42.81,2.12.03.06.04.11.05.16,0,.05.02.1.05.16.08.22.17.45.25.67.08.22.17.45.25.67.06.11.1.22.13.33.03.1.06.21.1.33.18.45.35.9.5,1.34.15.45.32.89.5,1.32.03.04.04.08.04.12s.01.07.04.12ZM22.03,31.59c.18-.07.27-.19.25-.36-.01-.17-.06-.33-.13-.48-.03-.06-.04-.11-.04-.16s-.01-.1-.04-.16c-.18-.48-.35-.96-.5-1.45-.15-.49-.33-.98-.52-1.47-.03-.07-.06-.16-.08-.26-.03-.11-.06-.2-.1-.29s-.09-.17-.15-.24c-.06-.07-.13-.1-.21-.1-.03.03-.06.05-.08.06-.03.01-.06.04-.08.06-.11.14-.19.31-.24.5-.05.2-.11.39-.18.57-.17.39-.32.79-.45,1.2-.13.41-.28.81-.43,1.22-.06.14-.1.28-.15.41s-.08.28-.13.43c-.04.11-.04.24.02.38.07.1.19.15.35.17.16.01.33.02.49.02h2.02c.15,0,.29-.01.4-.04Z"/>
      <path d="M27.3,22.44h2.17c.16,0,.29.04.39.1.13.07.21.18.25.34.04.15.09.31.15.46.1.27.19.53.26.8.08.27.16.54.26.82.28.87.56,1.74.83,2.6s.55,1.74.83,2.6c.07.24.14.48.22.71.08.24.15.48.22.71l.13.38c.04.13.1.24.17.34.01.03.03.04.05.05.02,0,.05.02.07.05.15,0,.26-.07.3-.2.05-.13.09-.26.14-.37.11-.29.21-.59.29-.9s.18-.62.29-.95c.31-.92.61-1.84.89-2.76.29-.92.58-1.84.89-2.76.07-.22.14-.44.21-.66.07-.22.14-.44.21-.66.06-.11.1-.22.14-.34s.11-.2.22-.27c.1-.07.21-.1.35-.1h2.24c.14,0,.25.03.34.08.14.07.19.2.15.39-.04.19-.08.35-.13.47-.13.32-.24.66-.35,1s-.21.68-.33,1.02c-.04.08-.07.17-.09.25s-.05.17-.07.25c-.11.29-.21.59-.3.9-.09.31-.19.62-.3.92-.38,1.13-.76,2.27-1.13,3.41-.38,1.14-.76,2.28-1.13,3.41-.13.32-.24.65-.34.98-.1.33-.2.66-.31.98-.07.2-.14.38-.21.54-.07.16-.21.27-.42.33-.11.03-.24.04-.38.03-.14,0-.27-.01-.4-.01h-1.51c-.15,0-.32,0-.49.01-.18,0-.32-.02-.43-.09-.15-.08-.26-.21-.3-.39-.05-.17-.1-.35-.16-.51-.1-.29-.19-.59-.28-.89-.09-.3-.19-.6-.28-.89-.31-.88-.6-1.77-.88-2.67-.28-.9-.57-1.79-.88-2.69-.13-.41-.25-.81-.37-1.21-.12-.4-.25-.79-.39-1.19-.06-.13-.1-.25-.13-.38-.03-.13-.07-.25-.13-.38-.13-.39-.25-.78-.37-1.17-.12-.38-.25-.77-.39-1.17-.03-.13-.06-.25-.1-.37s-.08-.24-.13-.37c-.01-.07-.02-.14-.03-.21,0-.07,0-.13.03-.19.04-.1.13-.16.27-.19.03-.01.06-.02.09-.01.03,0,.07,0,.09,0Z"/>
      <path d="M42,22.44h9.68c.17,0,.33,0,.48.02.15.01.27.07.34.17.03.04.05.09.05.15s.02.11.05.17v.23c.01.1.02.2.01.32s-.01.22-.01.31c0,.11,0,.22.01.33,0,.1,0,.21-.01.3-.01.07-.02.17-.02.31-.04.17-.11.28-.21.34-.08.06-.19.08-.31.08h-5.65c-.11,0-.24,0-.39-.01-.15,0-.29,0-.44,0-.15,0-.28.02-.41.04-.13.02-.22.05-.27.09-.1.07-.16.17-.18.3s-.03.28-.03.45v1.81c.03.11.06.21.08.28.03.08.08.14.15.18.08.06.18.09.29.09.11,0,.23,0,.36,0h4.75c.1,0,.22,0,.37,0,.15,0,.29,0,.43,0,.14,0,.27.02.39.03.12.01.21.04.26.08.07.04.12.13.15.25.03.13.04.26.05.41,0,.15,0,.3,0,.45,0,.15-.01.29-.01.4v.29c0,.1-.01.18-.04.25-.03.11-.08.2-.17.27-.07.04-.16.07-.28.08-.12.01-.25.02-.4.02s-.29,0-.44,0c-.15,0-.27-.01-.37-.01h-4.1c-.17,0-.33,0-.48-.01-.15,0-.3,0-.43.02-.13.02-.25.06-.34.13-.09.06-.16.16-.2.28-.01.07-.02.14-.02.22v2.19c0,.17.01.32.03.45.02.13.08.23.18.3.04.04.09.07.16.07.06,0,.13.02.2.05h.21c.07.01.15.02.23.01s.16-.01.23-.01h6.27c.1,0,.2.02.28.06.11.04.19.12.23.23.03.07.05.15.05.25,0,.1.01.2.01.32v.97c0,.17,0,.33-.02.47-.01.15-.08.25-.19.33-.08.07-.19.1-.33.1h-9.88c-.2,0-.37,0-.51-.03-.15-.02-.26-.09-.33-.2-.06-.08-.08-.19-.08-.33v-13.87c0-.13.03-.22.08-.29.06-.1.16-.17.31-.21.03-.01.06-.02.08-.01.03,0,.06,0,.08,0Z"/>
      <path d="M68.69,22.44h2.14c.18,0,.36,0,.54,0,.17,0,.32.05.43.12.04.03.07.07.09.14.02.06.04.13.05.2v.1c.01.06.02.12.02.19v1.03c0,.1,0,.19.01.28,0,.09,0,.18-.03.26-.07.24-.21.36-.42.38s-.46.02-.76.02h-2.14c-.28,0-.52.01-.72.03-.2.02-.34.15-.41.39-.01.07-.01.13,0,.19.01.06,0,.12-.02.19-.01.08-.02.18-.01.28,0,.1.01.2.01.28v9.89c0,.22-.01.42-.03.58s-.11.28-.26.35c-.1.03-.21.04-.34.04h-1.79c-.15,0-.3,0-.43-.02-.13-.01-.23-.06-.3-.15-.07-.11-.1-.25-.1-.43v-10.26c0-.1,0-.2.01-.3,0-.1,0-.2-.03-.28-.01-.07-.01-.13,0-.19.01-.06,0-.11-.02-.17-.07-.24-.21-.37-.43-.39-.22-.02-.47-.03-.77-.03h-1.95c-.15,0-.33,0-.51.01s-.34,0-.45-.03c-.11-.04-.2-.11-.25-.19-.04-.07-.07-.16-.07-.27,0-.11-.01-.22-.01-.34v-1.03c0-.18.01-.34.03-.48.02-.14.09-.24.2-.31.04-.03.12-.06.23-.08h8.51Z"/>
      <path d="M74.26,22.46h1.81c.15,0,.3,0,.44.01.14,0,.24.06.31.16.07.1.11.22.12.38,0,.15.01.32.01.5v12.56c0,.18,0,.38.01.61,0,.22-.02.39-.09.5-.06.1-.18.18-.38.23-.1.03-.2.04-.32.02-.11-.01-.22-.02-.34-.02h-1.24c-.15,0-.3,0-.43-.02-.13-.01-.24-.06-.33-.13-.07-.07-.11-.17-.13-.31-.01-.14-.02-.29-.02-.44v-12.56c0-.2,0-.43-.01-.69,0-.27.02-.45.09-.57.06-.08.15-.15.27-.21.04,0,.08,0,.12-.01.03,0,.07-.01.09-.01Z"/>
      <path d="M80.51,22.44h3.43c.23,0,.41.05.54.15.1.07.17.17.21.3s.08.26.13.39c.08.22.16.45.24.68.08.23.16.46.24.7.32.88.63,1.78.91,2.69s.6,1.81.93,2.71c.11.28.21.57.29.86s.18.58.29.86c.03.07.06.14.08.21.03.07.08.13.15.17.03.01.06.03.08.04.03.01.06,0,.08-.02.11-.03.19-.11.23-.25.04-.14.08-.27.13-.38.11-.32.21-.64.3-.96.09-.32.19-.63.3-.96.28-.85.56-1.71.84-2.57.28-.86.56-1.72.84-2.59.07-.22.14-.44.21-.66.07-.22.14-.44.21-.66.04-.11.08-.22.13-.34s.12-.2.23-.27c.08-.07.19-.1.33-.1h3.61c.13,0,.23.03.3.08.15.08.23.24.23.47v13.49c0,.15,0,.3-.01.45,0,.15-.05.26-.14.33-.08.07-.19.11-.31.12-.13,0-.27,0-.42,0h-1.57c-.11-.03-.21-.05-.28-.06-.08-.01-.14-.06-.2-.15-.06-.07-.08-.16-.08-.27v-6.83c-.01-.2-.02-.38-.02-.56v-.54c0-.11,0-.23.01-.35,0-.12,0-.23-.03-.35-.03-.1-.04-.2-.04-.31s-.04-.18-.13-.21c-.04-.01-.07,0-.09.02-.02.03-.04.05-.05.06-.06.06-.1.12-.14.2-.04.08-.07.15-.09.22-.08.21-.16.43-.24.65-.08.22-.16.45-.24.67-.03.08-.05.17-.07.25s-.05.17-.09.25c-.07.18-.13.36-.19.55-.06.18-.12.36-.19.55-.03.04-.04.09-.04.14s-.01.09-.04.14c-.06.13-.1.26-.14.4s-.09.28-.16.42c-.06.13-.1.26-.14.4-.04.14-.08.28-.14.42-.17.41-.31.82-.44,1.23-.13.41-.27.82-.42,1.23-.03.04-.04.08-.04.13s-.01.08-.04.13c-.07.15-.13.31-.17.47s-.1.32-.17.47c-.04.1-.08.19-.12.27-.04.08-.09.15-.16.21-.07.06-.14.09-.21.09-.07,0-.15.02-.25.05h-.48c-.1,0-.21,0-.35.01-.13,0-.27.01-.4.01s-.26,0-.37-.02c-.11-.01-.2-.04-.25-.08-.11-.07-.19-.15-.23-.24-.04-.09-.09-.2-.15-.33-.07-.17-.13-.34-.18-.51-.05-.17-.11-.35-.18-.51l-.06-.19c-.07-.17-.13-.35-.19-.54-.06-.19-.12-.37-.19-.54-.01-.04-.02-.08-.03-.12,0-.04-.02-.07-.03-.12-.07-.13-.13-.26-.17-.4s-.09-.28-.15-.42c-.01-.03-.02-.06-.03-.11,0-.04-.02-.08-.03-.1-.06-.14-.1-.28-.14-.42-.04-.14-.09-.28-.16-.42-.11-.28-.22-.57-.31-.88-.1-.31-.2-.61-.31-.9-.13-.35-.25-.71-.36-1.07-.11-.36-.25-.71-.4-1.05-.07-.2-.15-.36-.23-.48-.03-.03-.06-.05-.08-.07-.03-.02-.06-.02-.1.01-.07.04-.1.11-.1.21s-.01.2-.04.29c-.03.1-.04.2-.03.3,0,.1.01.21.01.33v.46c0,.15,0,.31-.02.46v6.95c0,.11-.03.2-.08.27-.06.1-.16.16-.31.19-.1.03-.2.04-.32.03-.11,0-.22-.01-.34-.01h-1.09c-.15,0-.29,0-.42,0s-.23-.05-.31-.12c-.08-.07-.13-.18-.15-.33-.01-.15-.02-.3-.02-.45v-13.25c0-.11,0-.22.02-.33.01-.1.03-.18.06-.24.06-.1.17-.17.34-.21.03-.01.06-.02.08-.01.03,0,.06,0,.08,0Z"/>
      <path d="M99.52,22.44h9.68c.17,0,.33,0,.48.02.15.01.27.07.34.17.03.04.05.09.05.15s.02.11.05.17v.23c.01.1.02.2.01.32s-.01.22-.01.31c0,.11,0,.22.01.33,0,.1,0,.21-.01.3-.01.07-.02.17-.02.31-.04.17-.11.28-.21.34-.08.06-.19.08-.31.08h-5.65c-.11,0-.24,0-.39-.01-.15,0-.29,0-.44,0-.15,0-.28.02-.41.04-.13.02-.22.05-.27.09-.1.07-.16.17-.18.3s-.03.28-.03.45v1.81c.03.11.06.21.08.28.03.08.08.14.15.18.08.06.18.09.29.09.11,0,.23,0,.36,0h4.75c.1,0,.22,0,.37,0,.15,0,.29,0,.43,0,.14,0,.27.02.39.03.12.01.21.04.26.08.07.04.12.13.15.25.03.13.04.26.05.41,0,.15,0,.3,0,.45,0,.15-.01.29-.01.4v.29c0,.1-.01.18-.04.25-.03.11-.08.2-.17.27-.07.04-.16.07-.28.08-.12.01-.25.02-.4.02s-.29,0-.44,0c-.15,0-.27-.01-.37-.01h-4.1c-.17,0-.33,0-.48-.01-.15,0-.3,0-.43.02-.13.02-.25.06-.34.13-.09.06-.16.16-.2.28-.01.07-.02.14-.02.22v2.19c0,.17.01.32.03.45.02.13.08.23.18.3.04.04.09.07.16.07.06,0,.13.02.2.05h.21c.07.01.15.02.23.01s.16-.01.23-.01h6.27c.1,0,.2.02.28.06.11.04.19.12.23.23.03.07.05.15.05.25,0,.1.01.2.01.32v.97c0,.17,0,.33-.02.47-.01.15-.08.25-.19.33-.08.07-.19.1-.33.1h-9.88c-.2,0-.37,0-.51-.03-.15-.02-.26-.09-.33-.2-.06-.08-.08-.19-.08-.33v-13.87c0-.13.03-.22.08-.29.06-.1.16-.17.31-.21.03-.01.06-.02.08-.01.03,0,.06,0,.08,0Z"/>
      <path d="M131.08,36.4c.01.06.04.13.07.21.03.08.06.17.08.26s.02.18.01.26c-.01.08-.06.15-.15.19-.11.07-.3.1-.56.08-.26-.01-.47-.02-.64-.02h-.99c-.11,0-.21,0-.3.01-.09,0-.18,0-.26-.03-.15-.04-.27-.13-.34-.25-.07-.11-.12-.23-.16-.36-.04-.13-.08-.25-.14-.38-.07-.22-.14-.45-.22-.67-.08-.22-.16-.44-.24-.65-.04-.13-.08-.24-.12-.35-.04-.11-.07-.2-.12-.28s-.1-.16-.19-.22c-.08-.06-.2-.11-.34-.14-.07,0-.14,0-.2-.01-.06,0-.13-.01-.2-.01h-3.32c-.24,0-.49,0-.77,0-.27,0-.49.04-.64.16-.11.08-.19.2-.23.34s-.09.28-.15.42c-.11.24-.21.49-.28.75-.08.26-.16.51-.26.77-.06.14-.11.29-.16.44-.05.15-.13.27-.24.36-.07.06-.17.09-.3.12-.13.02-.28.03-.44.03s-.33,0-.49-.01c-.17,0-.31-.01-.44-.01-.18,0-.4,0-.66.01-.26,0-.44-.02-.56-.09-.07-.04-.11-.1-.12-.19,0-.08,0-.17.02-.26.02-.09.04-.18.07-.26.03-.08.06-.15.08-.21.14-.32.27-.65.39-.99.12-.34.24-.67.37-.99.06-.11.1-.22.13-.34.03-.11.07-.22.13-.34.11-.29.22-.59.34-.9.11-.31.22-.61.34-.9.11-.28.22-.56.31-.83.1-.27.2-.55.31-.83.32-.77.62-1.55.89-2.33s.57-1.56.89-2.33c.03-.07.05-.13.06-.19.01-.06.03-.12.06-.19.11-.29.22-.59.34-.9.11-.31.23-.61.36-.9.07-.15.13-.31.18-.47.05-.16.14-.29.26-.39.07-.04.16-.08.27-.11.03-.01.06-.02.08-.01.03,0,.06,0,.08,0h1.85c.15,0,.31,0,.47-.01.16,0,.29.02.39.09.15.08.26.21.3.37.05.16.11.33.18.49.1.24.19.47.27.7.08.23.17.46.27.7.03.08.06.17.08.25.03.08.06.17.08.25.11.28.22.56.31.83.1.27.2.55.31.83.28.7.54,1.41.79,2.12.24.71.51,1.42.81,2.12.03.06.04.11.05.16,0,.05.02.1.05.16.08.22.17.45.25.67.08.22.17.45.25.67.06.11.1.22.13.33.03.1.06.21.1.33.18.45.35.9.5,1.34.15.45.32.89.5,1.32.03.04.04.08.04.12s.01.07.04.12ZM125.64,31.59c.18-.07.27-.19.25-.36-.01-.17-.06-.33-.13-.48-.03-.06-.04-.11-.04-.16s-.01-.1-.04-.16c-.18-.48-.35-.96-.5-1.45-.15-.49-.33-.98-.52-1.47-.03-.07-.06-.16-.08-.26-.03-.11-.06-.2-.1-.29s-.09-.17-.15-.24c-.06-.07-.13-.1-.21-.1-.03.03-.06.05-.08.06-.03.01-.06.04-.08.06-.11.14-.19.31-.24.5-.05.2-.11.39-.18.57-.17.39-.32.79-.45,1.2-.13.41-.28.81-.43,1.22-.06.14-.1.28-.15.41s-.08.28-.13.43c-.04.11-.04.24.02.38.07.1.19.15.35.17.16.01.33.02.49.02h2.02c.15,0,.29-.01.4-.04Z"/>
      <path d="M133.37,22.44h1.7c.15,0,.3,0,.45-.01s.28.02.39.07c.14.06.25.14.33.25.08.11.15.22.22.34l.76,1.2c.49.8.98,1.59,1.48,2.38s.99,1.58,1.48,2.38c.24.38.47.76.7,1.14.23.39.47.76.72,1.12.06.08.11.17.16.25.05.08.12.16.2.23.03.03.06.06.1.08.04.03.08.03.13,0,.1-.03.15-.09.15-.19s.01-.2.04-.32c.01-.1.02-.21.01-.33,0-.12-.01-.23-.01-.35v-6.99c0-.07,0-.14-.01-.21,0-.07,0-.13.01-.19v-.23c0-.2.04-.35.13-.46.07-.1.16-.15.28-.17.12-.01.26-.02.41-.02h1.62c.11,0,.21.01.29.04.18.07.28.19.29.37s.02.38.02.62v12.87c0,.15,0,.31.01.46,0,.15-.02.27-.07.36s-.12.14-.2.16c-.08.02-.17.05-.28.07h-2.26c-.12,0-.22-.02-.3-.06-.15-.07-.27-.16-.36-.28s-.17-.25-.25-.39c-.13-.2-.25-.4-.37-.6s-.24-.4-.37-.6l-3.15-5.04c-.2-.32-.39-.63-.58-.93-.19-.3-.38-.61-.58-.93-.07-.1-.15-.22-.24-.37-.09-.15-.21-.22-.37-.22-.11.1-.17.21-.18.34,0,.13-.01.29-.01.48v7.31c0,.07,0,.14.01.21,0,.07,0,.14-.03.21v.23c0,.22-.04.38-.1.48-.07.08-.17.13-.28.15-.12.01-.26.02-.41.02h-1.62c-.11,0-.21-.01-.29-.04-.18-.07-.28-.2-.3-.38-.02-.18-.03-.39-.03-.63v-13.27c0-.17.03-.3.08-.4.06-.1.15-.17.29-.21.03,0,.06,0,.09-.01.03,0,.07,0,.09,0Z"/>
      <path d="M161.57,29.43s0,.1.01.17c0,.07.01.15.01.23s0,.16-.01.23c0,.07-.01.12-.01.15,0,.1,0,.19-.01.28,0,.09-.01.18-.01.26-.03.07-.04.14-.03.21,0,.07,0,.14-.01.21-.03.15-.05.31-.06.46-.01.15-.04.31-.08.46-.07.24-.13.47-.19.68-.06.22-.13.43-.21.64-.24.59-.53,1.12-.88,1.6-.35.48-.77.88-1.26,1.22-.28.2-.57.36-.87.5-.3.14-.63.27-.98.38-.14.04-.28.07-.43.09-.15.02-.3.05-.45.09-.07.01-.14.02-.2.02s-.13,0-.2.02c-.06.01-.11.02-.17.01-.06,0-.12,0-.19.01-.03.01-.07.02-.13.01-.06,0-.1,0-.13,0-.11.03-.25.04-.42.02s-.31-.02-.44-.02h-4.89c-.24,0-.44,0-.6-.03-.16-.02-.28-.12-.35-.28-.04-.11-.06-.28-.05-.51,0-.23.01-.42.01-.58v-12.33c0-.17,0-.35-.01-.54,0-.19.02-.34.09-.45.06-.08.16-.15.31-.21.03-.01.06-.02.08-.01.03,0,.06,0,.08,0h5.65c.08,0,.17,0,.26-.01.09,0,.17,0,.24.01h.25c.07.03.15.04.23.03s.16,0,.23.03c.08.03.16.04.24.03.08,0,.16,0,.24.03.2.04.38.08.57.12.18.04.36.09.52.16.15.07.31.13.46.19.15.06.3.13.44.21.35.22.67.44.97.65l.13.13c.14.11.27.24.38.38l.19.17c.07.11.15.22.24.33.09.1.17.21.24.33.18.29.34.61.48.93s.27.68.38,1.04c.07.18.12.37.14.57.02.2.05.39.09.59,0,.07,0,.13.01.18,0,.05.01.1.01.16.03.08.04.18.03.27,0,.1,0,.18.03.25v.23ZM158.3,30.44c.03-.07.04-.18.04-.34s-.01-.27-.04-.34v-.4c-.03-.13-.05-.26-.05-.4,0-.14-.02-.27-.05-.38-.03-.07-.04-.14-.03-.2,0-.06,0-.13-.03-.2-.07-.22-.14-.44-.2-.64s-.15-.4-.26-.58c-.21-.34-.45-.63-.72-.87s-.61-.45-1-.62c-.13-.04-.25-.08-.38-.12-.13-.03-.25-.07-.38-.09-.11-.01-.21-.02-.3-.03-.09,0-.19-.02-.3-.05-.06-.01-.11-.02-.17-.01-.06,0-.1,0-.15-.01h-.46c-.07-.01-.15-.02-.23-.01-.08,0-.17.01-.25.01h-.94s-.07.04-.14.02-.12-.01-.16,0c-.07.03-.14.05-.21.07-.07.02-.13.07-.17.14-.06.07-.08.17-.08.29v.42c0,.18,0,.37-.01.57,0,.2-.01.39-.01.59v5.86c0,.08,0,.18-.01.27s0,.18.03.25v.21c0,.1,0,.19.01.28,0,.09.02.17.05.24.08.17.24.26.48.26.24,0,.48.01.73.01.55,0,1.1,0,1.66-.01.56,0,1.04-.09,1.43-.24.52-.21.93-.49,1.23-.84.3-.35.56-.78.77-1.3.06-.11.1-.24.13-.38.03-.14.06-.28.1-.42v-.17c.03-.1.04-.2.04-.31s.01-.22.04-.34v-.21Z"/>
      <path d="M1.76,42.44h3.43c.23,0,.41.05.54.15.1.07.17.17.21.3s.08.26.13.39c.08.22.16.45.24.68.08.23.16.46.24.7.32.88.63,1.78.91,2.69s.6,1.81.93,2.71c.11.28.21.57.29.86s.18.58.29.86c.03.07.06.14.08.21.03.07.08.13.15.17.03.01.06.03.08.04.03.01.06,0,.08-.02.11-.03.19-.11.23-.25.04-.14.08-.27.13-.38.11-.32.21-.64.3-.96.09-.32.19-.63.3-.96.28-.85.56-1.71.84-2.57.28-.86.56-1.72.84-2.59.07-.22.14-.44.21-.66.07-.22.14-.44.21-.66.04-.11.08-.22.13-.34s.12-.2.23-.27c.08-.07.19-.1.33-.1h3.61c.13,0,.23.03.3.08.15.08.23.24.23.47v13.49c0,.15,0,.3-.01.45,0,.15-.05.26-.14.33-.08.07-.19.11-.31.12-.13,0-.27,0-.42,0h-1.57c-.11-.03-.21-.05-.28-.06-.08-.01-.14-.06-.2-.15-.06-.07-.08-.16-.08-.27v-6.83c-.01-.2-.02-.38-.02-.56v-.54c0-.11,0-.23.01-.35,0-.12,0-.23-.03-.35-.03-.1-.04-.2-.04-.31s-.04-.18-.13-.21c-.04-.01-.07,0-.09.02-.02.03-.04.05-.05.06-.06.06-.1.12-.14.2-.04.08-.07.15-.09.22-.08.21-.16.43-.24.65-.08.22-.16.45-.24.67-.03.08-.05.17-.07.25s-.05.17-.09.25c-.07.18-.13.36-.19.55-.06.18-.12.36-.19.55-.03.04-.04.09-.04.14s-.01.09-.04.14c-.06.13-.1.26-.14.4s-.09.28-.16.42c-.06.13-.1.26-.14.4-.04.14-.08.28-.14.42-.17.41-.31.82-.44,1.23-.13.41-.27.82-.42,1.23-.03.04-.04.08-.04.13s-.01.08-.04.13c-.07.15-.13.31-.17.47s-.1.32-.17.47c-.04.1-.08.19-.12.27-.04.08-.09.15-.16.21-.07.06-.14.09-.21.09-.07,0-.15.02-.25.05h-.48c-.1,0-.21,0-.35.01-.13,0-.27.01-.4.01s-.26,0-.37-.02c-.11-.01-.2-.04-.25-.08-.11-.07-.19-.15-.23-.24-.04-.09-.09-.2-.15-.33-.07-.17-.13-.34-.18-.51-.05-.17-.11-.35-.18-.51l-.06-.19c-.07-.17-.13-.35-.19-.54-.06-.19-.12-.37-.19-.54-.01-.04-.02-.08-.03-.12,0-.04-.02-.07-.03-.12-.07-.13-.13-.26-.17-.4s-.09-.28-.15-.42c-.01-.03-.02-.06-.03-.11,0-.04-.02-.08-.03-.1-.06-.14-.1-.28-.14-.42-.04-.14-.09-.28-.16-.42-.11-.28-.22-.57-.31-.88-.1-.31-.2-.61-.31-.9-.13-.35-.25-.71-.36-1.07-.11-.36-.25-.71-.4-1.05-.07-.2-.15-.36-.23-.48-.03-.03-.06-.05-.08-.07-.03-.02-.06-.02-.1.01-.07.04-.1.11-.1.21s-.01.2-.04.29c-.03.1-.04.2-.03.3,0,.1.01.21.01.33v.46c0,.15,0,.31-.02.46v6.95c0,.11-.03.2-.08.27-.06.1-.16.16-.31.19-.1.03-.2.04-.32.03-.11,0-.22-.01-.34-.01h-1.09c-.15,0-.29,0-.42,0s-.23-.05-.31-.12c-.08-.07-.13-.18-.15-.33-.01-.15-.02-.3-.02-.45v-13.25c0-.11,0-.22.02-.33.01-.1.03-.18.06-.24.06-.1.17-.17.34-.21.03-.01.06-.02.08-.01.03,0,.06,0,.08,0Z"/>
      <path d="M34.25,49.41c.03.08.05.23.05.43,0,.2,0,.35-.03.43v.27c-.03.14-.04.29-.04.44s-.01.31-.04.46c-.03.1-.05.2-.06.29-.01.1-.04.2-.06.29-.07.25-.14.5-.2.74s-.14.47-.24.69c-.42.98-.99,1.8-1.7,2.45-.71.65-1.6,1.15-2.65,1.5-.15.06-.31.1-.46.13-.15.03-.31.06-.46.08-.07.03-.14.04-.22.04s-.15,0-.22.02l-.69.06c-.06.01-.15.02-.29.01-.14,0-.23-.02-.27-.03-.07-.01-.14-.02-.2-.01-.06,0-.13,0-.2-.01h-.23c-.11-.03-.22-.05-.31-.05-.1,0-.2-.02-.31-.05-.11-.03-.22-.05-.34-.07-.11-.02-.22-.04-.34-.07-.15-.06-.31-.11-.47-.17-.16-.06-.32-.12-.47-.19-.84-.36-1.55-.85-2.13-1.46-.58-.61-1.05-1.33-1.42-2.17-.08-.2-.15-.4-.21-.62-.06-.22-.12-.44-.19-.66-.03-.07-.04-.13-.04-.18s0-.1-.02-.16c-.03-.1-.05-.2-.06-.3-.01-.11-.04-.21-.06-.33-.01-.07-.02-.14-.01-.2,0-.06,0-.12-.03-.18-.01-.08-.01-.17,0-.26.01-.09.01-.18,0-.26-.03-.07-.04-.18-.04-.33s.01-.25.04-.33c.01-.07.01-.14,0-.2-.01-.06-.01-.13,0-.2v-.13c.03-.1.04-.19.03-.28,0-.09,0-.18.03-.26.03-.07.04-.14.04-.22s.01-.15.04-.22c.07-.24.13-.47.17-.7.04-.23.1-.46.19-.68.11-.24.22-.48.31-.71.1-.24.22-.46.36-.67.42-.67.9-1.23,1.45-1.68.55-.45,1.21-.83,2-1.16.18-.07.37-.13.58-.17.2-.04.4-.09.6-.15.07-.03.14-.04.2-.04s.13,0,.2-.02l.63-.06s.07-.01.12,0c.05.01.09.01.12,0,.99-.03,1.85.07,2.58.3.73.23,1.38.55,1.95.96.18.13.37.27.57.43.2.16.36.33.48.49.07.07.14.14.21.22.07.08.13.15.19.22.15.22.31.45.46.68.15.23.29.48.4.75.08.2.16.38.22.57.06.18.13.38.2.59.04.14.08.28.1.43.03.15.06.3.1.45.03.1.04.19.04.28s.01.18.04.26c.03.08.04.17.03.26,0,.09,0,.17.01.24v.17ZM31,50.29c.03-.07.04-.17.04-.3s-.01-.23-.04-.3v-.36c-.01-.06-.02-.11-.01-.16,0-.05,0-.1-.03-.16-.03-.11-.05-.22-.05-.33,0-.1-.02-.21-.05-.3,0-.07-.01-.15-.04-.23-.04-.15-.08-.31-.13-.46s-.1-.31-.17-.46c-.31-.71-.75-1.29-1.33-1.73-.58-.44-1.39-.66-2.43-.66-.03.01-.06.02-.09.01-.04,0-.07,0-.09.01-.06.01-.11.02-.17,0-.06,0-.12,0-.19.03-.15.03-.3.06-.45.09-.15.04-.28.08-.41.14-.59.25-1.05.6-1.4,1.05-.34.45-.62.99-.83,1.62-.04.15-.07.3-.09.45-.02.15-.05.3-.09.45-.01.06-.02.11-.02.16s0,.1-.02.16c-.03.07-.04.15-.02.23.01.08.01.16,0,.23-.03.07-.05.2-.05.39,0,.19,0,.32.03.39v.23c.01.06.02.12.02.18s0,.12.02.18c0,.06,0,.11.01.16,0,.05.01.1.01.16.04.15.07.31.09.46s.06.3.12.44c.15.45.34.87.57,1.25.22.38.5.7.84.93.07.07.14.13.22.17.08.04.16.08.24.13.15.1.32.17.49.23.17.06.36.11.56.17.07.03.14.04.2.03s.13,0,.2.01c.08.03.17.04.25.04h.44c.07-.01.13-.02.19-.01s.12,0,.19-.03c.14-.03.28-.05.42-.07.14-.02.27-.06.4-.12.6-.24,1.07-.55,1.42-.92.34-.38.63-.87.87-1.47.07-.15.12-.32.16-.5.03-.18.08-.36.14-.55l.06-.5c.01-.06.02-.12.02-.18v-.37Z"/>
      <path d="M37.13,42.44h1.7c.15,0,.3,0,.45-.01s.28.02.39.07c.14.06.25.14.33.25.08.11.15.22.22.34l.76,1.2c.49.8.98,1.59,1.48,2.38s.99,1.58,1.48,2.38c.24.38.47.76.7,1.14.23.39.47.76.72,1.12.06.08.11.17.16.25.05.08.12.16.2.23.03.03.06.06.1.08.04.03.08.03.13,0,.1-.03.15-.09.15-.19s.01-.2.04-.32c.01-.1.02-.21.01-.33,0-.12-.01-.23-.01-.35v-6.99c0-.07,0-.14-.01-.21,0-.07,0-.13.01-.19v-.23c0-.2.04-.35.13-.46.07-.1.16-.15.28-.17.12-.01.26-.02.41-.02h1.62c.11,0,.21.01.29.04.18.07.28.19.29.37s.02.38.02.62v12.87c0,.15,0,.31.01.46,0,.15-.02.27-.07.36s-.12.14-.2.16c-.08.02-.17.05-.28.07h-2.26c-.12,0-.22-.02-.3-.06-.15-.07-.27-.16-.36-.28s-.17-.25-.25-.39c-.13-.2-.25-.4-.37-.6s-.24-.4-.37-.6l-3.15-5.04c-.2-.32-.39-.63-.58-.93-.19-.3-.38-.61-.58-.93-.07-.1-.15-.22-.24-.37-.09-.15-.21-.22-.37-.22-.11.1-.17.21-.18.34,0,.13-.01.29-.01.48v7.31c0,.07,0,.14.01.21,0,.07,0,.14-.03.21v.23c0,.22-.04.38-.1.48-.07.08-.17.13-.28.15-.12.01-.26.02-.41.02h-1.62c-.11,0-.21-.01-.29-.04-.18-.07-.28-.2-.3-.38-.02-.18-.03-.39-.03-.63v-13.27c0-.17.03-.3.08-.4.06-.1.15-.17.29-.21.03,0,.06,0,.09-.01.03,0,.07,0,.09,0Z"/>
      <path d="M52.67,42.44h9.68c.17,0,.33,0,.48.02.15.01.27.07.34.17.03.04.05.09.05.15s.02.11.05.17v.23c.01.1.02.2.01.32s-.01.22-.01.31c0,.11,0,.22.01.33,0,.1,0,.21-.01.3-.01.07-.02.17-.02.31-.04.17-.11.28-.21.34-.08.06-.19.08-.31.08h-5.65c-.11,0-.24,0-.39-.01-.15,0-.29,0-.44,0-.15,0-.28.02-.41.04-.13.02-.22.05-.27.09-.1.07-.16.17-.18.3s-.03.28-.03.45v1.81c.03.11.06.21.08.28.03.08.08.14.15.18.08.06.18.09.29.09.11,0,.23,0,.36,0h4.75c.1,0,.22,0,.37,0,.15,0,.29,0,.43,0,.14,0,.27.02.39.03.12.01.21.04.26.08.07.04.12.13.15.25.03.13.04.26.05.41,0,.15,0,.3,0,.45,0,.15-.01.29-.01.4v.29c0,.1-.01.18-.04.25-.03.11-.08.2-.17.27-.07.04-.16.07-.28.08-.12.01-.25.02-.4.02s-.29,0-.44,0c-.15,0-.27-.01-.37-.01h-4.1c-.17,0-.33,0-.48-.01-.15,0-.3,0-.43.02-.13.02-.25.06-.34.13-.09.06-.16.16-.2.28-.01.07-.02.14-.02.22v2.19c0,.17.01.32.03.45.02.13.08.23.18.3.04.04.09.07.16.07.06,0,.13.02.2.05h.21c.07.01.15.02.23.01s.16-.01.23-.01h6.27c.1,0,.2.02.28.06.11.04.19.12.23.23.03.07.05.15.05.25,0,.1.01.2.01.32v.97c0,.17,0,.33-.02.47-.01.15-.08.25-.19.33-.08.07-.19.1-.33.1h-9.88c-.2,0-.37,0-.51-.03-.15-.02-.26-.09-.33-.2-.06-.08-.08-.19-.08-.33v-13.87c0-.13.03-.22.08-.29.06-.1.16-.17.31-.21.03-.01.06-.02.08-.01.03,0,.06,0,.08,0Z"/>
      <path d="M64.87,42.42h2.37c.18,0,.33.03.44.08.15.07.28.2.39.4s.21.36.3.5c.24.38.46.76.67,1.13s.43.76.67,1.13c.18.28.35.56.5.85.15.29.32.57.5.85.07.11.14.23.21.37.07.13.18.21.34.24.1.01.18-.02.25-.11.07-.08.13-.15.17-.21.13-.2.24-.39.35-.59.11-.2.22-.39.35-.59.29-.48.58-.96.86-1.44.28-.48.57-.97.86-1.46.11-.18.23-.39.36-.63.13-.24.29-.4.48-.48.13-.07.33-.1.6-.08s.51.02.7.02h1.18c.11,0,.23,0,.35.01.12,0,.21.03.28.07.11.07.14.18.08.33-.06.15-.1.26-.15.33-.17.28-.33.56-.49.83-.16.27-.33.55-.49.83-.48.76-.93,1.51-1.38,2.27s-.89,1.51-1.35,2.27c-.15.22-.3.45-.43.68-.13.23-.27.47-.41.7-.11.15-.21.31-.3.46-.09.15-.16.33-.22.52-.01.07-.02.14-.01.2,0,.06,0,.13-.01.2-.01.04-.02.09-.02.15v3.55c0,.27,0,.55.01.86,0,.31-.07.51-.24.61-.08.06-.19.08-.33.08h-1.86c-.15,0-.29,0-.42-.02-.13-.01-.22-.06-.29-.15-.07-.08-.1-.18-.1-.29s0-.25-.02-.4v-4.61c0-.09-.01-.17-.04-.24-.06-.21-.13-.4-.23-.57-.1-.17-.2-.33-.31-.48-.13-.22-.25-.44-.38-.66-.13-.22-.26-.44-.4-.66-.11-.15-.21-.32-.29-.49s-.18-.34-.29-.49c-.36-.57-.71-1.15-1.05-1.72s-.68-1.15-1.03-1.72c-.17-.28-.33-.55-.48-.81-.15-.26-.31-.53-.46-.81-.04-.06-.1-.15-.18-.28-.08-.13-.09-.25-.03-.35.03-.06.07-.09.12-.12.05-.02.1-.04.16-.05.03-.01.06-.02.08-.01.03,0,.06,0,.08-.01Z"/>
      <path d="M86.12,42.44h9.68c.17,0,.33,0,.48.02.15.01.27.07.34.17.03.04.05.09.05.15s.02.11.05.17v.23c.01.1.02.2.01.32s-.01.22-.01.31c0,.11,0,.22.01.33,0,.1,0,.21-.01.3-.01.07-.02.17-.02.31-.04.17-.11.28-.21.34-.08.06-.19.08-.31.08h-5.65c-.11,0-.24,0-.39-.01-.15,0-.29,0-.44,0-.15,0-.28.02-.41.04-.13.02-.22.05-.27.09-.1.07-.16.17-.18.3s-.03.28-.03.45v1.81c.03.11.06.21.08.28.03.08.08.14.15.18.08.06.18.09.29.09.11,0,.23,0,.36,0h4.75c.1,0,.22,0,.37,0,.15,0,.29,0,.43,0,.14,0,.27.02.39.03.12.01.21.04.26.08.07.04.12.13.15.25.03.13.04.26.05.41,0,.15,0,.3,0,.45,0,.15-.01.29-.01.4v.29c0,.1-.01.18-.04.25-.03.11-.08.2-.17.27-.07.04-.16.07-.28.08-.12.01-.25.02-.4.02s-.29,0-.44,0c-.15,0-.27-.01-.37-.01h-4.1c-.17,0-.33,0-.48-.01-.15,0-.3,0-.43.02-.13.02-.25.06-.34.13-.09.06-.16.16-.2.28-.01.07-.02.14-.02.22v2.19c0,.17.01.32.03.45.02.13.08.23.18.3.04.04.09.07.16.07.06,0,.13.02.2.05h.21c.07.01.15.02.23.01s.16-.01.23-.01h6.27c.1,0,.2.02.28.06.11.04.19.12.23.23.03.07.05.15.05.25,0,.1.01.2.01.32v.97c0,.17,0,.33-.02.47-.01.15-.08.25-.19.33-.08.07-.19.1-.33.1h-9.88c-.2,0-.37,0-.51-.03-.15-.02-.26-.09-.33-.2-.06-.08-.08-.19-.08-.33v-13.87c0-.13.03-.22.08-.29.06-.1.16-.17.31-.21.03-.01.06-.02.08-.01.03,0,.06,0,.08,0Z"/>
      <path d="M98.26,42.44h2.17c.16,0,.29.04.39.1.13.07.21.18.25.34.04.15.09.31.15.46.1.27.19.53.26.8.08.27.16.54.26.82.28.87.56,1.74.83,2.6s.55,1.74.83,2.6c.07.24.14.48.22.71.08.24.15.48.22.71l.13.38c.04.13.1.24.17.34.01.03.03.04.05.05.02,0,.05.02.07.05.15,0,.26-.07.3-.2.05-.13.09-.26.14-.37.11-.29.21-.59.29-.9s.18-.62.29-.95c.31-.92.61-1.84.89-2.76.29-.92.58-1.84.89-2.76.07-.22.14-.44.21-.66.07-.22.14-.44.21-.66.06-.11.1-.22.14-.34s.11-.2.22-.27c.1-.07.21-.1.35-.1h2.24c.14,0,.25.03.34.08.14.07.19.2.15.39-.04.19-.08.35-.13.47-.13.32-.24.66-.35,1s-.21.68-.33,1.02c-.04.08-.07.17-.09.25s-.05.17-.07.25c-.11.29-.21.59-.3.9-.09.31-.19.62-.3.92-.38,1.13-.76,2.27-1.13,3.41-.38,1.14-.76,2.28-1.13,3.41-.13.32-.24.65-.34.98-.1.33-.2.66-.31.98-.07.2-.14.38-.21.54-.07.16-.21.27-.42.33-.11.03-.24.04-.38.03-.14,0-.27-.01-.4-.01h-1.51c-.15,0-.32,0-.49.01-.18,0-.32-.02-.43-.09-.15-.08-.26-.21-.3-.39-.05-.17-.1-.35-.16-.51-.1-.29-.19-.59-.28-.89-.09-.3-.19-.6-.28-.89-.31-.88-.6-1.77-.88-2.67-.28-.9-.57-1.79-.88-2.69-.13-.41-.25-.81-.37-1.21-.12-.4-.25-.79-.39-1.19-.06-.13-.1-.25-.13-.38-.03-.13-.07-.25-.13-.38-.13-.39-.25-.78-.37-1.17-.12-.38-.25-.77-.39-1.17-.03-.13-.06-.25-.1-.37s-.08-.24-.13-.37c-.01-.07-.02-.14-.03-.21,0-.07,0-.13.03-.19.04-.1.13-.16.27-.19.03-.01.06-.02.09-.01.03,0,.07,0,.09,0Z"/>
      <path d="M112.96,42.44h9.68c.17,0,.33,0,.48.02.15.01.27.07.34.17.03.04.05.09.05.15s.02.11.05.17v.23c.01.1.02.2.01.32s-.01.22-.01.31c0,.11,0,.22.01.33,0,.1,0,.21-.01.3-.01.07-.02.17-.02.31-.04.17-.11.28-.21.34-.08.06-.19.08-.31.08h-5.65c-.11,0-.24,0-.39-.01-.15,0-.29,0-.44,0-.15,0-.28.02-.41.04-.13.02-.22.05-.27.09-.1.07-.16.17-.18.3s-.03.28-.03.45v1.81c.03.11.06.21.08.28.03.08.08.14.15.18.08.06.18.09.29.09.11,0,.23,0,.36,0h4.75c.1,0,.22,0,.37,0,.15,0,.29,0,.43,0,.14,0,.27.02.39.03.12.01.21.04.26.08.07.04.12.13.15.25.03.13.04.26.05.41,0,.15,0,.3,0,.45,0,.15-.01.29-.01.4v.29c0,.1-.01.18-.04.25-.03.11-.08.2-.17.27-.07.04-.16.07-.28.08-.12.01-.25.02-.4.02s-.29,0-.44,0c-.15,0-.27-.01-.37-.01h-4.1c-.17,0-.33,0-.48-.01-.15,0-.3,0-.43.02-.13.02-.25.06-.34.13-.09.06-.16.16-.2.28-.01.07-.02.14-.02.22v2.19c0,.17.01.32.03.45.02.13.08.23.18.3.04.04.09.07.16.07.06,0,.13.02.2.05h.21c.07.01.15.02.23.01s.16-.01.23-.01h6.27c.1,0,.2.02.28.06.11.04.19.12.23.23.03.07.05.15.05.25,0,.1.01.2.01.32v.97c0,.17,0,.33-.02.47-.01.15-.08.25-.19.33-.08.07-.19.1-.33.1h-9.88c-.2,0-.37,0-.51-.03-.15-.02-.26-.09-.33-.2-.06-.08-.08-.19-.08-.33v-13.87c0-.13.03-.22.08-.29.06-.1.16-.17.31-.21.03-.01.06-.02.08-.01.03,0,.06,0,.08,0Z"/>
      <path d="M138.62,56.93c.03.08.02.16-.01.23-.04.07-.07.12-.12.15-.08.07-.2.1-.35.09-.15,0-.3-.01-.45-.01h-1.15c-.22,0-.42,0-.59-.03-.17-.02-.29-.1-.38-.24-.11-.18-.18-.41-.19-.67-.01-.27-.05-.52-.1-.76,0-.06,0-.11-.01-.16,0-.05-.01-.09-.01-.14-.04-.17-.06-.35-.06-.54s-.01-.36-.04-.51c-.01-.04-.02-.1-.02-.19-.03-.15-.05-.31-.07-.47-.02-.16-.05-.32-.09-.47-.11-.32-.25-.61-.4-.86-.15-.25-.37-.44-.65-.57-.07-.03-.14-.05-.21-.06-.07-.01-.15-.03-.23-.06-.25-.08-.54-.13-.87-.13h-2.7c-.11.03-.21.05-.29.06-.08.01-.15.06-.21.13-.11.14-.16.36-.15.65.01.29.02.56.02.8v2.69c0,.11,0,.23-.01.35,0,.12-.01.23-.01.35v.3c0,.09-.01.17-.04.24-.04.13-.13.21-.25.25-.07.03-.15.04-.25.04h-1.26c-.22,0-.46,0-.71.01-.25,0-.44-.04-.57-.14-.11-.07-.17-.2-.17-.39v-13.33c0-.15,0-.31-.01-.48,0-.17.02-.3.09-.4.06-.08.16-.15.31-.21.03-.01.06-.02.09-.01.03,0,.07,0,.09,0h7.14c.22,0,.44,0,.64,0,.2,0,.4.03.58.07.07.03.14.04.22.04s.15.01.22.04c.1.03.2.06.29.08.1.03.2.06.29.1.35.15.67.34.97.57s.54.48.73.78c.06.07.1.14.14.22.03.08.08.15.14.22.11.2.2.4.25.61.06.21.12.44.19.69.01.06.02.11.01.17,0,.06,0,.11.03.17v.19c.03.11.04.25.02.41-.01.16-.04.29-.06.39-.03.11-.04.21-.04.3s-.01.19-.04.28c-.07.21-.14.41-.21.6-.07.19-.16.37-.27.54-.03.04-.06.09-.1.14-.04.05-.08.09-.1.14-.04.06-.09.11-.14.17-.05.06-.1.1-.16.15l-.25.21c-.08.07-.18.14-.27.21-.06.04-.11.09-.17.14-.06.05-.1.11-.13.18-.03.08-.01.15.04.21.06.06.1.1.15.13.14.11.28.22.42.34.14.11.26.25.36.4.17.24.3.48.4.73.1.25.19.54.27.86.03.13.05.26.05.4,0,.14.02.27.05.4,0,.08,0,.17.01.24,0,.08.01.16.01.24.01.06.02.12.01.18,0,.06,0,.13.01.2.01.06.02.11.01.17,0,.06,0,.12.01.19.03.14.04.29.04.44s.01.3.04.44l.06.38c.03.13.06.25.08.38s.06.25.08.36ZM135.16,47.46c.03-.15.03-.34.01-.57-.02-.22-.05-.39-.07-.5-.03-.06-.04-.1-.04-.15s-.01-.08-.04-.13c-.17-.43-.48-.75-.92-.95-.24-.11-.51-.17-.82-.19s-.63-.02-.97-.02h-2.44s-.06.04-.08.03c-.03,0-.06,0-.08,0-.17.04-.28.11-.34.21-.07.11-.1.25-.09.43,0,.17.01.35.01.51v2.46c0,.17.03.3.1.4.06.08.15.14.27.17s.27.05.42.06c.15.01.31.02.48.01.17,0,.31-.01.44-.01h1.24c.1,0,.2,0,.31.01.11,0,.21,0,.29-.03h.27c.11-.03.22-.04.33-.04s.21-.01.3-.04c.24-.07.45-.16.63-.27.18-.11.34-.26.46-.44.08-.13.15-.27.19-.42s.08-.33.13-.53Z"/>
      <path d="M139.54,42.42h2.37c.18,0,.33.03.44.08.15.07.28.2.39.4s.21.36.3.5c.24.38.46.76.67,1.13s.43.76.67,1.13c.18.28.35.56.5.85.15.29.32.57.5.85.07.11.14.23.21.37.07.13.18.21.34.24.1.01.18-.02.25-.11.07-.08.13-.15.17-.21.13-.2.24-.39.35-.59.11-.2.22-.39.35-.59.29-.48.58-.96.86-1.44.28-.48.57-.97.86-1.46.11-.18.23-.39.36-.63.13-.24.29-.4.48-.48.13-.07.33-.1.6-.08s.51.02.7.02h1.18c.11,0,.23,0,.35.01.12,0,.21.03.28.07.11.07.14.18.08.33-.06.15-.1.26-.15.33-.17.28-.33.56-.49.83-.16.27-.33.55-.49.83-.48.76-.93,1.51-1.38,2.27s-.89,1.51-1.35,2.27c-.15.22-.3.45-.43.68-.13.23-.27.47-.41.7-.11.15-.21.31-.3.46-.09.15-.16.33-.22.52-.01.07-.02.14-.01.2,0,.06,0,.13-.01.2-.01.04-.02.09-.02.15v3.55c0,.27,0,.55.01.86,0,.31-.07.51-.24.61-.08.06-.19.08-.33.08h-1.86c-.15,0-.29,0-.42-.02-.13-.01-.22-.06-.29-.15-.07-.08-.1-.18-.1-.29s0-.25-.02-.4v-4.61c0-.09-.01-.17-.04-.24-.06-.21-.13-.4-.23-.57-.1-.17-.2-.33-.31-.48-.13-.22-.25-.44-.38-.66-.13-.22-.26-.44-.4-.66-.11-.15-.21-.32-.29-.49s-.18-.34-.29-.49c-.36-.57-.71-1.15-1.05-1.72s-.68-1.15-1.03-1.72c-.17-.28-.33-.55-.48-.81-.15-.26-.31-.53-.46-.81-.04-.06-.1-.15-.18-.28-.08-.13-.09-.25-.03-.35.03-.06.07-.09.12-.12.05-.02.1-.04.16-.05.03-.01.06-.02.08-.01.03,0,.06,0,.08-.01Z"/>
      <path d="M173.46,49.43s0,.1.01.17c0,.07,0,.15,0,.23s0,.16,0,.23c0,.07-.01.12-.01.15,0,.1,0,.19,0,.28,0,.09,0,.18,0,.26-.03.07-.04.14-.03.21,0,.07,0,.14-.01.21-.03.15-.05.31-.06.46-.01.15-.04.31-.08.46-.07.24-.13.47-.19.68-.06.22-.12.43-.21.64-.24.59-.53,1.12-.88,1.6-.35.48-.77.88-1.26,1.22-.28.2-.57.36-.87.5-.3.14-.63.27-.98.38-.14.04-.28.07-.43.09-.15.02-.3.05-.45.09-.07.01-.14.02-.2.02s-.13,0-.2.02c-.06.01-.11.02-.17.01-.06,0-.12,0-.19.01-.03.01-.07.02-.13.01-.06,0-.1,0-.13,0-.11.03-.25.04-.42.02s-.31-.02-.44-.02h-4.89c-.24,0-.44,0-.6-.03-.16-.02-.28-.12-.35-.28-.04-.11-.06-.28-.05-.51,0-.23.01-.42.01-.58v-12.33c0-.17,0-.35-.01-.54,0-.19.02-.34.09-.45.06-.08.16-.15.31-.21.03-.01.06-.02.08-.01.03,0,.06,0,.08,0h5.65c.08,0,.17,0,.26-.01.09,0,.17,0,.24.01h.25c.07.03.15.04.23.03s.16,0,.23.03c.08.03.16.04.24.03.08,0,.16,0,.24.03.2.04.38.08.57.12.18.04.36.09.53.16.15.07.31.13.46.19s.3.13.44.21c.35.22.67.44.96.65l.13.13c.14.11.27.24.38.38l.19.17c.07.11.15.22.24.33.09.1.17.21.24.33.18.29.34.61.48.93.14.33.27.68.38,1.04.07.18.12.37.14.57.02.2.05.39.09.59,0,.07,0,.13.01.18,0,.05,0,.1,0,.16.03.08.04.18.03.27,0,.1,0,.18.03.25v.23ZM170.18,50.44c.03-.07.04-.18.04-.34s-.02-.27-.04-.34v-.4c-.03-.13-.04-.26-.05-.4,0-.14-.02-.27-.05-.38-.03-.07-.04-.14-.03-.2,0-.06,0-.13-.03-.2-.07-.22-.14-.44-.2-.64s-.15-.4-.26-.58c-.21-.34-.45-.63-.72-.87-.27-.25-.61-.45-1-.62-.13-.04-.25-.08-.38-.12-.12-.03-.25-.07-.38-.09-.11-.01-.21-.02-.3-.03-.09,0-.19-.02-.3-.05-.06-.01-.11-.02-.17-.01-.06,0-.1,0-.15-.01h-.46c-.07-.01-.15-.02-.23-.01-.08,0-.17.01-.25.01h-.94s-.07.04-.14.02-.12-.01-.16,0c-.07.03-.14.05-.21.07-.07.02-.13.07-.17.14-.06.07-.08.17-.08.29v.42c0,.18,0,.37-.01.57,0,.2-.01.39-.01.59v5.86c0,.08,0,.18-.01.27s0,.18.03.25v.21c0,.1,0,.19.01.28,0,.09.02.17.05.24.08.17.24.26.48.26.24,0,.48.01.73.01.55,0,1.1,0,1.66-.01.56,0,1.04-.09,1.43-.24.52-.21.93-.49,1.23-.84s.56-.78.77-1.3c.05-.11.1-.24.12-.38.03-.14.06-.28.11-.42v-.17c.03-.1.04-.2.04-.31s.01-.22.04-.34v-.21Z"/>
      <path d="M188.47,56.4c.01.06.04.13.07.21.04.08.06.17.08.26.02.09.02.18.01.26s-.06.15-.15.19c-.11.07-.3.1-.56.08-.26-.01-.47-.02-.64-.02h-.99c-.11,0-.21,0-.3.01-.09,0-.18,0-.26-.03-.15-.04-.27-.13-.34-.25-.07-.11-.12-.23-.16-.36s-.08-.25-.14-.38c-.07-.22-.14-.45-.22-.67-.08-.22-.16-.44-.24-.65-.04-.13-.08-.24-.12-.35-.04-.11-.07-.2-.12-.28s-.11-.16-.19-.22c-.08-.06-.2-.11-.34-.14-.07,0-.14,0-.2-.01-.06,0-.13-.01-.2-.01h-3.32c-.24,0-.49,0-.77,0-.27,0-.49.04-.64.16-.11.08-.19.2-.23.34s-.09.28-.15.42c-.11.24-.21.49-.28.75-.08.26-.17.51-.26.77-.06.14-.11.29-.16.44-.05.15-.13.27-.24.36-.07.06-.17.09-.3.12-.13.02-.28.03-.44.03s-.33,0-.49-.01c-.17,0-.32-.01-.44-.01-.18,0-.4,0-.66.01-.26,0-.44-.02-.56-.09-.07-.04-.11-.1-.12-.19,0-.08,0-.17.02-.26.02-.09.05-.18.07-.26.03-.08.06-.15.08-.21.14-.32.27-.65.39-.99s.24-.67.37-.99c.06-.11.1-.22.13-.34.03-.11.07-.22.13-.34.11-.29.22-.59.34-.9.11-.31.22-.61.34-.9.11-.28.22-.56.31-.83.1-.27.2-.55.32-.83.32-.77.62-1.55.89-2.33.27-.78.57-1.56.89-2.33.03-.07.05-.13.06-.19.01-.06.04-.12.06-.19.11-.29.22-.59.34-.9.11-.31.23-.61.36-.9.07-.15.13-.31.18-.47.05-.16.14-.29.26-.39.07-.04.16-.08.27-.11.03-.01.06-.02.08-.01.03,0,.06,0,.08,0h1.85c.15,0,.31,0,.47-.01.16,0,.29.02.39.09.15.08.25.21.3.37.05.16.11.33.18.49.1.24.19.47.27.7.08.23.17.46.27.7.03.08.06.17.08.25s.06.17.08.25c.11.28.22.56.32.83.1.27.2.55.32.83.28.7.54,1.41.79,2.12s.51,1.42.81,2.12c.03.06.04.11.05.16,0,.05.02.1.05.16.08.22.17.45.25.67.08.22.17.45.25.67.06.11.1.22.13.33.03.1.06.21.11.33.18.45.35.9.5,1.34.15.45.32.89.5,1.32.03.04.04.08.04.12s.01.07.04.12ZM183.04,51.59c.18-.07.27-.19.25-.36-.01-.17-.06-.33-.13-.48-.03-.06-.04-.11-.04-.16s-.01-.1-.04-.16c-.18-.48-.35-.96-.5-1.45-.15-.49-.33-.98-.53-1.47-.03-.07-.06-.16-.08-.26-.03-.11-.06-.2-.11-.29s-.09-.17-.15-.24c-.06-.07-.13-.1-.21-.1-.03.03-.06.05-.08.06-.03.01-.06.04-.08.06-.11.14-.19.31-.24.5-.05.2-.11.39-.18.57-.17.39-.32.79-.45,1.2-.13.41-.28.81-.43,1.22-.06.14-.11.28-.15.41s-.08.28-.13.43c-.04.11-.04.24.02.38.07.1.18.15.35.17s.33.02.49.02h2.02c.15,0,.29-.01.4-.04Z"/>
      <path d="M187.78,42.42h2.37c.18,0,.33.03.44.08.15.07.28.2.39.4.1.2.21.36.3.5.24.38.46.76.67,1.13s.43.76.67,1.13c.18.28.35.56.5.85.15.29.32.57.5.85.07.11.14.23.21.37.07.13.18.21.34.24.1.01.18-.02.25-.11s.13-.15.17-.21c.13-.2.24-.39.35-.59.11-.2.22-.39.35-.59.29-.48.58-.96.86-1.44.28-.48.57-.97.86-1.46.11-.18.23-.39.36-.63.13-.24.29-.4.48-.48.13-.07.33-.1.6-.08.27.01.51.02.7.02h1.18c.11,0,.23,0,.35.01.12,0,.21.03.28.07.11.07.14.18.08.33-.06.15-.1.26-.15.33-.17.28-.33.56-.49.83-.16.27-.33.55-.49.83-.48.76-.93,1.51-1.38,2.27-.44.76-.89,1.51-1.35,2.27-.15.22-.3.45-.43.68-.13.23-.27.47-.41.7-.11.15-.21.31-.3.46-.09.15-.16.33-.22.52-.01.07-.02.14-.01.2,0,.06,0,.13-.01.2-.01.04-.02.09-.02.15v3.55c0,.27,0,.55,0,.86,0,.31-.07.51-.24.61-.08.06-.19.08-.33.08h-1.86c-.15,0-.29,0-.42-.02-.13-.01-.22-.06-.29-.15-.07-.08-.11-.18-.11-.29s0-.25-.02-.4v-4.61c0-.09-.01-.17-.04-.24-.06-.21-.13-.4-.23-.57s-.2-.33-.32-.48c-.13-.22-.25-.44-.38-.66-.13-.22-.26-.44-.4-.66-.11-.15-.21-.32-.29-.49s-.18-.34-.29-.49c-.36-.57-.71-1.15-1.05-1.72-.34-.57-.68-1.15-1.03-1.72-.17-.28-.33-.55-.48-.81s-.31-.53-.46-.81c-.04-.06-.1-.15-.18-.28-.08-.13-.09-.25-.03-.35.03-.06.07-.09.12-.12.05-.02.1-.04.16-.05.03-.01.06-.02.08-.01.03,0,.06,0,.08-.01Z"/>
      <path d="M199.54,55.14v-.4c0-.14.03-.25.08-.32.06-.1.16-.17.31-.23.03,0,.06,0,.09.01s.07,0,.09-.01h2.13c.15,0,.27.04.37.1.08.07.13.17.15.29s.02.27.02.42v1.51c0,.15,0,.3-.02.43s-.06.23-.13.28c-.1.07-.22.11-.36.13-.14.01-.29.02-.44.02h-1.41c-.15,0-.3,0-.44-.02-.14-.01-.25-.06-.32-.15s-.11-.19-.13-.33c-.01-.13-.02-.28-.02-.43v-1.32Z"/>
      <path d="M8.97,62.44h2.14c.18,0,.36,0,.54,0,.17,0,.32.05.43.12.04.03.07.07.09.14.02.06.04.13.05.2v.1c.01.06.02.12.02.19v1.03c0,.1,0,.19.01.28,0,.09,0,.18-.03.26-.07.24-.21.36-.42.38s-.46.02-.76.02h-2.14c-.28,0-.52.01-.72.03-.2.02-.34.15-.41.39-.01.07-.01.13,0,.19.01.06,0,.12-.02.19-.01.08-.02.18-.01.28,0,.1.01.2.01.28v9.89c0,.22-.01.42-.03.58s-.11.28-.26.35c-.1.03-.21.04-.34.04h-1.79c-.15,0-.3,0-.43-.02-.13-.01-.23-.06-.3-.15-.07-.11-.1-.25-.1-.43v-10.26c0-.1,0-.2.01-.3,0-.1,0-.2-.03-.28-.01-.07-.01-.13,0-.19.01-.06,0-.11-.02-.17-.07-.24-.21-.37-.43-.39-.22-.02-.47-.03-.77-.03h-1.95c-.15,0-.33,0-.51.01s-.34,0-.45-.03c-.11-.04-.2-.11-.25-.19-.04-.07-.07-.16-.07-.27,0-.11-.01-.22-.01-.34v-1.03c0-.18.01-.34.03-.48.02-.14.09-.24.2-.31.04-.03.12-.06.23-.08h8.51Z"/>
      <path d="M14.57,62.44h1.68c.24,0,.44,0,.62.03.17.02.3.13.37.33.03.07.04.14.04.22v3.5c0,.24,0,.51-.02.81-.01.3.03.53.15.68.07.08.15.13.24.14.09,0,.19.02.3.05h4.03c.25,0,.51,0,.78-.01.27,0,.45-.09.55-.26.07-.13.1-.31.08-.57-.01-.25-.02-.48-.02-.67v-2.73c0-.21,0-.46-.01-.74,0-.28.04-.48.14-.59.04-.07.13-.12.26-.15.13-.03.28-.05.45-.05.17,0,.34,0,.5,0s.31.01.44.01c.24,0,.49,0,.75-.01.26,0,.45.05.58.16.1.07.15.19.15.35v13.93c0,.18-.05.31-.15.38-.13.11-.33.17-.6.16-.27,0-.53-.01-.77-.01-.13,0-.27,0-.43.01-.16,0-.32,0-.48,0-.16,0-.31-.02-.44-.04-.13-.02-.22-.07-.26-.14-.04-.06-.07-.15-.09-.28-.02-.13-.04-.27-.04-.42,0-.15,0-.29,0-.44,0-.15.01-.28.01-.39v-3.65c0-.06,0-.11.01-.17,0-.06,0-.11-.01-.17v-.21s-.02-.08-.02-.13,0-.08-.02-.13c-.1-.2-.28-.29-.55-.29h-4.96c-.11.03-.2.05-.27.07-.07.02-.13.07-.19.16-.03.07-.06.18-.08.32v.21c-.01.07-.02.15-.01.24,0,.09.01.17.01.24v4.49c0,.24-.04.42-.13.55-.04.07-.13.12-.26.14-.13.02-.28.04-.44.04-.16,0-.33,0-.49,0-.17,0-.31-.01-.44-.01-.2,0-.43,0-.71.01-.28,0-.48-.03-.59-.12-.11-.08-.18-.22-.19-.4-.01-.18-.02-.37-.02-.57v-13.25c0-.17.03-.3.08-.4.06-.1.15-.17.29-.21.03,0,.06,0,.09-.01.03,0,.07,0,.09,0Z"/>
      <path d="M43.6,69.41c.03.08.05.23.05.43,0,.2,0,.35-.03.43v.27c-.03.14-.04.29-.04.44s-.01.31-.04.46c-.03.1-.05.2-.06.29-.01.1-.04.2-.06.29-.07.25-.14.5-.2.74s-.14.47-.24.69c-.42.98-.99,1.8-1.7,2.45-.71.65-1.6,1.15-2.65,1.5-.15.06-.31.1-.46.13-.15.03-.31.06-.46.08-.07.03-.14.04-.22.04s-.15,0-.22.02l-.69.06c-.06.01-.15.02-.29.01-.14,0-.23-.02-.27-.03-.07-.01-.14-.02-.2-.01-.06,0-.13,0-.2-.01h-.23c-.11-.03-.22-.05-.31-.05-.1,0-.2-.02-.31-.05-.11-.03-.22-.05-.34-.07-.11-.02-.22-.04-.34-.07-.15-.06-.31-.11-.47-.17-.16-.06-.32-.12-.47-.19-.84-.36-1.55-.85-2.13-1.46-.58-.61-1.05-1.33-1.42-2.17-.08-.2-.15-.4-.21-.62-.06-.22-.12-.44-.19-.66-.03-.07-.04-.13-.04-.18s0-.1-.02-.16c-.03-.1-.05-.2-.06-.3-.01-.11-.04-.21-.06-.33-.01-.07-.02-.14-.01-.2,0-.06,0-.12-.03-.18-.01-.08-.01-.17,0-.26.01-.09.01-.18,0-.26-.03-.07-.04-.18-.04-.33s.01-.25.04-.33c.01-.07.01-.14,0-.2-.01-.06-.01-.13,0-.2v-.13c.03-.1.04-.19.03-.28,0-.09,0-.18.03-.26.03-.07.04-.14.04-.22s.01-.15.04-.22c.07-.24.13-.47.17-.7.04-.23.1-.46.19-.68.11-.24.22-.48.31-.71.1-.24.22-.46.36-.67.42-.67.9-1.23,1.45-1.68.55-.45,1.21-.83,2-1.16.18-.07.37-.13.58-.17.2-.04.4-.09.6-.15.07-.03.14-.04.2-.04s.13,0,.2-.02l.63-.06s.07-.01.12,0c.05.01.09.01.12,0,.99-.03,1.85.07,2.58.3.73.23,1.38.55,1.95.96.18.13.37.27.57.43.2.16.36.33.48.49.07.07.14.14.21.22.07.08.13.15.19.22.15.22.31.45.46.68.15.23.29.48.4.75.08.2.16.38.22.57.06.18.13.38.2.59.04.14.08.28.1.43.03.15.06.3.1.45.03.1.04.19.04.28s.01.18.04.26c.03.08.04.17.03.26,0,.09,0,.17.01.24v.17ZM40.34,70.29c.03-.07.04-.17.04-.3s-.01-.23-.04-.3v-.36c-.01-.06-.02-.11-.01-.16,0-.05,0-.1-.03-.16-.03-.11-.05-.22-.05-.33,0-.1-.02-.21-.05-.3,0-.07-.01-.15-.04-.23-.04-.15-.08-.31-.13-.46s-.1-.31-.17-.46c-.31-.71-.75-1.29-1.33-1.73-.58-.44-1.39-.66-2.43-.66-.03.01-.06.02-.09.01-.04,0-.07,0-.09.01-.06.01-.11.02-.17,0-.06,0-.12,0-.19.03-.15.03-.3.06-.45.09-.15.04-.28.08-.41.14-.59.25-1.05.6-1.4,1.05-.34.45-.62.99-.83,1.62-.04.15-.07.3-.09.45-.02.15-.05.3-.09.45-.01.06-.02.11-.02.16s0,.1-.02.16c-.03.07-.04.15-.02.23.01.08.01.16,0,.23-.03.07-.05.2-.05.39,0,.19,0,.32.03.39v.23c.01.06.02.12.02.18s0,.12.02.18c0,.06,0,.11.01.16,0,.05.01.1.01.16.04.15.07.31.09.46s.06.3.12.44c.15.45.34.87.57,1.25.22.38.5.7.84.93.07.07.14.13.22.17.08.04.16.08.24.13.15.1.32.17.49.23.17.06.36.11.56.17.07.03.14.04.2.03s.13,0,.2.01c.08.03.17.04.25.04h.44c.07-.01.13-.02.19-.01s.12,0,.19-.03c.14-.03.28-.05.42-.07.14-.02.27-.06.4-.12.6-.24,1.07-.55,1.42-.92.34-.38.63-.87.87-1.47.07-.15.12-.32.16-.5.03-.18.08-.36.14-.55l.06-.5c.01-.06.02-.12.02-.18v-.37Z"/>
      <path d="M46.39,62.42h1.78c.15,0,.3,0,.45.02s.26.06.33.15c.07.11.11.26.12.43,0,.17.01.35.01.54v7.18c0,.06,0,.12-.01.18,0,.06,0,.12.01.18v.34c0,.13,0,.26-.01.4,0,.14,0,.27.03.38,0,.1,0,.17.02.23.03.15.05.31.07.46s.06.31.12.46c.15.36.35.67.6.9.24.24.57.43.98.57.11.03.22.05.34.06.11.01.22.03.34.06.07.03.13.04.19.03.06,0,.12,0,.19.01.06.01.15.02.27.01s.21-.02.25-.03h.31c.11-.03.22-.05.34-.06.11-.01.22-.04.31-.06.2-.04.35-.09.46-.15.25-.11.47-.26.66-.45.19-.19.34-.4.45-.64.15-.36.24-.79.27-1.29.03-.5.04-1.01.04-1.54v-6.99c0-.2,0-.41-.01-.65,0-.24.03-.41.12-.52.07-.08.17-.14.29-.16.13-.02.27-.03.42-.03h1.34c.11,0,.22,0,.33-.01.1,0,.21,0,.3.03.2.04.32.11.38.21.07.11.1.27.09.47,0,.2-.01.39-.01.56v7.06c0,.53,0,1.05-.02,1.55s-.08.96-.19,1.37c-.2.66-.44,1.23-.75,1.71-.3.48-.7.89-1.19,1.23-.43.31-.95.56-1.53.76-.13.04-.26.08-.39.11s-.26.06-.39.08c-.08.03-.17.04-.24.04s-.16.01-.24.04c-.17.03-.36.05-.57.06-.21.01-.41.02-.61.02-1.33.01-2.46-.15-3.4-.49-.94-.34-1.67-.9-2.21-1.67-.18-.25-.33-.51-.45-.79-.12-.27-.23-.57-.33-.89-.03-.07-.04-.13-.04-.18s-.01-.11-.04-.18c-.11-.39-.17-.83-.17-1.32v-9.21c0-.13.02-.24.06-.33.08-.1.2-.17.34-.21h.08s.06,0,.08-.02Z"/>
      <path d="M66.38,62.12c2.72-.04,4.58.76,5.61,2.42.14.22.25.46.33.69.08.24.15.5.22.78.03.11.04.24.03.39,0,.15-.04.26-.09.33-.07.08-.17.14-.29.16-.13.02-.27.03-.42.03h-1.7c-.13,0-.23-.01-.31-.04-.17-.07-.27-.18-.31-.34s-.1-.31-.17-.46c-.06-.14-.13-.29-.23-.44-.1-.15-.2-.27-.31-.36-.2-.14-.39-.26-.57-.36-.17-.07-.37-.13-.62-.18-.25-.05-.5-.08-.76-.09-.26-.01-.51,0-.77.02-.25.03-.48.08-.67.17-.32.14-.57.3-.75.49-.18.19-.3.47-.37.85-.03.1-.04.21-.02.33.01.12.03.21.06.28.11.29.27.5.47.62.2.12.44.24.72.35.15.07.31.12.47.16.16.04.33.08.49.14.38.13.77.23,1.17.33.4.09.79.19,1.19.3.07.03.14.04.21.04s.14.01.21.04c.28.1.57.19.87.27s.57.2.81.36c.38.24.7.48.98.71s.53.55.77.92c.07.11.13.24.18.38.05.14.1.28.16.42.01.04.02.08.02.12s0,.07.02.09c.06.22.08.5.08.84.03.07.03.14,0,.21v.38c-.03.15-.05.3-.07.44s-.05.28-.09.42c-.08.25-.18.48-.27.69-.1.21-.22.41-.36.61-.06.07-.11.13-.17.18-.06.05-.1.11-.15.18-.07.08-.15.16-.23.24-.08.08-.17.15-.27.22-.07.06-.14.11-.22.17-.08.06-.16.11-.24.17-.24.15-.49.28-.75.38-.26.1-.53.2-.81.29-.2.07-.4.12-.61.14-.21.02-.42.05-.63.09-.1.03-.19.04-.28.03-.09,0-.18,0-.26.03h-.17s-.07,0-.12-.01-.09,0-.12.01c-.07.01-.19.02-.36.02s-.29,0-.36-.02h-.21c-.1-.03-.2-.04-.3-.03-.1,0-.2,0-.28-.03-.07,0-.13,0-.19-.01-.06,0-.12-.02-.19-.03-.17-.04-.34-.08-.52-.11-.18-.03-.35-.07-.5-.13-.69-.22-1.29-.51-1.81-.85-.52-.34-.95-.79-1.3-1.35-.22-.34-.4-.74-.52-1.2-.03-.08-.05-.17-.05-.25,0-.08-.02-.17-.05-.27-.03-.11-.05-.25-.06-.41-.01-.16.01-.28.08-.37.07-.11.17-.18.3-.2.13-.02.28-.03.45-.03h1.68c.13,0,.24.02.34.06.15.07.25.19.27.35.03.16.08.33.15.49.06.17.13.32.21.46.08.14.17.27.27.4.07.08.15.16.23.23.08.07.17.13.25.19.31.2.69.36,1.13.48.1.03.19.04.28.04s.19.01.3.04h.11c.11.03.27.04.46.04s.35-.01.46-.04c.04-.01.11-.02.21-.02.07-.01.14-.02.22-.03.08,0,.15-.02.22-.05.48-.13.85-.29,1.13-.5.28-.21.48-.56.59-1.05.03-.1.03-.21.01-.34s-.05-.22-.07-.29c-.14-.38-.38-.67-.71-.88-.04-.03-.12-.07-.23-.13-.21-.13-.44-.23-.7-.3-.26-.08-.51-.16-.77-.24-.1-.03-.19-.05-.28-.07-.09-.02-.19-.04-.3-.07-.22-.07-.45-.13-.68-.18s-.45-.11-.66-.18c-.07-.03-.13-.04-.17-.04s-.09-.01-.15-.04c-.11-.03-.21-.06-.3-.08-.09-.03-.19-.06-.3-.08-.32-.11-.63-.23-.92-.35-.29-.12-.57-.25-.82-.41-.32-.21-.62-.46-.88-.74-.27-.28-.48-.6-.63-.97-.06-.13-.1-.25-.13-.39-.03-.13-.06-.28-.1-.43-.03-.13-.05-.31-.06-.55-.01-.24,0-.43.02-.59.01-.06.02-.14.02-.25.04-.15.08-.3.1-.44.03-.14.07-.28.13-.42.21-.49.48-.91.81-1.25.33-.34.71-.65,1.14-.93.28-.17.58-.3.9-.4.32-.1.66-.19,1.03-.27.14-.03.28-.04.41-.05.13,0,.27-.02.41-.05.04-.01.11-.01.2,0,.09.01.15,0,.18-.02Z"/>
      <path d="M87.76,76.4c.01.06.04.13.07.21.03.08.06.17.08.26s.02.18.01.26c-.01.08-.06.15-.15.19-.11.07-.3.1-.56.08-.26-.01-.47-.02-.64-.02h-.99c-.11,0-.21,0-.3.01-.09,0-.18,0-.26-.03-.15-.04-.27-.13-.34-.25-.07-.11-.12-.23-.16-.36-.04-.13-.08-.25-.14-.38-.07-.22-.14-.45-.22-.67-.08-.22-.16-.44-.24-.65-.04-.13-.08-.24-.12-.35-.04-.11-.07-.2-.12-.28s-.1-.16-.19-.22c-.08-.06-.2-.11-.34-.14-.07,0-.14,0-.2-.01-.06,0-.13-.01-.2-.01h-3.32c-.24,0-.49,0-.77,0-.27,0-.49.04-.64.16-.11.08-.19.2-.23.34s-.09.28-.15.42c-.11.24-.21.49-.28.75-.08.26-.16.51-.26.77-.06.14-.11.29-.16.44-.05.15-.13.27-.24.36-.07.06-.17.09-.3.12-.13.02-.28.03-.44.03s-.33,0-.49-.01c-.17,0-.31-.01-.44-.01-.18,0-.4,0-.66.01-.26,0-.44-.02-.56-.09-.07-.04-.11-.1-.12-.19,0-.08,0-.17.02-.26.02-.09.04-.18.07-.26.03-.08.06-.15.08-.21.14-.32.27-.65.39-.99.12-.34.24-.67.37-.99.06-.11.1-.22.13-.34.03-.11.07-.22.13-.34.11-.29.22-.59.34-.9.11-.31.22-.61.34-.9.11-.28.22-.56.31-.83.1-.27.2-.55.31-.83.32-.77.62-1.55.89-2.33s.57-1.56.89-2.33c.03-.07.05-.13.06-.19.01-.06.03-.12.06-.19.11-.29.22-.59.34-.9.11-.31.23-.61.36-.9.07-.15.13-.31.18-.47.05-.16.14-.29.26-.39.07-.04.16-.08.27-.11.03-.01.06-.02.08-.01.03,0,.06,0,.08,0h1.85c.15,0,.31,0,.47-.01.16,0,.29.02.39.09.15.08.26.21.3.37.05.16.11.33.18.49.1.24.19.47.27.7.08.23.17.46.27.7.03.08.06.17.08.25.03.08.06.17.08.25.11.28.22.56.31.83.1.27.2.55.31.83.28.7.54,1.41.79,2.12.24.71.51,1.42.81,2.12.03.06.04.11.05.16,0,.05.02.1.05.16.08.22.17.45.25.67.08.22.17.45.25.67.06.11.1.22.13.33.03.1.06.21.1.33.18.45.35.9.5,1.34.15.45.32.89.5,1.32.03.04.04.08.04.12s.01.07.04.12ZM82.32,71.59c.18-.07.27-.19.25-.36-.01-.17-.06-.33-.13-.48-.03-.06-.04-.11-.04-.16s-.01-.1-.04-.16c-.18-.48-.35-.96-.5-1.45-.15-.49-.33-.98-.52-1.47-.03-.07-.06-.16-.08-.26-.03-.11-.06-.2-.1-.29s-.09-.17-.15-.24c-.06-.07-.13-.1-.21-.1-.03.03-.06.05-.08.06-.03.01-.06.04-.08.06-.11.14-.19.31-.24.5-.05.2-.11.39-.18.57-.17.39-.32.79-.45,1.2-.13.41-.28.81-.43,1.22-.06.14-.1.28-.15.41s-.08.28-.13.43c-.04.11-.04.24.02.38.07.1.19.15.35.17.16.01.33.02.49.02h2.02c.15,0,.29-.01.4-.04Z"/>
      <path d="M90.05,62.44h1.7c.15,0,.3,0,.45-.01s.28.02.39.07c.14.06.25.14.33.25.08.11.15.22.22.34l.76,1.2c.49.8.98,1.59,1.48,2.38s.99,1.58,1.48,2.38c.24.38.47.76.7,1.14.23.39.47.76.72,1.12.06.08.11.17.16.25.05.08.12.16.2.23.03.03.06.06.1.08.04.03.08.03.13,0,.1-.03.15-.09.15-.19s.01-.2.04-.32c.01-.1.02-.21.01-.33,0-.12-.01-.23-.01-.35v-6.99c0-.07,0-.14-.01-.21,0-.07,0-.13.01-.19v-.23c0-.2.04-.35.13-.46.07-.1.16-.15.28-.17.12-.01.26-.02.41-.02h1.62c.11,0,.21.01.29.04.18.07.28.19.29.37s.02.38.02.62v12.87c0,.15,0,.31.01.46,0,.15-.02.27-.07.36s-.12.14-.2.16c-.08.02-.17.05-.28.07h-2.26c-.12,0-.22-.02-.3-.06-.15-.07-.27-.16-.36-.28s-.17-.25-.25-.39c-.13-.2-.25-.4-.37-.6s-.24-.4-.37-.6l-3.15-5.04c-.2-.32-.39-.63-.58-.93-.19-.3-.38-.61-.58-.93-.07-.1-.15-.22-.24-.37-.09-.15-.21-.22-.37-.22-.11.1-.17.21-.18.34,0,.13-.01.29-.01.48v7.31c0,.07,0,.14.01.21,0,.07,0,.14-.03.21v.23c0,.22-.04.38-.1.48-.07.08-.17.13-.28.15-.12.01-.26.02-.41.02h-1.62c-.11,0-.21-.01-.29-.04-.18-.07-.28-.2-.3-.38-.02-.18-.03-.39-.03-.63v-13.27c0-.17.03-.3.08-.4.06-.1.15-.17.29-.21.03,0,.06,0,.09-.01.03,0,.07,0,.09,0Z"/>
      <path d="M118.25,69.43s0,.1.01.17c0,.07.01.15.01.23s0,.16-.01.23c0,.07-.01.12-.01.15,0,.1,0,.19-.01.28,0,.09-.01.18-.01.26-.03.07-.04.14-.03.21,0,.07,0,.14-.01.21-.03.15-.05.31-.06.46-.01.15-.04.31-.08.46-.07.24-.13.47-.19.68-.06.22-.13.43-.21.64-.24.59-.53,1.12-.88,1.6-.35.48-.77.88-1.26,1.22-.28.2-.57.36-.87.5-.3.14-.63.27-.98.38-.14.04-.28.07-.43.09-.15.02-.3.05-.45.09-.07.01-.14.02-.2.02s-.13,0-.2.02c-.06.01-.11.02-.17.01-.06,0-.12,0-.19.01-.03.01-.07.02-.13.01-.06,0-.1,0-.13,0-.11.03-.25.04-.42.02s-.31-.02-.44-.02h-4.89c-.24,0-.44,0-.6-.03-.16-.02-.28-.12-.35-.28-.04-.11-.06-.28-.05-.51,0-.23.01-.42.01-.58v-12.33c0-.17,0-.35-.01-.54,0-.19.02-.34.09-.45.06-.08.16-.15.31-.21.03-.01.06-.02.08-.01.03,0,.06,0,.08,0h5.65c.08,0,.17,0,.26-.01.09,0,.17,0,.24.01h.25c.07.03.15.04.23.03s.16,0,.23.03c.08.03.16.04.24.03.08,0,.16,0,.24.03.2.04.38.08.57.12.18.04.36.09.52.16.15.07.31.13.46.19.15.06.3.13.44.21.35.22.67.44.97.65l.13.13c.14.11.27.24.38.38l.19.17c.07.11.15.22.24.33.09.1.17.21.24.33.18.29.34.61.48.93s.27.68.38,1.04c.07.18.12.37.14.57.02.2.05.39.09.59,0,.07,0,.13.01.18,0,.05.01.1.01.16.03.08.04.18.03.27,0,.1,0,.18.03.25v.23ZM114.97,70.44c.03-.07.04-.18.04-.34s-.01-.27-.04-.34v-.4c-.03-.13-.05-.26-.05-.4,0-.14-.02-.27-.05-.38-.03-.07-.04-.14-.03-.2,0-.06,0-.13-.03-.2-.07-.22-.14-.44-.2-.64s-.15-.4-.26-.58c-.21-.34-.45-.63-.72-.87s-.61-.45-1-.62c-.13-.04-.25-.08-.38-.12-.13-.03-.25-.07-.38-.09-.11-.01-.21-.02-.3-.03-.09,0-.19-.02-.3-.05-.06-.01-.11-.02-.17-.01-.06,0-.1,0-.15-.01h-.46c-.07-.01-.15-.02-.23-.01-.08,0-.17.01-.25.01h-.94s-.07.04-.14.02-.12-.01-.16,0c-.07.03-.14.05-.21.07-.07.02-.13.07-.17.14-.06.07-.08.17-.08.29v.42c0,.18,0,.37-.01.57,0,.2-.01.39-.01.59v5.86c0,.08,0,.18-.01.27s0,.18.03.25v.21c0,.1,0,.19.01.28,0,.09.02.17.05.24.08.17.24.26.48.26.24,0,.48.01.73.01.55,0,1.1,0,1.66-.01.56,0,1.04-.09,1.43-.24.52-.21.93-.49,1.23-.84.3-.35.56-.78.77-1.3.06-.11.1-.24.13-.38.03-.14.06-.28.1-.42v-.17c.03-.1.04-.2.04-.31s.01-.22.04-.34v-.21Z"/>
      <path d="M125.52,62.12c2.72-.04,4.58.76,5.61,2.42.14.22.25.46.33.69.08.24.15.5.22.78.03.11.04.24.03.39,0,.15-.04.26-.09.33-.07.08-.17.14-.29.16-.13.02-.27.03-.42.03h-1.7c-.13,0-.23-.01-.31-.04-.17-.07-.27-.18-.31-.34s-.1-.31-.17-.46c-.06-.14-.13-.29-.23-.44-.1-.15-.2-.27-.31-.36-.2-.14-.39-.26-.57-.36-.17-.07-.37-.13-.62-.18-.25-.05-.5-.08-.76-.09-.26-.01-.51,0-.77.02-.25.03-.48.08-.67.17-.32.14-.57.3-.75.49-.18.19-.3.47-.37.85-.03.1-.04.21-.02.33.01.12.03.21.06.28.11.29.27.5.47.62.2.12.44.24.72.35.15.07.31.12.47.16.16.04.33.08.49.14.38.13.77.23,1.17.33.4.09.79.19,1.19.3.07.03.14.04.21.04s.14.01.21.04c.28.1.57.19.87.27s.57.2.81.36c.38.24.7.48.98.71s.53.55.77.92c.07.11.13.24.18.38.05.14.1.28.16.42.01.04.02.08.02.12s0,.07.02.09c.06.22.08.5.08.84.03.07.03.14,0,.21v.38c-.03.15-.05.3-.07.44s-.05.28-.09.42c-.08.25-.18.48-.27.69-.1.21-.22.41-.36.61-.06.07-.11.13-.17.18-.06.05-.1.11-.15.18-.07.08-.15.16-.23.24-.08.08-.17.15-.27.22-.07.06-.14.11-.22.17-.08.06-.16.11-.24.17-.24.15-.49.28-.75.38-.26.1-.53.2-.81.29-.2.07-.4.12-.61.14-.21.02-.42.05-.63.09-.1.03-.19.04-.28.03-.09,0-.18,0-.26.03h-.17s-.07,0-.12-.01-.09,0-.12.01c-.07.01-.19.02-.36.02s-.29,0-.36-.02h-.21c-.1-.03-.2-.04-.3-.03-.1,0-.2,0-.28-.03-.07,0-.13,0-.19-.01-.06,0-.12-.02-.19-.03-.17-.04-.34-.08-.52-.11-.18-.03-.35-.07-.5-.13-.69-.22-1.29-.51-1.81-.85-.52-.34-.95-.79-1.3-1.35-.22-.34-.4-.74-.52-1.2-.03-.08-.05-.17-.05-.25,0-.08-.02-.17-.05-.27-.03-.11-.05-.25-.06-.41-.01-.16.01-.28.08-.37.07-.11.17-.18.3-.2.13-.02.28-.03.45-.03h1.68c.13,0,.24.02.34.06.15.07.25.19.27.35.03.16.08.33.15.49.06.17.13.32.21.46.08.14.17.27.27.4.07.08.15.16.23.23.08.07.17.13.25.19.31.2.69.36,1.13.48.1.03.19.04.28.04s.19.01.3.04h.11c.11.03.27.04.46.04s.35-.01.46-.04c.04-.01.11-.02.21-.02.07-.01.14-.02.22-.03.08,0,.15-.02.22-.05.48-.13.85-.29,1.13-.5.28-.21.48-.56.59-1.05.03-.1.03-.21.01-.34s-.05-.22-.07-.29c-.14-.38-.38-.67-.71-.88-.04-.03-.12-.07-.23-.13-.21-.13-.44-.23-.7-.3-.26-.08-.51-.16-.77-.24-.1-.03-.19-.05-.28-.07-.09-.02-.19-.04-.3-.07-.22-.07-.45-.13-.68-.18s-.45-.11-.66-.18c-.07-.03-.13-.04-.17-.04s-.09-.01-.15-.04c-.11-.03-.21-.06-.3-.08-.09-.03-.19-.06-.3-.08-.32-.11-.63-.23-.92-.35-.29-.12-.57-.25-.82-.41-.32-.21-.62-.46-.88-.74-.27-.28-.48-.6-.63-.97-.06-.13-.1-.25-.13-.39-.03-.13-.06-.28-.1-.43-.03-.13-.05-.31-.06-.55-.01-.24,0-.43.02-.59.01-.06.02-.14.02-.25.04-.15.08-.3.1-.44.03-.14.07-.28.13-.42.21-.49.48-.91.81-1.25.33-.34.71-.65,1.14-.93.28-.17.58-.3.9-.4.32-.1.66-.19,1.03-.27.14-.03.28-.04.41-.05.13,0,.27-.02.41-.05.04-.01.11-.01.2,0,.09.01.15,0,.18-.02Z"/>
      <path d="M153.28,69.43s0,.1.01.17c0,.07.01.15.01.23s0,.16-.01.23c0,.07-.01.12-.01.15,0,.1,0,.19-.01.28,0,.09-.01.18-.01.26-.03.07-.04.14-.03.21,0,.07,0,.14-.01.21-.03.15-.05.31-.06.46-.01.15-.04.31-.08.46-.07.24-.13.47-.19.68-.06.22-.13.43-.21.64-.24.59-.53,1.12-.88,1.6-.35.48-.77.88-1.26,1.22-.28.2-.57.36-.87.5-.3.14-.63.27-.98.38-.14.04-.28.07-.43.09-.15.02-.3.05-.45.09-.07.01-.14.02-.2.02s-.13,0-.2.02c-.06.01-.11.02-.17.01-.06,0-.12,0-.19.01-.03.01-.07.02-.13.01-.06,0-.1,0-.13,0-.11.03-.25.04-.42.02s-.31-.02-.44-.02h-4.89c-.24,0-.44,0-.6-.03-.16-.02-.28-.12-.35-.28-.04-.11-.06-.28-.05-.51,0-.23.01-.42.01-.58v-12.33c0-.17,0-.35-.01-.54,0-.19.02-.34.09-.45.06-.08.16-.15.31-.21.03-.01.06-.02.08-.01.03,0,.06,0,.08,0h5.65c.08,0,.17,0,.26-.01.09,0,.17,0,.24.01h.25c.07.03.15.04.23.03s.16,0,.23.03c.08.03.16.04.24.03.08,0,.16,0,.24.03.2.04.38.08.57.12.18.04.36.09.52.16.15.07.31.13.46.19.15.06.3.13.44.21.35.22.67.44.97.65l.13.13c.14.11.27.24.38.38l.19.17c.07.11.15.22.24.33.09.1.17.21.24.33.18.29.34.61.48.93s.27.68.38,1.04c.07.18.12.37.14.57.02.2.05.39.09.59,0,.07,0,.13.01.18,0,.05.01.1.01.16.03.08.04.18.03.27,0,.1,0,.18.03.25v.23ZM150,70.44c.03-.07.04-.18.04-.34s-.01-.27-.04-.34v-.4c-.03-.13-.05-.26-.05-.4,0-.14-.02-.27-.05-.38-.03-.07-.04-.14-.03-.2,0-.06,0-.13-.03-.2-.07-.22-.14-.44-.2-.64s-.15-.4-.26-.58c-.21-.34-.45-.63-.72-.87s-.61-.45-1-.62c-.13-.04-.25-.08-.38-.12-.13-.03-.25-.07-.38-.09-.11-.01-.21-.02-.3-.03-.09,0-.19-.02-.3-.05-.06-.01-.11-.02-.17-.01-.06,0-.1,0-.15-.01h-.46c-.07-.01-.15-.02-.23-.01-.08,0-.17.01-.25.01h-.94s-.07.04-.14.02-.12-.01-.16,0c-.07.03-.14.05-.21.07-.07.02-.13.07-.17.14-.06.07-.08.17-.08.29v.42c0,.18,0,.37-.01.57,0,.2-.01.39-.01.59v5.86c0,.08,0,.18-.01.27s0,.18.03.25v.21c0,.1,0,.19.01.28,0,.09.02.17.05.24.08.17.24.26.48.26.24,0,.48.01.73.01.55,0,1.1,0,1.66-.01.56,0,1.04-.09,1.43-.24.52-.21.93-.49,1.23-.84.3-.35.56-.78.77-1.3.06-.11.1-.24.13-.38.03-.14.06-.28.1-.42v-.17c.03-.1.04-.2.04-.31s.01-.22.04-.34v-.21Z"/>
      <path d="M169.66,69.41c.03.08.04.23.05.43,0,.2,0,.35-.03.43v.27c-.03.14-.04.29-.04.44s-.01.31-.04.46c-.03.1-.05.2-.06.29s-.04.2-.06.29c-.07.25-.14.5-.2.74s-.14.47-.24.69c-.42.98-.99,1.8-1.7,2.45-.71.65-1.6,1.15-2.65,1.5-.15.06-.31.1-.46.13-.15.03-.31.06-.46.08-.07.03-.14.04-.22.04s-.15,0-.22.02l-.69.06c-.06.01-.15.02-.29.01-.14,0-.23-.02-.27-.03-.07-.01-.14-.02-.2-.01-.06,0-.13,0-.2-.01h-.23c-.11-.03-.22-.05-.31-.05-.1,0-.2-.02-.31-.05-.11-.03-.22-.05-.34-.07-.11-.02-.22-.04-.34-.07-.15-.06-.31-.11-.47-.17-.16-.06-.32-.12-.47-.19-.84-.36-1.55-.85-2.13-1.46-.58-.61-1.05-1.33-1.42-2.17-.08-.2-.15-.4-.21-.62-.06-.22-.12-.44-.19-.66-.03-.07-.04-.13-.04-.18s0-.1-.02-.16c-.03-.1-.05-.2-.06-.3-.01-.11-.04-.21-.06-.33-.01-.07-.02-.14-.01-.2,0-.06,0-.12-.03-.18-.01-.08-.01-.17,0-.26.01-.09.01-.18,0-.26-.03-.07-.04-.18-.04-.33s.01-.25.04-.33c.01-.07.01-.14,0-.2-.01-.06-.01-.13,0-.2v-.13c.03-.1.04-.19.03-.28,0-.09,0-.18.03-.26.03-.07.04-.14.04-.22s.01-.15.04-.22c.07-.24.13-.47.17-.7.04-.23.1-.46.19-.68.11-.24.22-.48.31-.71.1-.24.22-.46.36-.67.42-.67.9-1.23,1.45-1.68.55-.45,1.21-.83,2-1.16.18-.07.37-.13.58-.17.2-.04.4-.09.6-.15.07-.03.14-.04.2-.04s.13,0,.2-.02l.63-.06s.07-.01.12,0c.05.01.09.01.12,0,.99-.03,1.85.07,2.58.3.73.23,1.38.55,1.95.96.18.13.37.27.57.43.2.16.36.33.48.49.07.07.14.14.21.22s.13.15.19.22c.15.22.31.45.46.68.15.23.29.48.4.75.08.2.16.38.22.57.06.18.13.38.2.59.04.14.08.28.1.43.03.15.06.3.11.45.03.1.04.19.04.28s.01.18.04.26c.03.08.04.17.03.26,0,.09,0,.17.01.24v.17ZM166.4,70.29c.03-.07.04-.17.04-.3s-.01-.23-.04-.3v-.36c-.01-.06-.02-.11-.01-.16,0-.05,0-.1-.03-.16-.03-.11-.05-.22-.05-.33,0-.1-.02-.21-.05-.3,0-.07-.01-.15-.04-.23-.04-.15-.08-.31-.13-.46s-.1-.31-.17-.46c-.31-.71-.75-1.29-1.33-1.73-.58-.44-1.39-.66-2.43-.66-.03.01-.06.02-.09.01-.04,0-.07,0-.09.01-.06.01-.11.02-.17,0-.06,0-.12,0-.19.03-.15.03-.3.06-.45.09-.15.04-.28.08-.41.14-.59.25-1.05.6-1.4,1.05-.34.45-.62.99-.83,1.62-.04.15-.07.3-.09.45-.02.15-.05.3-.09.45-.01.06-.02.11-.02.16s0,.1-.02.16c-.03.07-.04.15-.02.23.01.08.01.16,0,.23-.03.07-.05.2-.05.39,0,.19,0,.32.03.39v.23c.01.06.02.12.02.18s0,.12.02.18c0,.06,0,.11.01.16,0,.05.01.1.01.16.04.15.07.31.09.46s.06.3.12.44c.15.45.34.87.57,1.25.22.38.5.7.84.93.07.07.14.13.22.17.08.04.16.08.24.13.15.1.32.17.49.23.17.06.36.11.56.17.07.03.14.04.2.03s.13,0,.2.01c.08.03.17.04.25.04h.44c.07-.01.13-.02.19-.01s.12,0,.19-.03c.14-.03.28-.05.42-.07.14-.02.27-.06.4-.12.6-.24,1.07-.55,1.42-.92.34-.38.63-.87.87-1.47.07-.15.12-.32.16-.5.03-.18.08-.36.14-.55l.06-.5c.01-.06.02-.12.02-.18v-.37Z"/>
      <path d="M174.89,74.32c.08.07.13.17.15.29.01.13.02.27.02.42v1.51c0,.15,0,.29-.02.42-.01.13-.06.22-.13.29-.1.07-.22.11-.36.12s-.29,0-.44,0h-1.41c-.15,0-.3,0-.44,0s-.25-.05-.31-.14c-.07-.08-.11-.19-.13-.33-.01-.13-.02-.28-.02-.43v-1.73c0-.13.03-.24.08-.33s.16-.15.32-.21c.03-.01.06-.02.09,0,.03,0,.07,0,.09-.01h1.66c.17,0,.33,0,.47.01s.27.04.37.12ZM171.97,67.14c-.07-.31-.1-.64-.09-1.01,0-.36,0-.73,0-1.09v-2.06c0-.14.04-.26.11-.36.07-.08.17-.14.29-.17.03-.01.06-.02.08-.01.03,0,.06,0,.08,0h1.62c.17,0,.33,0,.47.02.15.01.25.07.33.17.06.08.08.19.08.32v2.73c0,.08,0,.18.02.28.01.1,0,.19-.02.26v.23c-.03.1-.04.2-.03.3,0,.1,0,.2-.03.28-.03.07-.04.14-.03.2,0,.06,0,.13-.03.2-.03.13-.04.25-.04.37s-.01.23-.04.35c-.01.06-.02.11-.02.16s0,.1-.02.16c-.03.18-.05.37-.06.57s-.04.38-.08.57c-.03.1-.04.19-.03.27s0,.18-.03.29c-.06.25-.09.51-.09.79,0,.27-.05.54-.12.79-.04.2-.07.4-.07.6,0,.2-.08.35-.22.45-.04.03-.09.05-.15.06s-.12.03-.19.04h-.29c-.14,0-.26-.01-.37-.04-.1-.03-.19-.08-.24-.15-.07-.08-.11-.17-.11-.27s-.01-.2-.04-.32c-.04-.15-.07-.32-.07-.48s-.03-.33-.07-.48c0-.11,0-.19-.02-.23-.01-.08-.02-.17-.02-.25s0-.17-.02-.25c-.06-.2-.09-.4-.09-.62,0-.22-.03-.42-.07-.62-.01-.07-.02-.14-.02-.2s0-.13-.02-.2c-.03-.13-.04-.26-.05-.4,0-.14-.03-.28-.05-.42,0-.03,0-.06-.01-.08,0-.03-.01-.06-.01-.08-.03-.11-.04-.22-.04-.33s-.01-.21-.04-.33Z"/>
    </g>
    <rect x=".16" y="97.72" width="459.1" height="2"/>
    <path d="M320.63,16.33c.46-.14.69,0,1.01.11.51.21,1.02.53,1.39.98.79.88.62,2.52.83,3.79.05.28,0,.46.06.76.15.36.22.84.27,1.28.14.81.44,1.73.59,2.62.54,2.06.85,3.71,1.31,5.61.18.57.42,1.33.59,1.68.24.45.51.97.59,1.47.12.75.06,1.27-.2,1.61-.2.69-.83,1.27-1.58,1.17-1.61-.32-1.53-2.2-1.61-3.59-.11-1.23-.47-2.61-.72-3.79-.02-.41-.49-3.08-1.13-2.75-.26.48-.33,1.24-.42,1.79-.14.66-.33,1.28-.85,1.79-.51.44-1.1.96-1.67.27-.61-.64-.96-1.38-1.34-2.16-.47-.91-1.18-1.68-1.44-2.04-.31-.42-.52-.83-.89-1.14-.23-.07-.42.04-.41.34.07.97.27,1.99.39,2.91.19.77.24,1.29.27,2.03-.02.76.44.97.41,1.74.29,1.07.54,1.88.6,3.06.06.41-.12.99-.26,1.22-.14.31-.22.42-.54.51-.58.13-1.37-.09-1.63-.63-.55-1.01-.43-2.32-.54-3.43-.32-2.08-.65-3.77-.79-5.81-.12-1.13-.12-2.21-.38-3.29-.17-1.58-.39-2.79-1.07-4.24-.38-.92.34-2.16,1.4-2.24.56,0,1.01.2,1.5.47.54.39,1.13.85,1.32,1.5.12.47.44,1.01.59,1.44.17.66.59,1.33.88,1.94.47.5.81,1.41,1.2,1.83.73.64.9-2.41,1.07-2.84.2-1.28.21-2.02.27-3.56,0-.84-.07-2.04.84-2.39l.08-.03Z"/>
    <path d="M296.7,20.3c.32.05.37.15.61.27.42.2.65.49.96.92.14.3.15.55.27.88.15.43.18.74.21,1.23.03.33.06.35.06.72,0,.61.24,1.28.29,1.85-.02.48.09.84.33,1.26.21.44.12.79.33,1.19.05.13.08.24.11.38.09.29.09.4.09.65,0,.1.1.31.08.46-.05.65.03,1.25-.05,1.85,0,.18.06.28.09.4.03.19.05.35.08.6.07.37.28.78.29,1.22,0,.62.18.89.36,1.35.1.23.19.78.28,1,.08.24.32.1.43.35.27.68,1.04,1.74.54,2.5-.21.41-.34.91-.67,1.29-.39.26-.63.48-1.01.6-.97.18-1.73-.71-2.14-1.38-.06-.14-.05-.18-.1-.26-.15-.16-.2-.35-.31-.54-.06-.23.06-.44-.19-.75-.02-.04-.04-.09-.04-.14-.03-.21-.04-.5-.05-.72-.02-.18.16-.36.14-.59-.11-.7-.49-1.38-.46-2.1.03-.27-.17-.52-.23-.75-.12-.25-.17-.6-.28-.9-.05-.24-.06-.47-.25-.65-.17-.16-.6.03-.85-.1-.13-.06-.23-.1-.38-.13-.3-.04-.75.28-.98.4-.19.13-.28,0-.46-.02-.19-.03-.37.08-.53.18-.17.08-.36.13-.52.44-.17.37-.18.48-.2.83.03.59.19,1,.2,1.54.11.43.31.9.33,1.39.02.44.02.7.17,1.12.17.35.24.79.4,1.18.09.25.14.43.05.74-.07,1.22-.87,2.08-2.09,1.82-.16-.05-.25-.2-.37-.32-.26-.3-.56-.47-.76-.91-.53-.97-.54-1.91-.47-2.94-.04-.48-.18-.59-.12-1.25.04-.97-.13-2.17-.39-3.09-.15-.61-.44-1.03-.68-1.57-.24-.6-.31-1.02-.11-1.66.91-2.07-1.15-4.35-1.03-6.53.14-1.23,1.05-1.88,2.15-1.61.44.09.73.37.9.68.93,1.47.15,3.13.43,4.64.01.64.12,1.67.88,1.79.34.01.66-.19,1.03-.21.78-.06,1.07-.26,1.79-.38.63-.06,1.06-.14,1.48-.7.3-.4.15-.94-.04-1.37-.36-.8-.37-1.78-.73-2.58-.21-.8-.83-1.74-.29-2.53.31-.48.86-1.02,1.37-1.07h.06Z"/>
    <path d="M326.11,15.49c1.42-.07,2.72-.12,4.23-.49.96-.19,1.93-.45,2.72,0,.51.3,1.17.83.87,1.48-1.08,1.48-3.23,1.11-4.82,1.73-.89.26-.97,1.05-1.06,1.8-.15.27-.09.62-.04.93.18.69-.14,1.24.38,1.74.87.68,2.35-.14,3.33.28.99.29,1.28,1.48.47,2.07-.28.23-.73.61-1.17.75-.58.2-1.16.18-1.56.27-.37.07-.65.18-.82.55-.06.2.12.42.09.52-.14.68.27,1.19.5,1.83.27.77.52,1.71,1.41,1.87,1.04.07,2.09-.3,3.13-.58.29-.08.52-.11.86-.08.59.11,1.43-.07,2.02.25.29.14.63.26.87.46.16.1.3.45.39.68.28.53.52,1.19.34,1.73-.01.1-.2.28-.3.36-.18.2-.27.46-.57.67-.41.34-1.11.59-1.54.76-.35.18-.68.03-1.08.15-.89.2-1.78.35-2.75.35-.48-.01-.94-.06-1.37.07-.09.01-.11,0-.26.01-.56-.06-1.25.25-1.86.14-.61-.18-1.01-.66-1.3-1.14-.41-1.01-.72-2.16-.64-3.27-.13-1.49-.06-2.74-.26-4.14.09-.47.04-.9-.03-1.36-.07-.67-.26-1.36-.38-2.05-.06-.51-.31-1.3-.59-1.66-.19-.31-.28-.76-.4-1.07-.21-.46-.5-.88-.59-1.39-.21-1.41-.24-3.96,1.7-4.17l.09-.03Z"/>
    <path d="M313.28,35.21c.15-1.56.43-3.19.09-4.65-.06-1.4-.17-2.75-.58-4.12-.43-1.24-.95-2.59-1.76-3.59-.3-.39-.45-.89-.82-1.19-.46-.14-.47-.65-.86-.89-.23-.13-.55-.33-.79-.52-.2-.17-.5-.52-.83-.53-.45.07-.8-.47-1.16-.45-.28,0-.41.13-.67.11-.22-.05-.37-.11-.57-.09-.2.04-.47-.05-.71.09l-.07.03c-.33.09-.48.38-.82.41-.45-.17-.54.13-.83.4-.34.17-.3.12-.53.42-.13.07-.24-.02-.4.05-.46.29-.58,1.26-.85,1.57-.22.18-.33-.12-.44.21-.07.23-.04.23-.18.51-.12.26-.32.36-.4.68-.13.54-.22.85-.26,1.42-.02.77-.09,1.42-.14,2.03.14,1.53.27,3.15.42,4.63.24.46.26,1,.36,1.58.19.47.39,1.35.7,1.73.76.79,1.27,1.82,1.92,2.68.34.49.99.96,1.24,1.45.33.31.75.35,1.12.61.21.14.4.28.58.37.33.19.81.16,1.11.28,1.64.36,3.56,0,4.81-1.17.51-.74,1.04-1.24.97-2.17.09-.5.41-1.48.32-1.86ZM310.7,33.09c-.06.67-.04,1.46-.13,2.14-.23.45-.4,1.39-.75,1.55-.39.22-.8.35-1.04.64.02,0-.13.14-.14.11-.23,0-.7.08-.9.18-.18-.02-.48-.37-.71-.48-.3-.08-.75-.22-.93-.54-.37-.34-.48-.45-.65-.94-.51-.48-.8-1.38-1-2.1-.26-.73-.7-1.37-.66-2.16.07-2.01-.47-3.49.11-5.69.2-.98.73-2.03,1.79-2.21h.09c1.17-.2,1.86.56,2.71,1.33,1.1,1.01,1.49,2.54,1.65,3.96.07.45.27.83.41,1.23.03.74.34,1.3.27,2.05.04.39-.05.61-.12.93Z"/>
  </g>
</svg>