<?xml version="1.0" encoding="UTF-8"?>
<svg id="Layer_2" data-name="Layer 2" xmlns="http://www.w3.org/2000/svg" viewBox="0 0 460 73.03">
  <g id="Layer_1-2" data-name="Layer 1">
    <g>
      <path d="M50.88,20.74v30.09c-2.94-.39-5.87-.78-8.81-1.19,0-9.24,0-18.48,0-27.71,2.94-.41,5.87-.8,8.81-1.19Z"/>
      <path d="M69.09,18.47c4.82,8.03,9.64,16.94,14.46,26.61.29.02.58.03.87.05-.07-9.46-.14-18.91-.21-28.35,2.86-.31,5.72-.6,8.59-.89v39.81c-4.88-.49-9.76-1.01-14.64-1.55-4.85-9.68-9.7-18.57-14.54-26.58-.3.02-.61.04-.91.05.07,8.23.14,16.48.21,24.74-2.86-.35-5.71-.71-8.57-1.08v-30.99c4.91-.63,9.82-1.24,14.74-1.82Z"/>
      <path d="M125.51,12.99c0,3.58,0,7.15,0,10.73-6.95.28-13.9.59-20.85.93,0,2.65,0,5.3,0,7.95,6.61-.09,13.23-.18,19.85-.25-.01,3.47-.03,6.95-.04,10.42-6.61-.16-13.21-.33-19.81-.51,0,4.86,0,9.72,0,14.58-2.81-.26-5.62-.52-8.42-.8V15.54c9.75-.95,19.51-1.8,29.28-2.55Z"/>
      <path d="M162.31,13.39c2.12,2.84,2.75,7.9,2.75,22.36,0,14.53-.62,19.59-2.75,22.43-2.12,2.83-4.74,3.25-16.22,2.54-11.69-.75-14.26-1.49-16.38-4.32-2.16-2.92-2.74-7.47-2.74-20.92,0-12.77.62-17.46,2.74-20.31,2.12-2.83,4.74-3.57,16.3-4.32,11.6-.72,14.19-.3,16.31,2.53ZM137.93,24.32c-2.08.99-2.54,3.19-2.54,12.71,0,5.85.29,7.76,1.25,9.13,1.12,1.52,2.45,1.79,9.44,2.01,6.78.21,8.19-.05,9.28-1.51.96-1.31,1.25-3.47,1.25-9.49,0-7.14-.21-9.97-.96-11.66-.87-2.13-1.83-2.33-9.65-2.09-5.74.18-6.9.3-8.07.9Z"/>
      <path d="M167.96,10.41c6.81-.31,13.62-.57,20.44-.77,9.58-.28,9.58-.25,11.37,1.77,2.12,2.41,2.75,5.91,2.75,15.12,0,7.71-.42,10.65-1.79,12.87-.83,1.27-1.62,1.9-3.37,2.36,4.29.97,5.04,3.36,4.87,15.6v4.93c-2.78-.06-5.55-.12-8.33-.19v-2.76c0-10.18-.29-10.73-5.54-10.64-3.98-.06-7.97-.13-11.95-.2v13.04c-2.82-.11-5.63-.23-8.45-.36V10.41ZM188.32,35.59q4.16-.16,4.75-.79c.75-.87,1-2.37,1-5.84,0-3.47-.29-4.97-1.12-5.67-.62-.54-.71-.54-4.62-.56-3.97.06-7.94.13-11.91.21v12.65c3.97,0,7.94,0,11.91,0Z"/>
      <path d="M220.5,9.04c2.75,11.56,5.5,23.14,8.25,34.73,2.76-11.59,5.53-23.18,8.29-34.75,5.08.03,10.16.08,15.24.16v53.19c-2.78.04-5.55.08-8.33.11.07-13.32.14-26.64.21-39.96-.47,0-.94,0-1.42,0-3.48,13.31-6.97,26.67-10.45,40.03-2.35,0-4.69,0-7.04,0-3.49-13.36-6.97-26.72-10.46-40.01-.5,0-1,0-1.5,0,.07,13.3.14,26.61.21,39.92-2.78-.03-5.55-.08-8.33-.13,0-17.7,0-35.4,0-53.1,5.11-.09,10.22-.16,15.33-.19Z"/>
      <path d="M284.21,52.79c-6.12.16-12.24.29-18.36.4-.79,2.98-1.58,5.98-2.37,8.97-3.22.08-6.44.15-9.66.2,4.9-17.8,9.8-35.45,14.7-52.81,4.39.12,8.77.27,13.16.43,4.84,17.39,9.69,34.43,14.53,50.99-3.2.15-6.41.3-9.61.43-.79-2.86-1.58-5.73-2.37-8.61ZM275.88,21.87c-.56,0-1.11-.02-1.67-.03-1.79,6.56-3.58,13.17-5.37,19.81,4.14-.03,8.27-.06,12.41-.09-1.79-6.51-3.58-13.08-5.37-19.69Z"/>
      <path d="M324.97,12.3v11.98c-4.12-.14-8.23-.27-12.35-.39,0,12.07,0,24.13,0,36.2-2.95.18-5.91.35-8.86.5,0-12.32,0-24.63,0-36.95-4.12-.11-8.24-.21-12.36-.3,0-4.32,0-8.63,0-12.95,11.2.5,22.39,1.14,33.57,1.91Z"/>
      <path d="M335.73,13.08c0,15.14,0,30.27,0,45.41-2.95.23-5.9.45-8.85.65,0-15.57,0-31.14,0-46.72,2.95.21,5.9.43,8.85.65Z"/>
      <path d="M373.92,18.64c2.12,2.45,2.74,6.28,2.74,17.12,0,10.89-.62,14.72-2.74,17.17-2.12,2.44-4.72,3.19-16.18,4.31-11.67,1.11-14.24.84-16.36-1.6-2.16-2.51-2.74-6.94-2.74-20.16,0-12.54.62-17.1,2.74-19.55,2.12-2.44,4.74-2.7,16.28-1.6,11.58,1.13,14.15,1.88,16.26,4.31ZM349.6,25.35c-2.08.75-2.53,2.76-2.53,11.58,0,5.42.29,7.18,1.25,8.38,1.12,1.32,2.45,1.46,9.42,1.13,6.77-.33,8.18-.65,9.25-1.89.95-1.12,1.24-2.85,1.25-7.66,0-5.7-.21-7.96-.96-9.36-.87-1.76-1.82-2.01-9.63-2.39-5.73-.27-6.89-.26-8.05.21Z"/>
      <path d="M394.3,18.87c4.82,8.98,9.63,17.13,14.45,24.32.29-.02.58-.04.87-.06-.07-7.44-.14-14.89-.21-22.36,2.85.38,5.71.76,8.56,1.16v27.71c-4.86.67-9.73,1.32-14.6,1.94-4.84-7.25-9.69-15.44-14.54-24.46-.3-.02-.61-.03-.91-.05.07,8.8.14,17.59.21,26.36-2.86.33-5.72.65-8.58.97,0-12.41,0-24.82,0-37.23,4.92.54,9.84,1.1,14.75,1.7Z"/>
    </g>
    <path d="M230,2.03c61.33,0,118.98,3.79,162.32,10.67,48.41,7.69,65.65,17.34,65.65,23.82s-17.25,16.13-65.65,23.82c-43.34,6.88-100.98,10.67-162.32,10.67s-118.98-3.79-162.32-10.67C19.28,52.65,2.03,42.99,2.03,36.51S19.28,20.38,67.68,12.7C111.02,5.82,168.67,2.03,230,2.03M230,0C102.97,0,0,16.35,0,36.51s102.97,36.51,230,36.51,230-16.35,230-36.51S357.03,0,230,0h0Z"/>
  </g>
</svg>