<?xml version="1.0" encoding="UTF-8"?>
<svg id="Layer_2" data-name="Layer 2" xmlns="http://www.w3.org/2000/svg" viewBox="0 0 444.61 219.61">
  <g id="Layer_1-2" data-name="Layer 1">
    <g>
      <rect x="95.6" y="92.39" width=".52" height="27.47" transform="translate(-25.1 182.42) rotate(-80.15)"/>
      <rect x="167.07" y="140.46" width="1.42" height=".28"/>
      <rect x="171.72" y="139.88" width=".38" height="2.85" transform="translate(8.56 292.44) rotate(-82.2)"/>
      <rect x="163.93" y="139.89" width="1.42" height=".28"/>
      <rect x="173.63" y="141.6" width="1.42" height=".28"/>
      <rect x="93.24" y="114.91" width=".39" height="4.58" transform="translate(-36.38 192.14) rotate(-81.43)"/>
      <rect x="168.78" y="140.74" width="1.42" height=".28"/>
      <rect x="207.59" y="154.43" width="1.42" height=".28"/>
      <rect x="210.73" y="155" width="1.42" height=".28"/>
      <rect x="209.71" y="127.04" width=".56" height="32.67" transform="translate(33.02 325.96) rotate(-80.22)"/>
      <rect x="176.57" y="140.74" width=".38" height="2.85" transform="translate(11.91 297.98) rotate(-82.2)"/>
      <rect x="170.18" y="124.69" width=".63" height="39.33" transform="translate(-1.02 287.49) rotate(-80.1)"/>
      <rect x="212.44" y="155.29" width="1.42" height=".28"/>
      <rect x="205.88" y="116.49" width="1.42" height=".28"/>
      <rect x="142.82" y="105.37" width="1.42" height=".28"/>
      <path d="M144.53,105.65l58.67,10.52.97-.25c-7.75-1.09-15.36-3.03-23.06-4.48-12.12-2.28-24.33-4.33-36.58-5.79Z"/>
      <rect x="207.59" y="116.78" width="1.42" height=".28"/>
      <rect x="212.44" y="117.64" width="1.42" height=".28"/>
      <rect x="210.73" y="117.35" width="1.42" height=".28"/>
      <rect x="113.71" y="117.35" width="1.42" height=".28"/>
      <rect x="111.43" y="108.79" width="1.42" height=".28"/>
      <rect x="109.72" y="108.51" width="1.42" height=".28"/>
      <rect x="112" y="117.07" width="1.42" height=".28"/>
      <path d="M75.42,99.29c14.08,2.89,28.23,5.41,42.46,7.47l1.25-.25-46.51-7.99,2.8.77Z"/>
      <rect x="142.25" y="97.1" width="1.42" height=".28"/>
      <rect x="119.42" y="106.8" width="1.42" height=".28"/>
      <rect x="58.42" y="135.53" width=".41" height="12.69" transform="translate(-91.07 175.9) rotate(-80.35)"/>
      <rect x="65.2" y="105.37" width="1.42" height=".28"/>
      <rect x="58.42" y="97.88" width=".41" height="12.69" transform="translate(-53.95 144.56) rotate(-80.35)"/>
      <rect x="50.65" y="102.8" width="1.42" height=".28"/>
      <rect x="50.65" y="140.46" width="1.42" height=".28"/>
      <rect x="48.94" y="140.17" width="1.42" height=".28"/>
      <rect x="48.94" y="102.52" width="1.42" height=".28"/>
      <path d="M353.05,38.64c.17.11.31.31.41.63.16.49.24,1.22.24,2.2s-.08,1.74-.24,2.21c-.07.2-.15.36-.25.47h7.13c-.1-.12-.19-.27-.26-.47-.16-.47-.24-1.21-.24-2.21s.08-1.71.24-2.2c.1-.31.24-.51.42-.63-.18-.11-.32-.31-.42-.61-.16-.47-.24-1.21-.24-2.21s.08-1.71.24-2.2c.09-.28.22-.47.37-.59-.15-.12-.28-.31-.37-.59-.16-.49-.24-1.23-.24-2.23s.08-1.74.24-2.22c.07-.2.16-.35.26-.47h-7.13c.1.12.19.27.26.47.16.48.24,1.22.24,2.22s-.08,1.74-.24,2.23c-.09.28-.22.47-.37.59.15.12.28.31.37.59.16.49.24,1.22.24,2.2s-.08,1.74-.24,2.21c-.1.31-.24.5-.41.61Z"/>
      <rect x="205.88" y="154.15" width="1.42" height=".28"/>
      <rect x="48.94" y="64.86" width="1.42" height=".28"/>
      <rect x="209.71" y="89.39" width=".56" height="32.67" transform="translate(70.13 294.7) rotate(-80.22)"/>
      <rect x="65.2" y="67.72" width="1.42" height=".28"/>
      <rect x="50.65" y="65.15" width="1.42" height=".28"/>
      <rect x="58.42" y="60.22" width=".41" height="12.69" transform="translate(-16.83 113.21) rotate(-80.35)"/>
      <path d="M326.87,33.03c.15.12.28.31.37.59.16.49.24,1.22.24,2.2s-.08,1.74-.24,2.21c-.07.22-.17.39-.28.51h7.18c-.11-.12-.21-.28-.28-.51-.16-.47-.24-1.21-.24-2.21s.08-1.71.24-2.2c.09-.28.22-.47.37-.59-.15-.12-.28-.31-.37-.59-.16-.49-.24-1.23-.24-2.23s.08-1.74.24-2.22c.07-.2.16-.35.26-.47h-7.13c.1.12.19.27.26.47.16.48.24,1.22.24,2.22s-.08,1.74-.24,2.23c-.09.28-.22.47-.37.59Z"/>
      <rect x="119.42" y="144.45" width="1.42" height=".28"/>
      <rect x="142.25" y="134.75" width="1.42" height=".28"/>
      <path d="M75.42,136.94c14.08,2.89,28.23,5.41,42.46,7.47l1.25-.25-46.51-7.99,2.8.77Z"/>
      <rect x="142.82" y="143.02" width="1.42" height=".28"/>
      <path d="M144.53,143.31l58.67,10.52.97-.25c-7.75-1.09-15.36-3.03-23.06-4.48-12.12-2.28-24.33-4.33-36.58-5.79Z"/>
      <rect x="113.71" y="155" width="1.42" height=".28"/>
      <rect x="109.72" y="146.16" width="1.42" height=".28"/>
      <rect x="93.24" y="152.57" width=".39" height="4.58" transform="translate(-73.61 224.18) rotate(-81.43)"/>
      <rect x="111.43" y="146.45" width="1.42" height=".28"/>
      <rect x="209.71" y="164.7" width=".56" height="32.67" transform="translate(-4.09 357.21) rotate(-80.22)"/>
      <rect x="95.6" y="130.05" width=".52" height="27.47" transform="translate(-62.2 213.64) rotate(-80.15)"/>
      <rect x="112" y="154.72" width="1.42" height=".28"/>
      <rect x="65.2" y="143.02" width="1.42" height=".28"/>
      <rect x="205.88" y="78.84" width="1.42" height=".28"/>
      <rect x="142.25" y="59.44" width="1.42" height=".28"/>
      <rect x="170.18" y="49.38" width=".62" height="39.33" transform="translate(73.16 225.13) rotate(-80.1)"/>
      <path d="M144.53,68l58.67,10.52.97-.25c-7.75-1.09-15.36-3.03-23.06-4.48-12.12-2.28-24.33-4.33-36.58-5.79Z"/>
      <rect x="163.93" y="64.58" width="1.42" height=".28"/>
      <rect x="142.82" y="67.72" width="1.42" height=".28"/>
      <rect x="167.07" y="65.15" width="1.42" height=".28"/>
      <rect x="171.72" y="64.58" width=".38" height="2.85" transform="translate(83.18 227.35) rotate(-82.2)"/>
      <rect x="173.63" y="66.29" width="1.42" height=".28"/>
      <rect x="168.78" y="65.43" width="1.42" height=".28"/>
      <rect x="170.18" y="87.03" width=".63" height="39.33" transform="translate(36.07 256.31) rotate(-80.1)"/>
      <rect x="207.59" y="79.13" width="1.42" height=".28"/>
      <path d="M360.46,98.95c-.15-.12-.28-.31-.37-.59-.16-.49-.24-1.23-.24-2.23s.08-1.74.24-2.22c.07-.2.16-.35.26-.47h-7.13c.1.12.19.27.26.47.16.48.24,1.21.24,2.22s-.08,1.74-.24,2.23c-.09.28-.22.47-.37.59.15.12.28.31.37.59.16.49.24,1.22.24,2.2s-.08,1.74-.24,2.21c-.07.22-.17.39-.28.51h7.18c-.11-.12-.21-.28-.28-.51-.16-.47-.24-1.21-.24-2.21s.08-1.71.24-2.2c.09-.28.22-.47.37-.59Z"/>
      <path d="M0,0v219.61h444.61V0H0ZM372,66.21c-.16-.47-.24-1.23-.24-2.25s.08-1.74.24-2.22c.1-.29.23-.48.39-.59-.16-.11-.29-.3-.39-.59-.16-.47-.24-1.21-.24-2.21s.08-1.71.24-2.2c.1-.3.23-.49.39-.61-.16-.12-.29-.31-.39-.61-.16-.49-.24-1.23-.24-2.23s.08-1.7.24-2.18c.1-.29.23-.48.39-.59-.16-.12-.29-.31-.39-.61-.16-.49-.24-1.23-.24-2.23s.08-1.74.24-2.22c.1-.29.23-.48.39-.59-.16-.11-.29-.3-.39-.59-.16-.47-.24-1.21-.24-2.21s.08-1.71.24-2.2c.1-.31.24-.51.42-.63-.17-.11-.31-.31-.42-.61-.16-.47-.24-1.21-.24-2.21s.08-1.71.24-2.2c.09-.28.22-.47.37-.59-.15-.12-.27-.31-.37-.59-.16-.49-.24-1.23-.24-2.23s.08-1.74.24-2.22c.1-.29.23-.48.39-.59-.16-.11-.29-.3-.39-.59-.16-.47-.24-1.21-.24-2.21s.08-1.74.24-2.21c.1-.3.24-.5.41-.61-.17-.11-.31-.31-.41-.61-.16-.47-.24-1.21-.24-2.21s.08-1.71.24-2.2c.16-.49.4-.73.74-.73h20.59c.33,0,.58.24.73.73.16.49.24,1.22.24,2.2s-.08,1.74-.24,2.21c-.1.3-.24.5-.41.61.17.11.31.31.41.61.16.47.24,1.21.24,2.21s-.08,1.74-.24,2.21c-.16.48-.4.72-.73.72h-13.87c.1.12.19.27.26.47.16.48.24,1.22.24,2.22s-.08,1.74-.24,2.23c-.09.28-.22.47-.37.59.15.12.28.31.37.59.16.49.24,1.22.24,2.2s-.08,1.74-.24,2.21c-.07.22-.17.39-.28.51h6.71c.32,0,.57.24.73.73.16.49.24,1.22.24,2.2s-.08,1.74-.24,2.21c-.1.29-.23.48-.39.6.16.11.29.3.39.59.16.48.24,1.22.24,2.22s-.08,1.74-.24,2.23c-.16.49-.41.73-.74.73h-6.67c.1.12.19.27.25.47.16.48.24,1.2.24,2.18s-.08,1.74-.24,2.23c-.1.3-.23.49-.39.61.16.12.29.31.39.61.16.49.24,1.22.24,2.2s-.08,1.74-.24,2.21c-.07.2-.15.36-.25.47h13.86c.34,0,.59.24.75.71.16.48.24,1.22.24,2.22s-.08,1.77-.24,2.25c-.09.29-.23.48-.39.59.16.11.29.3.39.59.16.48.24,1.2.24,2.18s-.08,1.74-.24,2.23c-.16.49-.4.73-.73.73h-20.59c-.33,0-.58-.24-.74-.73-.16-.49-.24-1.23-.24-2.23s.08-1.7.24-2.18c.1-.29.23-.48.39-.59-.16-.11-.29-.3-.39-.59ZM345.76,66.21c-.16-.47-.24-1.23-.24-2.25s.08-1.74.24-2.22c.1-.29.23-.48.39-.59-.16-.11-.29-.3-.39-.59-.16-.47-.24-1.21-.24-2.21s.08-1.71.24-2.2c.1-.3.23-.49.39-.61-.16-.12-.29-.31-.39-.61-.16-.49-.24-1.23-.24-2.23s.08-1.7.24-2.18c.1-.29.23-.48.39-.59-.16-.12-.29-.31-.39-.61-.16-.49-.24-1.23-.24-2.23s.08-1.74.24-2.22c.1-.29.23-.48.39-.59-.16-.11-.29-.3-.39-.59-.16-.47-.24-1.21-.24-2.21s.08-1.71.24-2.2c.1-.31.24-.51.42-.63-.17-.11-.31-.31-.42-.61-.16-.47-.24-1.21-.24-2.21s.08-1.71.24-2.2c.09-.28.22-.47.37-.59-.15-.12-.27-.31-.37-.59-.16-.49-.24-1.23-.24-2.23s.08-1.74.24-2.22c.1-.29.23-.48.39-.59-.16-.11-.29-.3-.39-.59-.16-.47-.24-1.21-.24-2.21s.08-1.74.24-2.21c.1-.3.24-.5.41-.61-.17-.11-.31-.31-.41-.61-.16-.47-.24-1.21-.24-2.21s.08-1.71.24-2.2c.16-.49.4-.73.74-.73h17c.32,0,.57.24.72.73.16.49.24,1.22.24,2.2s-.08,1.74-.24,2.21c-.07.22-.17.39-.28.51h3.14c.33,0,.58.24.73.72.16.47.24,1.21.24,2.21s-.08,1.74-.24,2.21c-.1.29-.23.48-.39.6.16.11.29.3.39.59.16.48.24,1.22.24,2.22s-.08,1.74-.24,2.23c-.09.28-.22.47-.37.59.15.12.28.31.37.59.16.49.24,1.22.24,2.2s-.08,1.74-.24,2.21c-.1.31-.24.5-.41.61.17.11.31.31.41.63.16.49.24,1.22.24,2.2s-.08,1.74-.24,2.21c-.1.29-.23.48-.39.6.16.11.29.3.39.59.16.48.24,1.22.24,2.22s-.08,1.74-.24,2.23c-.16.49-.41.73-.75.73h-3.1c.1.12.18.27.25.47.16.48.24,1.2.24,2.18s-.08,1.74-.24,2.23c-.16.49-.4.73-.72.73h-10.29c.1.12.19.28.26.49.16.49.24,1.22.24,2.2s-.08,1.74-.24,2.21c-.1.29-.23.48-.39.6.16.11.29.3.39.59.16.48.24,1.22.24,2.22s-.08,1.77-.24,2.25c-.1.29-.23.48-.39.59.16.11.29.3.39.59.16.48.24,1.2.24,2.18s-.08,1.74-.24,2.23c-.16.49-.4.73-.73.73h-6.24c-.33,0-.58-.24-.74-.73-.16-.49-.24-1.23-.24-2.23s.08-1.7.24-2.18c.1-.29.23-.48.39-.59-.16-.11-.29-.3-.39-.59ZM319.53,66.21c-.16-.47-.24-1.23-.24-2.25s.08-1.74.24-2.22c.1-.29.23-.48.39-.59-.16-.11-.29-.3-.39-.59-.16-.47-.24-1.21-.24-2.21s.08-1.71.24-2.2c.1-.3.23-.49.39-.61-.16-.12-.29-.31-.39-.61-.16-.49-.24-1.23-.24-2.23s.08-1.7.24-2.18c.1-.29.23-.48.39-.59-.16-.12-.29-.31-.39-.61-.16-.49-.24-1.23-.24-2.23s.08-1.74.24-2.22c.1-.29.23-.48.39-.59-.16-.11-.29-.3-.39-.59-.16-.47-.24-1.21-.24-2.21s.08-1.71.24-2.2c.1-.31.24-.51.42-.63-.17-.11-.31-.31-.42-.61-.16-.47-.24-1.21-.24-2.21s.08-1.71.24-2.2c.09-.28.22-.47.37-.59-.15-.12-.27-.31-.37-.59-.16-.49-.24-1.23-.24-2.23s.08-1.74.24-2.22c.16-.47.4-.71.74-.71h3.09c-.1-.12-.19-.27-.26-.47-.16-.47-.24-1.21-.24-2.21s.08-1.74.24-2.21c.16-.48.41-.72.74-.72h3.14c-.11-.12-.21-.28-.28-.51-.16-.47-.24-1.21-.24-2.21s.08-1.71.24-2.2c.16-.49.41-.73.74-.73h6.23c.32,0,.57.24.73.73.16.49.24,1.22.24,2.2s-.08,1.74-.24,2.21c-.08.22-.17.39-.28.51h3.15c.32,0,.57.24.72.72.16.47.24,1.21.24,2.21s-.08,1.74-.24,2.21c-.07.2-.15.36-.25.47h3.1c.34,0,.59.24.75.71.16.48.24,1.22.24,2.22s-.08,1.74-.24,2.23c-.09.28-.22.47-.37.59.15.12.28.31.37.59.16.49.24,1.22.24,2.2s-.08,1.74-.24,2.21c-.1.31-.24.5-.41.61.17.11.31.31.41.63.16.49.24,1.22.24,2.2s-.08,1.74-.24,2.21c-.1.29-.23.48-.39.6.16.11.29.3.39.59.16.48.24,1.22.24,2.22s-.08,1.74-.24,2.23c-.1.3-.23.49-.39.61.16.11.29.3.39.59.16.48.24,1.2.24,2.18s-.08,1.74-.24,2.23c-.1.3-.23.49-.39.61.16.12.29.31.39.61.16.49.24,1.22.24,2.2s-.08,1.74-.24,2.21c-.1.29-.23.48-.39.6.16.11.29.3.39.59.16.48.24,1.22.24,2.22s-.08,1.77-.24,2.25c-.1.29-.23.48-.39.59.16.11.29.3.39.59.16.48.24,1.2.24,2.18s-.08,1.74-.24,2.23c-.16.49-.4.73-.73.73h-6.25c-.34,0-.59-.24-.75-.73-.16-.49-.24-1.23-.24-2.23s.08-1.7.24-2.18c.1-.29.23-.48.39-.59-.16-.11-.3-.3-.39-.59-.16-.47-.24-1.23-.24-2.25s.08-1.74.24-2.22c.1-.29.23-.48.39-.59-.16-.11-.3-.3-.39-.59-.16-.47-.24-1.21-.24-2.21s.08-1.71.24-2.2c.1-.3.23-.49.4-.61-.16-.12-.3-.31-.4-.61-.16-.49-.24-1.23-.24-2.23s.08-1.7.24-2.18c.07-.2.16-.35.26-.47h-7.13c.1.12.19.27.25.47.16.48.24,1.2.24,2.18s-.08,1.74-.24,2.23c-.1.3-.23.49-.39.61.16.12.29.31.39.61.16.49.24,1.22.24,2.2s-.08,1.74-.24,2.21c-.1.29-.23.48-.39.6.16.11.29.3.39.59.16.48.24,1.22.24,2.22s-.08,1.77-.24,2.25c-.1.29-.23.48-.39.59.16.11.29.3.39.59.16.48.24,1.2.24,2.18s-.08,1.74-.24,2.23c-.16.49-.4.73-.73.73h-6.24c-.33,0-.58-.24-.74-.73-.16-.49-.24-1.23-.24-2.23s.08-1.7.24-2.18c.1-.29.23-.48.39-.59-.16-.11-.29-.3-.39-.59ZM187.33,204.35l-.46-.25-164.17-28.85.14-1.99,175.06,31.1h-10.56ZM206.73,204.35l-.46-.25L22.7,171.82l.14-1.99,194.46,34.52h-10.56ZM226.14,204.35s-.21-.22-.46-.25L22.7,168.4l.14-1.99,205.29,36.24v1.7c-.64-.05-1.34.07-1.99,0ZM228.13,201.23L22.35,164.92l.34-1.94,205.78,36.32-.34,1.94ZM228.13,197.81L22.35,161.49l.34-1.94,205.78,36.32-.34,1.94ZM228.13,194.38L22.35,158.07l.34-1.94,205.78,36.32-.34,1.94ZM228.13,190.96L22.35,154.65l.34-1.94,205.78,36.32-.34,1.94ZM250.94,77.44l.02,1.69-22.83-2.85v1.27s22.8,3.04,22.8,3.04l.02,1.69-22.83-2.85v1.27s22.8,3.04,22.8,3.04l.02,1.69c-11.9-1.41-23.8-2.97-35.61-5.05l-1.2.06,13.98,2.43v1.14s22.66,2.84,22.66,2.84l.04,1.73c-15.06-1.82-30.08-3.93-45-6.65-13.59-2.48-27.04-5.57-40.68-7.82-8.52-1.41-17.35-2.8-25.92-3.76-.31-.03-1.26-.17-1.26.11l89.99,15.82.33.89,22.65,2.86-.12,1.69c-13.43-1.61-26.83-3.47-40.14-5.79-11.43-2-22.72-4.58-34.13-6.67-13.89-2.55-27.88-4.54-41.89-6.33l-1.54.11,94.81,16.7c.24.08.19.51.4.55,6.57,1.41,14.54,1.64,21.32,2.6.43.06.85.24,1.29.28l.02,1.69c-8.12-1-16.26-1.96-24.36-3.18-30.81-4.63-60.87-12-91.95-15.62-.59-.07-6.39-.78-6.39-.46,15.55,2.97,31.26,5.14,46.86,7.93,17.74,3.18,35.43,6.98,53.23,9.83,7.49,1.2,15.09,1.83,22.59,2.95l.02,1.69-22.94-2.88c-26.75-4.07-53.21-10.15-79.96-14.2-8.33-1.26-16.79-1.8-25.11-3.14l-1.25.11c7.78,1.24,15.52,2.84,23.3,4.1,8.41,1.36,16.87,2.37,25.27,3.83,10.95,1.9,21.78,4.36,32.7,6.39,15.9,2.96,31.92,5.31,47.97,7.24l.02,1.69c-3.35-.5-6.74-.75-10.1-1.17-37.7-4.76-74.92-13.55-112.71-18.25-3.83-.48-7.65-1.22-11.47-1.65-.31-.03-1.26-.17-1.25.11,7.68,1.24,15.32,2.9,23.01,4.1,5.85.91,11.76,1.46,17.61,2.36,21.84,3.37,43.32,8.45,65.14,11.9,9.89,1.57,19.84,2.76,29.75,4.06l.02,1.69-22.65-2.86-.34.59c-30.49-4.87-60.79-11.74-91.33-16.23-5.65-.83-11.39-1.26-17.05-2.07-7.48-1.07-14.93-2.3-22.37-3.59l-1.2.06,37.56,6.66c34.06,3.41,67.15,12.16,101.01,16.84,5.44.75,10.93,1.22,16.35,2.05l-.12,1.69-22.67-2.83-.16.84-43.8-7.56c22.05,4.7,44.33,8.38,66.75,11.01l-.12,1.69-22.68-2.86v1.27s22.8,3.04,22.8,3.04l.02,1.69-22.83-2.85v1.27s22.8,3.04,22.8,3.04l.02,1.69-22.83-2.85v1.27s22.8,3.04,22.8,3.04l.02,1.69-22.83-2.85v1.27s22.8,3.04,22.8,3.04l.02,1.69c-11.9-1.41-23.8-2.97-35.61-5.05l-1.2.06,13.98,2.43v1.14s22.66,2.84,22.66,2.84l.04,1.73c-15.06-1.82-30.08-3.93-45-6.65-13.59-2.48-27.04-5.57-40.68-7.82-8.52-1.41-17.35-2.8-25.92-3.76-.31-.03-1.26-.17-1.26.11l89.99,15.82.33.89,22.65,2.86.02,1.69c-13.48-1.58-26.93-3.46-40.29-5.79-11.43-2-22.72-4.58-34.13-6.67-13.89-2.55-27.88-4.54-41.89-6.33l-1.54.11,94.81,16.71c.24.08.19.51.4.55,6.57,1.41,14.54,1.64,21.32,2.6.43.06.85.24,1.29.28l.02,1.69c-8.12-1-16.26-1.96-24.36-3.18-30.81-4.63-60.87-12-91.95-15.62-.59-.07-6.39-.78-6.39-.46,15.55,2.98,31.26,5.14,46.86,7.93,17.74,3.18,35.43,6.98,53.23,9.83,7.49,1.2,15.09,1.83,22.59,2.95l.02,1.69-22.94-2.88c-26.75-4.07-53.21-10.15-79.96-14.2-8.33-1.26-16.79-1.8-25.11-3.14l-1.25.11c7.78,1.24,15.52,2.84,23.3,4.1,8.41,1.36,16.87,2.37,25.27,3.83,10.95,1.9,21.78,4.36,32.7,6.39,15.9,2.95,31.92,5.31,47.97,7.24l.02,1.69c-3.35-.5-6.74-.75-10.1-1.17-37.7-4.76-74.92-13.55-112.71-18.25-3.83-.48-7.65-1.22-11.47-1.65-.31-.03-1.26-.17-1.25.11,7.68,1.24,15.32,2.9,23.01,4.1,5.85.91,11.76,1.46,17.61,2.36,21.84,3.37,43.32,8.45,65.14,11.9,9.89,1.57,19.84,2.76,29.75,4.06l.02,1.69-22.65-2.85-.34.59c-30.49-4.87-60.79-11.74-91.33-16.23-5.65-.83-11.39-1.26-17.05-2.07-7.48-1.07-14.93-2.3-22.37-3.59l-1.2.06,37.56,6.66c34.06,3.41,67.15,12.16,101.01,16.84,5.44.75,10.93,1.22,16.35,2.05l-.12,1.69-22.67-2.83-.16.84-43.8-7.56c22.05,4.69,44.33,8.38,66.75,11.01l-.12,1.69-22.68-2.86v1.27s22.8,3.04,22.8,3.04l.02,1.69-22.83-2.85v1.27s22.8,3.04,22.8,3.04l.02,1.69-22.83-2.85v1.27s22.8,3.04,22.8,3.04l.02,1.69-22.83-2.85v1.27s22.8,3.04,22.8,3.04l.02,1.69c-11.9-1.41-23.8-2.97-35.61-5.05l-1.2.06,13.98,2.43v1.14s22.66,2.84,22.66,2.84l.04,1.73c-15.06-1.82-30.08-3.93-45-6.65-13.59-2.48-27.04-5.57-40.68-7.82-8.52-1.41-17.35-2.8-25.92-3.76-.31-.03-1.26-.17-1.26.11l89.99,15.82.33.89,22.65,2.86.02,1.69c-13.48-1.58-26.93-3.46-40.29-5.79-11.43-2-22.72-4.58-34.13-6.67-13.89-2.55-27.88-4.54-41.89-6.33l-1.54.11,94.81,16.7c.24.08.19.51.4.55,6.57,1.41,14.54,1.64,21.32,2.6.43.06.85.24,1.29.28l.02,1.69c-8.12-1-16.26-1.96-24.36-3.18-30.81-4.63-60.87-12-91.95-15.62-.59-.07-6.39-.78-6.39-.46,15.55,2.97,31.26,5.14,46.86,7.93,17.74,3.18,35.43,6.98,53.23,9.82,7.49,1.2,15.09,1.83,22.59,2.95l.02,1.69-22.94-2.88c-26.75-4.07-53.21-10.15-79.96-14.2-8.33-1.26-16.79-1.8-25.11-3.14l-1.25.11c7.78,1.24,15.52,2.84,23.3,4.1,8.41,1.36,16.87,2.37,25.27,3.83,10.95,1.9,21.78,4.36,32.7,6.39,15.9,2.96,31.92,5.31,47.97,7.24l.02,1.69c-3.35-.5-6.74-.75-10.1-1.17-37.7-4.76-74.92-13.55-112.71-18.25-3.83-.48-7.65-1.22-11.47-1.65-.31-.03-1.26-.17-1.25.11,7.68,1.24,15.32,2.9,23.01,4.1,5.85.91,11.76,1.46,17.61,2.36,21.84,3.37,43.32,8.45,65.14,11.9,9.89,1.57,19.84,2.76,29.75,4.06l.02,1.69-22.65-2.85-.34.59c-30.49-4.87-60.79-11.74-91.33-16.23-5.65-.83-11.39-1.26-17.05-2.07-7.48-1.07-14.93-2.3-22.37-3.59l-1.2.06,37.56,6.66c34.06,3.41,67.15,12.16,101.01,16.84,5.44.75,10.93,1.22,16.35,2.05l-.12,1.69-22.67-2.83-.16.84-42.83-7.68-.97.25c6.78,1.04,13.46,2.67,20.2,3.91,15.43,2.85,30.97,5.05,46.54,6.96l-.12,1.69-22.68-2.86v1.27s22.8,3.04,22.8,3.04l.02,1.69-22.83-2.85-.15,1.43L22.7,151.28l.14-1.99,101.04,17.94,26.07,3.17-23.01-4.24c-21.9-2.66-43.51-7-65.11-11.36l-39.14-6.94.14-1.99,105.9,18.79,30.92,3.89c-9.3-1.48-18.55-3.54-27.86-4.95-11.95-1.82-23.91-3.16-35.83-5.26-11.42-2.01-22.73-4.55-34.13-6.67-4.72-.88-11.87-1.36-16.12-2.66-.26-.08-.36-.86-.98-.77l-22.04-3.79.14-1.99,68.05,11.84c-15.04-2.89-30.01-6.28-45.2-8.4l-.22-.8-22.77-4.07.14-1.99,55.21,9.56-32.53-5.85-.03-1.1-22.78-4.04.14-1.99,22.68,4-.03-1.39-22.78-4.04v-1.99s22.82,3.99,22.82,3.99l-.03-1.39-22.78-4.04v-1.99s22.82,4,22.82,4l-.02-.97.88-.32-23.68-4.15.14-1.99,22.67,3.98.02-.82c7.54.96,15.1,2.35,22.59,3.77,9.87,1.87,19.66,4.1,29.56,5.82,8.61,1.5,17.53,2.98,26.2,4.05.41.05,3.54.48,3.54.18l-104.71-18.41v-1.99s22.63,4,22.63,4l.37-.58c26.14,4.11,51.89,10.22,78.18,13.66,2.35.31,4.75.65,7.1.89.3.03,1.29.11,1.29-.14l-109.56-19.27v-1.99s21.86,3.98,21.86,3.98c7.7.25,15.87,2.07,23.56,3.52,20.95,3.97,41.34,8.25,62.61,10.73.59.07,6.39.78,6.39.46l-114.41-20.12v-1.99c7.27,1.28,14.55,2.75,21.85,3.96,23.78,3.95,47.5,8.86,71.35,12.54,8.23,1.27,16.54,2.03,24.78,3.18l1.29-.14-119.27-20.98v-1.99s101.18,17.94,101.18,17.94l26.08,3.03c-7.68-1.26-15.33-2.87-23.01-4.1-21.78-3.48-43.6-6.4-65.11-11.36l-39.14-6.94v-1.99s106.03,18.79,106.03,18.79l30.92,3.89c-9.3-1.48-18.55-3.54-27.86-4.95-11.95-1.82-23.91-3.16-35.83-5.26-11.42-2.01-22.73-4.55-34.13-6.67-4.72-.88-11.87-1.36-16.12-2.66-.26-.08-.36-.86-.98-.77l-22.04-3.79.14-1.99,68.05,11.84c-15.04-2.89-30.01-6.28-45.2-8.4l-.22-.8-22.77-4.07.14-1.99,55.21,9.56-32.53-5.85-.03-1.1-22.78-4.04.14-1.99,22.68,4-.03-1.39-22.78-4.04v-1.99s22.82,3.99,22.82,3.99l-.03-1.39-22.78-4.04v-1.99s22.82,4,22.82,4l-.02-.97.88-.32-23.68-4.15.14-1.99,22.67,3.98.02-.82c7.54.96,15.1,2.35,22.59,3.77,9.87,1.87,19.66,4.1,29.56,5.82,8.61,1.5,17.53,2.98,26.2,4.05.41.05,3.54.48,3.54.18l-104.71-18.41v-1.99s22.63,4,22.63,4l.37-.58c26.14,4.11,51.89,10.22,78.18,13.66,2.35.31,4.75.65,7.1.89.3.03,1.29.11,1.29-.14l-109.56-19.27v-1.99s21.86,3.98,21.86,3.98c7.7.25,15.87,2.07,23.56,3.52,20.95,3.97,41.34,8.25,62.61,10.73.59.07,6.39.78,6.39.46l-114.41-20.12v-1.99c7.27,1.28,14.55,2.75,21.85,3.96,23.78,3.95,47.5,8.86,71.35,12.54,8.23,1.27,16.54,2.03,24.78,3.18l1.29-.14-119.27-20.98v-1.99s101.18,17.94,101.18,17.94l26.08,3.03c-7.68-1.26-15.33-2.87-23.01-4.1-21.78-3.48-43.6-6.4-65.11-11.36l-39.14-6.94v-1.99s106.03,18.79,106.03,18.79l30.92,3.89c-9.3-1.48-18.55-3.54-27.86-4.95-11.95-1.82-23.91-3.16-35.83-5.26-11.42-2.01-22.73-4.55-34.13-6.67-4.72-.88-11.87-1.36-16.12-2.66-.26-.08-.36-.86-.98-.77l-22.04-3.79.14-1.99,68.05,11.84c-15.04-2.89-30.01-6.28-45.2-8.4l-.22-.8-22.77-4.07.14-1.99,55.21,9.56-32.53-5.85-.03-1.1-22.78-4.04.14-1.99,22.68,4-.03-1.39-22.78-4.04v-1.99s22.82,3.99,22.82,3.99l-.03-1.39-22.78-4.04v-1.99s22.82,4,22.82,4l-.02-.97.88-.32-23.68-4.15.14-1.99,22.67,3.98.02-.82c7.54.96,15.1,2.35,22.59,3.77,9.87,1.87,19.66,4.1,29.56,5.82,8.61,1.5,17.53,2.98,26.2,4.05.41.05,3.54.48,3.54.18L22.7,48.59v-1.99s22.63,4,22.63,4l.37-.58c26.14,4.11,51.89,10.22,78.18,13.66,2.35.31,4.75.65,7.1.89.3.03,1.29.11,1.29-.14L22.7,45.17v-1.99s21.86,3.98,21.86,3.98c7.7.25,15.87,2.07,23.56,3.52,20.95,3.97,41.34,8.25,62.61,10.73.59.07,6.39.78,6.39.46L22.7,41.74v-1.99c7.27,1.28,14.55,2.75,21.85,3.96,23.78,3.95,47.5,8.86,71.35,12.54,8.23,1.27,16.54,2.03,24.78,3.18l1.29-.14L22.7,38.32v-1.99s101.18,17.94,101.18,17.94l26.08,3.03c-7.68-1.26-15.33-2.87-23.01-4.1-21.78-3.48-43.6-6.4-65.11-11.36l-39.14-6.94v-1.99s106.03,18.79,106.03,18.79c35.73,3.24,70.4,12.51,105.86,17.41,5.44.75,10.93,1.22,16.35,2.05l-.12,1.69-22.68-2.86v1.27s22.8,3.04,22.8,3.04l.02,1.69-22.83-2.85v1.27s22.8,3.04,22.8,3.04ZM250.55,69.7c-7.97-1.13-15.98-1.97-23.94-3.17-20.72-3.11-41.06-7.93-61.71-11.33-20.63-3.4-41.49-5.23-62.13-8.64-19.15-3.16-38.01-7.83-57.25-10.52v-1.71c21.02,2.97,41.68,8.07,62.67,11.37,17.14,2.69,34.43,4.24,51.57,6.93,17.65,2.76,35.03,6.82,52.63,9.86,12.79,2.21,25.67,3.92,38.55,5.53-.06.49.4,1.79-.39,1.68ZM250.55,66.56c-7.97-1.13-15.98-1.97-23.94-3.17-20.72-3.11-41.06-7.93-61.71-11.33-20.63-3.4-41.49-5.23-62.13-8.64-19.15-3.16-38.01-7.83-57.25-10.52v-1.71c21.02,2.97,41.68,8.07,62.67,11.37,17.14,2.69,34.43,4.24,51.57,6.93,17.65,2.76,35.03,6.82,52.63,9.86,12.79,2.21,25.67,3.92,38.55,5.53-.06.49.4,1.79-.39,1.68ZM250.55,63.43c-7.97-1.13-15.98-1.97-23.94-3.17-20.72-3.11-41.06-7.93-61.71-11.33-20.63-3.4-41.49-5.23-62.13-8.64-19.15-3.16-38.01-7.83-57.25-10.52v-1.71c21.02,2.97,41.68,8.07,62.67,11.37,17.14,2.69,34.43,4.24,51.57,6.93,17.65,2.76,35.03,6.82,52.63,9.86,12.79,2.21,25.67,3.92,38.55,5.53-.06.49.4,1.79-.39,1.68ZM250.55,60.29c-7.97-1.13-15.98-1.97-23.94-3.17-20.72-3.11-41.06-7.93-61.71-11.33-20.63-3.4-41.49-5.23-62.13-8.64-19.15-3.16-38.01-7.83-57.25-10.52v-1.71c21.02,2.97,41.68,8.07,62.67,11.37,17.14,2.69,34.43,4.24,51.57,6.93,17.65,2.76,35.03,6.82,52.63,9.86,12.79,2.21,25.67,3.92,38.55,5.53-.06.49.4,1.79-.39,1.68ZM250.55,57.15c-7.97-1.13-15.98-1.97-23.94-3.17-20.72-3.11-41.06-7.93-61.71-11.33-20.63-3.4-41.49-5.23-62.13-8.64-19.15-3.16-38.01-7.83-57.25-10.52v-1.71c21.02,2.97,41.68,8.07,62.67,11.37,17.14,2.69,34.43,4.24,51.57,6.93,17.65,2.76,35.03,6.82,52.63,9.86,12.79,2.21,25.67,3.92,38.55,5.53-.06.49.4,1.79-.39,1.68ZM250.55,54.01c-7.97-1.13-15.98-1.97-23.94-3.17-20.72-3.11-41.06-7.93-61.71-11.33-20.63-3.4-41.49-5.23-62.13-8.64-19.15-3.16-38.01-7.83-57.25-10.52v-1.71c21.02,2.97,41.68,8.07,62.67,11.37,17.14,2.69,34.43,4.24,51.57,6.93,17.65,2.76,35.03,6.82,52.63,9.86,12.79,2.21,25.67,3.92,38.55,5.53-.06.49.4,1.79-.39,1.68ZM250.55,50.87c-9.21-1.3-18.46-2.31-27.65-3.74-19.45-3.03-38.59-7.56-58-10.76-22.91-3.78-46.05-5.8-68.93-9.82-16.84-2.97-33.48-7.02-50.45-9.33v-1.13c3.45-.28,6.67.41,10.04.94,17.59,2.79,34.96,7.08,52.63,9.86,17.14,2.69,34.43,4.24,51.57,6.93,20.59,3.22,40.85,8.07,61.43,11.33,9.89,1.57,19.83,2.76,29.75,4.06-.06.49.4,1.79-.39,1.68ZM250.55,47.74c-9.21-1.3-18.46-2.31-27.65-3.74-19.45-3.03-38.59-7.56-58-10.76-26.52-4.37-53.43-6.33-79.77-11.82l-26.19-5.33c2.91.17,6.08-.25,8.96.03,6.18.61,14.02,2.97,20.38,4.16,28.87,5.4,58.01,7.76,86.86,13.01,12.45,2.26,24.79,5.09,37.27,7.24,12.79,2.21,25.67,3.92,38.55,5.53-.06.49.4,1.79-.39,1.68ZM289.11,27.99c.16.48.24,1.22.24,2.22s-.08,1.74-.24,2.23c-.16.49-.41.73-.75.73h-6.24c-.34,0-.59-.24-.75-.73-.16-.49-.24-1.23-.24-2.23s.08-1.74.24-2.22c.07-.2.16-.35.26-.47h-7.13c.1.12.19.27.26.47.16.48.24,1.22.24,2.22s-.08,1.74-.24,2.23c-.09.28-.22.47-.37.59.15.12.28.31.37.59.16.49.24,1.22.24,2.2s-.08,1.74-.24,2.21c-.07.22-.17.39-.28.51h6.71c.32,0,.57.24.73.73.16.49.24,1.22.24,2.2s-.08,1.74-.24,2.21c-.07.2-.16.36-.26.47h3.11c.33,0,.58.24.74.71.16.48.24,1.22.24,2.22s-.08,1.74-.24,2.23c-.07.21-.16.37-.26.49h3.12c.33,0,.58.24.73.71.16.48.24,1.2.24,2.18s-.08,1.74-.24,2.23c-.1.3-.23.49-.39.61.16.12.29.31.39.61.16.49.24,1.22.24,2.2s-.08,1.74-.24,2.21c-.1.29-.23.48-.39.6.16.11.29.3.39.59.16.48.24,1.22.24,2.22s-.08,1.77-.24,2.25c-.16.48-.41.72-.75.72h-3.1c.1.12.18.27.25.47.16.48.24,1.2.24,2.18s-.08,1.74-.24,2.23c-.16.49-.4.73-.72.73h-13.42c-.33,0-.58-.24-.74-.73-.16-.49-.24-1.23-.24-2.23s.08-1.7.24-2.18c.07-.2.16-.35.26-.47h-3.09c-.33,0-.58-.24-.74-.72-.16-.47-.24-1.23-.24-2.25s.08-1.74.24-2.22c.1-.29.23-.48.39-.59-.16-.11-.29-.3-.39-.59-.16-.47-.24-1.21-.24-2.21s.08-1.71.24-2.2c.16-.49.4-.73.74-.73h6.24c.33,0,.58.24.73.73.16.49.24,1.22.24,2.2s-.08,1.74-.24,2.21c-.07.2-.15.36-.25.47h7.13c-.1-.12-.19-.27-.26-.47-.16-.47-.24-1.21-.24-2.21s.08-1.71.24-2.2c.1-.3.23-.49.4-.61-.16-.12-.3-.31-.4-.61-.16-.49-.24-1.23-.24-2.23s.08-1.7.24-2.18c.07-.2.16-.35.26-.47h-6.67c-.33,0-.58-.24-.74-.73-.16-.49-.24-1.23-.24-2.23s.08-1.74.24-2.22c.07-.2.16-.35.26-.47h-3.12c-.33,0-.58-.24-.74-.72-.16-.47-.24-1.21-.24-2.21s.08-1.71.24-2.2c.08-.23.17-.4.29-.52h-3.12c-.33,0-.58-.24-.74-.72-.16-.47-.24-1.21-.24-2.21s.08-1.71.24-2.2c.09-.28.22-.47.37-.59-.15-.12-.27-.31-.37-.59-.16-.49-.24-1.23-.24-2.23s.08-1.74.24-2.22c.1-.29.23-.48.39-.59-.16-.11-.29-.3-.39-.59-.16-.47-.24-1.21-.24-2.21s.08-1.74.24-2.21c.16-.48.4-.72.74-.72h3.12c-.11-.12-.21-.28-.28-.51-.16-.47-.24-1.21-.24-2.21s.08-1.71.24-2.2c.16-.49.41-.73.74-.73h13.42c.32,0,.57.24.72.73.16.49.24,1.22.24,2.2s-.08,1.74-.24,2.21c-.07.22-.17.39-.28.51h3.14c.33,0,.58.24.73.72.16.47.24,1.21.24,2.21s-.08,1.74-.24,2.21c-.1.29-.23.48-.39.6.16.11.29.3.39.59ZM312.99,159.83c.16.48.24,1.22.24,2.22s-.08,1.74-.24,2.23c-.16.49-.41.73-.75.73h-6.24c-.34,0-.59-.24-.75-.73-.16-.49-.24-1.23-.24-2.23s.08-1.74.24-2.22c.07-.2.16-.35.26-.47h-7.13c.1.12.19.27.26.47.16.48.24,1.22.24,2.22s-.08,1.74-.24,2.23c-.09.28-.22.47-.37.59.15.12.28.31.37.59.16.49.24,1.22.24,2.2s-.08,1.74-.24,2.21c-.07.22-.17.39-.28.51h6.71c.32,0,.57.24.73.73.16.49.24,1.22.24,2.2s-.08,1.74-.24,2.21c-.07.2-.16.36-.26.47h3.11c.33,0,.58.24.74.71.16.48.24,1.22.24,2.22s-.08,1.74-.24,2.23c-.07.21-.16.37-.26.49h3.12c.33,0,.58.24.73.71.16.48.24,1.2.24,2.18s-.08,1.74-.24,2.23c-.1.3-.23.49-.39.61.16.12.29.31.39.61.16.49.24,1.22.24,2.2s-.08,1.74-.24,2.21c-.1.29-.23.48-.39.6.16.11.29.3.39.59.16.48.24,1.22.24,2.22s-.08,1.77-.24,2.25c-.16.48-.41.72-.75.72h-3.1c.1.12.18.27.25.47.16.48.24,1.2.24,2.18s-.08,1.74-.24,2.23c-.16.49-.4.73-.72.73h-13.42c-.33,0-.58-.24-.74-.73-.16-.49-.24-1.23-.24-2.23s.08-1.7.24-2.18c.07-.2.16-.35.26-.47h-3.09c-.33,0-.58-.24-.74-.72-.16-.47-.24-1.23-.24-2.25s.08-1.74.24-2.22c.1-.29.23-.48.39-.59-.16-.11-.29-.3-.39-.59-.16-.47-.24-1.21-.24-2.21s.08-1.71.24-2.2c.16-.49.4-.73.74-.73h6.24c.33,0,.58.24.73.73.16.49.24,1.22.24,2.2s-.08,1.74-.24,2.21c-.07.2-.15.36-.25.47h7.13c-.1-.12-.19-.27-.26-.47-.16-.47-.24-1.21-.24-2.21s.08-1.71.24-2.2c.1-.3.23-.49.4-.61-.16-.12-.3-.31-.4-.61-.16-.49-.24-1.23-.24-2.23s.08-1.7.24-2.18c.07-.2.16-.35.26-.47h-6.67c-.33,0-.58-.24-.74-.73-.16-.49-.24-1.23-.24-2.23s.08-1.74.24-2.22c.07-.2.16-.35.26-.47h-3.12c-.33,0-.58-.24-.74-.72-.16-.47-.24-1.21-.24-2.21s.08-1.71.24-2.2c.08-.23.17-.4.29-.52h-3.12c-.33,0-.58-.24-.74-.72-.16-.47-.24-1.21-.24-2.21s.08-1.71.24-2.2c.09-.28.22-.47.37-.59-.15-.12-.27-.31-.37-.59-.16-.49-.24-1.23-.24-2.23s.08-1.74.24-2.22c.1-.29.23-.48.39-.59-.16-.11-.29-.3-.39-.59-.16-.47-.24-1.21-.24-2.21s.08-1.74.24-2.21c.16-.48.4-.72.74-.72h3.12c-.11-.12-.21-.28-.28-.51-.16-.47-.24-1.21-.24-2.21s.08-1.71.24-2.2c.16-.49.41-.73.74-.73h13.42c.32,0,.57.24.72.73.16.49.24,1.22.24,2.2s-.08,1.74-.24,2.21c-.07.22-.17.39-.28.51h3.14c.33,0,.58.24.73.72.16.47.24,1.21.24,2.21s-.08,1.74-.24,2.21c-.1.29-.23.48-.39.6.16.11.29.3.39.59ZM315.35,88.3c.16.47.24,1.21.24,2.21s-.08,1.74-.24,2.21c-.16.48-.4.72-.73.72h-6.71c.1.12.19.27.26.47.16.48.24,1.21.24,2.22s-.08,1.74-.24,2.23c-.09.28-.22.47-.37.59.15.12.27.31.37.59.16.49.24,1.22.24,2.2s-.08,1.74-.24,2.21c-.1.31-.24.5-.41.61.17.11.31.31.41.63.16.49.24,1.22.24,2.2s-.08,1.74-.24,2.21c-.1.29-.23.48-.39.6.16.11.29.3.39.59.16.48.24,1.21.24,2.22s-.08,1.74-.24,2.23c-.1.3-.23.49-.39.61.16.11.29.3.39.59.16.48.24,1.2.24,2.18s-.08,1.74-.24,2.23c-.1.3-.23.49-.39.61.16.12.29.31.39.61.16.49.24,1.22.24,2.2s-.08,1.74-.24,2.21c-.1.29-.23.48-.39.6.16.11.29.3.39.59.16.48.24,1.22.24,2.22s-.08,1.77-.24,2.25c-.1.29-.23.48-.39.59.16.11.29.3.39.59.16.48.24,1.2.24,2.18s-.08,1.74-.24,2.23c-.16.49-.41.73-.73.73h-6.23c-.33,0-.58-.24-.74-.73s-.24-1.23-.24-2.23.08-1.7.24-2.18c.1-.29.23-.48.39-.59-.16-.11-.29-.3-.39-.59-.16-.47-.24-1.23-.24-2.25s.08-1.74.24-2.22c.1-.29.23-.48.39-.59-.16-.11-.29-.3-.39-.59-.16-.47-.24-1.21-.24-2.21s.08-1.71.24-2.2c.1-.3.23-.49.4-.61-.16-.12-.3-.31-.4-.61-.16-.49-.24-1.23-.24-2.23s.08-1.7.24-2.18c.1-.29.23-.48.39-.59-.16-.12-.3-.31-.39-.61-.16-.49-.24-1.23-.24-2.23s.08-1.74.24-2.22c.1-.29.23-.48.39-.59-.16-.11-.29-.3-.39-.59-.16-.47-.24-1.21-.24-2.21s.08-1.71.24-2.2c.1-.31.25-.51.42-.63-.17-.11-.32-.31-.42-.61-.16-.47-.24-1.21-.24-2.21s.08-1.71.24-2.2c.09-.28.22-.47.37-.59-.15-.12-.28-.31-.37-.59-.16-.49-.24-1.23-.24-2.23s.08-1.74.24-2.22c.07-.2.16-.35.26-.47h-6.69c-.33,0-.58-.24-.74-.72-.16-.47-.24-1.21-.24-2.21s.08-1.74.24-2.21c.1-.3.24-.5.41-.61-.17-.11-.31-.31-.41-.61-.16-.47-.24-1.21-.24-2.21s.08-1.71.24-2.2c.16-.49.4-.73.74-.73h20.59c.33,0,.58.24.73.73.16.49.24,1.22.24,2.2s-.08,1.74-.24,2.21c-.1.3-.24.5-.41.61.17.11.31.31.41.61ZM315.35,22.38c.16.47.24,1.21.24,2.21s-.08,1.74-.24,2.21c-.1.29-.23.48-.39.6.16.11.29.3.39.59.16.48.24,1.22.24,2.22s-.08,1.74-.24,2.23c-.09.28-.22.47-.37.59.15.12.28.31.37.59.16.49.24,1.22.24,2.2s-.08,1.74-.24,2.21c-.1.31-.24.5-.41.61.17.11.31.31.41.63.16.49.24,1.22.24,2.2s-.08,1.74-.24,2.21c-.1.29-.23.48-.39.6.16.11.29.3.39.59.16.48.24,1.22.24,2.22s-.08,1.74-.24,2.23c-.1.3-.23.49-.39.61.16.11.29.3.39.59.16.48.24,1.2.24,2.18s-.08,1.74-.24,2.23c-.1.3-.23.49-.39.61.16.12.29.31.39.61.16.49.24,1.22.24,2.2s-.08,1.74-.24,2.21c-.1.29-.23.48-.39.6.16.11.29.3.39.59.16.48.24,1.22.24,2.22s-.08,1.77-.24,2.25c-.1.29-.23.48-.39.59.16.11.29.3.39.59.16.48.24,1.2.24,2.18s-.08,1.74-.24,2.23c-.16.49-.4.73-.73.73h-6.25c-.34,0-.59-.24-.75-.73-.16-.49-.24-1.23-.24-2.23s.08-1.7.24-2.18c.1-.29.23-.48.39-.59-.16-.11-.3-.3-.39-.59-.16-.47-.24-1.23-.24-2.25s.08-1.74.24-2.22c.1-.29.23-.48.39-.59-.16-.11-.3-.3-.39-.59-.16-.47-.24-1.21-.24-2.21s.08-1.71.24-2.2c.1-.3.23-.49.4-.61-.16-.12-.3-.31-.4-.61-.16-.49-.24-1.23-.24-2.23s.08-1.7.24-2.18c.07-.2.16-.35.26-.47h-7.13c.1.12.19.27.25.47.16.48.24,1.2.24,2.18s-.08,1.74-.24,2.23c-.1.3-.23.49-.39.61.16.12.29.31.39.61.16.49.24,1.22.24,2.2s-.08,1.74-.24,2.21c-.1.29-.23.48-.39.6.16.11.29.3.39.59.16.48.24,1.22.24,2.22s-.08,1.77-.24,2.25c-.1.29-.23.48-.39.59.16.11.29.3.39.59.16.48.24,1.2.24,2.18s-.08,1.74-.24,2.23c-.16.49-.4.73-.73.73h-6.24c-.33,0-.58-.24-.74-.73-.16-.49-.24-1.23-.24-2.23s.08-1.7.24-2.18c.1-.29.23-.48.39-.59-.16-.11-.29-.3-.39-.59-.16-.47-.24-1.23-.24-2.25s.08-1.74.24-2.22c.1-.29.23-.48.39-.59-.16-.11-.29-.3-.39-.59-.16-.47-.24-1.21-.24-2.21s.08-1.71.24-2.2c.1-.3.23-.49.39-.61-.16-.12-.29-.31-.39-.61-.16-.49-.24-1.23-.24-2.23s.08-1.7.24-2.18c.1-.29.23-.48.39-.59-.16-.12-.29-.31-.39-.61-.16-.49-.24-1.23-.24-2.23s.08-1.74.24-2.22c.1-.29.23-.48.39-.59-.16-.11-.29-.3-.39-.59-.16-.47-.24-1.21-.24-2.21s.08-1.71.24-2.2c.1-.31.24-.51.42-.63-.17-.11-.31-.31-.42-.61-.16-.47-.24-1.21-.24-2.21s.08-1.71.24-2.2c.09-.28.22-.47.37-.59-.15-.12-.27-.31-.37-.59-.16-.49-.24-1.23-.24-2.23s.08-1.74.24-2.22c.1-.29.23-.48.39-.59-.16-.11-.29-.3-.39-.59-.16-.47-.24-1.21-.24-2.21s.08-1.74.24-2.21c.1-.3.24-.5.41-.61-.17-.11-.31-.31-.41-.61-.16-.47-.24-1.21-.24-2.21s.08-1.71.24-2.2c.16-.49.4-.73.74-.73h6.24c.33,0,.58.24.73.73.16.49.24,1.22.24,2.2s-.08,1.74-.24,2.21c-.1.3-.24.5-.41.61.17.11.31.31.41.61.16.47.24,1.21.24,2.21s-.08,1.74-.24,2.21c-.1.29-.23.48-.39.6.16.11.29.3.39.59.16.48.24,1.22.24,2.22s-.08,1.74-.24,2.23c-.09.28-.22.47-.37.59.15.12.28.31.37.59.16.49.24,1.22.24,2.2s-.08,1.74-.24,2.21c-.07.22-.17.39-.28.51h7.18c-.11-.12-.21-.28-.28-.51-.16-.47-.24-1.21-.24-2.21s.08-1.71.24-2.2c.09-.28.22-.47.37-.59-.15-.12-.28-.31-.37-.59-.16-.49-.24-1.23-.24-2.23s.08-1.74.24-2.22c.1-.29.23-.48.39-.59-.16-.11-.3-.3-.39-.59-.16-.47-.24-1.21-.24-2.21s.08-1.74.24-2.21c.1-.3.24-.5.42-.61-.18-.11-.32-.31-.42-.61-.16-.47-.24-1.21-.24-2.21s.08-1.71.24-2.2c.16-.49.41-.73.75-.73h6.25c.33,0,.58.24.73.73.16.49.24,1.22.24,2.2s-.08,1.74-.24,2.21c-.1.3-.24.5-.41.61.17.11.31.31.41.61ZM332.05,154.22c.16.47.24,1.21.24,2.21s-.08,1.74-.24,2.21c-.16.48-.41.72-.73.72h-3.13c.1.12.19.27.26.47.16.48.24,1.22.24,2.22s-.08,1.74-.24,2.23c-.09.28-.22.47-.37.59.15.12.27.31.37.59.16.49.24,1.22.24,2.2s-.08,1.74-.24,2.21c-.1.31-.24.5-.41.61.17.11.31.31.41.63.16.49.24,1.22.24,2.2s-.08,1.74-.24,2.21c-.1.29-.23.48-.39.6.16.11.29.3.39.59.16.48.24,1.22.24,2.22s-.08,1.74-.24,2.23c-.1.3-.23.49-.39.61.16.11.29.3.39.59.16.48.24,1.2.24,2.18s-.08,1.74-.24,2.23c-.1.3-.23.49-.39.61.16.12.29.31.39.61.16.49.24,1.22.24,2.2s-.08,1.74-.24,2.21c-.07.2-.16.36-.26.47h3.11c.33,0,.58.24.74.71.16.48.24,1.22.24,2.22s-.08,1.77-.24,2.25c-.1.29-.23.48-.39.59.16.11.29.3.39.59.16.48.24,1.2.24,2.18s-.08,1.74-.24,2.23c-.16.49-.41.73-.73.73h-13.42c-.33,0-.58-.24-.74-.73-.16-.49-.24-1.23-.24-2.23s.08-1.7.24-2.18c.1-.29.23-.48.39-.59-.16-.11-.29-.3-.39-.59-.16-.47-.24-1.23-.24-2.25s.08-1.74.24-2.22c.16-.47.4-.71.74-.71h3.12c-.1-.12-.19-.27-.26-.47-.16-.47-.24-1.21-.24-2.21s.08-1.71.24-2.2c.1-.3.23-.49.4-.61-.16-.12-.3-.31-.4-.61-.16-.49-.24-1.23-.24-2.23s.08-1.7.24-2.18c.1-.29.23-.48.39-.59-.16-.12-.3-.31-.39-.61-.16-.49-.24-1.23-.24-2.23s.08-1.74.24-2.22c.1-.29.23-.48.39-.59-.16-.11-.29-.3-.39-.59-.16-.47-.24-1.21-.24-2.21s.08-1.71.24-2.2c.1-.31.25-.51.42-.63-.17-.11-.32-.31-.42-.61-.16-.47-.24-1.21-.24-2.21s.08-1.71.24-2.2c.09-.28.22-.47.37-.59-.15-.12-.28-.31-.37-.59-.16-.49-.24-1.23-.24-2.23s.08-1.74.24-2.22c.07-.2.16-.35.26-.47h-3.12c-.33,0-.58-.24-.74-.72-.16-.47-.24-1.21-.24-2.21s.08-1.74.24-2.21c.1-.3.24-.5.41-.61-.17-.11-.31-.31-.41-.61-.16-.47-.24-1.21-.24-2.21s.08-1.71.24-2.2c.16-.49.4-.73.74-.73h13.42c.32,0,.57.24.73.73.16.49.24,1.22.24,2.2s-.08,1.74-.24,2.21c-.1.3-.24.5-.41.61.17.11.31.31.41.61ZM333.85,137.72c-.16-.49-.24-1.23-.24-2.23s.08-1.7.24-2.18c.1-.29.23-.48.39-.59-.16-.11-.3-.3-.39-.59-.16-.47-.24-1.23-.24-2.25s.08-1.74.24-2.22c.1-.29.23-.48.39-.59-.16-.11-.3-.3-.39-.59-.16-.47-.24-1.21-.24-2.21s.08-1.71.24-2.2c.1-.3.23-.49.4-.61-.16-.12-.3-.31-.4-.61-.16-.49-.24-1.23-.24-2.23s.08-1.7.24-2.18c.07-.2.16-.35.26-.47h-7.13c.1.12.19.27.25.47.16.48.24,1.2.24,2.18s-.08,1.74-.24,2.23c-.1.3-.23.49-.39.61.16.12.29.31.39.61.16.49.24,1.22.24,2.2s-.08,1.74-.24,2.21c-.1.29-.23.48-.39.6.16.11.29.3.39.59.16.48.24,1.22.24,2.22s-.08,1.77-.24,2.25c-.1.29-.23.48-.39.59.16.11.29.3.39.59.16.48.24,1.2.24,2.18s-.08,1.74-.24,2.23c-.16.49-.4.73-.73.73h-6.24c-.33,0-.58-.24-.74-.73-.16-.49-.24-1.23-.24-2.23s.08-1.7.24-2.18c.1-.29.23-.48.39-.59-.16-.11-.29-.3-.39-.59-.16-.47-.24-1.23-.24-2.25s.08-1.74.24-2.22c.1-.29.23-.48.39-.59-.16-.11-.29-.3-.39-.59-.16-.47-.24-1.21-.24-2.21s.08-1.71.24-2.2c.1-.3.23-.49.39-.61-.16-.12-.29-.31-.39-.61-.16-.49-.24-1.23-.24-2.23s.08-1.7.24-2.18c.1-.29.23-.48.39-.59-.16-.12-.29-.31-.39-.61-.16-.49-.24-1.23-.24-2.23s.08-1.74.24-2.22c.1-.29.23-.48.39-.59-.16-.11-.29-.3-.39-.59-.16-.47-.24-1.21-.24-2.21s.08-1.71.24-2.2c.1-.31.24-.51.42-.63-.17-.11-.31-.31-.42-.61-.16-.47-.24-1.21-.24-2.21s.08-1.71.24-2.2c.09-.28.22-.47.37-.59-.15-.12-.27-.31-.37-.59-.16-.49-.24-1.23-.24-2.23s.08-1.74.24-2.22c.1-.29.23-.48.39-.59-.16-.11-.29-.3-.39-.59-.16-.47-.24-1.21-.24-2.21s.08-1.74.24-2.21c.1-.3.24-.5.41-.61-.17-.11-.31-.31-.41-.61-.16-.47-.24-1.21-.24-2.21s.08-1.71.24-2.2c.16-.49.4-.73.74-.73h6.24c.33,0,.58.24.73.73.16.49.24,1.22.24,2.2s-.08,1.74-.24,2.21c-.1.3-.24.5-.41.61.17.11.31.31.41.61.16.47.24,1.21.24,2.21s-.08,1.74-.24,2.21c-.1.29-.23.48-.39.6.16.11.29.3.39.59.16.48.24,1.21.24,2.22s-.08,1.74-.24,2.23c-.09.28-.22.47-.37.59.15.12.28.31.37.59.16.49.24,1.22.24,2.2s-.08,1.74-.24,2.21c-.07.22-.17.39-.28.51h7.18c-.11-.12-.21-.28-.28-.51-.16-.47-.24-1.21-.24-2.21s.08-1.71.24-2.2c.09-.28.22-.47.37-.59-.15-.12-.28-.31-.37-.59-.16-.49-.24-1.23-.24-2.23s.08-1.74.24-2.22c.1-.29.23-.48.39-.59-.16-.11-.3-.3-.39-.59-.16-.47-.24-1.21-.24-2.21s.08-1.74.24-2.21c.1-.3.24-.5.42-.61-.17-.11-.32-.31-.42-.61-.16-.47-.24-1.21-.24-2.21s.08-1.71.24-2.2c.16-.49.41-.73.75-.73h6.25c.33,0,.58.24.73.73.16.49.24,1.22.24,2.2s-.08,1.74-.24,2.21c-.1.3-.24.5-.41.61.17.11.31.31.41.61.16.47.24,1.21.24,2.21s-.08,1.74-.24,2.21c-.1.29-.23.48-.39.6.16.11.29.3.39.59.16.48.24,1.21.24,2.22s-.08,1.74-.24,2.23c-.09.28-.22.47-.37.59.15.12.28.31.37.59.16.49.24,1.22.24,2.2s-.08,1.74-.24,2.21c-.1.31-.24.5-.41.61.17.11.31.31.41.63.16.49.24,1.22.24,2.2s-.08,1.74-.24,2.21c-.1.29-.23.48-.39.6.16.11.29.3.39.59.16.48.24,1.21.24,2.22s-.08,1.74-.24,2.23c-.1.3-.23.49-.39.61.16.11.29.3.39.59.16.48.24,1.2.24,2.18s-.08,1.74-.24,2.23c-.1.3-.23.49-.39.61.16.12.29.31.39.61.16.49.24,1.22.24,2.2s-.08,1.74-.24,2.21c-.1.29-.23.48-.39.6.16.11.29.3.39.59.16.48.24,1.22.24,2.22s-.08,1.77-.24,2.25c-.1.29-.23.48-.39.59.16.11.29.3.39.59.16.48.24,1.2.24,2.18s-.08,1.74-.24,2.23c-.16.49-.4.73-.73.73h-6.25c-.34,0-.59-.24-.75-.73ZM358.3,154.22c.16.47.24,1.21.24,2.21s-.08,1.74-.24,2.21c-.1.29-.23.48-.39.6.16.11.29.3.39.59.16.48.24,1.22.24,2.22s-.08,1.74-.24,2.23c-.09.28-.22.47-.37.59.15.12.28.31.37.59.16.49.24,1.22.24,2.2s-.08,1.74-.24,2.21c-.1.31-.24.5-.41.61.17.11.31.31.41.63.16.49.24,1.22.24,2.2s-.08,1.74-.24,2.21c-.1.29-.23.48-.39.6.16.11.29.3.39.59.16.48.24,1.22.24,2.22s-.08,1.74-.24,2.23c-.1.3-.23.49-.39.61.16.11.29.3.39.59.16.48.24,1.2.24,2.18s-.08,1.74-.24,2.23c-.1.3-.23.49-.39.61.16.12.29.31.39.61.16.49.24,1.22.24,2.2s-.08,1.74-.24,2.21c-.1.29-.23.48-.39.6.16.11.29.3.39.59.16.48.24,1.22.24,2.22s-.08,1.77-.24,2.25c-.1.29-.23.48-.39.59.16.11.29.3.39.59.16.48.24,1.2.24,2.18s-.08,1.74-.24,2.23c-.16.49-.4.73-.73.73h-6.25c-.34,0-.59-.24-.75-.73-.16-.49-.24-1.23-.24-2.23s.08-1.7.24-2.18c.1-.29.23-.48.39-.59-.16-.11-.3-.3-.39-.59-.16-.47-.24-1.23-.24-2.25s.08-1.74.24-2.22c.1-.29.23-.48.39-.59-.16-.11-.3-.3-.39-.59-.16-.47-.24-1.21-.24-2.21s.08-1.71.24-2.2c.1-.3.23-.49.4-.61-.16-.12-.3-.31-.4-.61-.16-.49-.24-1.23-.24-2.23s.08-1.7.24-2.18c.1-.29.23-.48.39-.59-.16-.12-.3-.31-.39-.61-.16-.49-.24-1.23-.24-2.23s.08-1.74.24-2.22c.07-.2.16-.35.26-.47h-3.09c-.33,0-.58-.24-.74-.72-.16-.47-.24-1.21-.24-2.21s.08-1.71.24-2.2c.08-.23.17-.4.29-.52h-3.62c.11.12.21.29.28.52.16.49.24,1.22.24,2.2s-.08,1.74-.24,2.21c-.1.29-.23.48-.39.6.16.11.29.3.39.59.16.48.24,1.22.24,2.22s-.08,1.74-.24,2.23c-.1.3-.23.49-.39.61.16.11.29.3.39.59.16.48.24,1.2.24,2.18s-.08,1.74-.24,2.23c-.1.3-.23.49-.39.61.16.12.29.31.39.61.16.49.24,1.22.24,2.2s-.08,1.74-.24,2.21c-.1.29-.23.48-.39.6.16.11.29.3.39.59.16.48.24,1.22.24,2.22s-.08,1.77-.24,2.25c-.1.29-.23.48-.39.59.16.11.29.3.39.59.16.48.24,1.2.24,2.18s-.08,1.74-.24,2.23c-.16.49-.4.73-.73.73h-6.24c-.33,0-.58-.24-.74-.73-.16-.49-.24-1.23-.24-2.23s.08-1.7.24-2.18c.1-.29.23-.48.39-.59-.16-.11-.29-.3-.39-.59-.16-.47-.24-1.23-.24-2.25s.08-1.74.24-2.22c.1-.29.23-.48.39-.59-.16-.11-.29-.3-.39-.59-.16-.47-.24-1.21-.24-2.21s.08-1.71.24-2.2c.1-.3.23-.49.39-.61-.16-.12-.29-.31-.39-.61-.16-.49-.24-1.23-.24-2.23s.08-1.7.24-2.18c.1-.29.23-.48.39-.59-.16-.12-.29-.31-.39-.61-.16-.49-.24-1.23-.24-2.23s.08-1.74.24-2.22c.1-.29.23-.48.39-.59-.16-.11-.29-.3-.39-.59-.16-.47-.24-1.21-.24-2.21s.08-1.71.24-2.2c.1-.31.24-.51.42-.63-.17-.11-.31-.31-.42-.61-.16-.47-.24-1.21-.24-2.21s.08-1.71.24-2.2c.09-.28.22-.47.37-.59-.15-.12-.27-.31-.37-.59-.16-.49-.24-1.23-.24-2.23s.08-1.74.24-2.22c.1-.29.23-.48.39-.59-.16-.11-.29-.3-.39-.59-.16-.47-.24-1.21-.24-2.21s.08-1.74.24-2.21c.1-.3.24-.5.41-.61-.17-.11-.31-.31-.41-.61-.16-.47-.24-1.21-.24-2.21s.08-1.71.24-2.2c.16-.49.4-.73.74-.73h6.24c.33,0,.58.24.73.73.16.49.24,1.22.24,2.2s-.08,1.74-.24,2.21c-.1.3-.24.5-.41.61.17.11.31.31.41.61.16.47.24,1.21.24,2.21s-.08,1.74-.24,2.21c-.07.2-.15.36-.25.47h3.09c.33,0,.58.24.74.71.16.48.24,1.22.24,2.22s-.08,1.74-.24,2.23c-.06.19-.15.34-.24.45h3.51c-.09-.12-.17-.26-.23-.45-.16-.49-.24-1.23-.24-2.23s.08-1.74.24-2.22c.1-.29.23-.48.39-.59-.16-.11-.3-.3-.39-.59-.16-.47-.24-1.21-.24-2.21s.08-1.74.24-2.21c.1-.3.24-.5.42-.61-.18-.11-.32-.31-.42-.61-.16-.47-.24-1.21-.24-2.21s.08-1.71.24-2.2c.16-.49.41-.73.75-.73h6.25c.33,0,.58.24.73.73.16.49.24,1.22.24,2.2s-.08,1.74-.24,2.21c-.1.3-.24.5-.41.61.17.11.31.31.41.61ZM360.09,137.72c-.16-.49-.24-1.23-.24-2.23s.08-1.7.24-2.18c.1-.29.23-.48.39-.59-.16-.11-.3-.3-.39-.59-.16-.47-.24-1.23-.24-2.25s.08-1.74.24-2.22c.1-.29.23-.48.39-.59-.16-.11-.3-.3-.39-.59-.16-.47-.24-1.21-.24-2.21s.08-1.71.24-2.2c.1-.3.23-.49.4-.61-.16-.12-.3-.31-.4-.61-.16-.49-.24-1.23-.24-2.23s.08-1.7.24-2.18c.07-.2.16-.35.26-.47h-7.13c.1.12.19.27.25.47.16.48.24,1.2.24,2.18s-.08,1.74-.24,2.23c-.1.3-.23.49-.39.61.16.12.29.31.39.61.16.49.24,1.22.24,2.2s-.08,1.74-.24,2.21c-.1.29-.23.48-.39.6.16.11.29.3.39.59.16.48.24,1.22.24,2.22s-.08,1.77-.24,2.25c-.1.29-.23.48-.39.59.16.11.29.3.39.59.16.48.24,1.2.24,2.18s-.08,1.74-.24,2.23c-.16.49-.4.73-.73.73h-6.24c-.33,0-.58-.24-.74-.73-.16-.49-.24-1.23-.24-2.23s.08-1.7.24-2.18c.1-.29.23-.48.39-.59-.16-.11-.29-.3-.39-.59-.16-.47-.24-1.23-.24-2.25s.08-1.74.24-2.22c.1-.29.23-.48.39-.59-.16-.11-.29-.3-.39-.59-.16-.47-.24-1.21-.24-2.21s.08-1.71.24-2.2c.1-.3.23-.49.39-.61-.16-.12-.29-.31-.39-.61-.16-.49-.24-1.23-.24-2.23s.08-1.7.24-2.18c.1-.29.23-.48.39-.59-.16-.12-.29-.31-.39-.61-.16-.49-.24-1.23-.24-2.23s.08-1.74.24-2.22c.1-.29.23-.48.39-.59-.16-.11-.29-.3-.39-.59-.16-.47-.24-1.21-.24-2.21s.08-1.71.24-2.2c.1-.31.24-.51.42-.63-.17-.11-.31-.31-.42-.61-.16-.47-.24-1.21-.24-2.21s.08-1.71.24-2.2c.09-.28.22-.47.37-.59-.15-.12-.27-.31-.37-.59-.16-.49-.24-1.23-.24-2.23s.08-1.74.24-2.22c.16-.47.4-.71.74-.71h3.09c-.1-.12-.19-.27-.26-.47-.16-.47-.24-1.21-.24-2.21s.08-1.74.24-2.21c.16-.48.41-.72.74-.72h3.14c-.11-.12-.21-.28-.28-.51-.16-.47-.24-1.21-.24-2.21s.08-1.71.24-2.2c.16-.49.41-.73.74-.73h6.23c.32,0,.57.24.73.73.16.49.24,1.22.24,2.2s-.08,1.74-.24,2.21c-.08.22-.17.39-.28.51h3.15c.32,0,.57.24.72.72.16.47.24,1.21.24,2.21s-.08,1.74-.24,2.21c-.07.2-.15.36-.25.47h3.1c.34,0,.59.24.75.71.16.48.24,1.21.24,2.22s-.08,1.74-.24,2.23c-.09.28-.22.47-.37.59.15.12.28.31.37.59.16.49.24,1.22.24,2.2s-.08,1.74-.24,2.21c-.1.31-.24.5-.41.61.17.11.31.31.41.63.16.49.24,1.22.24,2.2s-.08,1.74-.24,2.21c-.1.29-.23.48-.39.6.16.11.29.3.39.59.16.48.24,1.21.24,2.22s-.08,1.74-.24,2.23c-.1.3-.23.49-.39.61.16.11.29.3.39.59.16.48.24,1.2.24,2.18s-.08,1.74-.24,2.23c-.1.3-.23.49-.39.61.16.12.29.31.39.61.16.49.24,1.22.24,2.2s-.08,1.74-.24,2.21c-.1.29-.23.48-.39.6.16.11.29.3.39.59.16.48.24,1.22.24,2.22s-.08,1.77-.24,2.25c-.09.29-.23.48-.39.59.16.11.29.3.39.59.16.48.24,1.2.24,2.18s-.08,1.74-.24,2.23c-.16.49-.4.73-.73.73h-6.25c-.34,0-.59-.24-.75-.73ZM384.53,159.83c.16.48.24,1.22.24,2.22s-.08,1.74-.24,2.23c-.16.49-.41.73-.75.73h-6.24c-.34,0-.59-.24-.75-.73-.16-.49-.24-1.23-.24-2.23s.08-1.74.24-2.22c.07-.2.16-.35.26-.47h-7.13c.1.12.19.27.26.47.16.48.24,1.22.24,2.22s-.08,1.74-.24,2.23c-.09.28-.22.47-.37.59.15.12.28.31.37.59.16.49.24,1.22.24,2.2s-.08,1.74-.24,2.21c-.1.31-.24.5-.41.61.17.11.31.31.41.63.16.49.24,1.22.24,2.2s-.08,1.74-.24,2.21c-.1.29-.23.48-.39.6.16.11.29.3.39.59.16.48.24,1.22.24,2.22s-.08,1.74-.24,2.23c-.1.3-.23.49-.39.61.16.11.29.3.39.59.16.48.24,1.2.24,2.18s-.08,1.74-.24,2.23c-.1.3-.23.49-.39.61.16.12.29.31.39.61.16.49.24,1.22.24,2.2s-.08,1.74-.24,2.21c-.07.2-.15.36-.25.47h7.13c-.1-.12-.19-.27-.26-.47-.16-.47-.24-1.21-.24-2.21s.08-1.71.24-2.2c.1-.3.23-.49.4-.61-.16-.12-.3-.31-.4-.61-.16-.49-.24-1.23-.24-2.23s.08-1.7.24-2.18c.07-.2.16-.35.26-.47h-3.09c-.33,0-.58-.24-.74-.73-.16-.49-.24-1.23-.24-2.23s.08-1.74.24-2.22c.1-.29.23-.48.39-.59-.16-.11-.29-.3-.39-.59-.16-.47-.24-1.21-.24-2.21s.08-1.71.24-2.2c.16-.49.41-.73.74-.73h6.24c.32,0,.57.24.72.73.16.49.24,1.22.24,2.2s-.08,1.74-.24,2.21c-.1.29-.23.48-.39.6.16.11.29.3.39.59.16.48.24,1.22.24,2.22s-.08,1.74-.24,2.23c-.07.21-.16.37-.26.49h3.12c.33,0,.58.24.73.71.16.48.24,1.2.24,2.18s-.08,1.74-.24,2.23c-.1.3-.23.49-.39.61.16.12.29.31.39.61.16.49.24,1.22.24,2.2s-.08,1.74-.24,2.21c-.1.29-.23.48-.39.6.16.11.29.3.39.59.16.48.24,1.22.24,2.22s-.08,1.77-.24,2.25c-.16.48-.41.72-.75.72h-3.1c.1.12.18.27.25.47.16.48.24,1.2.24,2.18s-.08,1.74-.24,2.23c-.16.49-.4.73-.72.73h-13.42c-.33,0-.58-.24-.74-.73-.16-.49-.24-1.23-.24-2.23s.08-1.7.24-2.18c.07-.2.16-.35.26-.47h-3.09c-.33,0-.58-.24-.74-.72-.16-.47-.24-1.23-.24-2.25s.08-1.74.24-2.22c.1-.29.23-.48.39-.59-.16-.11-.29-.3-.39-.59-.16-.47-.24-1.21-.24-2.21s.08-1.71.24-2.2c.1-.3.23-.49.39-.61-.16-.12-.29-.31-.39-.61-.16-.49-.24-1.23-.24-2.23s.08-1.7.24-2.18c.1-.29.23-.48.39-.59-.16-.12-.29-.31-.39-.61-.16-.49-.24-1.23-.24-2.23s.08-1.74.24-2.22c.1-.29.23-.48.39-.59-.16-.11-.29-.3-.39-.59-.16-.47-.24-1.21-.24-2.21s.08-1.71.24-2.2c.1-.31.24-.51.42-.63-.17-.11-.31-.31-.42-.61-.16-.47-.24-1.21-.24-2.21s.08-1.71.24-2.2c.09-.28.22-.47.37-.59-.15-.12-.27-.31-.37-.59-.16-.49-.24-1.23-.24-2.23s.08-1.74.24-2.22c.1-.29.23-.48.39-.59-.16-.11-.29-.3-.39-.59-.16-.47-.24-1.21-.24-2.21s.08-1.74.24-2.21c.16-.48.4-.72.74-.72h3.12c-.11-.12-.21-.28-.28-.51-.16-.47-.24-1.21-.24-2.21s.08-1.71.24-2.2c.16-.49.41-.73.74-.73h13.42c.32,0,.57.24.72.73.16.49.24,1.22.24,2.2s-.08,1.74-.24,2.21c-.07.22-.17.39-.28.51h3.14c.33,0,.58.24.73.72.16.47.24,1.21.24,2.21s-.08,1.74-.24,2.21c-.1.29-.23.48-.39.6.16.11.29.3.39.59ZM386.86,99.54c.16.49.24,1.22.24,2.2s-.08,1.74-.24,2.21c-.1.31-.24.5-.41.61.17.11.31.31.41.63.16.49.24,1.22.24,2.2s-.08,1.74-.24,2.21c-.1.29-.23.48-.39.6.16.11.29.3.39.59.16.48.24,1.21.24,2.22s-.08,1.74-.24,2.23c-.1.3-.23.49-.39.61.16.11.29.3.39.59.16.48.24,1.2.24,2.18s-.08,1.74-.24,2.23c-.1.3-.23.49-.39.61.16.12.29.31.39.61.16.49.24,1.22.24,2.2s-.08,1.74-.24,2.21c-.1.29-.23.48-.39.6.16.11.29.3.39.59.16.48.24,1.22.24,2.22s-.08,1.77-.24,2.25c-.1.29-.23.48-.39.59.16.11.29.3.39.59.16.48.24,1.2.24,2.18s-.08,1.74-.24,2.23c-.16.49-.41.73-.73.73h-6.23c-.33,0-.58-.24-.74-.73-.16-.49-.24-1.23-.24-2.23s.08-1.7.24-2.18c.1-.29.23-.48.39-.59-.16-.11-.29-.3-.39-.59-.16-.47-.24-1.23-.24-2.25s.08-1.74.24-2.22c.1-.29.23-.48.39-.59-.16-.11-.29-.3-.39-.59-.16-.47-.24-1.21-.24-2.21s.08-1.71.24-2.2c.1-.3.23-.49.4-.61-.16-.12-.3-.31-.4-.61-.16-.49-.24-1.23-.24-2.23s.08-1.7.24-2.18c.1-.29.23-.48.39-.59-.16-.12-.3-.31-.39-.61-.16-.49-.24-1.23-.24-2.23s.08-1.74.24-2.22c.1-.29.23-.48.39-.59-.16-.11-.29-.3-.39-.59-.16-.47-.24-1.21-.24-2.21s.08-1.71.24-2.2c.1-.31.25-.51.42-.63-.17-.11-.32-.31-.42-.61-.16-.47-.24-1.21-.24-2.21s.08-1.71.24-2.2c.09-.28.22-.47.37-.59-.15-.12-.28-.31-.37-.59-.16-.49-.24-1.23-.24-2.23s.08-1.74.24-2.22c.07-.2.16-.35.26-.47h-6.69c-.33,0-.58-.24-.74-.72-.16-.47-.24-1.21-.24-2.21s.08-1.74.24-2.21c.1-.3.24-.5.41-.61-.17-.11-.31-.31-.41-.61-.16-.47-.24-1.21-.24-2.21s.08-1.71.24-2.2c.16-.49.4-.73.74-.73h20.59c.33,0,.58.24.73.73.16.49.24,1.22.24,2.2s-.08,1.74-.24,2.21c-.1.3-.24.5-.41.61.17.11.31.31.41.61.16.47.24,1.21.24,2.21s-.08,1.74-.24,2.21c-.16.48-.4.72-.73.72h-6.71c.1.12.19.27.26.47.16.48.24,1.21.24,2.22s-.08,1.74-.24,2.23c-.09.28-.22.47-.37.59.15.12.27.31.37.59ZM396.42,199.23c.16.48.24,1.2.24,2.18s-.08,1.74-.24,2.23c-.16.49-.4.73-.73.73h-6.24c-.33,0-.58-.24-.74-.73-.16-.49-.24-1.23-.24-2.23s.08-1.7.24-2.18c.1-.29.23-.48.39-.59-.16-.11-.29-.3-.39-.59-.16-.47-.24-1.23-.24-2.25s.08-1.74.24-2.22c.16-.47.4-.71.74-.71h6.23c.34,0,.59.24.75.71.16.48.24,1.22.24,2.22s-.08,1.77-.24,2.25c-.1.29-.23.48-.39.59.16.11.29.3.39.59ZM396.42,154.22c.16.47.24,1.21.24,2.21s-.08,1.74-.24,2.21c-.1.29-.23.48-.39.6.16.11.29.3.39.59.16.48.24,1.22.24,2.22s-.08,1.74-.24,2.23c-.09.28-.22.47-.37.59.15.12.28.31.37.59.16.49.24,1.22.24,2.2s-.08,1.74-.24,2.21c-.1.31-.24.5-.41.61.17.11.31.31.41.63.16.49.24,1.22.24,2.2s-.08,1.74-.24,2.21c-.1.29-.23.48-.39.6.16.11.29.3.39.59.16.48.24,1.22.24,2.22s-.08,1.74-.24,2.23c-.1.3-.23.49-.39.61.16.11.29.3.39.59.16.48.24,1.2.24,2.18s-.08,1.74-.24,2.23c-.16.49-.4.73-.73.73h-6.24c-.33,0-.58-.24-.74-.73-.16-.49-.24-1.23-.24-2.23s.08-1.7.24-2.18c.1-.29.23-.48.39-.59-.16-.12-.29-.31-.39-.61-.16-.49-.24-1.23-.24-2.23s.08-1.74.24-2.22c.1-.29.23-.48.39-.59-.16-.11-.29-.3-.39-.59-.16-.47-.24-1.21-.24-2.21s.08-1.71.24-2.2c.1-.31.24-.51.42-.63-.17-.11-.31-.31-.42-.61-.16-.47-.24-1.21-.24-2.21s.08-1.71.24-2.2c.09-.28.22-.47.37-.59-.15-.12-.27-.31-.37-.59-.16-.49-.24-1.23-.24-2.23s.08-1.74.24-2.22c.1-.29.23-.48.39-.59-.16-.11-.29-.3-.39-.59-.16-.47-.24-1.21-.24-2.21s.08-1.74.24-2.21c.1-.3.24-.5.41-.61-.17-.11-.31-.31-.41-.61-.16-.47-.24-1.21-.24-2.21s.08-1.71.24-2.2c.16-.49.4-.73.74-.73h6.24c.33,0,.58.24.73.73.16.49.24,1.22.24,2.2s-.08,1.74-.24,2.21c-.1.3-.24.5-.41.61.17.11.31.31.41.61ZM420.29,27.99c.16.48.24,1.22.24,2.22s-.08,1.74-.24,2.23c-.16.49-.41.73-.75.73h-6.24c-.34,0-.59-.24-.75-.73-.16-.49-.24-1.23-.24-2.23s.08-1.74.24-2.22c.07-.2.16-.35.26-.47h-7.13c.1.12.19.27.26.47.16.48.24,1.22.24,2.22s-.08,1.74-.24,2.23c-.09.28-.22.47-.37.59.15.12.28.31.37.59.16.49.24,1.22.24,2.2s-.08,1.74-.24,2.21c-.07.22-.17.39-.28.51h6.71c.32,0,.57.24.73.73.16.49.24,1.22.24,2.2s-.08,1.74-.24,2.21c-.07.2-.16.36-.26.47h3.11c.33,0,.58.24.74.71.16.48.24,1.22.24,2.22s-.08,1.74-.24,2.23c-.07.21-.16.37-.26.49h3.12c.33,0,.58.24.73.71.16.48.24,1.2.24,2.18s-.08,1.74-.24,2.23c-.1.3-.23.49-.39.61.16.12.29.31.39.61.16.49.24,1.22.24,2.2s-.08,1.74-.24,2.21c-.1.29-.23.48-.39.6.16.11.29.3.39.59.16.48.24,1.22.24,2.22s-.08,1.77-.24,2.25c-.16.48-.41.72-.75.72h-3.1c.1.12.18.27.25.47.16.48.24,1.2.24,2.18s-.08,1.74-.24,2.23c-.16.49-.4.73-.72.73h-13.42c-.33,0-.58-.24-.74-.73s-.24-1.23-.24-2.23.08-1.7.24-2.18c.07-.2.16-.35.26-.47h-3.09c-.33,0-.58-.24-.74-.72-.16-.47-.24-1.23-.24-2.25s.08-1.74.24-2.22c.1-.29.23-.48.39-.59-.16-.11-.29-.3-.39-.59-.16-.47-.24-1.21-.24-2.21s.08-1.71.24-2.2c.16-.49.4-.73.74-.73h6.24c.33,0,.58.24.73.73.16.49.24,1.22.24,2.2s-.08,1.74-.24,2.21c-.07.2-.15.36-.25.47h7.13c-.1-.12-.19-.27-.26-.47-.16-.47-.24-1.21-.24-2.21s.08-1.71.24-2.2c.1-.3.23-.49.4-.61-.16-.12-.3-.31-.4-.61-.16-.49-.24-1.23-.24-2.23s.08-1.7.24-2.18c.07-.2.16-.35.26-.47h-6.67c-.33,0-.58-.24-.74-.73-.16-.49-.24-1.23-.24-2.23s.08-1.74.24-2.22c.07-.2.16-.35.26-.47h-3.12c-.33,0-.58-.24-.74-.72-.16-.47-.24-1.21-.24-2.21s.08-1.71.24-2.2c.08-.23.17-.4.29-.52h-3.12c-.33,0-.58-.24-.74-.72-.16-.47-.24-1.21-.24-2.21s.08-1.71.24-2.2c.09-.28.22-.47.37-.59-.15-.12-.27-.31-.37-.59-.16-.49-.24-1.23-.24-2.23s.08-1.74.24-2.22c.1-.29.23-.48.39-.59-.16-.11-.29-.3-.39-.59-.16-.47-.24-1.21-.24-2.21s.08-1.74.24-2.21c.16-.48.4-.72.74-.72h3.12c-.11-.12-.21-.28-.28-.51-.16-.47-.24-1.21-.24-2.21s.08-1.71.24-2.2c.16-.49.41-.73.74-.73h13.42c.32,0,.57.24.72.73.16.49.24,1.22.24,2.2s-.08,1.74-.24,2.21c-.07.22-.17.39-.28.51h3.14c.33,0,.58.24.73.72.16.47.24,1.21.24,2.21s-.08,1.74-.24,2.21c-.1.29-.23.48-.39.6.16.11.29.3.39.59Z"/>
      <rect x="210.73" y="79.7" width="1.42" height=".28"/>
      <rect x="212.44" y="79.98" width="1.42" height=".28"/>
      <rect x="209.71" y="51.73" width=".56" height="32.67" transform="translate(107.24 263.44) rotate(-80.22)"/>
      <rect x="171.72" y="102.23" width=".38" height="2.85" transform="translate(45.87 259.9) rotate(-82.2)"/>
      <rect x="163.93" y="102.23" width="1.42" height=".28"/>
      <rect x="93.24" y="77.26" width=".39" height="4.58" transform="translate(.85 160.09) rotate(-81.43)"/>
      <rect x="167.07" y="102.8" width="1.42" height=".28"/>
      <rect x="176.57" y="65.43" width=".38" height="2.85" transform="translate(86.52 232.9) rotate(-82.2)"/>
      <rect x="176.57" y="103.09" width=".38" height="2.85" transform="translate(49.22 265.44) rotate(-82.2)"/>
      <rect x="168.78" y="103.09" width="1.42" height=".28"/>
      <rect x="95.59" y="54.74" width=".52" height="27.47" transform="translate(12 151.21) rotate(-80.15)"/>
      <rect x="173.63" y="103.94" width="1.42" height=".28"/>
      <rect x="113.71" y="79.7" width="1.42" height=".28"/>
      <rect x="119.42" y="69.14" width="1.42" height=".28"/>
      <path d="M75.42,61.64c14.08,2.89,28.23,5.41,42.46,7.47l1.25-.25-46.51-7.99,2.8.77Z"/>
      <rect x="109.72" y="70.85" width="1.42" height=".28"/>
      <rect x="112" y="79.41" width="1.42" height=".28"/>
      <rect x="111.43" y="71.14" width="1.42" height=".28"/>
    </g>
  </g>
</svg>