<?xml version="1.0" encoding="UTF-8"?>
<svg id="Layer_2" data-name="Layer 2" xmlns="http://www.w3.org/2000/svg" viewBox="0 0 460 128.18">
  <g id="Layer_1-2" data-name="Layer 1">
    <path d="M451.99,2.26c3.17,0,5.74,2.58,5.74,5.74v112.17c0,3.17-2.58,5.74-5.74,5.74H8.01c-3.17,0-5.74-2.58-5.74-5.74V8.01c0-3.17,2.58-5.74,5.74-5.74h443.99M451.99,0H8.01C3.58,0,0,3.58,0,8.01v112.17c0,4.42,3.58,8.01,8.01,8.01h443.99c4.42,0,8.01-3.58,8.01-8.01V8.01c0-4.42-3.58-8.01-8.01-8.01h0Z"/>
    <g>
      <path d="M10.5,10c-.2.01-.33.23-.27,1.05,0,0,.1,3.79.1,4.2v8.56c-.05.83-.16,4.1-.31,4.62-.1.36.21.67.73.67l5.29-.05c-.05,1.04-.05,13.28-.31,14.27,0,0,9.44-.26,10.53,0v-1.66c-.42.05-6.02.31-6.43.26-.57.05-1.24-.05-1.14-1.66v-5.5c-.05-.36.05-.73,1.04-.73,0,0,5.5-.1,5.81.1v-1.61c-.47.05-5.5.26-6.02.16-.36,0-.78.16-.78-.78v-2.7c.83-.05,5.71-.52,8.3-5.03,1.24-2.65,1.92-7.16-.36-10.27-1.35-1.87-2.9-4-10.53-3.74-1.4,0-4.41.05-5.08,0-.16-.04-.33-.14-.47-.16-.03,0-.06,0-.09,0h0ZM16.03,11.28c1.57.01,2.78.18,4.26.61,4.67,1.4,4.72,6.02,4.72,7.68,0,2.85-.78,4.31-1.24,5.08h-7.78c.1.36,0,2.7,0,3.22h-2.07c-1.24,0-.93-1.09-.93-1.45v-13.44c0-1.76.47-1.61,1.35-1.66.62-.03,1.18-.04,1.71-.03h0ZM19.98,25.89h2.85c-.36.52-1.56,1.92-4.1,1.92v-1.09c0-.52-.05-.83,1.24-.83Z"/>
      <path d="M36.99,10.07c-.26,0-.31.21-.41.42,0,0-7.68,18.37-8.14,18.73,0,0,1.45-.26,2.18.05l2.28-6.54c.21-.36.26-.62,1.45-.62h4.88c.57,0,1.04-.36,1.45.88l2.44,6.17c.62-.1,3.11-.21,3.37-.05,0,0-8.14-17.9-8.25-18.68-.16-.31-.36-.36-.67-.36h-.57ZM36.68,14.27c.13-.02.24.17.41.5l2.28,5.28c.26.65-.23.62-.41.65-.21,0-1.71.05-1.97.05h-.88c-.26,0-1.63-.08-1.63-.08-.75,0-.57-.65-.44-.86l2.31-5.05c.14-.33.24-.48.34-.5h0Z"/>
      <path d="M36.99,24.18c-.26,0-.31.21-.41.41,0,0-7.68,18.37-8.14,18.73,0,0,1.45-.26,2.18.05l2.28-6.54c.21-.36.26-.62,1.45-.62h4.88c.57,0,1.04-.36,1.45.88l2.44,6.17c.62-.1,3.11-.21,3.37-.05,0,0-8.14-17.9-8.25-18.68-.16-.31-.36-.36-.67-.36h-.57ZM36.68,28.38c.13-.02.24.17.41.5l2.28,5.28c.26.65-.23.62-.41.65-.21,0-1.71.05-1.97.05h-.88c-.26,0-1.63-.08-1.63-.08-.75,0-.57-.65-.44-.86l2.31-5.05c.14-.33.24-.48.34-.5h0Z"/>
      <path d="M64.48,10.07c-.26,0-.31.21-.41.42,0,0-7.68,18.37-8.14,18.73,0,0,1.45-.26,2.18.05l2.28-6.54c.21-.36.26-.62,1.45-.62h4.88c.57,0,1.04-.36,1.45.88l2.44,6.17c.62-.1,3.11-.21,3.37-.05,0,0-8.14-17.9-8.25-18.68-.16-.31-.36-.36-.67-.36h-.57ZM64.17,14.27c.13-.02.24.17.41.5l2.28,5.28c.26.65-.23.62-.41.65-.21,0-1.71.05-1.97.05h-.88c-.26,0-1.63-.08-1.63-.08-.75,0-.57-.65-.44-.86l2.31-5.05c.14-.33.24-.48.34-.5h0Z"/>
      <path d="M64.48,24.18c-.26,0-.31.21-.41.41,0,0-7.68,18.37-8.14,18.73,0,0,1.45-.26,2.18.05l2.28-6.54c.21-.36.26-.62,1.45-.62h4.88c.57,0,1.04-.36,1.45.88l2.44,6.17c.62-.1,3.11-.21,3.37-.05,0,0-8.14-17.9-8.25-18.68-.16-.31-.36-.36-.67-.36h-.57ZM64.17,28.38c.13-.02.24.17.41.5l2.28,5.28c.26.65-.23.62-.41.65-.21,0-1.71.05-1.97.05h-.88c-.26,0-1.63-.08-1.63-.08-.75,0-.57-.65-.44-.86l2.31-5.05c.14-.33.24-.48.34-.5h0Z"/>
      <path d="M50.01,23.14h2.85v-11.41c.62,0,4.88.1,5.55.31-.1-.23-.1-1.45.05-1.82-.78.05-4.3.21-5.91.21h-2.07c-.62,0-5.65-.05-6.12-.26.21.52,0,1.71-.05,1.82.57-.05,3.58-.16,5.71-.16v11.31"/>
      <path d="M49.85,25.99v9.49c0,.83-.1,7.63-.26,7.84h3.22c.1-.78-.21-4.67-.21-7.99v-7.37c.03-.31,0-2.05,0-2.05v-.03c.62,0,5.13.1,5.81.31-.1-.23-.1-1.45.05-1.82-.78.05-4.3.21-5.91.21h-2.07c-.62,0-5.65-.05-6.12-.26.21.52,0,1.71-.05,1.82.57-.05,3.42-.16,5.55-.16"/>
    </g>
    <g>
      <path d="M10.53,82.74h9.75c.13,0,.23.03.32.08.1.06.16.15.18.26.02.11.03.24.03.41v.23c-.03.1-.05.18-.07.25-.02.06-.06.12-.12.17-.1.06-.24.1-.42.1h-2.68c-.14,0-.27,0-.41,0-.13,0-.25,0-.36.02-.11.02-.2.06-.28.11s-.13.14-.17.26-.05.26-.04.44c.01.18.02.33.02.47v9.84c0,.19-.01.36-.03.51-.02.15-.09.26-.22.32-.06.03-.14.04-.23.05-.09,0-.18,0-.28,0h-.52c-.18,0-.31-.04-.37-.13-.08-.1-.12-.22-.12-.36,0-.14,0-.29,0-.46v-9.81c0-.14,0-.3,0-.48,0-.18,0-.33-.05-.45-.06-.2-.21-.31-.43-.32-.22-.01-.46-.02-.71-.02h-2.09c-.15,0-.33,0-.52,0-.2,0-.35,0-.45-.05-.04-.03-.08-.05-.11-.08-.04-.03-.07-.06-.1-.1-.04-.05-.06-.13-.08-.25-.01-.11-.02-.23,0-.34s.02-.22.05-.32c.03-.1.06-.17.09-.21.03-.04.06-.07.1-.09.04-.02.09-.04.14-.05.03-.01.05-.02.08,0,.03,0,.05,0,.08,0Z"/>
      <path d="M22.39,82.78c.18,0,.36,0,.56,0s.33.06.41.16c.06.09.1.22.1.39v3.08c0,.05,0,.1,0,.15,0,.05,0,.1,0,.15.01.04.02.08,0,.13,0,.05,0,.09,0,.13.03.1.04.2.05.28s.07.13.2.13c.03-.03.05-.04.09-.05s.06-.02.08-.05c.08-.05.15-.1.21-.16s.13-.12.21-.18c.14-.1.29-.19.46-.28.17-.08.34-.15.52-.22.1-.03.21-.05.32-.07.11-.02.22-.04.32-.07.05-.03.1-.04.15-.03.05,0,.11,0,.17,0,.06-.03.17-.04.31-.04s.25.01.31.04h.18c.06,0,.12,0,.18.02.1.03.2.04.3.06.1.01.2.03.3.06.06.03.11.04.15.05.04,0,.09.02.15.05.14.06.27.13.4.2s.25.15.38.24c.13.11.25.25.36.4.08.11.15.23.21.34s.13.24.19.38c.04.09.07.18.09.27.02.09.04.18.07.28.03.06.04.13.04.19s0,.13.02.21c.03.06.03.13.03.19,0,.06,0,.13.03.19v.19c.01.06.02.13,0,.21s0,.15,0,.21v4.76c0,.1,0,.22,0,.37s0,.28,0,.42-.02.26-.05.37-.06.19-.11.23c-.09.08-.25.11-.49.11h-.48c-.16,0-.28-.05-.35-.15-.06-.09-.1-.19-.1-.31v-4.79c0-.34,0-.7,0-1.09,0-.39-.03-.72-.12-1-.15-.43-.4-.75-.76-.95-.1-.06-.21-.12-.32-.16s-.24-.08-.38-.1c-.05-.01-.13-.02-.23-.02-.05-.01-.11-.03-.18-.04-.07-.01-.14,0-.2.02-.05.01-.1.02-.15,0-.05,0-.11,0-.17,0-.11.03-.23.05-.35.07-.12.02-.23.05-.33.1-.43.18-.77.42-1.03.72-.25.3-.45.69-.59,1.16-.03.09-.04.18-.06.28-.01.1-.03.2-.06.3-.01.04-.02.08,0,.12s0,.09,0,.12c-.01.06-.01.13,0,.19.01.06.01.13,0,.19v3.81c0,.1,0,.22,0,.35,0,.13,0,.26,0,.39s-.02.25-.03.36c-.01.11-.04.2-.08.25-.05.06-.11.1-.18.1-.07,0-.15.02-.24.05h-.27c-.14,0-.27,0-.4,0-.13,0-.22-.05-.28-.12-.06-.1-.1-.22-.1-.37,0-.14,0-.3,0-.46v-11.51c0-.14,0-.29,0-.45,0-.16.02-.28.08-.37.05-.09.15-.15.28-.19.03-.01.05-.02.08,0,.03,0,.05,0,.08,0Z"/>
      <path d="M40.69,91c.03.13.03.27,0,.43s-.06.27-.12.33c-.06.05-.15.09-.28.1s-.26.03-.41.03-.3,0-.46,0c-.15,0-.29,0-.4,0h-4.86c-.1,0-.2,0-.3,0-.1,0-.18.03-.25.07-.05.03-.1.08-.15.15-.03.04-.05.09-.08.16-.03.07-.03.14,0,.2.01.06.02.12.02.17s0,.1.02.15c.03.1.05.21.08.31.03.11.06.21.11.31.29.68.77,1.17,1.44,1.46.08.04.16.07.25.09.09.03.18.05.26.08.04.01.1.02.19.02.18.05.41.08.7.08s.53-.03.7-.08c.18-.05.34-.1.48-.16s.28-.13.41-.22c.14-.09.26-.19.36-.31.1-.12.19-.25.26-.39.08-.13.14-.26.2-.4s.15-.24.29-.3c.05-.03.13-.04.25-.06s.23-.02.34,0,.22.02.32.03c.1.01.17.04.21.08.13.09.16.23.1.44-.1.34-.23.65-.4.91-.25.4-.54.74-.86,1-.32.26-.73.47-1.22.64-.13.05-.25.09-.38.1-.13.02-.26.04-.4.07-.06.01-.12.02-.18.02s-.12,0-.18.02h-.19c-.06.01-.14.02-.22.02s-.15,0-.2-.02h-.17c-.06-.01-.12-.02-.17-.02s-.1,0-.15-.02c-.06-.01-.13-.02-.21-.03-.08,0-.15-.02-.21-.03-.11-.03-.23-.05-.34-.09s-.22-.07-.32-.1c-.05-.03-.1-.04-.13-.05-.04,0-.08-.02-.13-.05-.19-.09-.39-.2-.61-.32-.37-.24-.68-.53-.94-.88-.26-.35-.48-.74-.65-1.17-.06-.14-.11-.28-.14-.44-.03-.15-.07-.3-.12-.46-.01-.05-.02-.09-.02-.13s0-.09-.02-.15c-.03-.1-.04-.21-.06-.32-.01-.11-.03-.23-.06-.34v-.27c-.01-.05-.02-.12-.03-.22,0-.1,0-.17,0-.24v-.21c.03-.06.04-.13.03-.2s0-.14,0-.2c.05-.2.09-.4.12-.61.03-.2.09-.39.16-.57.06-.14.12-.28.18-.43s.12-.29.2-.43c.28-.44.59-.82.95-1.15.35-.32.79-.59,1.31-.81.15-.06.31-.11.46-.14.16-.03.33-.07.5-.1.06-.01.12-.02.17-.03s.11,0,.17,0c.03-.01.06-.01.1,0,.04.01.07,0,.09-.02.53-.01.99.04,1.39.16.39.12.75.28,1.06.48.06.03.11.06.15.1.04.04.08.08.13.1.1.08.21.16.31.27s.2.2.28.3c.2.27.37.52.51.76.09.14.16.29.21.46.05.16.11.33.17.49s.11.33.14.51c.03.18.07.35.12.53.01.09.02.18.03.27,0,.09.02.18.03.27ZM38.85,90.35c.04-.05.07-.12.1-.2s.03-.17,0-.26c-.08-.28-.18-.54-.32-.78-.18-.29-.37-.54-.59-.74-.22-.2-.49-.37-.83-.51-.09-.03-.18-.05-.27-.07-.09-.02-.18-.04-.28-.07-.1-.03-.21-.04-.32-.04h-.32s-.08.03-.13.03c-.05,0-.09,0-.13,0-.1.03-.2.05-.29.07-.1.02-.19.04-.28.07-.37.15-.66.34-.88.57s-.42.51-.6.85c-.04.06-.08.14-.11.24-.04.1-.07.2-.1.31-.03.11-.03.22-.02.32.01.1.06.18.13.23.1.08.28.11.52.1.25,0,.46,0,.64,0h2.88c.19,0,.42,0,.68,0,.26,0,.44-.04.53-.14Z"/>
      <path d="M55.94,95.57c.04.2.02.37-.06.5-.08.13-.18.23-.3.29-.06.03-.13.04-.2.04s-.14.01-.22.04c-.28.06-.55.05-.83-.05-.27-.1-.46-.21-.56-.35-.06-.09-.12-.19-.17-.31-.05-.12-.11-.22-.19-.29-.03-.03-.05-.05-.08-.08-.03-.03-.07-.03-.12-.02-.14.04-.27.11-.39.21-.12.1-.24.19-.35.27-.16.1-.34.19-.53.28-.19.08-.39.15-.61.22-.13.04-.26.06-.41.08s-.29.03-.43.06c-.06.01-.12.02-.16.02h-.14c-.14.03-.27.03-.4,0h-.17c-.06-.01-.13-.02-.19-.02s-.12-.01-.17-.04c-.05-.01-.09-.02-.12,0-.03,0-.07,0-.1,0-.1-.03-.2-.05-.3-.07-.1-.02-.2-.05-.28-.09-.38-.16-.69-.35-.92-.56-.23-.21-.43-.5-.58-.88-.11-.28-.17-.61-.17-1.01v-.4c.01-.06.02-.13.03-.2s.02-.14.03-.22c.05-.14.1-.28.15-.42s.11-.27.19-.38c.23-.37.54-.64.93-.82.39-.18.82-.33,1.29-.47.18-.05.36-.09.55-.11.19-.03.38-.06.57-.09.09-.03.17-.04.26-.04s.17-.01.28-.04c.09-.03.18-.04.27-.05.09,0,.18-.02.28-.05.32-.08.61-.14.89-.2.28-.06.5-.2.66-.43.08-.1.14-.23.19-.39.05-.16.05-.33,0-.52-.08-.3-.19-.54-.33-.72-.15-.18-.35-.32-.62-.42-.15-.06-.33-.11-.54-.13-.21-.03-.43-.04-.65-.04s-.45.01-.66.04c-.22.03-.4.06-.55.11-.21.08-.42.18-.63.32-.1.08-.19.17-.28.29-.08.12-.15.25-.22.39-.04.1-.07.21-.1.32-.03.11-.09.2-.18.27-.05.04-.13.07-.26.09s-.24.03-.37.03-.25,0-.37-.03c-.12-.02-.21-.05-.26-.09s-.09-.1-.11-.19c-.03-.09-.03-.18,0-.28.04-.16.08-.32.12-.46.04-.15.1-.29.16-.43.24-.44.54-.79.91-1.03s.82-.45,1.37-.6c.13-.03.26-.04.39-.06.13-.01.27-.03.41-.06.05-.01.13-.02.25,0,.11,0,.18,0,.21-.03.89-.01,1.66.09,2.31.3.66.22,1.12.63,1.38,1.23.11.25.18.55.2.88.02.34.03.69.03,1.05v4.19c0,.18,0,.35.02.51.01.16.05.3.11.4.06.09.14.15.25.19.11.05.22.09.32.1.1.02.18.08.23.18.03.04.04.08.04.11s0,.09.02.15ZM53.23,93.46c.08-.18.12-.38.12-.62,0-.23,0-.48,0-.73,0-.14,0-.27-.02-.38-.01-.11-.06-.2-.15-.27-.04-.03-.13-.04-.27-.04-.03.03-.07.04-.13.04s-.12.01-.17.04c-.1.03-.22.05-.34.08-.13.03-.25.05-.38.08-.04,0-.08,0-.12,0-.04,0-.09,0-.14,0-.19.05-.39.08-.62.09-.22,0-.43.04-.62.09-.1.03-.19.05-.28.07-.08.02-.17.04-.28.07-.2.06-.39.14-.57.24-.18.09-.33.21-.46.35-.13.14-.22.31-.28.5-.06.2-.09.43-.08.71,0,.13.02.24.07.35.04.11.1.21.16.29.1.14.23.26.4.35.17.09.34.17.53.24.06.01.13.02.19.02s.13,0,.19.02c.09.03.2.04.33.05.13,0,.24,0,.33-.03.08-.03.15-.03.23-.03.08,0,.15,0,.23-.03.1-.03.2-.04.3-.06.09-.01.19-.04.27-.08.37-.15.68-.33.94-.55s.46-.51.6-.87Z"/>
      <path d="M66.03,95.24v.48c0,.16-.03.29-.09.39-.06.09-.17.14-.31.14-.15,0-.29,0-.45,0-.08,0-.15,0-.22,0-.07,0-.13,0-.18-.03-.11-.03-.19-.08-.23-.15-.05-.06-.08-.14-.08-.23,0-.09-.03-.18-.07-.27-.01-.03-.03-.05-.05-.07-.02-.02-.04-.04-.07-.07-.13-.01-.22.01-.29.08-.07.06-.14.13-.22.19-.25.19-.51.33-.76.44-.23.1-.49.18-.79.23-.3.05-.6.08-.91.09-.31,0-.62-.01-.92-.06-.3-.04-.57-.12-.8-.22-.66-.28-1.19-.65-1.59-1.13-.4-.47-.72-1.07-.95-1.77-.05-.11-.08-.23-.1-.35-.02-.12-.05-.24-.09-.37-.01-.06-.02-.13-.02-.19s0-.13-.02-.19c-.03-.06-.03-.13-.03-.2,0-.07,0-.14,0-.2v-.19c-.03-.06-.04-.15-.04-.25s.01-.18.04-.25v-.21c.03-.09.03-.18.03-.28s0-.19.03-.28c.01-.06.02-.12.02-.17s0-.11.02-.17c.04-.13.07-.25.1-.37.03-.12.06-.24.1-.35.16-.48.38-.91.64-1.3s.57-.71.94-.96c.21-.15.44-.28.67-.38.23-.1.49-.19.77-.27.09-.01.17-.03.26-.04.08-.01.17-.03.26-.06h.19c.1-.03.25-.04.45-.04s.34.01.44.04c.05.01.12.02.21.02.14.04.28.07.42.09.14.02.27.06.4.12.19.08.37.16.54.25.17.09.33.19.48.3.08.06.15.13.24.2s.19.09.33.07c.03-.04.05-.07.07-.09.02-.03.03-.06.05-.11.04-.11.05-.26.05-.44,0-.18,0-.34,0-.47v-2.78c0-.22.03-.38.09-.48.05-.09.13-.14.23-.17.03,0,.06,0,.1,0s.07,0,.1,0c.18-.01.36-.02.56,0,.2,0,.33.06.41.16.06.1.09.23.09.38v11.93ZM64.5,91.66c.03-.06.04-.15.04-.26s-.01-.19-.04-.26v-.28c-.03-.11-.04-.23-.06-.35-.01-.12-.04-.23-.08-.33-.03-.1-.05-.2-.07-.28-.02-.09-.05-.18-.09-.27-.15-.38-.35-.71-.59-1-.24-.29-.54-.52-.91-.68-.13-.06-.26-.11-.39-.14-.13-.03-.28-.06-.43-.09-.1-.03-.21-.04-.33-.04h-.35c-.06.01-.12.02-.17.03-.05,0-.11,0-.17,0-.1.03-.21.05-.31.08-.11.03-.21.06-.31.09-.4.18-.73.43-.98.77-.25.33-.45.72-.6,1.17-.05.14-.08.28-.1.43-.02.15-.04.29-.07.43,0,.05,0,.1,0,.14s0,.09,0,.14c-.03.06-.04.13-.03.21,0,.08,0,.15,0,.21v.41c0,.13.01.26.04.37.01.04.02.1.02.19.03.09.05.18.07.27.02.09.04.18.07.27.14.44.33.82.57,1.14.24.32.54.58.91.78.11.06.23.11.34.15.11.04.24.08.38.11.06.03.13.03.2.02.07-.01.14,0,.2.02.05.01.1.02.16.02h.33s.1-.02.19-.02c.1-.03.2-.05.3-.07.1-.02.2-.05.28-.09.42-.18.76-.4,1.01-.67.26-.27.48-.62.65-1.03.06-.14.11-.28.13-.42.03-.14.06-.28.1-.42.03-.05.04-.1.04-.14s0-.09.02-.14c.01-.08.02-.15,0-.23s0-.15,0-.23Z"/>
      <path d="M68.01,86.5h.61c.22,0,.38.04.49.11.09.06.15.14.18.24.03.09.07.19.1.29.08.18.14.35.19.53s.11.35.17.53c.25.68.49,1.37.7,2.06.21.69.45,1.37.7,2.06.09.23.16.46.23.69.06.23.15.47.25.69.03.09.06.18.09.28.04.1.1.16.19.19.1.03.18-.02.24-.13s.1-.2.12-.27c.1-.24.19-.48.26-.73.07-.25.15-.5.24-.75.16-.48.32-.96.47-1.43.15-.47.31-.95.48-1.43.06-.21.13-.43.19-.64s.14-.41.23-.62c.06-.18.12-.35.17-.53.05-.18.11-.35.17-.53.03-.09.06-.18.1-.27.04-.09.09-.16.15-.23.1-.06.22-.1.34-.11.13-.01.28-.02.46-.02.09,0,.17,0,.25,0,.08,0,.15.02.21.05.11.05.17.13.18.25,0,.11-.02.23-.07.34-.08.22-.15.44-.23.66-.08.23-.17.45-.27.66-.03.06-.04.12-.06.18-.01.06-.03.12-.06.18-.1.22-.18.44-.25.66-.06.23-.15.46-.25.68-.06.16-.12.33-.18.5s-.12.34-.2.5c-.21.52-.41,1.04-.58,1.57s-.36,1.06-.58,1.57c-.08.2-.15.4-.21.61-.06.2-.14.4-.23.61-.06.14-.12.27-.16.39-.04.12-.14.21-.28.27-.08.04-.16.06-.26.06h-.29c-.2,0-.4,0-.59,0-.19,0-.33-.07-.42-.18-.09-.1-.15-.22-.19-.37-.04-.15-.09-.29-.15-.43-.08-.18-.15-.36-.22-.56-.07-.2-.14-.38-.2-.56-.03-.06-.04-.12-.06-.16-.01-.04-.03-.1-.06-.16-.25-.61-.48-1.22-.69-1.84-.21-.62-.44-1.23-.69-1.84-.08-.2-.15-.4-.22-.6-.07-.2-.14-.39-.22-.6-.03-.06-.05-.13-.07-.2s-.04-.14-.07-.2c-.1-.21-.19-.43-.26-.64-.07-.22-.15-.43-.24-.65-.03-.08-.06-.18-.1-.3-.04-.13-.03-.23.02-.32.06-.06.14-.11.23-.13.09,0,.14,0,.15-.02Z"/>
      <path d="M86.29,95.57c.04.2.02.37-.06.5-.08.13-.18.23-.3.29-.06.03-.13.04-.2.04s-.14.01-.22.04c-.28.06-.55.05-.83-.05-.27-.1-.46-.21-.56-.35-.06-.09-.12-.19-.17-.31-.05-.12-.11-.22-.19-.29-.03-.03-.05-.05-.08-.08-.03-.03-.07-.03-.12-.02-.14.04-.27.11-.39.21-.12.1-.24.19-.35.27-.16.1-.34.19-.53.28-.19.08-.39.15-.61.22-.13.04-.26.06-.41.08s-.29.03-.43.06c-.06.01-.12.02-.16.02h-.14c-.14.03-.27.03-.4,0h-.17c-.06-.01-.13-.02-.19-.02s-.12-.01-.17-.04c-.05-.01-.09-.02-.12,0-.03,0-.07,0-.1,0-.1-.03-.2-.05-.3-.07-.1-.02-.2-.05-.28-.09-.38-.16-.69-.35-.92-.56-.23-.21-.43-.5-.58-.88-.11-.28-.17-.61-.17-1.01v-.4c.01-.06.02-.13.03-.2s.02-.14.03-.22c.05-.14.1-.28.15-.42s.11-.27.19-.38c.23-.37.54-.64.93-.82.39-.18.82-.33,1.29-.47.18-.05.36-.09.55-.11.19-.03.38-.06.57-.09.09-.03.17-.04.26-.04s.17-.01.28-.04c.09-.03.18-.04.27-.05.09,0,.18-.02.28-.05.32-.08.61-.14.89-.2.28-.06.5-.2.66-.43.08-.1.14-.23.19-.39.05-.16.05-.33,0-.52-.08-.3-.19-.54-.33-.72-.15-.18-.35-.32-.62-.42-.15-.06-.33-.11-.54-.13-.21-.03-.43-.04-.65-.04s-.45.01-.66.04c-.22.03-.4.06-.55.11-.21.08-.42.18-.63.32-.1.08-.19.17-.28.29-.08.12-.15.25-.22.39-.04.1-.07.21-.1.32-.03.11-.09.2-.18.27-.05.04-.13.07-.26.09s-.24.03-.37.03-.25,0-.37-.03c-.12-.02-.21-.05-.26-.09s-.09-.1-.11-.19c-.03-.09-.03-.18,0-.28.04-.16.08-.32.12-.46.04-.15.1-.29.16-.43.24-.44.54-.79.91-1.03s.82-.45,1.37-.6c.13-.03.26-.04.39-.06.13-.01.27-.03.41-.06.05-.01.13-.02.25,0,.11,0,.18,0,.21-.03.89-.01,1.66.09,2.31.3.66.22,1.12.63,1.38,1.23.11.25.18.55.2.88.02.34.03.69.03,1.05v4.19c0,.18,0,.35.02.51.01.16.05.3.11.4.06.09.14.15.25.19.11.05.22.09.32.1.1.02.18.08.23.18.03.04.04.08.04.11s0,.09.02.15ZM83.58,93.46c.08-.18.12-.38.12-.62,0-.23,0-.48,0-.73,0-.14,0-.27-.02-.38-.01-.11-.06-.2-.15-.27-.04-.03-.13-.04-.27-.04-.03.03-.07.04-.13.04s-.12.01-.17.04c-.1.03-.22.05-.34.08-.13.03-.25.05-.38.08-.04,0-.08,0-.12,0-.04,0-.09,0-.14,0-.19.05-.39.08-.62.09-.22,0-.43.04-.62.09-.1.03-.19.05-.28.07-.08.02-.17.04-.28.07-.2.06-.39.14-.57.24-.18.09-.33.21-.46.35-.13.14-.22.31-.28.5-.06.2-.09.43-.08.71,0,.13.02.24.07.35.04.11.1.21.16.29.1.14.23.26.4.35.17.09.34.17.53.24.06.01.13.02.19.02s.13,0,.19.02c.09.03.2.04.33.05.13,0,.24,0,.33-.03.08-.03.15-.03.23-.03.08,0,.15,0,.23-.03.1-.03.2-.04.3-.06.09-.01.19-.04.27-.08.37-.15.68-.33.94-.55s.46-.51.6-.87Z"/>
      <path d="M92.25,86.31c.8-.03,1.44.08,1.92.32s.87.6,1.16,1.08c.08.13.13.26.18.41.04.15.08.29.12.45.06.24.1.5.11.78.01.28.02.56.02.85v4.99c0,.22,0,.43,0,.65s-.09.35-.26.42c-.06.03-.13.04-.2.05-.07,0-.14,0-.22,0-.16,0-.32,0-.47,0s-.26-.06-.32-.16c-.06-.09-.1-.2-.1-.34v-5.14c0-.34,0-.68-.02-1.01-.01-.33-.07-.62-.17-.86-.1-.25-.25-.46-.46-.62s-.44-.28-.7-.37c-.08-.03-.16-.04-.24-.05-.08,0-.16-.02-.24-.05-.06-.01-.16-.02-.29,0-.13,0-.22.02-.28.03-.05.03-.1.04-.13.03-.04,0-.08,0-.13,0-.16.04-.32.08-.46.12s-.28.1-.41.18c-.05.03-.1.05-.13.08-.04.03-.08.05-.13.08-.44.32-.76.79-.97,1.42-.04.1-.06.21-.08.31-.01.11-.03.21-.06.31-.03.06-.03.12-.02.18.01.06,0,.11-.02.16v.4s-.02.08,0,.13c0,.05,0,.11,0,.17v4.49c0,.15-.03.26-.1.35-.06.1-.17.15-.33.16-.16,0-.32,0-.48,0-.1,0-.2,0-.28-.02s-.16-.04-.23-.09c-.1-.06-.15-.18-.15-.36v-8.84c0-.11.03-.2.08-.27.04-.08.1-.13.19-.15.05-.01.12-.03.22-.04.09-.01.19-.02.29-.02s.2,0,.29.02.16.03.2.06c.14.09.2.2.19.33-.01.13,0,.28.06.45.03.08.08.14.15.19.15.01.28-.04.37-.17.1-.13.19-.23.3-.3.18-.13.36-.24.54-.35.18-.11.4-.2.64-.28.1-.04.21-.06.33-.08s.24-.03.35-.06c.06-.01.13-.02.19-.02h.19Z"/>
      <path d="M101.9,86.27c.94-.01,1.72.12,2.34.41s1.12.71,1.49,1.28c.16.25.3.56.42.93.03.06.04.15.06.25.01.1,0,.19-.02.27-.04.06-.1.12-.19.17-.04.03-.08.04-.11.03-.04,0-.08,0-.13,0-.05.01-.1.02-.15,0s-.1,0-.15,0c-.14,0-.27,0-.4,0-.13,0-.23-.04-.32-.1-.1-.08-.17-.18-.21-.32-.04-.14-.09-.26-.15-.36-.19-.33-.44-.59-.74-.78-.1-.06-.21-.12-.32-.16s-.23-.09-.36-.12c-.18-.05-.41-.08-.7-.09-.29,0-.53.02-.72.09-.09.03-.17.04-.25.06-.08.01-.16.03-.25.06-.33.14-.62.33-.87.57s-.45.52-.59.85c-.05.11-.09.23-.13.35-.04.12-.08.25-.11.39l-.11.51c-.01.06-.02.13,0,.21,0,.08,0,.15-.03.21v.15c-.01.05-.02.13-.03.25s0,.2.03.25c.01.06.01.13,0,.19-.01.06-.01.13,0,.19.01.05.02.14.02.27.03.1.05.21.07.32s.04.22.07.32c.14.4.3.76.48,1.05.18.3.44.55.77.77.11.06.23.12.35.17.12.05.25.1.39.15.06.01.11.02.15.02s.09,0,.15.02c.04.01.1.02.19.02h.21s.03.02.08.02c.03-.01.06-.02.1,0,.04,0,.08,0,.11,0,.09-.03.17-.04.26-.03s.17,0,.26-.03c.33-.1.61-.23.85-.39.24-.16.44-.36.61-.62.06-.1.12-.21.17-.32l.15-.34c.03-.1.05-.2.09-.29s.09-.17.18-.24c.04-.04.11-.07.23-.09.11-.02.24-.03.37-.04.13,0,.26,0,.38,0s.21.04.26.08c.08.05.12.13.14.23.02.1.02.21,0,.32-.06.19-.12.37-.18.54s-.13.34-.22.5c-.19.38-.43.71-.71,1-.28.29-.63.53-1.03.7-.1.05-.21.09-.32.12s-.23.07-.36.1c-.14.05-.28.08-.42.09-.14,0-.28.02-.42.05-.05.03-.1.03-.15.02-.05-.01-.1-.01-.15,0h-.17c-.1,0-.2,0-.29,0-.1,0-.18,0-.26-.03h-.09l-.46-.06c-.17-.05-.32-.09-.48-.13-.15-.04-.3-.09-.44-.15-.46-.2-.83-.44-1.13-.72-.3-.28-.57-.62-.82-1.02-.06-.1-.12-.22-.17-.34s-.1-.25-.15-.38c-.06-.14-.11-.28-.13-.44-.03-.15-.06-.3-.1-.46-.01-.05-.02-.1-.02-.15s0-.1-.02-.15c-.03-.08-.03-.16-.03-.25,0-.09,0-.17-.03-.25v-.19c-.01-.06-.02-.15-.02-.27s0-.2.02-.27c.01-.06.02-.12.01-.17,0-.05,0-.1,0-.15.03-.09.03-.18.03-.27,0-.09,0-.17.03-.25.05-.22.09-.43.13-.65s.1-.42.17-.61c.27-.66.59-1.19.97-1.59.38-.4.9-.74,1.56-1.01.14-.06.29-.11.46-.13.16-.03.33-.06.51-.1.09-.01.18-.02.27-.03.09,0,.18-.02.28-.03Z"/>
      <path d="M116.47,91c.03.13.03.27,0,.43s-.06.27-.12.33c-.06.05-.15.09-.28.1s-.26.03-.41.03-.3,0-.46,0c-.15,0-.29,0-.4,0h-4.86c-.1,0-.2,0-.3,0-.1,0-.18.03-.25.07-.05.03-.1.08-.15.15-.03.04-.05.09-.08.16-.03.07-.03.14,0,.2.01.06.02.12.02.17s0,.1.02.15c.03.1.05.21.08.31.03.11.06.21.11.31.29.68.77,1.17,1.44,1.46.08.04.16.07.25.09.09.03.18.05.26.08.04.01.1.02.19.02.18.05.41.08.7.08s.53-.03.7-.08c.18-.05.34-.1.48-.16s.28-.13.41-.22c.14-.09.26-.19.36-.31.1-.12.19-.25.26-.39.08-.13.14-.26.2-.4s.15-.24.29-.3c.05-.03.13-.04.25-.06s.23-.02.34,0,.22.02.32.03c.1.01.17.04.21.08.13.09.16.23.1.44-.1.34-.23.65-.4.91-.25.4-.54.74-.86,1-.32.26-.73.47-1.22.64-.13.05-.25.09-.38.1-.13.02-.26.04-.4.07-.06.01-.12.02-.18.02s-.12,0-.18.02h-.19c-.06.01-.14.02-.22.02s-.15,0-.2-.02h-.17c-.06-.01-.12-.02-.17-.02s-.1,0-.15-.02c-.06-.01-.13-.02-.21-.03-.08,0-.15-.02-.21-.03-.11-.03-.23-.05-.34-.09s-.22-.07-.32-.1c-.05-.03-.1-.04-.13-.05-.04,0-.08-.02-.13-.05-.19-.09-.39-.2-.61-.32-.37-.24-.68-.53-.94-.88-.26-.35-.48-.74-.65-1.17-.06-.14-.11-.28-.14-.44-.03-.15-.07-.3-.12-.46-.01-.05-.02-.09-.02-.13s0-.09-.02-.15c-.03-.1-.04-.21-.06-.32-.01-.11-.03-.23-.06-.34v-.27c-.01-.05-.02-.12-.03-.22,0-.1,0-.17,0-.24v-.21c.03-.06.04-.13.03-.2s0-.14,0-.2c.05-.2.09-.4.12-.61.03-.2.09-.39.16-.57.06-.14.12-.28.18-.43s.12-.29.2-.43c.28-.44.59-.82.95-1.15.35-.32.79-.59,1.31-.81.15-.06.31-.11.46-.14.16-.03.33-.07.5-.1.06-.01.12-.02.17-.03s.11,0,.17,0c.03-.01.06-.01.1,0,.04.01.07,0,.09-.02.53-.01.99.04,1.39.16.39.12.75.28,1.06.48.06.03.11.06.15.1.04.04.08.08.13.1.1.08.21.16.31.27s.2.2.28.3c.2.27.37.52.51.76.09.14.16.29.21.46.05.16.11.33.17.49s.11.33.14.51c.03.18.07.35.12.53.01.09.02.18.03.27,0,.09.02.18.03.27ZM114.63,90.35c.04-.05.07-.12.1-.2s.03-.17,0-.26c-.08-.28-.18-.54-.32-.78-.18-.29-.37-.54-.59-.74-.22-.2-.49-.37-.83-.51-.09-.03-.18-.05-.27-.07-.09-.02-.18-.04-.28-.07-.1-.03-.21-.04-.32-.04h-.32s-.08.03-.13.03c-.05,0-.09,0-.13,0-.1.03-.2.05-.29.07-.1.02-.19.04-.28.07-.37.15-.66.34-.88.57s-.42.51-.6.85c-.04.06-.08.14-.11.24-.04.1-.07.2-.1.31-.03.11-.03.22-.02.32.01.1.06.18.13.23.1.08.28.11.52.1.25,0,.46,0,.64,0h2.88c.19,0,.42,0,.68,0,.26,0,.44-.04.53-.14Z"/>
      <path d="M126.73,95.24v.48c0,.16-.03.29-.09.39-.06.09-.17.14-.31.14-.15,0-.29,0-.45,0-.08,0-.15,0-.22,0-.07,0-.13,0-.18-.03-.11-.03-.19-.08-.23-.15-.05-.06-.08-.14-.08-.23,0-.09-.03-.18-.07-.27-.01-.03-.03-.05-.05-.07-.02-.02-.04-.04-.07-.07-.13-.01-.22.01-.29.08-.07.06-.14.13-.22.19-.25.19-.51.33-.76.44-.23.1-.49.18-.79.23-.3.05-.6.08-.91.09-.31,0-.62-.01-.92-.06-.3-.04-.57-.12-.8-.22-.66-.28-1.19-.65-1.59-1.13-.4-.47-.72-1.07-.95-1.77-.05-.11-.08-.23-.1-.35-.02-.12-.05-.24-.09-.37-.01-.06-.02-.13-.02-.19s0-.13-.02-.19c-.03-.06-.03-.13-.03-.2,0-.07,0-.14,0-.2v-.19c-.03-.06-.04-.15-.04-.25s.01-.18.04-.25v-.21c.03-.09.03-.18.03-.28s0-.19.03-.28c.01-.06.02-.12.02-.17s0-.11.02-.17c.04-.13.07-.25.1-.37.03-.12.06-.24.1-.35.16-.48.38-.91.64-1.3s.57-.71.94-.96c.21-.15.44-.28.67-.38.23-.1.49-.19.77-.27.09-.01.17-.03.26-.04.08-.01.17-.03.26-.06h.19c.1-.03.25-.04.45-.04s.34.01.44.04c.05.01.12.02.21.02.14.04.28.07.42.09.14.02.27.06.4.12.19.08.37.16.54.25.17.09.33.19.48.3.08.06.15.13.24.2s.19.09.33.07c.03-.04.05-.07.07-.09.02-.03.03-.06.05-.11.04-.11.05-.26.05-.44,0-.18,0-.34,0-.47v-2.78c0-.22.03-.38.09-.48.05-.09.13-.14.23-.17.03,0,.06,0,.1,0s.07,0,.1,0c.18-.01.36-.02.56,0,.2,0,.33.06.41.16.06.1.09.23.09.38v11.93ZM125.19,91.66c.03-.06.04-.15.04-.26s-.01-.19-.04-.26v-.28c-.03-.11-.04-.23-.06-.35-.01-.12-.04-.23-.08-.33-.03-.1-.05-.2-.07-.28-.02-.09-.05-.18-.09-.27-.15-.38-.35-.71-.59-1-.24-.29-.54-.52-.91-.68-.13-.06-.26-.11-.39-.14-.13-.03-.28-.06-.43-.09-.1-.03-.21-.04-.33-.04h-.35c-.06.01-.12.02-.17.03-.05,0-.11,0-.17,0-.1.03-.21.05-.31.08-.11.03-.21.06-.31.09-.4.18-.73.43-.98.77-.25.33-.45.72-.6,1.17-.05.14-.08.28-.1.43-.02.15-.04.29-.07.43,0,.05,0,.1,0,.14s0,.09,0,.14c-.03.06-.04.13-.03.21,0,.08,0,.15,0,.21v.41c0,.13.01.26.04.37.01.04.02.1.02.19.03.09.05.18.07.27.02.09.04.18.07.27.14.44.33.82.57,1.14.24.32.54.58.91.78.11.06.23.11.34.15.11.04.24.08.38.11.06.03.13.03.2.02.07-.01.14,0,.2.02.05.01.1.02.16.02h.33s.1-.02.19-.02c.1-.03.2-.05.3-.07.1-.02.2-.05.28-.09.42-.18.76-.4,1.01-.67.26-.27.48-.62.65-1.03.06-.14.11-.28.13-.42.03-.14.06-.28.1-.42.03-.05.04-.1.04-.14s0-.09.02-.14c.01-.08.02-.15,0-.23s0-.15,0-.23Z"/>
      <path d="M138.74,86.31c.8-.03,1.44.08,1.92.32s.87.6,1.16,1.08c.08.13.13.26.18.41.04.15.08.29.12.45.06.24.1.5.11.78.01.28.02.56.02.85v4.99c0,.22,0,.43,0,.65s-.09.35-.26.42c-.06.03-.13.04-.2.05-.07,0-.14,0-.22,0-.16,0-.32,0-.47,0s-.26-.06-.32-.16c-.06-.09-.1-.2-.1-.34v-5.14c0-.34,0-.68-.02-1.01-.01-.33-.07-.62-.17-.86-.1-.25-.25-.46-.46-.62s-.44-.28-.7-.37c-.08-.03-.16-.04-.24-.05-.08,0-.16-.02-.24-.05-.06-.01-.16-.02-.29,0-.13,0-.22.02-.28.03-.05.03-.1.04-.13.03-.04,0-.08,0-.13,0-.16.04-.32.08-.46.12s-.28.1-.41.18c-.05.03-.1.05-.13.08-.04.03-.08.05-.13.08-.44.32-.76.79-.97,1.42-.04.1-.06.21-.08.31-.01.11-.03.21-.06.31-.03.06-.03.12-.02.18.01.06,0,.11-.02.16v.4s-.02.08,0,.13c0,.05,0,.11,0,.17v4.49c0,.15-.03.26-.1.35-.06.1-.17.15-.33.16-.16,0-.32,0-.48,0-.1,0-.2,0-.28-.02s-.16-.04-.23-.09c-.1-.06-.15-.18-.15-.36v-8.84c0-.11.03-.2.08-.27.04-.08.1-.13.19-.15.05-.01.12-.03.22-.04.09-.01.19-.02.29-.02s.2,0,.29.02.16.03.2.06c.14.09.2.2.19.33-.01.13,0,.28.06.45.03.08.08.14.15.19.15.01.28-.04.37-.17.1-.13.19-.23.3-.3.18-.13.36-.24.54-.35.18-.11.4-.2.64-.28.1-.04.21-.06.33-.08s.24-.03.35-.06c.06-.01.13-.02.19-.02h.19Z"/>
      <path d="M152.96,91c.03.13.03.27,0,.43s-.06.27-.12.33c-.06.05-.15.09-.28.1s-.26.03-.41.03-.3,0-.46,0c-.15,0-.29,0-.4,0h-4.86c-.1,0-.2,0-.3,0-.1,0-.18.03-.25.07-.05.03-.1.08-.15.15-.03.04-.05.09-.08.16-.03.07-.03.14,0,.2.01.06.02.12.02.17s0,.1.02.15c.03.1.05.21.08.31.03.11.06.21.11.31.29.68.77,1.17,1.44,1.46.08.04.16.07.25.09.09.03.18.05.26.08.04.01.1.02.19.02.18.05.41.08.7.08s.53-.03.7-.08c.18-.05.34-.1.48-.16s.28-.13.41-.22c.14-.09.26-.19.36-.31.1-.12.19-.25.26-.39.08-.13.14-.26.2-.4s.15-.24.29-.3c.05-.03.13-.04.25-.06s.23-.02.34,0,.22.02.32.03c.1.01.17.04.21.08.13.09.16.23.1.44-.1.34-.23.65-.4.91-.25.4-.54.74-.86,1-.32.26-.73.47-1.22.64-.13.05-.25.09-.38.1-.13.02-.26.04-.4.07-.06.01-.12.02-.18.02s-.12,0-.18.02h-.19c-.06.01-.14.02-.22.02s-.15,0-.2-.02h-.17c-.06-.01-.12-.02-.17-.02s-.1,0-.15-.02c-.06-.01-.13-.02-.21-.03-.08,0-.15-.02-.21-.03-.11-.03-.23-.05-.34-.09s-.22-.07-.32-.1c-.05-.03-.1-.04-.13-.05-.04,0-.08-.02-.13-.05-.19-.09-.39-.2-.61-.32-.37-.24-.68-.53-.94-.88-.26-.35-.48-.74-.65-1.17-.06-.14-.11-.28-.14-.44-.03-.15-.07-.3-.12-.46-.01-.05-.02-.09-.02-.13s0-.09-.02-.15c-.03-.1-.04-.21-.06-.32-.01-.11-.03-.23-.06-.34v-.27c-.01-.05-.02-.12-.03-.22,0-.1,0-.17,0-.24v-.21c.03-.06.04-.13.03-.2s0-.14,0-.2c.05-.2.09-.4.12-.61.03-.2.09-.39.16-.57.06-.14.12-.28.18-.43s.12-.29.2-.43c.28-.44.59-.82.95-1.15.35-.32.79-.59,1.31-.81.15-.06.31-.11.46-.14.16-.03.33-.07.5-.1.06-.01.12-.02.17-.03s.11,0,.17,0c.03-.01.06-.01.1,0,.04.01.07,0,.09-.02.53-.01.99.04,1.39.16.39.12.75.28,1.06.48.06.03.11.06.15.1.04.04.08.08.13.1.1.08.21.16.31.27s.2.2.28.3c.2.27.37.52.51.76.09.14.16.29.21.46.05.16.11.33.17.49s.11.33.14.51c.03.18.07.35.12.53.01.09.02.18.03.27,0,.09.02.18.03.27ZM151.12,90.35c.04-.05.07-.12.1-.2s.03-.17,0-.26c-.08-.28-.18-.54-.32-.78-.18-.29-.37-.54-.59-.74-.22-.2-.49-.37-.83-.51-.09-.03-.18-.05-.27-.07-.09-.02-.18-.04-.28-.07-.1-.03-.21-.04-.32-.04h-.32s-.08.03-.13.03c-.05,0-.09,0-.13,0-.1.03-.2.05-.29.07-.1.02-.19.04-.28.07-.37.15-.66.34-.88.57s-.42.51-.6.85c-.04.06-.08.14-.11.24-.04.1-.07.2-.1.31-.03.11-.03.22-.02.32.01.1.06.18.13.23.1.08.28.11.52.1.25,0,.46,0,.64,0h2.88c.19,0,.42,0,.68,0,.26,0,.44-.04.53-.14Z"/>
      <path d="M155.62,83.54c.19,0,.38,0,.57,0,.19,0,.32.06.4.16.06.08.1.18.1.31,0,.13,0,.27,0,.41v1.1c0,.1,0,.21,0,.31,0,.11,0,.2.03.28.05.18.16.29.34.34.06.01.12.02.18.02h.18c.14,0,.31,0,.51,0,.2,0,.35,0,.44.05.11.08.19.15.23.23.03.05.04.11.04.17v.19c0,.14,0,.27-.02.39-.01.12-.06.21-.13.27-.08.06-.18.1-.31.1-.13,0-.27,0-.42,0-.15,0-.29,0-.43,0s-.26.02-.36.06c-.09.04-.15.1-.19.19-.04.09-.06.19-.08.31-.01.12-.02.25,0,.38,0,.13,0,.26,0,.39v3.76c0,.28,0,.57,0,.88,0,.31.05.55.16.71.06.1.14.17.25.21.1.04.22.07.36.09.04.01.08.02.12,0,.04,0,.09,0,.12,0h.25c.13,0,.24,0,.35.03.11.02.19.07.24.14.03.04.05.1.07.2.02.09.03.19.04.29s0,.2,0,.29c-.01.09-.04.17-.08.22-.05.09-.15.15-.28.19-.1.03-.22.04-.34.03-.13,0-.24,0-.34,0-.08,0-.15,0-.23,0-.08,0-.15,0-.21,0h-.23c-.06-.01-.12-.02-.18-.03s-.12,0-.18,0c-.25-.06-.47-.13-.65-.21-.18-.08-.34-.21-.46-.4-.18-.25-.28-.57-.3-.96s-.04-.8-.04-1.24v-4.97c-.04-.16-.07-.28-.1-.36-.03-.08-.12-.14-.28-.19-.05-.01-.1-.01-.15,0-.05.01-.1,0-.15-.02h-.3c-.16,0-.3-.02-.41-.05s-.18-.1-.22-.22c-.03-.05-.04-.11-.05-.17,0-.06,0-.13,0-.19,0-.18.01-.32.04-.45.03-.12.1-.21.23-.28.14-.05.32-.06.54-.04.22.03.41.01.56-.04.11-.06.2-.15.27-.27.03-.08.04-.17.04-.28v-1.81c0-.11.01-.2.04-.28.05-.1.15-.18.28-.25.04,0,.07,0,.1,0s.06,0,.09,0Z"/>
      <path d="M160,86.5h.58c.21,0,.37.04.48.11.1.06.17.16.2.28.03.12.07.24.1.37.05.15.1.31.13.47.04.16.09.32.15.47.03.06.04.12.04.17s.01.11.04.17c.05.15.09.31.12.46.03.16.08.32.14.48.14.44.27.9.38,1.37s.24.92.38,1.37c.06.18.11.35.15.52.04.17.09.34.15.52.03.1.05.2.08.29.03.09.07.18.13.26.01.03.03.04.04.05.01,0,.03.02.06.05.05,0,.08,0,.1-.02.08-.03.13-.08.15-.16.03-.08.05-.16.08-.24.06-.16.11-.33.14-.49.03-.16.07-.33.12-.49.03-.1.04-.18.04-.23.06-.18.11-.35.13-.52.03-.17.07-.34.13-.52.05-.18.09-.36.12-.54s.08-.36.14-.54c.1-.35.19-.71.28-1.08.08-.37.17-.73.28-1.08.04-.16.07-.32.1-.47.03-.15.07-.3.12-.46.03-.06.04-.12.06-.18.01-.06.03-.11.06-.16.05-.08.14-.14.28-.19.08-.03.15-.04.24-.04h.26c.16,0,.33,0,.48,0,.16,0,.29.04.39.1.08.06.13.14.16.22.03.08.06.17.08.28.06.19.11.38.15.58.04.2.09.4.15.6.03.1.05.2.08.3s.06.2.09.3c0,.04.01.11.04.21.04.11.07.23.1.35s.06.24.1.37c.01.04.03.11.06.21.11.37.21.73.28,1.1.08.37.17.73.28,1.1.06.18.11.36.14.55.03.19.08.37.14.55.03.09.05.17.07.26.02.08.05.16.1.24.01.03.03.04.05.05.02,0,.04.02.07.05.11,0,.19-.04.23-.13.04-.09.07-.18.09-.27.08-.22.14-.43.19-.65s.11-.43.17-.65c.06-.18.11-.35.14-.52s.08-.34.14-.52c.05-.11.09-.23.11-.36.03-.13.06-.26.1-.4.14-.4.26-.82.35-1.24.09-.42.21-.84.35-1.24.04-.14.07-.27.1-.4.03-.13.07-.26.1-.4.03-.08.05-.15.08-.23s.06-.14.11-.21c.03-.05.07-.09.12-.11s.12-.05.18-.08c.06-.01.13-.02.21-.02h.23c.18,0,.33.01.48.04.14.03.23.11.26.25.01.05.01.1,0,.14-.01.04-.03.08-.04.1-.03.09-.05.17-.07.25-.02.08-.04.15-.07.23-.03.05-.04.1-.05.14s-.02.09-.05.14c-.08.24-.15.48-.22.71-.07.23-.15.47-.24.69-.08.22-.15.44-.21.66s-.13.46-.21.68c-.18.56-.35,1.11-.53,1.67-.18.56-.36,1.12-.55,1.69-.08.22-.15.43-.21.65-.06.22-.13.44-.21.65-.05.14-.09.28-.12.42-.03.14-.08.27-.14.38-.09.14-.21.22-.35.24-.15.02-.33.03-.54.03h-.4c-.06-.01-.13-.03-.19-.04-.06-.01-.12-.03-.17-.06-.08-.05-.14-.13-.18-.23-.04-.1-.08-.22-.1-.34-.03-.13-.05-.25-.08-.37s-.06-.23-.09-.33c-.05-.15-.09-.31-.11-.47-.03-.16-.06-.31-.11-.46-.05-.13-.09-.26-.1-.39-.02-.13-.05-.26-.1-.39-.03-.09-.05-.17-.07-.26-.02-.08-.04-.17-.07-.26-.1-.29-.18-.59-.24-.9-.06-.31-.13-.61-.22-.9-.08-.23-.14-.46-.19-.68s-.11-.45-.17-.66c-.03-.09-.06-.18-.1-.28-.04-.09-.11-.14-.21-.14h-.02l-.02.02c-.08.03-.13.09-.16.19-.03.1-.06.19-.08.27-.06.2-.11.4-.15.6-.04.2-.09.4-.15.6-.05.16-.09.33-.12.49-.03.16-.07.33-.12.49-.04.13-.07.25-.1.37-.03.12-.06.25-.09.39-.11.37-.21.75-.3,1.14-.08.39-.18.78-.29,1.16-.05.15-.09.31-.12.47s-.07.31-.12.45c-.03.08-.05.15-.07.23-.02.08-.06.13-.12.17-.06.05-.13.08-.19.09s-.14.02-.23.05h-.38c-.2,0-.38,0-.53-.02s-.27-.08-.36-.19c-.06-.1-.11-.21-.15-.33-.04-.12-.08-.24-.11-.37-.08-.24-.15-.48-.23-.72-.08-.24-.15-.48-.23-.72-.28-.82-.55-1.64-.81-2.47-.26-.82-.52-1.64-.79-2.47-.1-.29-.19-.57-.27-.85-.08-.28-.17-.55-.28-.82-.03-.08-.05-.18-.09-.32s-.02-.25.03-.32c.04-.05.12-.1.25-.15h.08s.05,0,.08-.02Z"/>
      <path d="M183.41,90.96c.03.08.04.19.04.35s0,.27-.02.33v.19c-.01.1-.02.19-.03.28s-.02.17-.03.28c-.03.08-.04.15-.05.23,0,.08-.02.15-.05.23-.05.16-.1.33-.13.49-.04.16-.09.32-.15.46-.27.61-.62,1.12-1.06,1.53-.44.41-.99.72-1.63.94-.14.05-.29.09-.45.11-.16.03-.32.05-.48.08-.08.01-.16.02-.24.03-.08,0-.16,0-.24,0-.05.01-.12.02-.22.02s-.16,0-.2-.02c-.05-.01-.1-.02-.15,0-.05,0-.1,0-.13,0h-.11l-.46-.06c-.18-.05-.35-.1-.51-.15-.17-.05-.32-.11-.48-.17-.57-.25-1.04-.58-1.4-.99s-.67-.9-.91-1.48c-.06-.13-.11-.25-.14-.38-.03-.13-.06-.26-.09-.4-.03-.05-.03-.09-.03-.12,0-.03,0-.07-.01-.12-.03-.1-.04-.21-.05-.31,0-.11-.02-.21-.05-.31v-.16s0-.1-.02-.16c-.01-.06-.02-.17-.02-.33s.01-.28.04-.35c.03-.09.03-.18.02-.27s0-.18.02-.27c.01-.06.02-.12.03-.16s.02-.1.03-.16c.04-.15.07-.3.1-.46.03-.15.08-.3.14-.44.19-.47.42-.89.69-1.26.27-.37.6-.69,1-.94.15-.1.31-.19.47-.26.16-.07.33-.14.51-.22.15-.06.32-.1.49-.12.18-.02.35-.05.53-.1.09,0,.17,0,.26,0,.08,0,.16-.02.24-.03,1.13-.01,2.06.22,2.81.7.75.48,1.28,1.11,1.61,1.88.06.13.11.25.15.38s.08.26.13.4c.04.14.07.29.1.45s.06.32.1.48c.01.06.02.13,0,.2s0,.14,0,.2ZM181.72,92.04c.03-.09.03-.19.03-.3,0-.11,0-.22,0-.32,0-.49-.04-.91-.13-1.25-.04-.1-.07-.2-.1-.3-.03-.1-.06-.2-.09-.28-.35-.82-.92-1.39-1.69-1.71-.09-.04-.18-.07-.28-.09-.1-.02-.2-.04-.3-.07-.1-.03-.21-.04-.32-.04h-.34l-.34.06c-.13.03-.24.05-.35.09-.11.03-.21.07-.31.12-.09.03-.17.06-.25.11-.08.05-.15.1-.21.15-.3.22-.55.47-.74.78-.19.3-.35.66-.49,1.06-.04.13-.06.26-.08.39-.01.13-.03.27-.06.41-.01.05-.02.13-.02.25-.01.04-.02.08,0,.13,0,.05,0,.11,0,.17v.38c0,.13.01.24.04.34l.04.23c.03.13.05.25.07.37.02.12.05.23.1.33.13.3.28.59.45.85.17.27.38.49.64.66.06.04.12.07.17.09.05.03.11.06.17.1.1.06.21.12.33.16.12.04.25.09.39.12.06.03.12.04.18.03s.12,0,.18,0c.04.01.12.03.24.04.12.01.21,0,.28-.02.05-.01.1-.02.15,0,.05,0,.1,0,.15-.03.1-.03.2-.05.3-.07.1-.02.2-.05.28-.09.43-.18.78-.42,1.04-.74.27-.32.49-.69.66-1.12.06-.15.1-.31.12-.48.02-.17.05-.34.1-.52Z"/>
      <path d="M189.71,86.27c.29,0,.46.07.49.22s.06.36.06.64v.36c0,.11-.03.21-.1.28-.08.1-.18.16-.32.16-.14,0-.28.03-.42.07-.18.04-.34.08-.5.11-.16.04-.31.09-.45.15-.37.16-.66.39-.89.67-.23.28-.42.61-.59.98-.05.14-.09.28-.11.43-.03.15-.06.29-.1.45-.01.06-.02.13,0,.19s0,.13,0,.19c-.04.15-.05.33-.05.52,0,.2,0,.38,0,.56v2.77c0,.15,0,.3-.02.44-.01.14-.02.26,0,.36s-.02.19-.09.27c-.06.09-.16.14-.29.15-.13.01-.28.02-.43.02h-.34c-.06-.03-.12-.05-.18-.07-.06-.02-.1-.05-.12-.09-.06-.09-.1-.2-.1-.33,0-.13,0-.27,0-.41v-8.02c0-.14,0-.27,0-.39,0-.12.04-.22.1-.31.04-.05.1-.09.2-.11.09-.03.2-.04.31-.05.11,0,.23,0,.34,0s.2.03.27.06c.1.04.17.11.2.22.03.11.05.22.05.34v.38c0,.13.03.25.08.35.01.03.03.04.04.06l.06.06c.14,0,.25-.06.34-.18s.17-.22.23-.29l.11-.11c.12-.14.27-.28.48-.44s.39-.27.57-.34c.11-.06.23-.11.36-.14.13-.03.26-.07.4-.1.08-.01.15-.02.23-.03.08,0,.15-.02.21-.03Z"/>
      <path d="M191.91,82.76c.18,0,.36,0,.56,0,.2,0,.33.06.41.16.05.06.08.15.08.25s0,.22,0,.34v5.84c0,.06,0,.13,0,.2s0,.14,0,.2v.15c0,.13.02.23.06.32.01.04.03.07.06.09.03.02.05.04.08.07.11.01.2,0,.26-.05.06-.04.12-.09.18-.14.06-.05.12-.1.15-.15.04-.05.08-.09.13-.13.1-.06.19-.14.26-.22.08-.08.16-.17.25-.26.06-.06.12-.12.18-.17.06-.05.12-.11.18-.17.04-.03.07-.06.1-.09s.06-.07.08-.09.04-.04.06-.05c.01,0,.03-.02.06-.05.05-.06.1-.12.15-.16s.11-.09.17-.14c.03-.04.06-.08.1-.11.04-.04.08-.08.11-.11.11-.09.22-.18.31-.28.1-.1.2-.2.31-.28.04-.04.08-.08.11-.12s.08-.09.11-.12c.16-.13.31-.27.44-.42.13-.15.28-.28.46-.4.1-.06.23-.1.39-.12.16-.02.33-.03.52-.03.06,0,.13,0,.2,0,.07,0,.13,0,.18,0h.21c.1.03.18.05.25.07.06.02.09.09.09.2-.03.03-.04.06-.05.09,0,.04-.02.07-.05.09-.03.04-.06.08-.1.11-.04.04-.09.07-.12.1-.03.03-.04.04-.05.06,0,.01-.02.03-.05.06-.05.03-.1.06-.13.1-.04.04-.08.08-.11.1-.04.04-.08.07-.11.1-.04.03-.07.07-.1.1-.1.08-.2.16-.28.25-.09.09-.18.17-.28.25-.03.03-.06.06-.1.09-.04.04-.07.08-.1.11-.13.09-.24.19-.34.29-.1.11-.21.21-.34.29-.03.04-.06.07-.09.1-.04.03-.07.07-.1.1-.06.05-.12.1-.17.15-.05.05-.11.1-.17.15-.06.05-.12.1-.18.16s-.1.12-.14.18c-.03.03-.06.07-.1.13-.04.06-.04.13-.02.19.03.14.07.25.14.34.07.09.13.18.2.28.1.14.2.28.28.43.09.15.18.29.27.43.35.52.7,1.03,1.04,1.54.34.51.68,1.02,1.03,1.56.08.1.14.2.21.3s.13.2.21.3c.05.08.1.15.15.22.05.07.09.15.13.24.05.1.07.19.06.27-.01.08-.07.14-.17.16-.06.03-.14.04-.23.04h-.25c-.18,0-.36,0-.54,0-.18,0-.33-.02-.45-.07-.16-.08-.31-.22-.45-.45-.13-.22-.25-.4-.35-.54-.29-.44-.58-.88-.85-1.3-.28-.42-.56-.85-.85-1.28-.11-.18-.22-.35-.33-.52-.11-.17-.22-.34-.35-.52-.04-.05-.09-.11-.16-.17-.07-.06-.15-.08-.26-.06-.1.03-.19.07-.26.14-.07.07-.14.14-.22.2-.06.05-.12.11-.18.17-.06.06-.12.12-.18.17-.14.1-.26.21-.35.33-.09.12-.16.28-.2.46,0,.05,0,.1,0,.15,0,.05-.01.1-.01.15-.01.06-.02.14,0,.23,0,.09,0,.17,0,.25v2.07c0,.18-.03.32-.09.42-.06.09-.17.14-.32.14-.15,0-.31,0-.47,0h-.21c-.06,0-.13-.01-.19-.04-.15-.05-.24-.16-.26-.32-.02-.16-.03-.35-.03-.57v-11.57c0-.14,0-.28-.01-.44s.02-.27.09-.36c.05-.09.15-.15.28-.19.03-.01.05-.02.08,0,.03,0,.05,0,.08,0Z"/>
      <path d="M19.64,108.61c.03.13.03.27,0,.43s-.06.27-.12.33c-.06.05-.15.09-.28.1s-.26.03-.41.03-.3,0-.46,0c-.15,0-.29,0-.4,0h-4.86c-.1,0-.2,0-.3,0-.1,0-.18.03-.25.07-.05.03-.1.08-.15.15-.03.04-.05.09-.08.16-.03.07-.03.14,0,.2.01.06.02.12.02.17s0,.1.02.15c.03.1.05.21.08.31.03.11.06.21.11.31.29.68.77,1.17,1.44,1.46.08.04.16.07.25.09.09.03.18.05.26.08.04.01.1.02.19.02.18.05.41.08.7.08s.53-.03.7-.08c.18-.05.34-.1.48-.16s.28-.13.41-.22c.14-.09.26-.19.36-.31.1-.12.19-.25.26-.39.08-.13.14-.26.2-.4s.15-.24.29-.3c.05-.03.13-.04.25-.06s.23-.02.34,0,.22.02.32.03c.1.01.17.04.21.08.13.09.16.23.1.44-.1.34-.23.65-.4.91-.25.4-.54.74-.86,1-.32.26-.73.47-1.22.64-.13.05-.25.09-.38.1-.13.02-.26.04-.4.07-.06.01-.12.02-.18.02s-.12,0-.18.02h-.19c-.06.01-.14.02-.22.02s-.15,0-.2-.02h-.17c-.06-.01-.12-.02-.17-.02s-.1,0-.15-.02c-.06-.01-.13-.02-.21-.03-.08,0-.15-.02-.21-.03-.11-.03-.23-.05-.34-.09s-.22-.07-.32-.1c-.05-.03-.1-.04-.13-.05-.04,0-.08-.02-.13-.05-.19-.09-.39-.2-.61-.32-.37-.24-.68-.53-.94-.88-.26-.35-.48-.74-.65-1.17-.06-.14-.11-.28-.14-.44-.03-.15-.07-.3-.12-.46-.01-.05-.02-.09-.02-.13s0-.09-.02-.15c-.03-.1-.04-.21-.06-.32-.01-.11-.03-.23-.06-.34v-.27c-.01-.05-.02-.12-.03-.22,0-.1,0-.17,0-.24v-.21c.03-.06.04-.13.03-.2s0-.14,0-.2c.05-.2.09-.4.12-.61.03-.2.09-.39.16-.57.06-.14.12-.28.18-.43s.12-.29.2-.43c.28-.44.59-.82.95-1.15.35-.32.79-.59,1.31-.81.15-.06.31-.11.46-.14.16-.03.33-.07.5-.1.06-.01.12-.02.17-.03s.11,0,.17,0c.03-.01.06-.01.1,0,.04.01.07,0,.09-.02.53-.01.99.04,1.39.16.39.12.75.28,1.06.48.06.03.11.06.15.1.04.04.08.08.13.1.1.08.21.16.31.27s.2.2.28.3c.2.27.37.52.51.76.09.14.16.29.21.46.05.16.11.33.17.49s.11.33.14.51c.03.18.07.35.12.53.01.09.02.18.03.27,0,.09.02.18.03.27ZM17.8,107.96c.04-.05.07-.12.1-.2s.03-.17,0-.26c-.08-.28-.18-.54-.32-.78-.18-.29-.37-.54-.59-.74-.22-.2-.49-.37-.83-.51-.09-.03-.18-.05-.27-.07-.09-.02-.18-.04-.28-.07-.1-.03-.21-.04-.32-.04h-.32s-.08.03-.13.03c-.05,0-.09,0-.13,0-.1.03-.2.05-.29.07-.1.02-.19.04-.28.07-.37.15-.66.34-.88.57s-.42.51-.6.85c-.04.06-.08.14-.11.24-.04.1-.07.2-.1.31-.03.11-.03.22-.02.32.01.1.06.18.13.23.1.08.28.11.52.1.25,0,.46,0,.64,0h2.88c.19,0,.42,0,.68,0,.26,0,.44-.04.53-.14Z"/>
      <path d="M25.76,103.92c.8-.03,1.44.08,1.92.32s.87.6,1.16,1.08c.08.13.13.26.18.41.04.15.08.29.12.45.06.24.1.5.11.78.01.28.02.56.02.85v4.99c0,.22,0,.43,0,.65s-.09.35-.26.42c-.06.03-.13.04-.2.05-.07,0-.14,0-.22,0-.16,0-.32,0-.47,0s-.26-.06-.32-.16c-.06-.09-.1-.2-.1-.34v-5.14c0-.34,0-.68-.02-1.01-.01-.33-.07-.62-.17-.86-.1-.25-.25-.46-.46-.62s-.44-.28-.7-.37c-.08-.03-.16-.04-.24-.05-.08,0-.16-.02-.24-.05-.06-.01-.16-.02-.29,0-.13,0-.22.02-.28.03-.05.03-.1.04-.13.03-.04,0-.08,0-.13,0-.16.04-.32.08-.46.12s-.28.1-.41.18c-.05.03-.1.05-.13.08-.04.03-.08.05-.13.08-.44.32-.76.79-.97,1.42-.04.1-.06.21-.08.31-.01.11-.03.21-.06.31-.03.06-.03.12-.02.18.01.06,0,.11-.02.16v.4s-.02.08,0,.13c0,.05,0,.11,0,.17v4.49c0,.15-.03.26-.1.35-.06.1-.17.15-.33.16-.16,0-.32,0-.48,0-.1,0-.2,0-.28-.02s-.16-.04-.23-.09c-.1-.06-.15-.18-.15-.36v-8.84c0-.11.03-.2.08-.27.04-.08.1-.13.19-.15.05-.01.12-.03.22-.04.09-.01.19-.02.29-.02s.2,0,.29.02.16.03.2.06c.14.09.2.2.19.33-.01.13,0,.28.06.45.03.08.08.14.15.19.15.01.28-.04.37-.17.1-.13.19-.23.3-.3.18-.13.36-.24.54-.35.18-.11.4-.2.64-.28.1-.04.21-.06.33-.08s.24-.03.35-.06c.06-.01.13-.02.19-.02h.19Z"/>
      <path d="M40.16,113.18c.04.2.02.37-.06.5-.08.13-.18.23-.3.29-.06.03-.13.04-.2.04s-.14.01-.22.04c-.28.06-.55.05-.83-.05-.27-.1-.46-.21-.56-.35-.06-.09-.12-.19-.17-.31-.05-.12-.11-.22-.19-.29-.03-.03-.05-.05-.08-.08-.03-.03-.07-.03-.12-.02-.14.04-.27.11-.39.21-.12.1-.24.19-.35.27-.16.1-.34.19-.53.28-.19.08-.39.15-.61.22-.13.04-.26.06-.41.08s-.29.03-.43.06c-.06.01-.12.02-.16.02h-.14c-.14.03-.27.03-.4,0h-.17c-.06-.01-.13-.02-.19-.02s-.12-.01-.17-.04c-.05-.01-.09-.02-.12,0-.03,0-.07,0-.1,0-.1-.03-.2-.05-.3-.07-.1-.02-.2-.05-.28-.09-.38-.16-.69-.35-.92-.56-.23-.21-.43-.5-.58-.88-.11-.28-.17-.61-.17-1.01v-.4c.01-.06.02-.13.03-.2s.02-.14.03-.22c.05-.14.1-.28.15-.42s.11-.27.19-.38c.23-.37.54-.64.93-.82.39-.18.82-.33,1.29-.47.18-.05.36-.09.55-.11.19-.03.38-.06.57-.09.09-.03.17-.04.26-.04s.17-.01.28-.04c.09-.03.18-.04.27-.05.09,0,.18-.02.28-.05.32-.08.61-.14.89-.2.28-.06.5-.2.66-.43.08-.1.14-.23.19-.39.05-.16.05-.33,0-.52-.08-.3-.19-.54-.33-.72-.15-.18-.35-.32-.62-.42-.15-.06-.33-.11-.54-.13-.21-.03-.43-.04-.65-.04s-.45.01-.66.04c-.22.03-.4.06-.55.11-.21.08-.42.18-.63.32-.1.08-.19.17-.28.29-.08.12-.15.25-.22.39-.04.1-.07.21-.1.32-.03.11-.09.2-.18.27-.05.04-.13.07-.26.09s-.24.03-.37.03-.25,0-.37-.03c-.12-.02-.21-.05-.26-.09s-.09-.1-.11-.19c-.03-.09-.03-.18,0-.28.04-.16.08-.32.12-.46.04-.15.1-.29.16-.43.24-.44.54-.79.91-1.03s.82-.45,1.37-.6c.13-.03.26-.04.39-.06.13-.01.27-.03.41-.06.05-.01.13-.02.25,0,.11,0,.18,0,.21-.03.89-.01,1.66.09,2.31.3.66.22,1.12.63,1.38,1.23.11.25.18.55.2.88.02.34.03.69.03,1.05v4.19c0,.18,0,.35.02.51.01.16.05.3.11.4.06.09.14.15.25.19.11.05.22.09.32.1.1.02.18.08.23.18.03.04.04.08.04.11s0,.09.02.15ZM37.45,111.08c.08-.18.12-.38.12-.62,0-.23,0-.48,0-.73,0-.14,0-.27-.02-.38-.01-.11-.06-.2-.15-.27-.04-.03-.13-.04-.27-.04-.03.03-.07.04-.13.04s-.12.01-.17.04c-.1.03-.22.05-.34.08-.13.03-.25.05-.38.08-.04,0-.08,0-.12,0-.04,0-.09,0-.14,0-.19.05-.39.08-.62.09-.22,0-.43.04-.62.09-.1.03-.19.05-.28.07-.08.02-.17.04-.28.07-.2.06-.39.14-.57.24-.18.09-.33.21-.46.35-.13.14-.22.31-.28.5-.06.2-.09.43-.08.71,0,.13.02.24.07.35.04.11.1.21.16.29.1.14.23.26.4.35.17.09.34.17.53.24.06.01.13.02.19.02s.13,0,.19.02c.09.03.2.04.33.05.13,0,.24,0,.33-.03.08-.03.15-.03.23-.03.08,0,.15,0,.23-.03.1-.03.2-.04.3-.06.09-.01.19-.04.27-.08.37-.15.68-.33.94-.55s.46-.51.6-.87Z"/>
      <path d="M50.84,108.78c.01.06.02.15.02.26s0,.19-.02.26c0,.05,0,.1,0,.14,0,.04-.01.1-.01.16-.03.1-.04.2-.04.3s-.01.2-.04.3c-.01.05-.02.1-.02.14s0,.09-.02.14c-.04.14-.07.27-.1.4-.03.13-.07.25-.12.38-.18.44-.39.84-.64,1.19s-.57.66-.95.91c-.19.13-.37.23-.55.32-.14.06-.27.11-.41.15-.13.04-.27.08-.41.11-.09.03-.17.04-.25.05-.08,0-.15.02-.23.05h-.19c-.06.03-.16.04-.28.05-.13,0-.23,0-.3-.03h-.19c-.05-.01-.1-.02-.16-.02s-.12,0-.18-.02c-.19-.05-.38-.1-.56-.13-.18-.04-.36-.09-.54-.17-.25-.1-.48-.23-.68-.38-.08-.06-.15-.13-.23-.2-.08-.07-.17-.12-.27-.14-.08-.01-.14,0-.18.05-.04.04-.08.1-.1.18-.02.08-.03.16-.04.24,0,.08-.02.14-.05.18-.05.06-.11.12-.17.17-.06.03-.15.04-.26.05-.11,0-.22,0-.34,0s-.23,0-.33-.03c-.1-.02-.18-.04-.23-.07-.03-.03-.05-.06-.08-.09-.03-.04-.05-.08-.08-.11-.04-.1-.05-.25-.05-.46,0-.2,0-.37,0-.51v-11.13c0-.15,0-.31,0-.48,0-.17.02-.31.08-.41.05-.08.13-.14.25-.19.03,0,.06,0,.09,0,.04,0,.07,0,.1,0,.18-.01.36-.02.56,0,.2,0,.33.06.41.16.06.1.1.24.1.43v3.05c0,.12,0,.24,0,.36,0,.12.02.23.04.32.02.09.05.16.1.2.05.04.11.04.17.02.06-.03.11-.05.15-.08.06-.05.12-.1.18-.15.06-.05.12-.1.18-.15.09-.06.18-.12.27-.17.1-.05.19-.1.3-.15.23-.11.5-.2.82-.25s.64-.08.97-.08.65.03.97.09.59.14.83.24c.51.22.94.51,1.31.89.37.38.66.82.87,1.33.06.14.12.28.16.41.04.13.09.27.14.41.04.14.07.28.09.43.02.15.04.29.07.43.01.04.02.08.02.12s0,.09.02.12c.03.08.03.15.01.22-.02.07-.02.14,0,.22ZM49.15,109.27c.03-.06.03-.14.02-.23-.01-.09-.02-.17-.02-.25,0-.22,0-.42-.03-.61-.02-.19-.06-.36-.12-.51-.04-.13-.07-.24-.09-.34-.03-.1-.06-.2-.11-.3-.14-.32-.33-.61-.57-.88-.24-.27-.52-.48-.83-.62-.1-.04-.2-.07-.3-.1-.09-.03-.19-.06-.29-.09-.14-.04-.28-.06-.42-.07-.14,0-.29,0-.46,0-.06.01-.12.02-.17.03-.05,0-.11,0-.17,0-.11.03-.22.05-.33.08-.11.03-.21.06-.31.11-.43.18-.77.44-1.02.79-.25.35-.46.76-.61,1.22-.05.14-.08.28-.09.42-.01.14-.04.28-.08.44-.01.06-.01.12,0,.17.01.05,0,.11-.02.17-.01.06-.02.15-.02.28s0,.21.02.27v.15c.01.05.02.1.02.15s0,.09.02.13c.01.04.02.08.02.12s0,.09.02.12c.03.1.05.2.07.3.02.1.04.2.07.3.14.43.33.8.58,1.1s.55.56.92.76c.11.06.23.11.36.14.13.03.26.07.4.1.06.03.12.04.18.03s.12,0,.18,0c.05.01.11.02.17.02h.34c.05-.01.1-.02.13-.02s.08,0,.13-.02c.1-.03.2-.05.28-.07s.18-.05.28-.09c.39-.16.71-.38.95-.65.24-.27.44-.6.61-1,.06-.18.11-.36.14-.54.03-.18.07-.37.12-.56.03-.06.03-.12.03-.18,0-.06,0-.12,0-.18v-.13Z"/>
      <path d="M53.23,100.38h.52c.18,0,.32.04.41.13.06.09.1.21.1.35,0,.15,0,.29,0,.45v11.99c0,.18-.03.32-.1.42-.04.06-.09.1-.16.11-.07.01-.15.03-.26.06h-.27c-.14,0-.27,0-.4,0-.13,0-.22-.05-.28-.12-.06-.1-.1-.23-.1-.38,0-.15,0-.31,0-.47v-11.49c0-.14,0-.29,0-.45,0-.16.02-.28.08-.37.05-.08.15-.14.28-.19.03-.01.05-.02.09,0,.03,0,.06,0,.08,0Z"/>
      <path d="M65.07,108.61c.03.13.03.27,0,.43s-.06.27-.12.33c-.06.05-.15.09-.28.1s-.26.03-.41.03-.3,0-.46,0c-.15,0-.29,0-.4,0h-4.86c-.1,0-.2,0-.3,0-.1,0-.18.03-.25.07-.05.03-.1.08-.15.15-.03.04-.05.09-.08.16-.03.07-.03.14,0,.2.01.06.02.12.02.17s0,.1.02.15c.03.1.05.21.08.31.03.11.06.21.11.31.29.68.77,1.17,1.44,1.46.08.04.16.07.25.09.09.03.18.05.26.08.04.01.1.02.19.02.18.05.41.08.7.08s.53-.03.7-.08c.18-.05.34-.1.48-.16s.28-.13.41-.22c.14-.09.26-.19.36-.31.1-.12.19-.25.26-.39.08-.13.14-.26.2-.4s.15-.24.29-.3c.05-.03.13-.04.25-.06s.23-.02.34,0,.22.02.32.03c.1.01.17.04.21.08.13.09.16.23.1.44-.1.34-.23.65-.4.91-.25.4-.54.74-.86,1-.32.26-.73.47-1.22.64-.13.05-.25.09-.38.1-.13.02-.26.04-.4.07-.06.01-.12.02-.18.02s-.12,0-.18.02h-.19c-.06.01-.14.02-.22.02s-.15,0-.2-.02h-.17c-.06-.01-.12-.02-.17-.02s-.1,0-.15-.02c-.06-.01-.13-.02-.21-.03-.08,0-.15-.02-.21-.03-.11-.03-.23-.05-.34-.09s-.22-.07-.32-.1c-.05-.03-.1-.04-.13-.05-.04,0-.08-.02-.13-.05-.19-.09-.39-.2-.61-.32-.37-.24-.68-.53-.94-.88-.26-.35-.48-.74-.65-1.17-.06-.14-.11-.28-.14-.44-.03-.15-.07-.3-.12-.46-.01-.05-.02-.09-.02-.13s0-.09-.02-.15c-.03-.1-.04-.21-.06-.32-.01-.11-.03-.23-.06-.34v-.27c-.01-.05-.02-.12-.03-.22,0-.1,0-.17,0-.24v-.21c.03-.06.04-.13.03-.2s0-.14,0-.2c.05-.2.09-.4.12-.61.03-.2.09-.39.16-.57.06-.14.12-.28.18-.43s.12-.29.2-.43c.28-.44.59-.82.95-1.15.35-.32.79-.59,1.31-.81.15-.06.31-.11.46-.14.16-.03.33-.07.5-.1.06-.01.12-.02.17-.03s.11,0,.17,0c.03-.01.06-.01.1,0,.04.01.07,0,.09-.02.53-.01.99.04,1.39.16.39.12.75.28,1.06.48.06.03.11.06.15.1.04.04.08.08.13.1.1.08.21.16.31.27s.2.2.28.3c.2.27.37.52.51.76.09.14.16.29.21.46.05.16.11.33.17.49s.11.33.14.51c.03.18.07.35.12.53.01.09.02.18.03.27,0,.09.02.18.03.27ZM63.23,107.96c.04-.05.07-.12.1-.2s.03-.17,0-.26c-.08-.28-.18-.54-.32-.78-.18-.29-.37-.54-.59-.74-.22-.2-.49-.37-.83-.51-.09-.03-.18-.05-.27-.07-.09-.02-.18-.04-.28-.07-.1-.03-.21-.04-.32-.04h-.32s-.08.03-.13.03c-.05,0-.09,0-.13,0-.1.03-.2.05-.29.07-.1.02-.19.04-.28.07-.37.15-.66.34-.88.57s-.42.51-.6.85c-.04.06-.08.14-.11.24-.04.1-.07.2-.1.31-.03.11-.03.22-.02.32.01.1.06.18.13.23.1.08.28.11.52.1.25,0,.46,0,.64,0h2.88c.19,0,.42,0,.68,0,.26,0,.44-.04.53-.14Z"/>
      <path d="M75.33,112.86v.48c0,.16-.03.29-.09.39-.06.09-.17.14-.31.14-.15,0-.29,0-.45,0-.08,0-.15,0-.22,0-.07,0-.13,0-.18-.03-.11-.03-.19-.08-.23-.15-.05-.06-.08-.14-.08-.23,0-.09-.03-.18-.07-.27-.01-.03-.03-.05-.05-.07-.02-.02-.04-.04-.07-.07-.13-.01-.22.01-.29.08-.07.06-.14.13-.22.19-.25.19-.51.33-.76.44-.23.1-.49.18-.79.23-.3.05-.6.08-.91.09-.31,0-.62-.01-.92-.06-.3-.04-.57-.12-.8-.22-.66-.28-1.19-.65-1.59-1.13-.4-.47-.72-1.07-.95-1.77-.05-.11-.08-.23-.1-.35-.02-.12-.05-.24-.09-.37-.01-.06-.02-.13-.02-.19s0-.13-.02-.19c-.03-.06-.03-.13-.03-.2,0-.07,0-.14,0-.2v-.19c-.03-.06-.04-.15-.04-.25s.01-.18.04-.25v-.21c.03-.09.03-.18.03-.28s0-.19.03-.28c.01-.06.02-.12.02-.17s0-.11.02-.17c.04-.13.07-.25.1-.37.03-.12.06-.24.1-.35.16-.48.38-.91.64-1.3s.57-.71.94-.96c.21-.15.44-.28.67-.38.23-.1.49-.19.77-.27.09-.01.17-.03.26-.04.08-.01.17-.03.26-.06h.19c.1-.03.25-.04.45-.04s.34.01.44.04c.05.01.12.02.21.02.14.04.28.07.42.09.14.02.27.06.4.12.19.08.37.16.54.25.17.09.33.19.48.3.08.06.15.13.24.2s.19.09.33.07c.03-.04.05-.07.07-.09.02-.03.03-.06.05-.11.04-.11.05-.26.05-.44,0-.18,0-.34,0-.47v-2.78c0-.22.03-.38.09-.48.05-.09.13-.14.23-.17.03,0,.06,0,.1,0s.07,0,.1,0c.18-.01.36-.02.56,0,.2,0,.33.06.41.16.06.1.09.23.09.38v11.93ZM73.79,109.27c.03-.06.04-.15.04-.26s-.01-.19-.04-.26v-.28c-.03-.11-.04-.23-.06-.35-.01-.12-.04-.23-.08-.33-.03-.1-.05-.2-.07-.28-.02-.09-.05-.18-.09-.27-.15-.38-.35-.71-.59-1-.24-.29-.54-.52-.91-.68-.13-.06-.26-.11-.39-.14-.13-.03-.28-.06-.43-.09-.1-.03-.21-.04-.33-.04h-.35c-.06.01-.12.02-.17.03-.05,0-.11,0-.17,0-.1.03-.21.05-.31.08-.11.03-.21.06-.31.09-.4.18-.73.43-.98.77-.25.33-.45.72-.6,1.17-.05.14-.08.28-.1.43-.02.15-.04.29-.07.43,0,.05,0,.1,0,.14s0,.09,0,.14c-.03.06-.04.13-.03.21,0,.08,0,.15,0,.21v.41c0,.13.01.26.04.37.01.04.02.1.02.19.03.09.05.18.07.27.02.09.04.18.07.27.14.44.33.82.57,1.14.24.32.54.58.91.78.11.06.23.11.34.15.11.04.24.08.38.11.06.03.13.03.2.02.07-.01.14,0,.2.02.05.01.1.02.16.02h.33s.1-.02.19-.02c.1-.03.2-.05.3-.07.1-.02.2-.05.28-.09.42-.18.76-.4,1.01-.67.26-.27.48-.62.65-1.03.06-.14.11-.28.13-.42.03-.14.06-.28.1-.42.03-.05.04-.1.04-.14s0-.09.02-.14c.01-.08.02-.15,0-.23s0-.15,0-.23Z"/>
      <path d="M87.33,103.89c.48-.01.89.04,1.22.15.33.11.64.28.92.49.1.06.19.15.26.26.07.11.15.21.24.29.03.03.06.06.11.09s.11.05.19.04c.13-.04.24-.12.33-.24s.19-.21.29-.28c.18-.14.36-.26.55-.37.19-.11.4-.2.63-.28.1-.04.21-.07.33-.09.12-.02.24-.04.35-.07.06-.01.12-.02.18-.02h.18c.06-.03.15-.03.26-.03.11,0,.2.02.25.03.06.01.16.02.28.02.11.03.22.05.33.07.11.02.21.05.31.09.06.03.12.04.18.05.06,0,.12.02.18.05.63.28,1.07.71,1.31,1.29.05.1.09.21.11.33.03.12.05.25.08.39.03.04.03.08.03.12,0,.04,0,.09,0,.12v.17c.01.05.02.11,0,.17s0,.13,0,.19v5.56c0,.2,0,.44,0,.72s-.05.46-.16.55c-.05.04-.13.07-.25.09-.11.02-.23.03-.36.03s-.25,0-.37-.02c-.12-.01-.21-.04-.26-.08-.08-.04-.13-.11-.15-.23-.03-.08-.03-.15-.02-.24.01-.08,0-.16-.02-.24-.01-.06-.02-.14,0-.22,0-.08,0-.16,0-.24v-4.48c0-.42,0-.81-.03-1.19-.02-.37-.11-.69-.27-.94-.19-.3-.48-.52-.87-.66-.08-.03-.15-.04-.24-.05-.08,0-.17-.02-.26-.05-.05-.01-.13-.02-.25,0s-.19.02-.23.03c-.06.01-.13.02-.19,0-.06,0-.13,0-.19.03-.18.04-.35.09-.51.15-.66.28-1.1.76-1.33,1.46-.06.22-.1.46-.1.74,0,.28,0,.56,0,.85v4.79c0,.16-.03.28-.1.37-.06.1-.17.16-.32.17-.15.01-.31.02-.47.02-.22,0-.37-.03-.48-.08-.11-.06-.18-.17-.2-.31s-.03-.31-.03-.48v-4.93c0-.4-.01-.78-.04-1.13-.03-.35-.11-.65-.27-.9-.14-.23-.3-.39-.47-.5-.18-.11-.42-.19-.72-.26-.05-.01-.1-.02-.16-.02h-.18c-.28,0-.52.03-.73.1-.21.06-.4.15-.56.25-.65.39-1.08.98-1.29,1.76-.05.16-.07.35-.07.56,0,.21,0,.41,0,.62v4.74c0,.18-.04.32-.11.42-.06.09-.16.14-.28.15-.13.01-.26.02-.4.02h-.28c-.08-.03-.15-.04-.22-.06-.07-.01-.13-.05-.18-.11-.06-.08-.1-.17-.1-.29v-8.82c0-.12.03-.22.08-.29.04-.08.09-.13.17-.15.1-.04.26-.06.48-.06s.38.02.48.06c.1.05.17.11.21.19.03.06.04.14.05.23,0,.09.02.17.03.25.01.08.04.14.08.19s.1.08.19.08c.03-.03.05-.04.09-.04s.06-.01.08-.04c.08-.06.15-.13.22-.19.07-.06.14-.13.22-.19.28-.2.59-.38.95-.53.13-.05.25-.09.38-.1.13-.02.26-.05.4-.09.08,0,.15,0,.24,0,.08,0,.16,0,.24,0Z"/>
      <path d="M99.25,104.11h.55c.19,0,.32.05.4.15.06.1.1.23.1.38,0,.15,0,.3,0,.46v5.53c0,.3.03.55.09.77.2.57.58.97,1.14,1.2.28.11.61.15,1,.12.39-.03.71-.1.95-.2.42-.18.75-.4,1-.67.25-.27.44-.63.58-1.07.04-.1.06-.2.08-.3.01-.1.03-.21.06-.32.01-.06.02-.12.01-.17,0-.05,0-.11.03-.17v-.4c.03-.1.03-.22.02-.35-.01-.13-.02-.26-.02-.37v-3.49c0-.15,0-.31,0-.48s.02-.31.08-.41c.05-.06.11-.1.18-.12.07-.02.15-.04.26-.07h.28c.15,0,.29,0,.41.02s.21.07.28.17c.06.06.1.15.1.28v8.47c0,.15,0,.29,0,.43s-.05.23-.14.29c-.05.04-.13.07-.23.09-.1.02-.21.03-.33.04s-.23,0-.34,0c-.11-.01-.19-.04-.24-.08-.06-.05-.12-.13-.17-.25-.01-.05-.02-.12-.03-.21,0-.09-.02-.17-.03-.26-.01-.08-.04-.15-.08-.2-.04-.05-.1-.07-.17-.06-.1.03-.2.1-.3.22-.1.12-.2.21-.28.28-.28.2-.59.38-.95.53-.14.06-.28.1-.43.12s-.29.05-.45.09c-.06.01-.13.01-.2,0-.07-.01-.14,0-.2.02-.13.03-.24.03-.34,0h-.19c-.06-.03-.14-.04-.22-.04s-.15,0-.22-.02c-.05-.03-.1-.04-.14-.03-.04,0-.1,0-.16-.03-.1-.03-.2-.05-.29-.08-.09-.03-.19-.06-.29-.11-.33-.14-.6-.33-.83-.56-.22-.23-.4-.51-.54-.84-.05-.11-.09-.23-.11-.35s-.05-.24-.08-.37c-.03-.08-.04-.15-.03-.22s0-.15-.03-.24c-.01-.03-.02-.06-.02-.1s0-.09-.02-.12v-.19c-.01-.05-.02-.11,0-.18,0-.07,0-.14,0-.2v-5.8c0-.11.03-.21.08-.28.05-.09.15-.15.28-.19.03-.01.05-.02.08,0,.03,0,.05,0,.08,0Z"/>
      <path d="M112.09,103.89c.91-.01,1.68.09,2.3.31.62.22,1.1.61,1.44,1.17.09.14.16.28.21.43s.1.31.15.48c.03.09.03.18.02.28-.01.09-.03.17-.06.22-.03.03-.06.05-.1.07-.04.02-.07.04-.1.07-.06.03-.13.03-.19.02s-.13-.01-.19,0c-.1.03-.23.03-.4,0-.17-.02-.28-.05-.34-.09-.1-.06-.17-.15-.2-.26-.03-.11-.08-.21-.14-.31-.11-.2-.27-.39-.48-.55-.14-.1-.29-.18-.46-.23-.16-.05-.34-.1-.53-.15-.06-.03-.13-.03-.19-.03-.06,0-.13,0-.19,0-.08-.03-.17-.04-.28-.04s-.21.01-.28.04h-.11c-.06.01-.13.02-.19.03-.06,0-.13.02-.19.03-.33.08-.6.18-.82.32-.22.14-.36.37-.44.7-.03.09-.03.18,0,.27.02.09.04.16.07.23.08.19.17.33.28.41s.24.17.41.28c.2.13.43.22.68.27s.51.12.76.2c.16.05.33.09.49.11.16.03.33.06.49.11.27.08.53.15.78.22s.51.15.76.26c.06.03.13.05.19.08.06.03.13.06.19.09.25.15.47.32.66.51.19.19.35.43.47.72.03.09.05.21.08.36.03.09.04.18.05.27,0,.1.01.2.01.31v.19c-.03.09-.04.18-.04.27s-.01.18-.04.27c-.04.14-.08.27-.13.4s-.11.24-.17.34c-.2.33-.46.59-.78.79-.32.2-.67.36-1.06.5-.11.04-.23.07-.35.09s-.24.05-.35.09c-.13.03-.25.04-.38.04s-.25.01-.38.04h-.19c-.06.01-.15.02-.27.02s-.2,0-.26-.02h-.21c-.08-.03-.16-.04-.25-.03-.09,0-.17,0-.23-.03-.06-.01-.15-.02-.25-.02-.1-.03-.2-.05-.29-.07-.1-.02-.19-.05-.29-.09-.39-.13-.73-.28-1.02-.47-.29-.19-.54-.44-.76-.74-.11-.16-.21-.34-.28-.51-.08-.18-.15-.37-.21-.59-.03-.08-.03-.17-.03-.28,0-.11.02-.19.05-.26.04-.05.1-.1.19-.15.06-.03.15-.04.27-.05s.23,0,.34,0,.22.03.33.05c.11.02.18.04.22.07.09.06.15.15.18.28s.07.23.12.33c.13.28.3.49.51.65.15.11.32.2.51.27.19.06.39.13.61.19l.4.06h.11c.09.03.21.04.35.04s.27-.01.37-.04c.09,0,.16,0,.21-.02.08-.01.15-.02.23-.03.08,0,.15-.02.21-.03.37-.1.66-.23.87-.4.21-.16.37-.44.46-.83.03-.06.03-.13.02-.21-.01-.08-.03-.13-.04-.17-.06-.24-.15-.42-.26-.54s-.26-.23-.44-.33c-.11-.08-.24-.14-.38-.19-.14-.05-.28-.1-.42-.15-.04-.01-.07-.02-.1-.02s-.07-.01-.1-.04c-.43-.14-.88-.24-1.34-.31s-.89-.19-1.3-.35c-.13-.05-.25-.09-.36-.13-.11-.04-.22-.09-.32-.15-.24-.14-.46-.3-.66-.47-.2-.18-.36-.4-.48-.66-.04-.09-.07-.18-.08-.27-.02-.09-.04-.18-.07-.29-.04-.15-.05-.32-.04-.52.01-.2.03-.36.06-.5.03-.06.04-.12.05-.16,0-.04.02-.09.05-.14.11-.29.27-.54.47-.76.2-.22.42-.4.67-.57.19-.11.4-.21.63-.27s.47-.14.72-.2c.09-.01.17-.03.26-.04s.17-.03.28-.04c.04-.01.09-.01.15,0,.06.01.11,0,.13-.02Z"/>
      <path d="M118.67,102.22c-.1-.08-.15-.21-.16-.41,0-.2,0-.39,0-.58v-.32c0-.11.02-.21.06-.28.05-.1.15-.18.3-.23.03-.01.05-.02.09,0,.03,0,.06,0,.08,0,.22,0,.42,0,.61.02s.32.09.38.23c.04.08.06.17.06.27v.33c0,.23,0,.44,0,.65,0,.2-.09.34-.26.4-.06.03-.13.04-.2.04h-.62c-.13,0-.23-.03-.32-.09ZM120.07,112.97c0,.13,0,.26,0,.39s-.02.24-.09.31c-.04.08-.09.12-.17.14-.08.02-.16.04-.26.07h-.28c-.17,0-.31,0-.43-.03-.12-.02-.21-.08-.28-.18-.05-.08-.08-.17-.08-.29v-8.78c0-.13.03-.24.1-.31.04-.06.09-.1.15-.11.06-.01.13-.03.21-.06.03,0,.05,0,.08,0,.03,0,.06,0,.09,0,.16,0,.33,0,.5,0,.17,0,.29.06.35.16.06.08.1.17.1.29v8.39Z"/>
      <path d="M126.3,103.89c.94-.01,1.72.12,2.34.41s1.12.71,1.49,1.28c.16.25.3.56.42.93.03.06.04.15.06.25.01.1,0,.19-.02.27-.04.06-.1.12-.19.17-.04.03-.08.04-.11.03-.04,0-.08,0-.13,0-.05.01-.1.02-.15,0s-.1,0-.15,0c-.14,0-.27,0-.4,0-.13,0-.23-.04-.32-.1-.1-.08-.17-.18-.21-.32-.04-.14-.09-.26-.15-.36-.19-.33-.44-.59-.74-.78-.1-.06-.21-.12-.32-.16s-.23-.09-.36-.12c-.18-.05-.41-.08-.7-.09-.29,0-.53.02-.72.09-.09.03-.17.04-.25.06-.08.01-.16.03-.25.06-.33.14-.62.33-.87.57s-.45.52-.59.85c-.05.11-.09.23-.13.35-.04.12-.08.25-.11.39l-.11.51c-.01.06-.02.13,0,.21,0,.08,0,.15-.03.21v.15c-.01.05-.02.13-.03.25s0,.2.03.25c.01.06.01.13,0,.19-.01.06-.01.13,0,.19.01.05.02.14.02.27.03.1.05.21.07.32s.04.22.07.32c.14.4.3.76.48,1.05.18.3.44.55.77.77.11.06.23.12.35.17.12.05.25.1.39.15.06.01.11.02.15.02s.09,0,.15.02c.04.01.1.02.19.02h.21s.03.02.08.02c.03-.01.06-.02.1,0,.04,0,.08,0,.11,0,.09-.03.17-.04.26-.03s.17,0,.26-.03c.33-.1.61-.23.85-.39.24-.16.44-.36.61-.62.06-.1.12-.21.17-.32l.15-.34c.03-.1.05-.2.09-.29s.09-.17.18-.24c.04-.04.11-.07.23-.09.11-.02.24-.03.37-.04.13,0,.26,0,.38,0s.21.04.26.08c.08.05.12.13.14.23.02.1.02.21,0,.32-.06.19-.12.37-.18.54s-.13.34-.22.5c-.19.38-.43.71-.71,1-.28.29-.63.53-1.03.7-.1.05-.21.09-.32.12s-.23.07-.36.1c-.14.05-.28.08-.42.09-.14,0-.28.02-.42.05-.05.03-.1.03-.15.02-.05-.01-.1-.01-.15,0h-.17c-.1,0-.2,0-.29,0-.1,0-.18,0-.26-.03h-.09l-.46-.06c-.17-.05-.32-.09-.48-.13-.15-.04-.3-.09-.44-.15-.46-.2-.83-.44-1.13-.72-.3-.28-.57-.62-.82-1.02-.06-.1-.12-.22-.17-.34s-.1-.25-.15-.38c-.06-.14-.11-.28-.13-.44-.03-.15-.06-.3-.1-.46-.01-.05-.02-.1-.02-.15s0-.1-.02-.15c-.03-.08-.03-.16-.03-.25,0-.09,0-.17-.03-.25v-.19c-.01-.06-.02-.15-.02-.27s0-.2.02-.27c.01-.06.02-.12.01-.17,0-.05,0-.1,0-.15.03-.09.03-.18.03-.27,0-.09,0-.17.03-.25.05-.22.09-.43.13-.65s.1-.42.17-.61c.27-.66.59-1.19.97-1.59.38-.4.9-.74,1.56-1.01.14-.06.29-.11.46-.13.16-.03.33-.06.51-.1.09-.01.18-.02.27-.03.09,0,.18-.02.28-.03Z"/>
      <path d="M146.8,108.74c.01.06.02.15.02.25s0,.18-.02.25c-.03.06-.03.12-.02.18.01.06.01.11,0,.16,0,.09,0,.16-.02.21-.03.11-.04.23-.05.34s-.02.23-.05.34c-.03.1-.05.2-.08.29-.03.09-.06.19-.1.29-.15.47-.36.89-.63,1.27-.08.11-.16.22-.25.33-.09.11-.18.21-.28.29l-.1.1c-.09.06-.17.13-.25.19-.08.06-.16.13-.27.19-.14.1-.29.19-.46.26-.17.07-.35.14-.52.2-.1.03-.2.04-.29.06-.1.01-.19.03-.3.06-.03,0-.05,0-.07,0-.02,0-.04,0-.07,0-.11.03-.28.04-.5.05-.22,0-.4,0-.52-.03h-.1c-.09-.01-.17-.02-.25-.03-.08,0-.15-.02-.23-.05-.22-.06-.42-.12-.61-.17-.19-.05-.37-.13-.53-.23-.2-.11-.38-.23-.53-.36-.05-.04-.13-.09-.23-.16-.1-.07-.2-.07-.28,0-.05.04-.08.09-.08.15s-.01.13-.04.21c-.01.04-.01.08,0,.12.01.04.01.09,0,.14-.03.08-.03.16-.03.26,0,.1,0,.18,0,.26v2.83c0,.19-.04.33-.11.44-.06.09-.17.14-.3.14-.14,0-.28,0-.42,0h-.3c-.09-.03-.16-.05-.22-.08-.06-.03-.1-.07-.14-.13-.06-.09-.09-.23-.08-.42,0-.19,0-.35,0-.49v-11.38c0-.15,0-.31,0-.47s.04-.29.1-.39c.04-.05.12-.09.26-.12.13-.03.28-.04.43-.04.15,0,.29.03.43.06.13.03.22.07.26.12.05.06.08.14.09.23,0,.09.03.18.07.27.03.04.05.07.07.09.02.02.04.04.07.07.14.01.26-.03.35-.13.1-.1.19-.18.28-.25.33-.23.72-.4,1.18-.53.11-.03.23-.04.35-.06s.24-.03.37-.06c.05-.01.11-.01.19,0s.13,0,.15-.02c.54-.01,1.02.04,1.44.16.42.12.79.29,1.12.5.06.05.13.1.19.14.06.04.13.09.19.14.03.03.05.05.07.07l.07.07c.06.06.13.13.21.21.08.08.15.15.21.23.15.22.31.45.47.7.1.16.19.35.26.55.07.2.13.4.2.61.03.1.05.21.07.32.02.11.04.22.07.32,0,.05,0,.1.01.14,0,.04,0,.09,0,.12.03.06.03.13.03.21s0,.15.03.21v.19ZM145.11,109.25c.03-.06.03-.14.02-.24-.01-.09-.02-.18-.02-.26,0-.22,0-.42-.03-.61-.02-.19-.06-.37-.12-.55-.03-.08-.05-.15-.07-.24-.02-.08-.05-.16-.08-.24-.14-.34-.36-.67-.65-.99-.3-.32-.58-.53-.84-.65-.1-.05-.21-.09-.31-.11-.11-.03-.22-.06-.33-.09-.11-.03-.24-.04-.39-.04h-.43s-.07.03-.14.03c-.07,0-.13,0-.18,0-.11.03-.22.05-.33.08-.11.03-.21.06-.31.11-.4.18-.74.43-1,.77-.26.34-.46.72-.6,1.17-.05.14-.09.28-.1.42-.02.14-.04.28-.07.42-.01.05-.02.1-.02.14s0,.09-.02.14v.15c-.01.06-.02.16-.02.28s0,.21.02.28v.15c.01.05.02.1.02.15s0,.1.02.13c.01.04.02.08.02.11s0,.08.02.13c.03.1.05.2.07.3.02.1.04.2.07.3.14.43.33.81.58,1.13.25.32.57.57.98.75.24.1.49.18.74.23.05.03.1.04.15.03.05,0,.1,0,.15,0h.15c.09.03.18.03.27,0h.15c.14-.03.27-.04.4-.06.13-.01.25-.04.38-.09.39-.16.71-.38.96-.65.25-.27.45-.6.62-1,.06-.18.11-.36.14-.54.03-.18.07-.38.12-.58.01-.06.02-.12.02-.17s0-.11.02-.17v-.15Z"/>
      <path d="M149.19,100.38h.52c.18,0,.32.04.41.13.06.09.1.21.1.35,0,.15,0,.29,0,.45v11.99c0,.18-.03.32-.1.42-.04.06-.09.1-.16.11-.07.01-.15.03-.26.06h-.27c-.14,0-.27,0-.4,0-.13,0-.22-.05-.28-.12-.06-.1-.1-.23-.1-.38,0-.15,0-.31,0-.47v-11.49c0-.14,0-.29,0-.45,0-.16.02-.28.08-.37.05-.08.15-.14.28-.19.03-.01.05-.02.09,0,.03,0,.06,0,.08,0Z"/>
      <path d="M161.19,113.18c.04.2.02.37-.06.5-.08.13-.18.23-.3.29-.06.03-.13.04-.2.04s-.14.01-.22.04c-.28.06-.55.05-.83-.05-.27-.1-.46-.21-.56-.35-.06-.09-.12-.19-.17-.31-.05-.12-.11-.22-.19-.29-.03-.03-.05-.05-.08-.08-.03-.03-.07-.03-.12-.02-.14.04-.27.11-.39.21-.12.1-.24.19-.35.27-.16.1-.34.19-.53.28-.19.08-.39.15-.61.22-.13.04-.26.06-.41.08s-.29.03-.43.06c-.06.01-.12.02-.16.02h-.14c-.14.03-.27.03-.4,0h-.17c-.06-.01-.13-.02-.19-.02s-.12-.01-.17-.04c-.05-.01-.09-.02-.12,0-.03,0-.07,0-.1,0-.1-.03-.2-.05-.3-.07-.1-.02-.2-.05-.28-.09-.38-.16-.69-.35-.92-.56-.23-.21-.43-.5-.58-.88-.11-.28-.17-.61-.17-1.01v-.4c.01-.06.02-.13.03-.2s.02-.14.03-.22c.05-.14.1-.28.15-.42s.11-.27.19-.38c.23-.37.54-.64.93-.82.39-.18.82-.33,1.29-.47.18-.05.36-.09.55-.11.19-.03.38-.06.57-.09.09-.03.17-.04.26-.04s.17-.01.28-.04c.09-.03.18-.04.27-.05.09,0,.18-.02.28-.05.32-.08.61-.14.89-.2.28-.06.5-.2.66-.43.08-.1.14-.23.19-.39.05-.16.05-.33,0-.52-.08-.3-.19-.54-.33-.72-.15-.18-.35-.32-.62-.42-.15-.06-.33-.11-.54-.13-.21-.03-.43-.04-.65-.04s-.45.01-.66.04c-.22.03-.4.06-.55.11-.21.08-.42.18-.63.32-.1.08-.19.17-.28.29-.08.12-.15.25-.22.39-.04.1-.07.21-.1.32-.03.11-.09.2-.18.27-.05.04-.13.07-.26.09s-.24.03-.37.03-.25,0-.37-.03c-.12-.02-.21-.05-.26-.09s-.09-.1-.11-.19c-.03-.09-.03-.18,0-.28.04-.16.08-.32.12-.46.04-.15.1-.29.16-.43.24-.44.54-.79.91-1.03s.82-.45,1.37-.6c.13-.03.26-.04.39-.06.13-.01.27-.03.41-.06.05-.01.13-.02.25,0,.11,0,.18,0,.21-.03.89-.01,1.66.09,2.31.3.66.22,1.12.63,1.38,1.23.11.25.18.55.2.88.02.34.03.69.03,1.05v4.19c0,.18,0,.35.02.51.01.16.05.3.11.4.06.09.14.15.25.19.11.05.22.09.32.1.1.02.18.08.23.18.03.04.04.08.04.11s0,.09.02.15ZM158.48,111.08c.08-.18.12-.38.12-.62,0-.23,0-.48,0-.73,0-.14,0-.27-.02-.38-.01-.11-.06-.2-.15-.27-.04-.03-.13-.04-.27-.04-.03.03-.07.04-.13.04s-.12.01-.17.04c-.1.03-.22.05-.34.08-.13.03-.25.05-.38.08-.04,0-.08,0-.12,0-.04,0-.09,0-.14,0-.19.05-.39.08-.62.09-.22,0-.43.04-.62.09-.1.03-.19.05-.28.07-.08.02-.17.04-.28.07-.2.06-.39.14-.57.24-.18.09-.33.21-.46.35-.13.14-.22.31-.28.5-.06.2-.09.43-.08.71,0,.13.02.24.07.35.04.11.1.21.16.29.1.14.23.26.4.35.17.09.34.17.53.24.06.01.13.02.19.02s.13,0,.19.02c.09.03.2.04.33.05.13,0,.24,0,.33-.03.08-.03.15-.03.23-.03.08,0,.15,0,.23-.03.1-.03.2-.04.3-.06.09-.01.19-.04.27-.08.37-.15.68-.33.94-.55s.46-.51.6-.87Z"/>
      <path d="M162.12,104.11c.16,0,.35,0,.57,0,.22,0,.37.02.48.09.1.06.17.15.22.25.04.1.09.21.14.32.06.16.12.33.17.49.05.16.11.33.17.49.06.15.12.31.17.47s.11.31.17.46c.06.14.11.28.15.44.04.15.09.3.15.46.15.37.29.75.42,1.14.13.39.27.77.42,1.14.03.05.04.1.04.14s.01.09.04.12c.08.18.14.36.21.54s.13.36.19.54c.04.09.08.18.11.28.04.09.1.15.19.18.1.04.18,0,.24-.1.06-.11.1-.19.12-.26.1-.22.18-.44.25-.68.06-.24.14-.47.23-.7.11-.29.21-.58.3-.88s.2-.58.32-.86c.01-.06.03-.14.06-.25.05-.11.1-.23.13-.35.04-.12.08-.23.11-.33.03-.06.04-.12.06-.17.01-.05.03-.11.06-.17.06-.15.12-.31.16-.46.04-.16.1-.31.16-.47.03-.06.04-.12.06-.17.01-.05.03-.11.06-.17.05-.11.1-.23.13-.35.04-.12.08-.24.11-.35.04-.1.07-.21.1-.31.03-.11.08-.2.14-.27.09-.11.21-.18.37-.19.16-.01.33-.02.52-.02.1,0,.2,0,.29,0,.09,0,.17.03.24.07.11.08.15.2.1.36-.05.16-.1.29-.13.38-.01.03-.02.05-.03.08,0,.03-.02.05-.03.08-.14.35-.28.71-.42,1.07-.14.36-.28.72-.42,1.07-.04.1-.07.19-.09.28-.03.08-.06.17-.1.26-.1.25-.2.51-.29.77-.1.26-.19.52-.29.77-.37.87-.71,1.75-1.02,2.64-.32.89-.66,1.76-1.03,2.64-.03.06-.05.13-.07.2-.02.07-.04.14-.07.22-.2.47-.42.93-.64,1.39-.23.46-.54.82-.95,1.07-.14.08-.28.14-.42.18s-.3.09-.47.12c-.06.03-.13.03-.2.02-.07-.01-.14-.01-.22,0-.1.03-.2.03-.3,0-.05-.01-.11-.02-.19-.02-.1-.03-.2-.05-.29-.08-.1-.03-.17-.08-.22-.15-.06-.08-.1-.17-.1-.27,0-.11,0-.22,0-.35,0-.09,0-.17,0-.26s.03-.15.07-.2c.09-.14.24-.18.46-.11.14.03.29.04.46.04s.31-.03.44-.08c.19-.06.34-.16.46-.28.12-.13.22-.27.31-.43s.17-.33.24-.5c.07-.18.14-.35.22-.53.05-.11.1-.25.16-.42.06-.16.06-.33,0-.51-.06-.2-.13-.39-.2-.57-.07-.18-.14-.35-.22-.53-.11-.27-.22-.53-.32-.8-.1-.27-.2-.52-.3-.78-.08-.18-.15-.35-.21-.51-.06-.16-.13-.33-.19-.51-.23-.56-.45-1.11-.67-1.67-.22-.56-.44-1.11-.67-1.67-.13-.29-.24-.57-.34-.84-.1-.27-.21-.55-.32-.83-.03-.08-.06-.18-.11-.31-.05-.13-.04-.24.02-.33.04-.06.11-.11.23-.13.03-.01.05-.02.09,0,.03,0,.06,0,.08,0Z"/>
      <path d="M180.32,108.61c.03.13.03.27,0,.43s-.06.27-.12.33c-.06.05-.15.09-.28.1s-.26.03-.41.03-.3,0-.46,0c-.15,0-.29,0-.4,0h-4.86c-.1,0-.2,0-.3,0-.1,0-.18.03-.25.07-.05.03-.1.08-.15.15-.03.04-.05.09-.08.16-.03.07-.03.14,0,.2.01.06.02.12.02.17s0,.1.02.15c.03.1.05.21.08.31.03.11.06.21.11.31.29.68.77,1.17,1.44,1.46.08.04.16.07.25.09.09.03.18.05.26.08.04.01.1.02.19.02.18.05.41.08.7.08s.53-.03.7-.08c.18-.05.34-.1.48-.16s.28-.13.41-.22c.14-.09.26-.19.36-.31.1-.12.19-.25.26-.39.08-.13.14-.26.2-.4s.15-.24.29-.3c.05-.03.13-.04.25-.06s.23-.02.34,0,.22.02.32.03c.1.01.17.04.21.08.13.09.16.23.1.44-.1.34-.23.65-.4.91-.25.4-.54.74-.86,1-.32.26-.73.47-1.22.64-.13.05-.25.09-.38.1-.13.02-.26.04-.4.07-.06.01-.12.02-.18.02s-.12,0-.18.02h-.19c-.06.01-.14.02-.22.02s-.15,0-.2-.02h-.17c-.06-.01-.12-.02-.17-.02s-.1,0-.15-.02c-.06-.01-.13-.02-.21-.03-.08,0-.15-.02-.21-.03-.11-.03-.23-.05-.34-.09s-.22-.07-.32-.1c-.05-.03-.1-.04-.13-.05-.04,0-.08-.02-.13-.05-.19-.09-.39-.2-.61-.32-.37-.24-.68-.53-.94-.88-.26-.35-.48-.74-.65-1.17-.06-.14-.11-.28-.14-.44-.03-.15-.07-.3-.12-.46-.01-.05-.02-.09-.02-.13s0-.09-.02-.15c-.03-.1-.04-.21-.06-.32-.01-.11-.03-.23-.06-.34v-.27c-.01-.05-.02-.12-.03-.22,0-.1,0-.17,0-.24v-.21c.03-.06.04-.13.03-.2s0-.14,0-.2c.05-.2.09-.4.12-.61.03-.2.09-.39.16-.57.06-.14.12-.28.18-.43s.12-.29.2-.43c.28-.44.59-.82.95-1.15.35-.32.79-.59,1.31-.81.15-.06.31-.11.46-.14.16-.03.33-.07.5-.1.06-.01.12-.02.17-.03s.11,0,.17,0c.03-.01.06-.01.1,0,.04.01.07,0,.09-.02.53-.01.99.04,1.39.16.39.12.75.28,1.06.48.06.03.11.06.15.1.04.04.08.08.13.1.1.08.21.16.31.27s.2.2.28.3c.2.27.37.52.51.76.09.14.16.29.21.46.05.16.11.33.17.49s.11.33.14.51c.03.18.07.35.12.53.01.09.02.18.03.27,0,.09.02.18.03.27ZM178.47,107.96c.04-.05.07-.12.1-.2s.03-.17,0-.26c-.08-.28-.18-.54-.32-.78-.18-.29-.37-.54-.59-.74-.22-.2-.49-.37-.83-.51-.09-.03-.18-.05-.27-.07-.09-.02-.18-.04-.28-.07-.1-.03-.21-.04-.32-.04h-.32s-.08.03-.13.03c-.05,0-.09,0-.13,0-.1.03-.2.05-.29.07-.1.02-.19.04-.28.07-.37.15-.66.34-.88.57s-.42.51-.6.85c-.04.06-.08.14-.11.24-.04.1-.07.2-.1.31-.03.11-.03.22-.02.32.01.1.06.18.13.23.1.08.28.11.52.1.25,0,.46,0,.64,0h2.88c.19,0,.42,0,.68,0,.26,0,.44-.04.53-.14Z"/>
      <path d="M186.38,103.89c.29,0,.46.07.49.22s.06.36.06.64v.36c0,.11-.03.21-.1.28-.08.1-.18.16-.32.16-.14,0-.28.03-.42.07-.18.04-.34.08-.5.11-.16.04-.31.09-.45.15-.37.16-.66.39-.89.67-.23.28-.42.61-.59.98-.05.14-.09.28-.11.43-.03.15-.06.29-.1.45-.01.06-.02.13,0,.19s0,.13,0,.19c-.04.15-.05.33-.05.52,0,.2,0,.38,0,.56v2.77c0,.15,0,.3-.02.44-.01.14-.02.26,0,.36s-.02.19-.09.27c-.06.09-.16.14-.29.15-.13.01-.28.02-.43.02h-.34c-.06-.03-.12-.05-.18-.07-.06-.02-.1-.05-.12-.09-.06-.09-.1-.2-.1-.33,0-.13,0-.27,0-.41v-8.02c0-.14,0-.27,0-.39,0-.12.04-.22.1-.31.04-.05.1-.09.2-.11.09-.03.2-.04.31-.05.11,0,.23,0,.34,0s.2.03.27.06c.1.04.17.11.2.22.03.11.05.22.05.34v.38c0,.13.03.25.08.35.01.03.03.04.04.06l.06.06c.14,0,.25-.06.34-.18s.17-.22.23-.29l.11-.11c.12-.14.27-.28.48-.44s.39-.27.57-.34c.11-.06.23-.11.36-.14.13-.03.26-.07.4-.1.08-.01.15-.02.23-.03.08,0,.15-.02.21-.03Z"/>
    </g>
    <g>
      <path d="M270.18,23.56v-14.16h4.31v4.79h.14c.46-.99,1.46-1.56,2.81-1.56h.1c3.13,0,4.47,1.6,4.47,5.42v.28c0,3.82-1.33,5.42-4.47,5.42h-.1c-1.4,0-2.35-.53-2.81-1.56h-.14v1.35h-4.31ZM277.68,18.27v-.14c0-1.56-.12-2.14-1.58-2.14s-1.62.59-1.62,2.14v.14c0,1.58.12,2.16,1.62,2.16s1.58-.59,1.58-2.16Z"/>
      <path d="M294.06,20.07c-.61,2.35-1.86,3.7-5.46,3.7h-.26c-3.4,0-5.66-1.13-5.66-5.42v-.28c0-4.29,2.28-5.42,5.68-5.42h.26c3.4,0,5.5,1.13,5.5,5.42v.87h-7.12c.02,1.27.2,1.76,1.5,1.76.65,0,1.03-.14,1.25-.63h4.31ZM287.02,16.91h2.77v-.14c0-.95-.44-1.35-1.39-1.35-1.11,0-1.36.42-1.38,1.5Z"/>
      <path d="M298.75,16.2v-3.36h1.35v-3.44h4.31v3.44h1.8v3.36h-1.8v2.75c0,1.19.24,1.4,1.31,1.4h.49v3.22h-1.78c-3.56,0-4.33-1.09-4.33-3.44v-3.92h-1.35Z"/>
      <path d="M318.35,23.56h-4.31v-6.01c0-1.35-.3-1.54-1.38-1.54s-1.38.42-1.38,1.82v5.72h-4.33v-14.16h4.33v5.14h.12c.43-1.35,1.38-1.9,3.24-1.9,2.29,0,3.7.63,3.7,3.58v7.34Z"/>
      <path d="M330.47,20.07c-.61,2.35-1.86,3.7-5.46,3.7h-.26c-3.4,0-5.66-1.13-5.66-5.42v-.28c0-4.29,2.28-5.42,5.68-5.42h.26c3.4,0,5.5,1.13,5.5,5.42v.87h-7.12c.02,1.27.2,1.76,1.5,1.76.65,0,1.03-.14,1.25-.63h4.31ZM323.43,16.91h2.77v-.14c0-.95-.44-1.35-1.39-1.35-1.11,0-1.36.42-1.38,1.5Z"/>
      <path d="M353.36,23.56h-4.31v-6.01c0-1.35-.22-1.54-1.29-1.54s-1.27.34-1.27,1.7v5.84h-4.33v-6.01c0-1.35-.2-1.54-1.27-1.54s-1.29.34-1.29,1.7v5.84h-4.33v-10.72h4.33v1.7h.12c.42-1.35,1.29-1.9,3.15-1.9,1.68,0,2.93.36,3.4,1.9h.1c.47-1.35,1.52-1.9,3.38-1.9,2.2,0,3.62.63,3.62,3.58v7.34Z"/>
      <path d="M354.13,12.85h4.31v6.01c0,1.35.3,1.54,1.38,1.54s1.38-.42,1.38-1.82v-5.72h4.33v10.72h-4.33v-1.7h-.12c-.43,1.35-1.38,1.9-3.24,1.9-2.29,0-3.7-.63-3.7-3.58v-7.34Z"/>
      <path d="M372.09,23.77c-3.72,0-5.26-.99-5.82-3.28h4.57c.16.51.71.67,1.36.67.91,0,1.17-.24,1.17-.79v-.08c0-.4-.14-.69-1.17-.71l-2.18-.08c-2.97-.12-3.52-1.29-3.52-3.2v-.16c0-2.49,2.08-3.5,5.48-3.5h.14c3.5,0,5.2.95,5.5,3.28h-4.55c-.22-.55-.53-.67-1.15-.67-.83,0-1.07.26-1.07.75v.08c0,.4.14.69,1.17.71l2.18.08c2.97.12,3.52,1.29,3.52,3.2v.18c0,2.49-1.76,3.52-5.48,3.52h-.14Z"/>
      <path d="M382.79,9.41v2.67h-4.33v-2.67h4.33ZM382.79,12.85v10.72h-4.33v-10.72h4.33Z"/>
      <path d="M389.04,23.77c-3.24,0-5.54-1.13-5.54-5.42v-.28c0-4.29,2.31-5.42,5.54-5.42h.26c3.42,0,5.02,1.48,5.44,4.09h-4.27c-.22-.55-.49-.75-1.31-.75-1.15,0-1.33.67-1.33,2.02v.4c0,1.35.18,2.02,1.33,2.02.83,0,1.09-.2,1.31-.75h4.27c-.42,2.61-2.02,4.09-5.44,4.09h-.26Z"/>
      <path d="M276.42,43.38h-4.55l1.56-3.5-3.62-10.66h4.61l1.38,5.72h.12l1.44-5.72h4.35l-5.28,14.16Z"/>
      <path d="M287.14,40.14c-3.94,0-5.64-1.62-5.64-5.42v-.28c0-3.8,1.7-5.42,5.66-5.42h.55c3.9,0,5.62,1.62,5.62,5.42v.28c0,3.8-1.7,5.42-5.64,5.42h-.55ZM289.03,34.64v-.12c0-1.8-.26-2.16-1.62-2.16s-1.58.36-1.58,2.16v.12c0,1.8.26,2.16,1.58,2.16s1.62-.36,1.62-2.16Z"/>
      <path d="M294.08,29.22h4.31v6.01c0,1.35.3,1.54,1.38,1.54s1.38-.42,1.38-1.82v-5.72h4.33v10.72h-4.33v-1.7h-.12c-.42,1.35-1.38,1.9-3.24,1.9-2.28,0-3.7-.63-3.7-3.58v-7.34Z"/>
      <path d="M325.94,39.94h-5.08l-1.5-5.7-1.5,5.7h-5.34l-2.61-10.72h4.55l1.29,6.33h.12l1.54-6.33h4.1l1.5,6.33h.12l1.27-6.33h4.09l-2.57,10.72Z"/>
      <path d="M333.26,25.78v2.67h-4.33v-2.67h4.33ZM333.26,29.22v10.72h-4.33v-10.72h4.33Z"/>
      <path d="M339.83,40.14c-3.72,0-5.26-.99-5.82-3.28h4.57c.16.51.71.67,1.36.67.91,0,1.17-.24,1.17-.79v-.08c0-.4-.14-.69-1.17-.71l-2.18-.08c-2.97-.12-3.52-1.29-3.52-3.2v-.16c0-2.49,2.08-3.5,5.48-3.5h.14c3.5,0,5.2.95,5.5,3.28h-4.55c-.22-.55-.53-.67-1.15-.67-.83,0-1.07.26-1.07.75v.08c0,.4.14.69,1.17.71l2.18.08c2.97.12,3.52,1.29,3.52,3.2v.18c0,2.49-1.76,3.52-5.48,3.52h-.14Z"/>
      <path d="M357.59,39.94h-4.31v-6.01c0-1.35-.3-1.54-1.38-1.54s-1.38.42-1.38,1.82v5.72h-4.33v-14.16h4.33v5.14h.12c.42-1.35,1.38-1.9,3.24-1.9,2.28,0,3.7.63,3.7,3.58v7.34Z"/>
      <path d="M362.28,32.58v-3.36h1.35v-3.44h4.31v3.44h1.8v3.36h-1.8v2.75c0,1.19.24,1.4,1.31,1.4h.49v3.22h-1.78c-3.56,0-4.33-1.09-4.33-3.44v-3.92h-1.35Z"/>
      <path d="M376.1,40.14c-3.94,0-5.64-1.62-5.64-5.42v-.28c0-3.8,1.7-5.42,5.66-5.42h.55c3.9,0,5.62,1.62,5.62,5.42v.28c0,3.8-1.7,5.42-5.64,5.42h-.55ZM377.98,34.64v-.12c0-1.8-.26-2.16-1.62-2.16s-1.58.36-1.58,2.16v.12c0,1.8.26,2.16,1.58,2.16s1.62-.36,1.62-2.16Z"/>
      <path d="M398.42,39.94h-4.31v-6.01c0-1.35-.3-1.54-1.38-1.54s-1.38.42-1.38,1.82v5.72h-4.33v-14.16h4.33v5.14h.12c.43-1.35,1.38-1.9,3.24-1.9,2.29,0,3.7.63,3.7,3.58v7.34Z"/>
      <path d="M410.54,36.44c-.61,2.35-1.86,3.7-5.46,3.7h-.26c-3.4,0-5.66-1.13-5.66-5.42v-.28c0-4.29,2.28-5.42,5.68-5.42h.26c3.4,0,5.5,1.13,5.5,5.42v.87h-7.12c.02,1.27.2,1.76,1.5,1.76.65,0,1.03-.14,1.25-.63h4.31ZM403.5,33.28h2.77v-.14c0-.95-.44-1.35-1.39-1.35-1.11,0-1.36.42-1.38,1.5Z"/>
      <path d="M422.55,39.94h-4.25v-1.13h-.12c-.4.83-1.13,1.33-3.09,1.33-2.37,0-3.92-.97-3.92-3.38v-.1c0-2.12,1.09-3.13,3.78-3.24l3.3-.18v-.28c0-.95-.36-1.15-1.27-1.15s-1.15.16-1.29.63h-4.25c.57-2.41,2.16-3.42,5.56-3.42h.1c3.8,0,5.46.87,5.46,4.45v6.47ZM415.52,36.66c0,.71.44.89,1.11.89,1.23,0,1.62-.57,1.62-1.56v-.34l-1.84.08c-.71.06-.89.22-.89.79v.14Z"/>
      <path d="M430.95,29.22v3.62h-1.01c-2.04,0-2.31.55-2.31,2.16v4.93h-4.33v-10.72h4.33v1.72h.12c.43-1.31,1.25-1.72,3.05-1.72h.14Z"/>
      <path d="M438.71,31.1h-2.26v-3.57h-1.53v-1.75h5.37v1.75h-1.57v3.57ZM450,31.1h-2.25v-3.69h-.08l-1.08,3.69h-2.46l-1.11-3.69h-.08v3.69h-2.23v-5.32h3.95l.78,2.69h.06l.78-2.69h3.72v5.32Z"/>
    </g>
  </g>
</svg>