<?xml version="1.0" encoding="UTF-8"?>
<svg id="Layer_2" data-name="Layer 2" xmlns="http://www.w3.org/2000/svg" viewBox="0 0 492.32 326.29">
  <defs>
    <style>
      .cls-1 {
        stroke-width: .35px;
      }

      .cls-1, .cls-2, .cls-3 {
        stroke: #000;
        stroke-miterlimit: 10;
      }

      .cls-2 {
        stroke-width: .5px;
      }

      .cls-3 {
        stroke-width: .47px;
      }
    </style>
  </defs>
  <g id="Layer_1-2" data-name="Layer 1">
    <g>
      <g>
        <path d="M257.04,65.75c-.01.3-.14.41.18.57,1.15.54,1.22,1.4,1.79,1.81.71.51,2.41.98,3.35,1.7,4.45,4.4,20.43,13.07,8.7,18.49-3.11,1.22-10.78,2.25-14.16,2.11-2.26-.36-4.42-.9-4.26,2.43-.56,4.43-.54,10.81-3.9,14.06-.88.27-2.12-.56-2.49.03-2.26,13-14.4,21.43-25.92,26.08,6.2,9.62,7.32,22,5.9,33.19l.69.46c21.3-3.24,18.8-4.96,26.71-23.76,4.21-6.78,23.95-65.9,33.07-44.74,7.49,23.64,7.12,70.36-5.06,92.37-7.3,7.55-33.54,9.36-44.67,11.96-1.39.47-4.35-.21-4.88,1.28,1.09,2.42,1.2,5.26,2.57,7.54,2.73,3.86,8.18,4.47,12.3,6.2,13.63,5.07,29.93,7.15,41.2,17.1,3.13,3.95,4.12,10.93-1.76,12.81-9.76,4-21.56,5.73-32.02,5.84-12.1-.68-23.96-.2-35.94-2.46-2.1-.42-4.58-1.34-6.36-.34-1.2-.08-4.05-2.97-5.86-2.5-5.1,7.62-11.93,19.27-19.54,24.48-2.21.92-4.87,1.44-7.11,1.83-2.07-.04-4.45-1.42-6.33-1.82-5.3-4.63-5.73-11.93-6.74-18.51.32-5.38,1.03-11.3,2.68-16.38.03-.35-.03-.34-.29-.56-19.33,3.26-40.07,3.13-59.29-.42-31.9-6.62-27.65-19.08.16-27.88-1.21-7.62-2.5-15.56-1.56-23.27-1.35.2-3.33-.59-4.2.7-1.23.64-2.52-.57-3.55-.64-3.12.48-6.7-.03-9.63-1.33-16.01-5.4-15.91-34.19-17.09-48.5-1.22-9.76-.55-19.07,0-28.85-.5-5.52,1.05-12.1,3.42-17.04,14.28-13.43,25.8,35.99,32.04,43.52,2.55,1.94,4.3,5.74,7.44,7.14,7.38,1.56,15.27,1.84,22.82,2.39,7.4-4.37,15.34-8.6,22.57-12.88-7.8-4.01-10.26-14.08-12.35-21.85-.34-.33-2.17.87-2.48-.19-.03-5.42-.21-10.82.24-16.23,2.64-7.31-14.59-1.45-18.31-4.66-.67-.91-1.54-.71-2.44-.93l-1.63-3.43c2.2-11.93,19.2-13.1,27.3-19.97,1.75-2.24,3.52-4.49,5.72-6.34-4.42-3.25-10.01-6.28-14.58-9.48-1.71-1.29-13.13-4.75-8.19-7.11,14.24-4.57,29.96-7.58,43.53-13.65.67-2.7,2.83-4.12,5.7-3.46.75.53,1.47,1.24,1.6,2.19,6.26-2.05,13.58-3.35,19.9-4.88,5.05-2.46,9.59-1.83,14.56.83,21.97,8.35,44.55,15.06,65.67,25.42,2.59.92,8.75,2.54,3.19,4.77-10.94,4.53-21.54,10.19-32.43,14.8ZM208.27,20.9h-.56v.28h.56v-.28ZM207.43,21.18h-.56v.28h.56v-.28ZM254.57,64.01c5.6.41,11.26-4.83,16.41-6.89,5.24-1.39,9.73-4.74,14.85-6.45.2-.1.77-.33.5-.62-24.02-10.17-49.02-19.14-73.2-28.83-48.61,13.11-18.2,1.72-44.52,26.26l-.97-.68c.14-1.5,2.44-2.12,3.49-3.19,1.79-1.84,4.41-4.33,5.47-6.73-3.67,2.94-6.6,8.08-11.35,10.1l-.94-.71.8-1.26c-1.15-.01-2.74,1.76-3.07-.11.26-1.16,5.88-2.77,6.15-4.65-1.06-.08-3.32,2.44-4.59,2.56-.79.46-1.27,1.45-2.53,1.06-2.21-1.75,7.95-5.19,9.08-7.54l-9.16,4.43-.92-.24s.02-.94.02-.94c3.61-2.35,8.76-3.85,12.02-6.9-11.15,2.45-22.19,6.13-33.07,9.53-.41.32,1.08,1.24,1.31,1.35,6.34,2.33,11.88,7.86,18.03,10.56,2.58,1.14,3.41-.49,5.41-1.6,2.28-1.26,4.79-2.05,7.08-3.29,4.79-10.91,11.78-13.23,22.9-15.22,16.94-3.15,37.8-.96,51.35,10.45,2.83,1.97-.29,5.59,0,8.39,3.93,2.93,7.94,6.34,9.46,11.16ZM197.06,23.7c-1.22.28-4.55,1.05-5.6,1.68,1.74-.5,4.32-.58,5.6-1.68ZM183.89,24.54l-2.26.13-.22,1.8c1.63,1.21,2.79-.09,2.48-1.92ZM189.77,25.66h-.56v.28h.56v-.28ZM188.93,25.94l-1.4.28v.28s1.4-.28,1.4-.28v-.28ZM187.25,26.5l-1.4.28v.28s1.4-.28,1.4-.28v-.28ZM243.59,30.71c-2.59-.18-4.67-1.97-7.29-2.24l1.33.78c1.64-.14,5.05,2.79,5.96,1.47ZM176.32,29.58l-.14-.56c-1.39,1.04-3.8.89-4.91,1.96l5.04-1.4ZM241.7,44.08c-15.53-11.43-38.26-11.86-56.13-6.21-4.91.85-10.01,4.52-11.22,9.38,9.22-4.04,23.73-9.7,30.71.84,6.05-4.44,18.22-3.39,24.7-.05,4.21,2.07,8.52,7.76,11.43,11l.65-.48c.18-3.82,2.6-8.8,2.16-12.42-.31-.62-1.75-1.57-2.31-2.04ZM257.88,36.31l-1.4-.28v.28c.48.07.9.36,1.4.28v-.28ZM284.23,47.24c-7.57-4.08-15.96-7.78-24.38-10.09,7.89,3.72,16.26,6.88,24.38,10.09ZM140.72,39.96h-.56v.28h.56v-.28ZM170.71,40.8c-1.13.76-3.87,2.65-4.76,3.64,1.94-.27,3.53-2.22,4.76-3.64ZM236.66,56.42c-7.26-9.89-22.07-12.95-32.18-5.89-5.5-11.14-21.5-6.24-29.85-1.19-11.43,11.69-16.89,29-17.1,45.13.04.86-.13,4.79.71,4.63.31-.16,1.91-1.86,2.23-2.26,3.36-4.05,6.39-10.68,8.14-15.4,5.47-1.39-6.22,16.07-7.7,17.52-6.32,4.45,2.42,12.86,3.96,18.18,10.28,16.22,34.64,19.48,48.72,6.47,8.8-6.4,16.97-16.47,20.76-26.62.16-1.02-.38-1-.7-1.55-1.92-3.62-8.69-15.36-5.08-18.48,1.39.88.67,3.22,1.02,4.6,1.12,3.73,2.52,10.69,6.15,12.49,2.02-11.43,10.46-28.08.92-37.64ZM170.43,51.45c-7.07,1.91-13.17,7.3-17.1,13.31-5.38,3.95-32.09,11.16-24.37,20.18,4.8,3.89,18.96-2.01,20.74,4.2-.24,5.39-1.38,11.31-.57,16.69,2.38-.32,5.01-3,7.02-4.38-1.89-17.84,2.9-35.92,14.28-50ZM247.72,56.84c-.93.02-3.01-3.03-3.35-1.67-2.32,11.36-2.04,23.13-5.63,34.46-.61,2.12-1.51,4.14-2.16,6.25.65,2.4,11.43,11.94,12.47,7.43,1.86-4.16,1.27-10.22,2.43-14.52.32-.33,3.65-.7,4.24-.56,4.9.99,11.45-.28,16.04-2.29,6.37-6.48-14.25-15.55-18.02-19.7-1.33-2.8-3.81-7.16-6.02-9.39ZM132.03,155.16c-.04-2.75,2.29-4.38,3.36-6.59-.5-1.66,1.24-2.91,1.69-3.92-4.32-1.94-9.88-.03-14.45-1.81-6.8.67-10.38-2.76-13.98-7.89-5.32-7.26-7.35-16.01-11.02-24.01-6.02-14.86-18.1-35.53-19.42-4.98-2.29,14.04,9.32,84.62,29.59,77.51.68-1.19.77-2.99.39-4.35.02-.73.55-1.38.58-1.99-.46-1.26-.14-2.37.26-3.64,1.41-8.03,3.53-21.7,13.29-22.76,2.27.9,4.97,1.63,7.18,2.89.77.47,1.29,1.76,2.53,1.53ZM249.75,158.24c15.62-17.33,18.58-44.8,34.72-60.92-6.73-3.66-14.4,21.49-17.58,26.34-5.48,11.59-10.77,23.52-17.13,34.58ZM236.52,98.6c-.21-.2-.63-.4-.92-.07-2.54,5.74-6.26,12.06-10.37,16.82-7.17,8.51-17.03,14.98-27.34,18.21,13.06,1.75,11.75-4.46,18.5-2.94,1.28.48,1.47,1.3,3.17.93,11.27-4.59,23.14-13.17,25.12-25.84-2.86-2.12-6.35-3.9-8.17-7.11ZM276.66,100.22c.45-.06,1.34-1.41,1.12-1.68-.62.35-1.26.89-1.12,1.68ZM226.21,168.33c-.52,4.55-.85,9.08-1.69,13.57,1.25,4.04,3.83,9.43,5.06,13.74,1.15,2.93.54,7.42,4.91,5.49,12.07-2.7,36-3.87,44.97-11.37,11.69-16.31,11.15-51.77,9.27-71.21-1.31-45.83-18.63,8.54-25.75,20.82-8.63,18.85-15.18,27.37-36.77,28.96ZM276.1,101.06c-2.13.64-3.07,3.99-4.15,5.8-5.96,11.88-11.4,24.54-16.31,36.8l20.46-42.6ZM156.98,103.58c-1.38-.01-3.39,2.61-4.92,3.07-.2.87-.45,3.64.36,4.43,2.31,14.17,13.88,22.83,28.1,20.81.15-.81-.21-.44-.63-.62-.77-.33-1.36-.85-1.98-1.12-11.05-3.66-17.89-15.86-20.94-26.57ZM98.4,184.02c-16.77-22.06-21.85-52.34-21.58-79.04-2.02,15.33.88,79.45,21.58,79.04ZM165.39,131.61c-7.86,11.77-13.89,27.82-17.94,41.76,4.92-7.7,6.32-19.37,10.99-27.55,2.37-2.34,2.84-6.13,4.37-9.08.38-.79,3.01-4.63,2.58-5.13ZM162.3,132.17c-4.33.92-7.59,4.78-11.88,6.2,0,0-6.62,4.03-6.62,4.03,3.9,1.39,8.86,1.08,12.99.44,2.4-3.26,3.37-7.29,5.51-10.66ZM168.73,132.47l-.97-.3-.57.27c-7.51,13.2-12.87,27.62-17.75,41.97l.24.51c.68.15,1.32.72,1.85.96,1.55-1.05,1.86-4.82,2.7-6.78,3.97-12.57,10.08-24.41,14.5-36.63ZM215.28,132.17l-1.48.06-1.6.78c.51.35,3.51-.02,3.08-.84ZM176.53,162.1c3.43-8.76,6.73-18.55,9.53-27.61,1.14-3.1-2.43-1.02-4.01-.93-2.02.08-3.37,0-5.26.35-5.42,7.84-7.77,18.67-10.96,27.72-.55,1.82-5.24,14.23-4.64,14.84,7.7-1.76,11.98-7.69,15.34-14.36ZM88.31,180.94c-8.89-14.37-10.59-31.59-13.17-47.93,1.13,15.43.69,37.33,13.17,47.93ZM174.08,133.57c-1.03.39-2.65-.81-3.37-.43-.81.42-3.07,6.13-3.59,7.36-4.7,11.69-10.77,23.92-13.22,36.23l5,.26c4.34-14.48,10.08-29.48,15.17-43.41ZM207.15,135.26c-3.63-.3-7.33.17-11.05-.3-1.79-.07-5.74-2.47-6.54-.06-4.97,15.77-14.72,49.3,10.87,50.25.19-.18-.75-2.93-.82-3.52-.14-1.22.18-2.7-.07-3.85-.21-.96-1.07-1.06-1.63-1.73-.87-1.03-1.62-3.95-1.6-5.28,1.59-11.31,5.33-25.66,10.85-35.51ZM207.71,168.89c5.47-.03,11-.88,16.36-1.72.47-.13.7-1.54.75-2.06.58-9.85.49-23.62-6.64-31.22-2.85.21-5.71,1.31-8.61,1.4-6.51,9.5-9.69,23.69-11.37,34.88-.15,1.8.13,2.58.82,4.16,1.58.62,1.78-6.59,2.67-7.96l.81-.55.7.74c-3.65,9.2-1.55,28.38,2.59,5.88l.66-.47c1.97.7.89,2.08.77,3.57-.28,2.8.5,6.03,1.04,8.78,1.88-.56,2.3-6.88,2.72-8.6.03-.5-.57-1.8.52-2.04,2.18.62.84,9.71,3.62,11.48,1.32-.74,1.43-3.35,1.8-4.92.18-1.14-.29-2.87,1.54-2.63.68.55.54,2.92,1.28,3.77.1.59,0,4.83,1.69,3.66,2.25-4.83,2.36-10.83,2.79-16.13-5.5.87-11.54,1.08-16.82,2.24l.28-2.24ZM155.58,145.35c-5.03-.34-11.1-1.6-15.96-.41-2.09,1.39-3.25,4.26.46,2.71.99-.39,2.57-1.78,3.46-1.32,1.33.69-.39,1.8-.53,2.59-.39,2.17,2.95,2.77,4.53,1.99.62-.31,3-2.73,3.56-2.18.54,4.15-6.42,5.62-9.15,3.12-2.25.98-6.63,3.84-5.69,6.67,2.54.73,5.63-4.48,8.11-2.65-1.37,2.37-5.22,4.2-5.32,7.42,2.75.45,5.11-1.8,7.19-3.34,2.43.91-1.08,2.85-1.71,3.91-.74.98-2.72,4.59-.23,3.69,7.18-3.12,7.86-15.56,11.29-22.2ZM163.7,177.58c7.17.27,14.72,4.61,21.86,2.95-5.88-10.6-3.56-24.57-.56-35.74-5.84,11.39-7.02,27.98-21.3,32.79ZM141,149.55c-1.39.34-2.81.56-4.21.7-.82.42-3.32,3.39-2.67,4.36.9,1.35,3.27-1.7,3.93-2.25.76-1.07,3.07-1.41,2.94-2.8ZM142.96,180.38c-2.53-10.6-8.08-23.94-19.47-27.18-8.95,3.03-7.39,21.9-5.91,29.43,8.19-.08,16.97-1.6,25.38-2.26ZM116.03,182.88c-1.59-8.73-1.41-18.33,1.71-26.88-5.33,7.38-5.59,18.5-4.76,27.19l3.06-.31ZM133.99,157.4v-.42s-.28-.28-.28-.28l-.56-.14.28.84h.56ZM137.92,160.48h-1.4s0,.42,0,.42l.42.42h.7s.28-.84.28-.84ZM141.56,164.97l-1.96.28c1.66,4.23,4.46,10.36,5.88,14.74l8.42-1c.5-.94-2.05-.82-2.59-1.19-1.01-.37-1.9-1.15-2.82-1.66-1.4-.2-2.23-1.35-2.85-2.47-.58-1.43,1.6-4.93,1.25-5.32-4.16,2.38-6.74,1.86-5.32-3.36ZM177.69,182.09c-5.5-1.47-11.45-1.19-16.71-3.64-.68-.23-1.5.93-1.83,1.44-10.08,27.28-4.07,22.55-33.57,27.11,2.63,6.32,6.78,13.36,12.69,17.16,2.38,1.07,2.19-2.44,3.84.65,11.78-6.91,22.92-16.76,33.51-25.93.31-5.37,1.76-11.49,2.07-16.8ZM156.7,180.38c-.43-.4-4.63.74-5.5.83-1.79-.32-3.37.31-5.16.29-.54,2.67,2.14,6.76.97,9.26-1.86.28-1.31-2.43-1.58-3.74-.78-1.07-.69-4.53-1.8-5.2-8.48,1.16-17.05,1.9-25.61,2.49.62,7.01,4.05,14.82,6.75,21.28,6.29-.85,12.31-2.56,18.6-3.08,2.59-.36,5.45-1.26,6.83-3.54,1.46-6.35,5.05-12.29,6.5-18.58ZM204.35,184.59l1.65-.73c.03-.71.28-1.57-.39-2.07l-1.26,2.8ZM211.91,182.06c-.44-.1-.56.05-.58.28-.44,3.11-.66,4.48-.25,7.42.45,7.25.71,14.33,1.38,21.6,2.08,11.04,3.13,22.36-3.88,32l1.36,3.59c14.54,4.85,69.48,8.72,78.63-4.62,1.07-4.45-3.56-9.96-7.8-10.71-5.53-3.29-12.28-5.31-18.49-7.58-8.84-2.7-18.01-5.5-26.54-8.78-3.59-2.55-3.73-7.34-5.56-10.98-.11-.23-.25-.56-.51-.61-4.53.56-9.65,2.35-14.1,1.63v-1.07c3.46-.85,7.34-1.13,10.78-1.97,1.81-.21,3.25.76,2.91-1.83-1.58-5.07-3.29-10.28-5.17-15.29-.32-.39-.25-.28-.57,0-3.35,4.99-2.99,2.32-5.74-.84-.45,1.52-1.16,3.15-2.91,3.33-2.19-1.18-2.59-3.28-2.98-5.57ZM170.99,265.59c-1.58-16.54,3.9-33.61,13.17-47.23-1.68-10.05-2.91-21.76-1.38-31.94-.01-1.16,1.35-2.9.4-3.8-.86-.24-1.05.72-1.19,1.33-2.32,10.07-3.08,23.11-.11,32.95-8.29,14.23-15.2,32.42-10.89,48.69ZM187.79,182.64c-6.97-1.84-3.43,30.8-1.81,35.02.31.79,1.33,1.34.3,2.25-9.11,7.04-21.12,44.2-9.24,51.82.56.13.45-.23.39-.67-1.88-6-.76-12.74.07-19.01,3.68-11.01,6.23-22.44,13.69-31.74-4.2-11.81-4.94-25.51-3.4-37.67ZM180.52,182.91c-2.51,2.38-2.44,12.29-3.09,16.11-.64,6.53.96,12.42,1.64,18.74-.15.67-.97,1.06-.79,1.87.55-.34,1.66-2.43,1.67-2.93-2.54-10.58-2.04-23.29.57-33.78ZM195.46,260.62c2.95-3.9,6.24-8.08,8.34-12.55-1.9-2.96-4.68-1.11-5.28-6.22-1.72-17.93-.54-36.13-2.64-53.98-.65-2.46-1.45-1.99-3.46-2.71-.74-.27-2.07-1.49-2.6-.38-2.76,11.81-.74,24.91,3.61,36.1-10.44,12.86-18.09,34.08-14.26,50.55,7.44,2.24,12-6.15,16.29-10.8ZM122.77,205.87c-.43-4.35-3.48-8.48-4.27-12.94-.8-2.65-1.4-5.38-2.01-8.08-.41-.65-2.75-.09-3.52.02,1.46,6.74,1.16,16.19,4.93,22.12,0,0,4.86-1.11,4.86-1.11ZM113.83,207.55l1.68-.11.27-1.13c-2.42-4.94-2.03-10.63-3.64-15.73-.1-1.23.35-.99-.13-2.65-.31-.71.11-1.98-.71-2.23-.14,7.35,1.08,14.64,2.54,21.85ZM207.12,185.73l-3.33.54c1.92,17.55,1.74,37,4.62,53.81,6.83-9.95,2.69-21.06,1.85-32.07-.39-7.1-.92-13.77-1.14-20.89-1.02.15-1.74-.42-1.99-1.38ZM200.01,186.55c1.86,18.68.68,38.6,3.91,57.47.39,1.75,1.63,1.68,1.99,0,.44-.76.79-.52.7-1.84-.59-3.75-1.08-7.43-.84-11.21-.58-11.1-1.9-22.23-2.82-33.34-.26-2.85.62-10.78-2.93-11.08ZM109.61,189.63v2.24s.28,0,.28,0v-2.24s-.28,0-.28,0ZM202.1,244.01c-3.4-17.47-.69-36.89-3.92-54.1.89,12.25.85,24.58,1.69,36.87.26,4.86-1.5,13.88,2.23,17.23ZM112.41,208.13l-2.52-13.45c.43,2.8-.26,12.77,2.52,13.45ZM175.48,201.4c-10.84,7.53-34.64,34.18-48.4,28.08-2.75.46-7.93-3.61-10.17-5.25-3.1-3.08-5.65-9.37-6.62-13.59-8.91.65-22.37,14.57-11.13,20.97,9.62,2.81,19.86,5.94,30.5,5.38,12.09.4,24.08,1.26,36.13-1.13.83-.14,3.54-.65,3.94-1.11,2.74-4.97,4-10.73,6.72-15.7,1.54-2.99.1-5.01-.39-7.99-.19-3.17-1.39-6.32-.58-9.65ZM124.13,207.91c-1.32-.64-5.04.21-6.1.92,0,0,2.96,6.85,2.96,6.85,5.34,8.32,7.09,16.71,18.62,11.23-7.39-3.82-12.05-11.67-15.47-19ZM125.3,226.07c-3.12-5.56-6.38-11.35-9.1-16.82-.54-.1-2.26-.07-1.61.76,1.73,5.06,5.23,14.95,10.71,16.06ZM118.86,223.26c-2.53-4.06-4.6-8.21-5.75-12.89l-.98-.28c1.54,3.99,2.78,11.08,6.73,13.17ZM93.63,228.87c-1.19-3.94.83-8.71,2.8-12.05-3.69,1.98-8.32,9.68-2.8,12.05ZM90.27,221.59c-1.14-.11-1.19,2.45-1.12,3.36l1.12-3.36ZM126.43,227.47c.07-.06-.67-1.33-.84-1.12-.11.67.13,1.19.84,1.12Z"/>
        <path d="M202.61,55.32c-8.12,2.26-15.56,6.51-22.92,10.29-2.47,2.06-3.99,5.95-1.57,8.55.72.73,1.86.69,2.28,1.68,5.12.41,10.37.7,15.38-.87,2.74,1.27-1.31,4.39-1.87,6.27-2.03,6.34-5.86,11.89-7.5,18.29,5.85,6.15,24.62-16.4,28.08-21.95l1.61-.35-.04,1.22c-7.56,9.46-15.55,21.61-28.14,24.27-7.96.44-12.06-16.62-14.91-22.61-.28-1.44-3.05-6.06-.09-5.66,2.71,6.98,5.67,19.79,11.51,24.08l9.54-21.3c-6.68.94-19.66,2.46-19.56-7.39.7-5.14,10.57-9.33,14.88-11.45,0,0,12.51-5.14,12.51-5.14,1.32.06,1.37,1.04.81,2.07Z"/>
        <path d="M196.69,50.65c2.68-.37,2.78,3.64.18,3.82-2.61-.08-2.35-3.34-.18-3.82Z"/>
        <path d="M205.93,52.61l1.23.09c1.89,1.8.37,3.76-1.98,3.1-1.07-1.31-.52-2.37.76-3.19Z"/>
        <path d="M249.12,66.51c-2.47,1.65-3.82-2.33-1.35-3.17,1.72-.06,2.58,1.97,1.35,3.17Z"/>
        <path d="M157.44,63.27c1.49-.52,2.58.82,2.2,2.2-1.96,3.05-5.24-.64-2.2-2.2Z"/>
      </g>
      <g>
        <path class="cls-2" d="M363.7,100.8c0-2.33,2.02-3.77,5.47-3.77h3v-.58c0-2.26-1.34-3.62-3.62-3.62-1.87,0-3.5,1.32-3.6,3.02h-1.06c.1-2.21,2.16-3.91,4.68-3.91,2.9,0,4.66,1.73,4.66,4.56v7.32h-1.03v-2.47c-.82,1.61-2.52,2.74-4.56,2.74-2.45,0-3.94-1.34-3.94-3.29ZM367.69,103.2c2.62,0,4.51-2.04,4.51-4.46v-.86h-2.98c-2.86,0-4.49,1.08-4.49,2.9,0,1.42,1.08,2.42,2.95,2.42Z"/>
        <path class="cls-2" d="M377.14,92.2h1.03v2.11c.82-1.44,2.28-2.38,4.1-2.38,2.76,0,4.61,1.94,4.61,5.09v6.79h-1.03v-6.77c0-2.38-1.37-4.15-3.77-4.15s-3.89,1.63-3.89,4.2v6.72h-1.06v-11.62Z"/>
        <path class="cls-2" d="M389.89,98.01c0-3.41,2.62-6.07,5.98-6.07,2.28,0,4.18,1.15,5.11,3.02v-7.95h1.06v16.8h-1.06v-2.76c-.94,1.87-2.83,3.02-5.11,3.02-3.36,0-5.98-2.62-5.98-6.07ZM395.91,103.1c2.93,0,5.06-2.11,5.06-5.11s-2.14-5.06-5.06-5.06-4.99,2.26-4.99,5.06,2.16,5.11,4.99,5.11Z"/>
        <path class="cls-2" d="M329.05,112.98c.6-1.15,1.66-1.78,3.1-1.78h1.3v.91h-1.32c-1.92,0-3.07,1.25-3.07,3.36v7.34h-1.03v-11.62h1.03v1.78Z"/>
        <path class="cls-2" d="M334.28,117.04c0-3.55,2.76-6.1,5.88-6.1s5.5,2.42,5.5,5.57c0,.12-.02.24-.02.38h-10.32v.14c0,2.93,2.09,5.11,4.92,5.11,2.04,0,3.89-1.1,4.25-2.86h1.08c-.5,2.26-2.71,3.79-5.4,3.79-3.58,0-5.88-2.86-5.88-6.05ZM344.6,116c-.14-2.33-2.02-4.15-4.44-4.15-2.28,0-4.32,1.66-4.75,4.15h9.19Z"/>
        <path class="cls-2" d="M348.8,111.2h1.08v2.04c.84-1.61,2.4-2.3,3.84-2.3,2.04,0,3.46,1.06,4.06,2.86.72-1.87,2.5-2.86,4.32-2.86,2.81,0,4.44,1.87,4.44,4.99v6.89h-1.03v-6.74c0-2.57-1.25-4.18-3.53-4.18-1.7,0-3.79,1.13-3.79,4.18v6.74h-1.03v-6.74c0-2.59-1.32-4.18-3.6-4.18-1.68,0-3.72,1.08-3.72,4.22v6.7h-1.03v-11.62Z"/>
        <path class="cls-2" d="M369.56,117.04c0-3.55,2.76-6.1,5.88-6.1s5.5,2.42,5.5,5.57c0,.12-.02.24-.02.38h-10.32v.14c0,2.93,2.09,5.11,4.92,5.11,2.04,0,3.89-1.1,4.25-2.86h1.08c-.5,2.26-2.71,3.79-5.4,3.79-3.58,0-5.88-2.86-5.88-6.05ZM379.88,116c-.14-2.33-2.02-4.15-4.44-4.15-2.28,0-4.32,1.66-4.75,4.15h9.19Z"/>
        <path class="cls-2" d="M384.08,111.2h1.08v2.04c.84-1.61,2.4-2.3,3.84-2.3,2.04,0,3.46,1.06,4.06,2.86.72-1.87,2.5-2.86,4.32-2.86,2.81,0,4.44,1.87,4.44,4.99v6.89h-1.03v-6.74c0-2.57-1.25-4.18-3.53-4.18-1.7,0-3.79,1.13-3.79,4.18v6.74h-1.03v-6.74c0-2.59-1.32-4.18-3.6-4.18-1.68,0-3.72,1.08-3.72,4.22v6.7h-1.03v-11.62Z"/>
        <path class="cls-2" d="M406.78,120.06v2.76h-1.06v-16.8h1.06v7.95c.94-1.87,2.83-3.02,5.11-3.02,3.36,0,5.98,2.66,5.98,6.07s-2.62,6.07-5.98,6.07c-2.28,0-4.18-1.15-5.11-3.02ZM411.85,122.1c2.83,0,4.99-2.23,4.99-5.11s-2.16-5.06-4.99-5.06-5.06,2.14-5.06,5.06,2.14,5.11,5.06,5.11Z"/>
        <path class="cls-2" d="M420.15,117.04c0-3.55,2.76-6.1,5.88-6.1s5.5,2.42,5.5,5.57c0,.12-.02.24-.02.38h-10.32v.14c0,2.93,2.09,5.11,4.92,5.11,2.04,0,3.89-1.1,4.25-2.86h1.08c-.5,2.26-2.71,3.79-5.4,3.79-3.58,0-5.88-2.86-5.88-6.05ZM430.47,116c-.14-2.33-2.02-4.15-4.44-4.15-2.28,0-4.32,1.66-4.75,4.15h9.19Z"/>
        <path class="cls-2" d="M435.7,112.98c.6-1.15,1.66-1.78,3.1-1.78h1.3v.91h-1.32c-1.92,0-3.07,1.25-3.07,3.36v7.34h-1.03v-11.62h1.03v1.78Z"/>
        <path class="cls-2" d="M378.99,140.12v1.7h-1.7v-1.7h1.7Z"/>
        <path class="cls-2" d="M384.08,140.12v1.7h-1.7v-1.7h1.7Z"/>
        <path class="cls-2" d="M389.17,140.12v1.7h-1.7v-1.7h1.7Z"/>
        <path class="cls-2" d="M371.61,163.02h1.3v2.23h-1.3v-2.23ZM372.79,168.2v11.62h-1.03v-11.62h1.03Z"/>
        <path class="cls-2" d="M375.12,168.2h2.42v-3.26h1.03v3.26h3.65v.91h-3.65v7.37c0,1.63.82,2.4,2.38,2.4h1.27v.94h-1.34c-2.26,0-3.34-1.06-3.34-3.31v-7.39h-2.42v-.91Z"/>
        <path class="cls-2" d="M383.78,164.7h-.34v-1.7h1.7v4.39h-.84v-2.16c0-.31-.22-.53-.53-.53Z"/>
        <path class="cls-2" d="M387.09,176.43h1.03c.17,1.73,1.49,2.76,3.31,2.76s3.19-1.03,3.19-2.52c0-3.77-7.25-1.34-7.25-5.57,0-2.16,1.85-3.17,3.84-3.17,2.23,0,3.89,1.2,4.1,3.24h-1.03c-.22-1.37-1.32-2.38-3.05-2.38-1.42,0-2.88.65-2.88,2.21,0,3.43,7.27.91,7.27,5.57,0,2.04-1.75,3.5-4.2,3.5s-4.13-1.34-4.34-3.65Z"/>
        <path class="cls-2" d="M361.09,187.2l4.39,10.44,4.34-10.44h1.1l-6.77,16.13h-1.08l1.85-4.49-4.94-11.64h1.1Z"/>
        <path class="cls-2" d="M372.3,193.01c0-3.38,2.66-6.07,6-6.07s6.02,2.69,6.02,6.07-2.69,6.07-6.02,6.07-6-2.64-6-6.07ZM378.3,198.12c2.76,0,4.99-2.26,4.99-5.11s-2.23-5.11-4.99-5.11-4.97,2.26-4.97,5.11,2.16,5.11,4.97,5.11Z"/>
        <path class="cls-2" d="M397.07,198.82h-1.03v-2.11c-.82,1.44-2.28,2.38-4.1,2.38-2.76,0-4.61-1.94-4.61-5.09v-6.79h1.03v6.77c0,2.38,1.37,4.15,3.77,4.15s3.89-1.63,3.89-4.2v-6.72h1.06v11.62Z"/>
        <path class="cls-2" d="M402.18,188.98c.6-1.15,1.66-1.78,3.1-1.78h1.3v.91h-1.32c-1.92,0-3.07,1.25-3.07,3.36v7.34h-1.03v-11.62h1.03v1.78Z"/>
        <path class="cls-2" d="M349.06,206.2h2.52v-1.82c0-2.26,1.06-3.36,3.31-3.36h.74v.89h-.67c-1.56,0-2.35.77-2.35,2.42v1.87h3.02v.91h-3.02v10.71h-1.03v-10.71h-2.52v-.91Z"/>
        <path class="cls-2" d="M367.45,217.82h-1.03v-2.11c-.82,1.44-2.28,2.38-4.1,2.38-2.76,0-4.61-1.94-4.61-5.09v-6.79h1.03v6.77c0,2.38,1.37,4.15,3.77,4.15s3.89-1.63,3.89-4.2v-6.72h1.06v11.62Z"/>
        <path class="cls-2" d="M369.75,206.2h2.42v-3.26h1.03v3.26h3.65v.91h-3.65v7.37c0,1.63.82,2.4,2.38,2.4h1.27v.94h-1.34c-2.26,0-3.34-1.06-3.34-3.31v-7.39h-2.42v-.91Z"/>
        <path class="cls-2" d="M389.05,217.82h-1.03v-2.11c-.82,1.44-2.28,2.38-4.1,2.38-2.76,0-4.61-1.94-4.61-5.09v-6.79h1.03v6.77c0,2.38,1.37,4.15,3.77,4.15s3.89-1.63,3.89-4.2v-6.72h1.06v11.62Z"/>
        <path class="cls-2" d="M394.16,207.98c.6-1.15,1.66-1.78,3.1-1.78h1.3v.91h-1.32c-1.92,0-3.07,1.25-3.07,3.36v7.34h-1.03v-11.62h1.03v1.78Z"/>
        <path class="cls-2" d="M399.39,212.04c0-3.55,2.76-6.1,5.88-6.1s5.5,2.42,5.5,5.57c0,.12-.02.24-.02.38h-10.32v.14c0,2.93,2.09,5.11,4.92,5.11,2.04,0,3.89-1.1,4.25-2.86h1.08c-.5,2.26-2.71,3.79-5.4,3.79-3.58,0-5.88-2.86-5.88-6.05ZM409.71,211c-.14-2.33-2.02-4.15-4.44-4.15-2.28,0-4.32,1.66-4.75,4.15h9.19Z"/>
        <path class="cls-2" d="M413.91,216.12h1.7v1.7h-1.7v-1.7ZM415.35,201.02l-.1,12.67h-.94l-.1-12.67h1.13Z"/>
      </g>
      <g>
        <g>
          <path class="cls-1" d="M25.6,303.06c0-1.92,1.52-3.17,4.4-3.17h1.37v-.21c0-.89-.55-1.46-1.48-1.46-.84,0-1.5.47-1.58,1.25h-2.66c.11-2.05,1.82-3.42,4.29-3.42s4.1,1.56,4.1,3.87v5.72h-2.6v-.89c-.57.7-1.48,1.16-2.56,1.16-1.96,0-3.29-1.16-3.29-2.85ZM29.44,303.88c1.12,0,1.99-.97,1.99-2.09v-.09h-1.37c-1.23,0-1.86.44-1.86,1.18,0,.59.44,1.01,1.23,1.01Z"/>
          <path class="cls-1" d="M35.86,299.17h6.15v2.47h-6.15v-2.47Z"/>
          <path class="cls-1" d="M43.43,300.99c0-2.85,2.18-4.94,4.92-4.94,2.35,0,4.31,1.61,4.54,3.8h-2.68c-.17-.7-.99-1.31-1.9-1.31-1.29,0-2.26,1.01-2.26,2.45s.97,2.43,2.26,2.43c.91,0,1.73-.59,1.92-1.4h2.68c-.21,2.3-2.18,3.89-4.56,3.89-2.73,0-4.92-2.09-4.92-4.92Z"/>
          <path class="cls-1" d="M54.13,303.06c0-1.92,1.52-3.17,4.4-3.17h1.37v-.21c0-.89-.55-1.46-1.48-1.46-.84,0-1.5.47-1.58,1.25h-2.66c.11-2.05,1.82-3.42,4.29-3.42s4.1,1.56,4.1,3.87v5.72h-2.6v-.89c-.57.7-1.48,1.16-2.56,1.16-1.96,0-3.29-1.16-3.29-2.85ZM57.96,303.88c1.12,0,1.99-.97,1.99-2.09v-.09h-1.37c-1.23,0-1.86.44-1.86,1.18,0,.59.44,1.01,1.23,1.01Z"/>
          <path class="cls-1" d="M64.16,300.99c0-2.85,2.18-4.94,4.92-4.94,2.35,0,4.31,1.61,4.54,3.8h-2.68c-.17-.7-.99-1.31-1.9-1.31-1.29,0-2.26,1.01-2.26,2.45s.97,2.43,2.26,2.43c.91,0,1.73-.59,1.92-1.4h2.68c-.21,2.3-2.18,3.89-4.56,3.89-2.73,0-4.92-2.09-4.92-4.92Z"/>
          <path class="cls-1" d="M75.25,292.35h2.6v4.94c.66-.76,1.6-1.23,2.7-1.23,2.11,0,3.53,1.61,3.53,4.27v5.32h-2.68v-5.24c0-1.06-.61-1.88-1.67-1.88s-1.82.78-1.82,2.01v5.11h-2.66v-13.29Z"/>
          <path class="cls-1" d="M85.64,301.07c0-2.81,2.28-5.01,4.94-5.01s4.61,2.01,4.61,4.56c0,.29-.02.66-.08,1.06h-6.87c.25,1.27,1.22,2.01,2.37,2.01.87,0,1.61-.46,1.82-1.04h2.62c-.44,1.8-2.13,3.27-4.6,3.27-2.75,0-4.82-2.09-4.82-4.84ZM92.47,299.78c-.08-.85-.85-1.56-1.92-1.56-.97,0-1.78.57-2.16,1.56h4.08Z"/>
          <path class="cls-1" d="M96.03,295.54c0-1.92,1.54-3.46,3.44-3.46s3.46,1.54,3.46,3.46-1.54,3.44-3.44,3.44-3.46-1.52-3.46-3.44ZM99.48,298.32c1.5,0,2.73-1.25,2.73-2.77s-1.23-2.79-2.73-2.79-2.75,1.25-2.75,2.79,1.23,2.77,2.75,2.77ZM98.32,293.7h1.16c.72,0,1.23.47,1.23,1.04,0,.36-.19.68-.48.85.3.19.46.51.46.87v.87h-.78v-.8c0-.32-.17-.53-.55-.53h-.27v1.33h-.78v-3.65ZM99.44,295.35c.27,0,.47-.21.47-.47,0-.29-.21-.47-.47-.47h-.34v.95h.34Z"/>
        </g>
        <g>
          <path class="cls-3" d="M106.36,301.53c0-2.25,1.77-4.03,3.98-4.03,1.66,0,3.15,1.08,3.46,2.53h-.7c-.29-1.1-1.45-1.89-2.77-1.89-1.85,0-3.28,1.5-3.28,3.4s1.44,3.38,3.28,3.37c1.29,0,2.5-.77,2.77-1.95h.7c-.27,1.56-1.81,2.6-3.45,2.6-2.21,0-3.98-1.75-3.99-4.03Z"/>
          <path class="cls-3" d="M115,301.52c0-2.25,1.77-4.03,3.98-4.03s4,1.78,4,4.03-1.78,4.03-4,4.03-3.98-1.75-3.99-4.03ZM118.98,304.91c1.83,0,3.31-1.5,3.31-3.39s-1.48-3.39-3.31-3.39-3.3,1.5-3.29,3.4,1.44,3.39,3.3,3.39Z"/>
          <path class="cls-3" d="M124.86,297.66h.72s0,1.35,0,1.35c.56-1.07,1.59-1.53,2.55-1.53,1.35,0,2.29.7,2.69,1.89.48-1.24,1.66-1.9,2.87-1.9,1.86,0,2.95,1.24,2.95,3.31v4.57s-.68,0-.68,0v-4.48c0-1.7-.83-2.77-2.35-2.77-1.13,0-2.52.75-2.51,2.77v4.48s-.68,0-.68,0v-4.48c0-1.72-.88-2.77-2.39-2.77-1.11,0-2.47.72-2.47,2.81v4.44s-.68,0-.68,0v-7.71Z"/>
          <path class="cls-3" d="M138.99,297.65h.7s0,1.83,0,1.83c.6-1.24,1.88-2.01,3.39-2.01,2.23,0,3.97,1.73,3.97,4.03s-1.73,4.03-3.96,4.03c-1.51,0-2.79-.76-3.39-2v4.83s-.7,0-.7,0v-10.7ZM143.05,304.88c1.88,0,3.31-1.5,3.31-3.38s-1.44-3.38-3.31-3.37-3.36,1.39-3.36,3.38,1.42,3.38,3.36,3.37Z"/>
          <path class="cls-3" d="M155.27,305.35h-.68s0-1.4,0-1.4c-.54.96-1.51,1.58-2.72,1.58-1.83,0-3.06-1.29-3.06-3.37v-4.51s.68,0,.68,0v4.49c0,1.58.91,2.75,2.51,2.75s2.58-1.08,2.58-2.79v-4.46s.7,0,.7,0v7.71Z"/>
          <path class="cls-3" d="M156.56,297.64h1.61s0-2.17,0-2.17h.68s0,2.17,0,2.17h2.42s0,.6,0,.6h-2.42s0,4.89,0,4.89c0,1.08.54,1.59,1.58,1.59h.84s0,.62,0,.62h-.89c-1.5,0-2.21-.7-2.22-2.2v-4.91s-1.61,0-1.61,0v-.61Z"/>
          <path class="cls-3" d="M162.01,301.51c0-2.36,1.83-4.05,3.9-4.05s3.65,1.61,3.65,3.69c0,.08-.02.16-.02.26h-6.85s0,.1,0,.1c0,1.94,1.39,3.39,3.27,3.39,1.35,0,2.58-.73,2.82-1.9h.72c-.33,1.5-1.8,2.52-3.58,2.52-2.37,0-3.9-1.89-3.91-4.01ZM168.86,300.82c-.1-1.55-1.34-2.76-2.95-2.75-1.51,0-2.87,1.1-3.15,2.76h6.1Z"/>
          <path class="cls-3" d="M172.09,298.81c.4-.76,1.1-1.18,2.05-1.18h.86s0,.61,0,.61h-.88c-1.27,0-2.04.83-2.04,2.23v4.87s-.68,0-.68,0v-7.71s.68,0,.68,0v1.18Z"/>
          <path class="cls-3" d="M179.26,303.09h.69c.11,1.15.99,1.83,2.2,1.83s2.12-.69,2.12-1.67c0-2.5-4.81-.89-4.81-3.69,0-1.43,1.22-2.1,2.55-2.1,1.48,0,2.58.79,2.72,2.15h-.68c-.14-.91-.88-1.58-2.02-1.57-.94,0-1.91.43-1.91,1.47,0,2.28,4.83.6,4.83,3.69,0,1.35-1.16,2.33-2.79,2.33s-2.74-.89-2.89-2.42Z"/>
          <path class="cls-3" d="M186.28,297.62l2.92,6.93,2.88-6.93h.73s-4.48,10.71-4.48,10.71h-.72s1.22-2.98,1.22-2.98l-3.29-7.72h.73Z"/>
          <path class="cls-3" d="M194.25,297.62h.69s0,1.4,0,1.4c.54-.96,1.51-1.58,2.72-1.58,1.83,0,3.06,1.29,3.06,3.37v4.51s-.68,0-.68,0v-4.49c0-1.58-.91-2.75-2.51-2.75s-2.58,1.09-2.58,2.79v4.46s-.7,0-.7,0v-7.71Z"/>
          <path class="cls-3" d="M201.77,297.61h1.61s0-2.17,0-2.17h.68s0,2.17,0,2.17h2.42s0,.6,0,.6h-2.42s0,4.89,0,4.89c0,1.08.54,1.59,1.58,1.59h.84s0,.62,0,.62h-.89c-1.5,0-2.21-.7-2.22-2.2v-4.91s-1.61,0-1.61,0v-.61Z"/>
          <path class="cls-3" d="M207.97,294.17h.69s0,4.84,0,4.84c.54-.96,1.51-1.58,2.72-1.58,1.83,0,3.06,1.29,3.06,3.37v4.51s-.68,0-.68,0v-4.49c0-1.58-.91-2.75-2.51-2.75s-2.58,1.09-2.58,2.79v4.46s-.7,0-.7,0v-11.15Z"/>
          <path class="cls-3" d="M216.2,301.47c0-2.36,1.83-4.05,3.9-4.05s3.65,1.61,3.65,3.69c0,.08-.02.16-.02.26h-6.85s0,.1,0,.1c0,1.94,1.39,3.39,3.27,3.39,1.35,0,2.58-.73,2.82-1.9h.72c-.33,1.5-1.8,2.52-3.58,2.52-2.37,0-3.9-1.89-3.91-4.01ZM223.05,300.78c-.1-1.55-1.34-2.76-2.95-2.75-1.51,0-2.87,1.1-3.15,2.76h6.1Z"/>
          <path class="cls-3" d="M224.95,303.06h.69c.11,1.15.99,1.83,2.2,1.83s2.12-.69,2.12-1.67c0-2.5-4.81-.89-4.81-3.69,0-1.43,1.22-2.1,2.55-2.1,1.48,0,2.58.79,2.72,2.15h-.68c-.14-.91-.88-1.58-2.02-1.57-.94,0-1.91.43-1.91,1.47,0,2.28,4.83.6,4.83,3.69,0,1.35-1.16,2.33-2.79,2.33s-2.74-.89-2.89-2.42Z"/>
          <path class="cls-3" d="M232.38,294.15h.86s0,1.48,0,1.48h-.86s0-1.48,0-1.48ZM233.16,297.59v7.71s-.68,0-.68,0v-7.71s.68,0,.68,0Z"/>
          <path class="cls-3" d="M235,303.05h.69c.11,1.15.99,1.83,2.2,1.83s2.12-.69,2.12-1.67c0-2.5-4.81-.89-4.81-3.69,0-1.43,1.22-2.1,2.55-2.1,1.48,0,2.58.79,2.72,2.15h-.68c-.14-.91-.88-1.58-2.02-1.57-.94,0-1.91.43-1.91,1.47,0,2.28,4.83.6,4.83,3.69,0,1.35-1.16,2.33-2.79,2.33s-2.74-.89-2.89-2.42Z"/>
          <path class="cls-3" d="M241.93,301.45c0-2.36,1.83-4.05,3.9-4.05s3.65,1.61,3.65,3.69c0,.08-.02.16-.02.26h-6.85s0,.1,0,.1c0,1.94,1.39,3.39,3.27,3.39,1.35,0,2.58-.73,2.82-1.9h.72c-.33,1.5-1.8,2.52-3.58,2.52-2.37,0-3.9-1.89-3.91-4.01ZM248.77,300.76c-.1-1.55-1.34-2.76-2.95-2.75-1.51,0-2.87,1.1-3.15,2.76h6.1Z"/>
          <path class="cls-3" d="M250.72,301.43c0-2.26,1.73-4.03,3.96-4.03,1.51,0,2.77.76,3.39,2v-5.27s.7,0,.7,0v11.15s-.69,0-.69,0v-1.83c-.62,1.24-1.88,2.01-3.39,2.01-2.23,0-3.97-1.73-3.97-4.03ZM254.72,304.81c1.94,0,3.36-1.4,3.36-3.4s-1.42-3.36-3.36-3.36-3.31,1.5-3.31,3.36,1.44,3.39,3.31,3.39Z"/>
          <path class="cls-3" d="M264.7,303.27c0-1.55,1.34-2.5,3.63-2.5h1.99s0-.38,0-.38c0-1.5-.89-2.4-2.41-2.4-1.24,0-2.32.88-2.39,2.01h-.7c.06-1.46,1.43-2.6,3.1-2.6,1.93,0,3.09,1.14,3.09,3.02v4.86s-.68,0-.68,0v-1.64c-.54,1.07-1.67,1.82-3.03,1.82-1.63,0-2.61-.89-2.61-2.18ZM267.35,304.86c1.74,0,2.99-1.36,2.99-2.96v-.57s-1.98,0-1.98,0c-1.9,0-2.98.72-2.98,1.93,0,.94.72,1.61,1.96,1.61Z"/>
          <path class="cls-3" d="M272.8,301.42c0-2.26,1.73-4.03,3.96-4.03,1.51,0,2.77.76,3.39,2v-5.27s.7,0,.7,0v11.15s-.69,0-.69,0v-1.83c-.62,1.24-1.88,2.01-3.39,2.01-2.23,0-3.97-1.73-3.97-4.03ZM276.8,304.79c1.94,0,3.36-1.4,3.36-3.4s-1.42-3.36-3.36-3.36-3.31,1.5-3.31,3.36,1.44,3.39,3.31,3.39Z"/>
          <path class="cls-3" d="M282.29,297.55h.78s2.87,6.81,2.87,6.81l2.86-6.82h.77s-3.29,7.71-3.29,7.71h-.7s-3.29-7.71-3.29-7.71Z"/>
          <path class="cls-3" d="M290.92,294.11h.86s0,1.48,0,1.48h-.86s0-1.48,0-1.48ZM291.7,297.55v7.71s-.68,0-.68,0v-7.71s.68,0,.68,0Z"/>
          <path class="cls-3" d="M293.58,301.4c0-2.25,1.77-4.03,3.98-4.03,1.66,0,3.15,1.08,3.46,2.53h-.7c-.29-1.1-1.45-1.89-2.77-1.89-1.85,0-3.28,1.5-3.28,3.4s1.44,3.38,3.28,3.37c1.29,0,2.5-.77,2.77-1.95h.7c-.27,1.56-1.81,2.6-3.45,2.6-2.21,0-3.98-1.75-3.99-4.03Z"/>
          <path class="cls-3" d="M302.22,301.41c0-2.36,1.83-4.05,3.9-4.05s3.65,1.61,3.65,3.69c0,.08-.02.16-.02.26h-6.85s0,.1,0,.1c0,1.94,1.39,3.39,3.27,3.39,1.35,0,2.58-.73,2.82-1.9h.72c-.33,1.5-1.8,2.52-3.58,2.52-2.37,0-3.9-1.89-3.91-4.01ZM309.07,300.72c-.1-1.55-1.34-2.76-2.95-2.75-1.51,0-2.87,1.1-3.15,2.76h6.1Z"/>
          <path class="cls-3" d="M314.42,297.53h1.67s0-1.21,0-1.21c0-1.5.7-2.23,2.2-2.23h.49s0,.59,0,.59h-.45c-1.03,0-1.56.51-1.56,1.61v1.24s2.01,0,2.01,0v.61s-2.01,0-2.01,0v7.1s-.68,0-.68,0v-7.1s-1.68,0-1.68,0v-.61Z"/>
          <path class="cls-3" d="M320.73,298.71c.4-.76,1.1-1.18,2.05-1.18h.86s0,.61,0,.61h-.88c-1.27,0-2.04.83-2.04,2.23v4.87s-.68,0-.68,0v-7.71s.68,0,.68,0v1.18Z"/>
          <path class="cls-3" d="M323.96,301.38c0-2.25,1.77-4.03,3.98-4.03s4,1.78,4,4.03-1.78,4.03-4,4.03-3.98-1.75-3.99-4.03ZM327.95,304.77c1.83,0,3.31-1.5,3.31-3.39s-1.48-3.39-3.31-3.39-3.3,1.5-3.29,3.4,1.44,3.39,3.3,3.39Z"/>
          <path class="cls-3" d="M333.82,297.52h.72s0,1.35,0,1.35c.56-1.07,1.59-1.53,2.55-1.53,1.35,0,2.29.7,2.69,1.89.48-1.24,1.66-1.9,2.87-1.9,1.86,0,2.95,1.24,2.95,3.31v4.57s-.68,0-.68,0v-4.48c0-1.7-.83-2.77-2.35-2.77-1.13,0-2.52.75-2.51,2.77v4.48s-.68,0-.68,0v-4.48c0-1.72-.88-2.77-2.39-2.77-1.11,0-2.47.72-2.47,2.81v4.44s-.68,0-.68,0v-7.71Z"/>
          <path class="cls-3" d="M352.6,303.38v1.83s-.7,0-.7,0v-11.15s.69,0,.69,0v5.27c.62-1.24,1.88-2.01,3.4-2.01,2.23,0,3.97,1.77,3.97,4.03s-1.73,4.03-3.96,4.03c-1.51,0-2.77-.76-3.39-2ZM355.97,304.74c1.88,0,3.31-1.48,3.31-3.4s-1.44-3.36-3.31-3.36-3.36,1.42-3.36,3.36,1.42,3.39,3.36,3.39Z"/>
          <path class="cls-3" d="M361.24,301.37c0-2.36,1.83-4.05,3.9-4.05s3.65,1.61,3.65,3.69c0,.08-.02.16-.02.26h-6.85s0,.1,0,.1c0,1.94,1.39,3.39,3.27,3.39,1.35,0,2.58-.73,2.82-1.9h.72c-.33,1.5-1.8,2.52-3.58,2.52-2.37,0-3.9-1.89-3.91-4.01ZM368.09,300.68c-.1-1.55-1.34-2.76-2.95-2.75-1.51,0-2.87,1.1-3.15,2.76h6.1Z"/>
          <path class="cls-3" d="M370.15,297.49l2.92,6.93,2.88-6.93h.73s-4.48,10.71-4.48,10.71h-.72s1.22-2.98,1.22-2.98l-3.29-7.72h.73Z"/>
          <path class="cls-3" d="M377.36,301.34c0-2.25,1.77-4.03,3.98-4.03s4,1.78,4,4.03-1.78,4.03-4,4.03-3.98-1.75-3.99-4.03ZM381.34,304.73c1.83,0,3.31-1.5,3.31-3.39s-1.48-3.39-3.31-3.39-3.3,1.5-3.29,3.4,1.44,3.39,3.3,3.39Z"/>
          <path class="cls-3" d="M387.2,297.48h.69s0,1.4,0,1.4c.54-.96,1.51-1.58,2.72-1.58,1.83,0,3.06,1.29,3.06,3.37v4.51s-.68,0-.68,0v-4.49c0-1.58-.91-2.75-2.51-2.75s-2.58,1.09-2.58,2.79v4.46s-.7,0-.7,0v-7.71Z"/>
          <path class="cls-3" d="M395.42,301.33c0-2.26,1.73-4.03,3.96-4.03,1.51,0,2.77.76,3.39,2v-5.27s.7,0,.7,0v11.15s-.69,0-.69,0v-1.83c-.62,1.24-1.88,2.01-3.39,2.01-2.23,0-3.97-1.73-3.97-4.03ZM399.42,304.71c1.94,0,3.36-1.4,3.36-3.4s-1.42-3.36-3.36-3.36-3.31,1.5-3.31,3.36,1.44,3.39,3.31,3.39Z"/>
          <path class="cls-3" d="M408.47,297.47h1.61s0-2.17,0-2.17h.68s0,2.17,0,2.17h2.42s0,.6,0,.6h-2.42s0,4.89,0,4.89c0,1.08.54,1.59,1.58,1.59h.84s0,.62,0,.62h-.89c-1.5,0-2.21-.7-2.22-2.2v-4.91s-1.61,0-1.61,0v-.61Z"/>
          <path class="cls-3" d="M414.68,294.02h.69s0,4.84,0,4.84c.54-.96,1.51-1.58,2.72-1.58,1.83,0,3.06,1.29,3.06,3.37v4.51s-.68,0-.68,0v-4.49c0-1.58-.91-2.75-2.51-2.75s-2.58,1.09-2.58,2.79v4.46s-.7,0-.7,0v-11.15Z"/>
          <path class="cls-3" d="M422.9,301.33c0-2.36,1.83-4.05,3.9-4.05s3.65,1.61,3.65,3.69c0,.08-.02.16-.02.26h-6.85s0,.1,0,.1c0,1.94,1.39,3.39,3.27,3.39,1.35,0,2.58-.73,2.82-1.9h.72c-.33,1.5-1.8,2.52-3.58,2.52-2.37,0-3.9-1.89-3.91-4.01ZM429.75,300.64c-.1-1.55-1.34-2.76-2.95-2.75-1.51,0-2.87,1.1-3.15,2.76h6.1Z"/>
          <path class="cls-3" d="M434.91,297.45h.78s2.87,6.81,2.87,6.81l2.86-6.82h.77s-3.29,7.71-3.29,7.71h-.7s-3.29-7.71-3.29-7.71Z"/>
          <path class="cls-3" d="M442.84,301.32c0-2.36,1.83-4.05,3.9-4.05s3.65,1.61,3.65,3.69c0,.08-.02.16-.02.26h-6.85s0,.1,0,.1c0,1.94,1.39,3.39,3.27,3.39,1.35,0,2.58-.73,2.82-1.9h.72c-.33,1.5-1.8,2.52-3.58,2.52-2.37,0-3.9-1.89-3.91-4.01ZM449.69,300.63c-.1-1.55-1.34-2.76-2.95-2.75-1.51,0-2.87,1.1-3.15,2.76h6.1Z"/>
          <path class="cls-3" d="M452.14,294h.86s0,1.48,0,1.48h-.86s0-1.48,0-1.48ZM452.93,297.44v7.71s-.68,0-.68,0v-7.71s.68,0,.68,0Z"/>
          <path class="cls-3" d="M456.1,305.15h-.68s0-11.15,0-11.15h.68s0,11.15,0,11.15Z"/>
          <path class="cls-3" d="M459.48,304.01v1.13s-1.13,0-1.13,0v-1.13s1.13,0,1.13,0Z"/>
        </g>
      </g>
      <path d="M490.32,2v322.29H2V2h488.32M492.32,0H0v326.29h492.32V0h0Z"/>
    </g>
  </g>
</svg>