<?xml version="1.0" encoding="UTF-8"?>
<svg id="Layer_2" data-name="Layer 2" xmlns="http://www.w3.org/2000/svg" viewBox="0 0 345 122.9">
  <g id="Layer_1-2" data-name="Layer 1">
    <g>
      <path d="M96.31,110.11c-4.38,5.14-10.69,8.26-17.34,7.44-2.67-.28-5.35-.75-8.04-.45-2.33.27-4.7.92-6.9,1.66-4.06,1.51-7.66.58-12.86,1.67-4.19.75-8.44,2.5-12.69,2.46-18.6-2.18-26.96-24.62-31.44-39.92-4.38-13.26-10.9-29.36-4.09-42.66,10.53-14.96,24.78-17.03,40.6-9.57,4.38,2.3,11.96,3.52,9.95-4.02-1.35-5.28-7.06-9.26-10.11-13.1-1.8-2.14-2.08-5.06-.3-6.79,5.4-4.47,9.29,4.5,13.87,5.96,2.8.77,5.07-3,8.34-5.78,5.07-3.96,12.73-7.85,18.8-6.85,10.48,3.23-1.91,14.77-7.33,16.98-4.76,2.91-13.12,2.24-14.68,6.4-1.12,3.57-1.73,9.71.69,12.64,2.12,1.18,4.79-.66,7.04-1.64,51.99-28.82,56.52,40.2,26.95,75.05l-.47.53ZM69.4,13.06c3.16-.24,9.16-2.08,9.28-5.94-3.28.39-7.32,3.11-9.34,5.78l.06.16Z"/>
      <g>
        <path d="M160.85,26.65c2.14-.07,3.92.23,5.35.91,1.43.68,2.55,1.68,3.37,3,.25.39.45.81.59,1.26.14.45.28.9.43,1.36.07.29.12.55.14.81s.06.5.13.75c0,.21.02.36.06.43.07.5.1,1.02.1,1.55v14.99c0,.68,0,1.33-.02,1.96-.02.62-.28,1.02-.78,1.2-.22.07-.46.11-.75.11h-3.75c-.43,0-.81-.03-1.15-.08-.34-.05-.6-.21-.77-.46-.14-.21-.22-.49-.24-.83-.02-.34-.03-.7-.03-1.1v-11.72c0-1.32-.05-2.54-.16-3.67-.11-1.12-.43-2.08-.97-2.86-.5-.71-1.23-1.21-2.19-1.5-.18-.07-.37-.11-.56-.11s-.4-.03-.61-.11c-.18-.03-.4-.05-.67-.03-.27.02-.47.05-.62.08-.14.03-.27.05-.37.05s-.22.02-.32.05c-.82.22-1.48.5-1.98.86-1.14.82-1.82,2.02-2.04,3.59-.21,1.57-.32,3.34-.32,5.3v10.92c0,.32-.05.59-.16.81-.18.39-.46.62-.86.69-.39.07-.87.11-1.44.11h-2.68c-.39,0-.79-.02-1.18-.05-.39-.03-.68-.16-.86-.38-.25-.32-.37-.78-.35-1.39s.03-1.18.03-1.71v-21.79c0-.39,0-.75.02-1.07.02-.32.12-.59.3-.81.07-.11.19-.19.35-.24s.33-.1.51-.13h.27c.18-.03.36-.06.56-.06h2.81c.29,0,.56.01.83.03s.51.06.72.13c.25.11.42.27.51.48.09.21.17.46.24.75.03.14.04.26.02.37s.01.22.08.32c.07.18.14.29.19.32.06.04.14.09.24.16.39.03.71-.1.97-.4.25-.3.52-.54.8-.72.97-.71,2.04-1.29,3.21-1.71.32-.1.65-.18.99-.21.34-.03.7-.09,1.1-.16.11-.03.27-.05.48-.03.21.02.36.01.43-.02Z"/>
        <path d="M203.99,40.03c.07.21.11.52.11.91s-.03.69-.11.91v.53c-.07.29-.1.57-.08.86s0,.57-.08.86c-.07.25-.13.48-.16.7-.03.21-.07.45-.11.69-.14.39-.26.79-.37,1.21s-.25.79-.43,1.15c-.75,1.71-1.73,3.11-2.95,4.18s-2.68,1.96-4.39,2.68c-.43.18-.87.31-1.31.4-.45.09-.9.19-1.36.3-.18.07-.38.11-.59.11s-.41.02-.59.05c-.11,0-.22,0-.35.03-.13.02-.24.02-.35.02-.18.03-.46.06-.86.08s-.69,0-.91-.08h-.53c-.18-.03-.37-.05-.56-.02-.2.02-.38-.01-.56-.08-.14-.04-.28-.06-.4-.06s-.28-.02-.46-.05c-.36-.11-.71-.2-1.07-.27-.36-.07-.7-.18-1.02-.32-.43-.14-.83-.29-1.2-.43-.38-.14-.76-.32-1.15-.54-1.25-.75-2.32-1.62-3.21-2.62s-1.64-2.2-2.25-3.59c-.18-.32-.31-.66-.4-1.02-.09-.36-.18-.73-.29-1.13-.07-.18-.11-.34-.11-.48s-.03-.3-.11-.48c-.07-.29-.1-.58-.1-.89s-.04-.6-.11-.88c-.03-.18-.05-.34-.05-.48v-.48c-.07-.21-.1-.52-.08-.91.02-.39.06-.69.13-.91v-.37c.03-.18.05-.37.03-.56-.02-.2,0-.38.08-.56.03-.18.05-.35.05-.51s.03-.33.11-.51c.14-.46.27-.92.37-1.36.11-.45.25-.89.43-1.31.64-1.46,1.41-2.68,2.3-3.67.89-.98,1.98-1.88,3.27-2.7.36-.18.73-.34,1.12-.48s.78-.3,1.18-.48c.46-.18.94-.3,1.45-.38.5-.07,1.02-.18,1.55-.32.29-.03.55-.05.81-.05s.5-.02.75-.05c2.07-.04,3.86.18,5.38.64,1.52.46,2.86,1.1,4.04,1.93.39.29.79.6,1.21.94.41.34.76.7,1.04,1.1.29.36.54.71.78,1.07.23.36.47.73.72,1.12.25.39.45.81.59,1.26s.3.92.48,1.42c.1.29.2.59.26.91.07.32.14.64.22.97.03.14.05.29.05.43s.02.29.05.43c.07.18.09.37.06.59-.03.21-.02.41.05.59ZM196.5,41.96c.03-.18.05-.44.05-.78s-.02-.6-.05-.78v-.43c-.07-.18-.11-.37-.11-.59s-.02-.41-.05-.59c0-.14-.02-.25-.06-.32-.07-.29-.13-.58-.18-.88-.06-.3-.14-.6-.24-.89-.39-.93-.85-1.72-1.39-2.38-.53-.66-1.25-1.19-2.14-1.58-.22-.07-.43-.14-.64-.19-.21-.06-.45-.12-.69-.19-.29-.07-.59-.1-.91-.08-.32.02-.64.03-.97.03-.11.07-.23.1-.37.08-.14-.02-.27-.01-.38.02-.25.07-.49.14-.72.19-.23.06-.44.14-.62.24-.89.39-1.61.95-2.17,1.69s-.99,1.58-1.31,2.54c-.11.36-.19.73-.24,1.12-.06.39-.12.79-.19,1.18-.04.18-.06.36-.06.54v.53c-.07.25-.1.63-.08,1.13.02.5.06.87.14,1.13v.48c.07.29.13.56.16.83s.09.54.16.83c.36,1.07.74,1.94,1.15,2.6.41.66,1.06,1.26,1.96,1.79.25.18.53.32.83.43.3.11.62.2.94.27.14.03.27.05.37.03.11-.02.23-.01.38.03.14.03.29.06.45.08s.31,0,.46-.03h.43c.29-.07.57-.13.86-.16.28-.03.55-.11.8-.22.93-.36,1.68-.84,2.25-1.44s1.05-1.36,1.45-2.25c.14-.36.25-.71.32-1.07.07-.36.16-.73.27-1.12.03-.14.05-.28.05-.4s.02-.26.05-.4v-.51c0-.16.02-.33.06-.51Z"/>
        <path d="M207.69,27.29h3.96c.39,0,.77.01,1.13.03.36.02.64.1.86.24.21.14.38.33.51.56.12.23.22.5.29.8.07.3.14.61.21.91.07.31.14.58.22.83.43,1.25.79,2.53,1.1,3.85.3,1.32.65,2.62,1.04,3.91.07.21.13.42.16.61.03.2.09.4.16.62.18.54.33,1.08.46,1.63.13.55.28,1.09.46,1.63.07.25.16.54.26.86.11.32.3.52.59.59.18.03.32-.06.43-.3.11-.23.2-.4.27-.51.18-.5.31-1.02.4-1.55.09-.54.22-1.05.4-1.55.11-.32.2-.65.27-.99.07-.34.14-.67.22-.99.25-.86.47-1.73.67-2.62.2-.89.42-1.76.67-2.62.1-.39.2-.77.26-1.13.07-.36.16-.71.27-1.07.14-.54.29-1.18.43-1.93s.41-1.27.81-1.55c.25-.14.53-.22.85-.24s.68-.03,1.07-.03h2.78c.43,0,.82.02,1.18.05.36.04.66.14.91.32.18.14.3.33.38.56.07.23.14.45.21.67.14.5.26.99.35,1.47s.22.97.4,1.47c.43,1.39.79,2.82,1.1,4.28.3,1.46.65,2.89,1.05,4.28.14.43.26.86.35,1.31.09.45.2.87.35,1.26.14.5.29.87.43,1.13.03.03.08.06.14.08.05.02.1.06.13.13.32-.03.53-.15.62-.35.09-.2.18-.42.29-.67.22-.57.39-1.17.54-1.79s.3-1.24.48-1.85c.11-.36.2-.7.27-1.04.07-.34.16-.69.27-1.05.39-1.1.71-2.23.96-3.37.25-1.14.55-2.25.91-3.32.18-.5.34-1.1.48-1.79.14-.69.38-1.17.7-1.42.25-.18.54-.28.86-.32.32-.03.68-.05,1.07-.05h3.75c.32,0,.59.03.81.11.36.14.55.37.59.69.03.32-.02.68-.16,1.07-.25.82-.49,1.62-.72,2.38s-.49,1.56-.78,2.38c-.85,2.6-1.68,5.22-2.49,7.84-.8,2.62-1.63,5.24-2.49,7.84-.18.57-.35,1.13-.51,1.69s-.33,1.12-.51,1.69c-.14.39-.28.74-.4,1.04s-.37.53-.72.67c-.36.18-.82.25-1.39.22s-1.09-.06-1.55-.06c-.57,0-1.29.01-2.14.03-.85.02-1.46-.06-1.82-.24-.21-.18-.37-.38-.48-.62-.11-.23-.2-.49-.27-.78-.18-.5-.31-.99-.4-1.47-.09-.48-.21-.97-.35-1.47-.11-.32-.2-.65-.27-.99-.07-.34-.18-.69-.32-1.05-.32-1.04-.6-2.11-.83-3.21-.23-1.1-.53-2.19-.88-3.27-.22-.64-.39-1.32-.54-2.03s-.43-1.29-.86-1.71c-.36,0-.58.14-.67.4-.09.27-.19.55-.29.83-.25.71-.44,1.43-.56,2.14s-.31,1.43-.56,2.14c-.39,1.29-.72,2.6-.99,3.93s-.6,2.65-.99,3.93c-.07.25-.14.54-.22.86-.07.32-.14.62-.21.91-.07.29-.17.55-.29.81-.13.25-.28.45-.46.59-.18.15-.43.23-.75.24s-.68.02-1.07.02h-4.39c-.21-.03-.41-.07-.59-.1-.18-.04-.34-.09-.48-.16-.25-.18-.43-.43-.54-.75-.1-.32-.21-.64-.32-.96-.18-.54-.36-1.09-.53-1.66-.18-.57-.36-1.14-.54-1.71-.89-2.64-1.74-5.28-2.54-7.92-.8-2.64-1.63-5.28-2.49-7.92-.25-.71-.48-1.41-.69-2.09-.22-.68-.43-1.36-.64-2.04-.07-.21-.15-.51-.24-.88-.09-.38-.06-.67.08-.89.11-.14.34-.29.7-.43.21,0,.36-.02.43-.05Z"/>
        <path d="M273.32,17.17c.25.29.38.71.38,1.28v3.11c0,.5-.13.84-.38,1.02-.21.18-.49.29-.83.32-.34.04-.7.06-1.1.06h-3c-.39,0-.74-.02-1.05-.06-.3-.03-.56-.14-.77-.32-.14-.11-.24-.31-.3-.61-.05-.3-.09-.64-.1-1.02-.02-.38-.02-.76,0-1.15.02-.39.02-.73.02-1.01s.01-.54.03-.78.08-.44.19-.62c.07-.14.17-.25.29-.32.13-.07.26-.14.4-.21.07,0,.16-.01.27-.03s.2-.03.27-.03h3.91c.36,0,.7.02,1.02.06s.57.14.75.32ZM273.7,52.02c0,.71-.02,1.32-.06,1.82-.03.5-.36.84-.96,1.02-.22.07-.45.1-.7.08-.25-.02-.52-.02-.8-.02h-3c-.32,0-.63-.02-.94-.06-.3-.03-.53-.14-.67-.32-.22-.25-.33-.56-.35-.94-.02-.37-.03-.77-.03-1.2v-23.66c0-.36.07-.64.22-.86.21-.25.52-.41.91-.48.07-.03.17-.05.29-.03s.22.01.3-.03h2.68c.21,0,.45,0,.72-.02s.49-.01.67.02h.43c.21.07.41.13.59.16.18.04.32.14.43.32.14.18.22.43.24.75.02.32.03.66.03,1.01v22.43Z"/>
        <path d="M289.7,26.59c2.68-.07,5,.22,6.98.89,1.98.66,3.49,1.79,4.52,3.4.25.39.47.79.67,1.21.2.41.37.86.51,1.36.07.22.11.45.11.7s-.03.46-.11.64c-.14.22-.34.36-.59.43-.18.07-.39.11-.64.11h-3.11c-.25,0-.5.01-.75.03s-.48-.01-.7-.08c-.36-.07-.62-.22-.8-.43-.18-.22-.34-.44-.48-.67-.14-.23-.28-.48-.4-.75-.13-.27-.31-.49-.56-.67-.36-.29-.7-.5-1.04-.64-.34-.14-.76-.27-1.26-.37-.25-.07-.62-.13-1.1-.16s-.85-.02-1.1.05h-.37c-.18.03-.35.06-.51.08s-.33.05-.51.08c-.61.18-1.1.42-1.47.72-.37.31-.63.76-.77,1.37-.07.25-.07.48,0,.7.07.21.14.39.21.53.25.43.54.77.88,1.02.34.25.74.46,1.21.64.68.29,1.42.53,2.22.72.8.2,1.62.37,2.46.54.84.16,1.66.34,2.46.53.8.2,1.56.44,2.27.72.32.14.63.26.94.35.3.09.6.22.89.4.68.43,1.29.89,1.85,1.39.55.5.99,1.12,1.31,1.88.11.25.2.5.27.75.07.25.14.52.21.8.03.21.06.54.08.99s.01.79-.02,1.05v.26c-.07.22-.12.42-.14.62s-.05.38-.08.56c-.25,1.07-.64,2.02-1.18,2.84-.57.86-1.27,1.55-2.09,2.09-.82.54-1.75,1-2.78,1.39-.39.18-.81.3-1.26.37-.45.07-.88.16-1.31.27-.32.07-.65.12-.99.14-.34.02-.67.06-.99.13h-.97c-.21.07-.58.11-1.1.11s-.88-.04-1.09-.11c-.11,0-.23-.01-.35-.03-.13-.02-.26-.02-.4-.02-.43-.07-.86-.13-1.29-.16-.43-.04-.84-.11-1.23-.22-1.39-.39-2.62-.85-3.69-1.37-1.07-.52-1.98-1.29-2.73-2.33-.5-.68-.93-1.46-1.28-2.36-.07-.21-.14-.5-.22-.85-.07-.18-.13-.43-.16-.75-.03-.32-.02-.59.06-.81.1-.25.28-.43.53-.53.18-.07.39-.11.64-.11h4.18c.28,0,.53.03.75.11.39.14.65.37.77.69s.28.66.46,1.02c.07.18.21.41.4.7s.37.46.51.53c.43.36.84.63,1.23.83.39.2.89.39,1.5.56.18.07.36.1.54.08s.36-.01.54.02c.28.07.6.1.93.08.34-.02.63-.06.89-.14.18-.03.35-.05.51-.05s.33-.03.51-.11c.5-.18.95-.39,1.36-.64.41-.25.74-.57.99-.97.18-.29.32-.73.43-1.34.07-.25.07-.48,0-.69-.07-.22-.14-.39-.21-.54-.25-.5-.56-.87-.94-1.13-.37-.25-.81-.48-1.31-.69-.68-.29-1.39-.52-2.14-.7s-1.5-.37-2.25-.59c-.29-.07-.58-.13-.88-.16s-.6-.09-.89-.16c-1.14-.32-2.23-.63-3.27-.94s-1.98-.76-2.84-1.37c-1-.71-1.73-1.68-2.19-2.89-.07-.25-.14-.59-.22-1.02-.07-.25-.13-.55-.16-.91-.03-.36-.02-.68.05-.96.07-.18.09-.33.06-.46s-.02-.28.05-.46c.07-.39.15-.76.24-1.09.09-.34.21-.67.35-.99.46-1.03,1.1-1.87,1.93-2.52.82-.64,1.75-1.16,2.78-1.55.39-.18.8-.31,1.23-.4s.87-.19,1.34-.3c.22-.07.43-.12.64-.13.22-.02.43-.05.64-.08.29-.03.59-.05.91-.05s.62-.02.91-.06Z"/>
        <path d="M148.8,65.5h3.59c.54,0,1.01.02,1.42.08.41.05.7.28.89.67.07.18.1.39.1.64v3.16c0,.18,0,.39-.02.62-.02.23-.01.44.02.62v.59c0,.29.02.54.06.77.03.23.12.44.26.62.25.32.7.49,1.37.51.66.02,1.29.03,1.9.03h.64c.21,0,.41.03.59.1.39.18.61.5.67.97.05.46.08.98.08,1.55,0,.25,0,.5.02.75.02.25,0,.46-.08.64-.18.57-.55.87-1.12.91-.57.03-1.21.05-1.93.05-.14,0-.3,0-.46-.03-.16-.02-.29,0-.4.03-.14.03-.27.05-.37.03-.11-.02-.22,0-.32.08-.29.07-.49.22-.61.45-.13.23-.22.51-.3.83-.03.18-.03.38,0,.59.03.22.03.41,0,.59v9.58c0,.89.03,1.67.08,2.33.06.66.28,1.24.67,1.74.18.22.42.37.72.46.3.09.61.17.93.24.11.03.22.05.35.03.13-.02.22-.01.3.02h.59c.39,0,.73.02,1.02.06.28.03.52.18.69.43.14.22.22.49.22.83v1.04c0,.75-.01,1.44-.03,2.06-.02.63-.31,1.05-.88,1.26-.18.07-.34.1-.48.08s-.3.01-.48.08h-.54c-.07,0-.18,0-.32-.02-.14-.02-.26-.01-.37.02-.18.04-.37.05-.56.03-.2-.02-.39-.03-.56-.03s-.36.01-.53.03c-.18.02-.34.01-.48-.03h-.59c-.18-.03-.37-.05-.59-.05s-.41-.02-.59-.05c-.25-.04-.48-.07-.7-.11-.22-.03-.43-.07-.64-.11-.39-.1-.77-.23-1.13-.37-.36-.14-.7-.3-1.02-.48-.11-.07-.21-.15-.32-.24-.11-.09-.23-.18-.38-.29-.07-.07-.16-.15-.26-.24-.11-.09-.2-.17-.27-.24-.5-.68-.87-1.43-1.13-2.25-.07-.14-.1-.28-.08-.4.02-.12.01-.28-.02-.45-.04-.07-.06-.16-.06-.27s-.02-.2-.05-.27v-.53c-.03-.14-.05-.3-.03-.48.02-.18.03-.36.03-.53v-12.85c0-.25,0-.5.03-.75.02-.25-.01-.48-.08-.69-.14-.5-.39-.82-.75-.97-.39-.18-.89-.23-1.5-.16-.61.07-1.12.02-1.55-.16-.29-.11-.46-.27-.54-.48-.07-.22-.14-.48-.21-.81v-1.12c0-.64.03-1.16.11-1.55.07-.39.37-.66.91-.8.14-.07.29-.1.43-.08.14.02.3.03.48.03.53,0,1.04-.03,1.5-.08.46-.06.78-.26.96-.62.11-.25.17-.54.19-.86s.03-.64.03-.96v-4.23c0-.32.03-.59.11-.8.18-.36.44-.59.8-.7.07-.03.17-.05.29-.03.13.02.22.01.3-.02Z"/>
        <path d="M164.97,63.25h4.68c.34,0,.61.09.83.26.25.15.41.45.48.91,0,.18,0,.35.03.51.02.16.02.33.02.51v8.09c0,.25,0,.53-.02.86-.02.32-.01.63.02.93s.12.55.24.75c.13.2.31.3.56.3.07-.07.14-.11.21-.11s.14-.03.21-.11c.25-.18.48-.38.7-.61.22-.23.46-.44.75-.62.39-.29.81-.53,1.23-.75.43-.21.89-.43,1.39-.64.14-.07.29-.11.43-.11s.3-.03.48-.11c.36-.1.73-.18,1.13-.21.39-.03.82-.05,1.28-.05h.51c.16,0,.33.02.51.05h.32c.25.03.49.07.72.11.23.03.47.07.72.1.61.18,1.17.37,1.69.56.52.2,1.02.44,1.52.72.79.5,1.42,1.13,1.9,1.9.48.77.88,1.62,1.2,2.54.07.29.14.58.19.88s.12.6.19.89c.07.32.11.66.11,1.02s.03.71.1,1.07v.59c.07.29.09.6.06.94-.04.34-.06.65-.06.93v12.15c0,.61.02,1.25.06,1.93.03.68-.09,1.2-.38,1.55-.18.22-.46.33-.86.35-.39.02-.78.03-1.18.03h-2.68c-.57,0-1.05-.03-1.44-.08-.39-.05-.68-.28-.86-.67-.11-.21-.16-.47-.16-.78v-12.5c0-1.5-.07-2.88-.22-4.15-.14-1.27-.59-2.25-1.34-2.97-.5-.5-1.1-.86-1.82-1.07-.14-.03-.26-.06-.35-.06s-.21-.02-.35-.05c-.14-.03-.33-.07-.56-.11-.23-.03-.42-.02-.56.06-.21.03-.44.05-.67.05s-.46.03-.67.11c-.82.21-1.53.53-2.14.96-.64.5-1.12,1.17-1.42,2.01-.31.84-.51,1.78-.62,2.84s-.15,2.17-.13,3.35c.02,1.18.02,2.32.02,3.43v7.95c0,.52-.09.92-.27,1.21-.1.14-.25.24-.43.29-.18.06-.36.12-.54.19-.22.07-.46.09-.72.05-.27-.03-.53-.05-.78-.05-.32,0-.7,0-1.13.03-.43.02-.85.02-1.28.02s-.82-.02-1.18-.08c-.36-.05-.63-.15-.81-.29-.21-.18-.33-.46-.35-.83-.02-.38-.02-.76-.02-1.15v-32.18c0-.46-.02-1.02-.06-1.66-.03-.64.04-1.1.22-1.39.21-.25.5-.43.86-.54.07-.03.14-.05.21-.03.07.02.14.01.22-.02Z"/>
        <path d="M220.85,87.28c.07.29.07.61,0,.97-.07.36-.2.59-.37.69-.18.15-.44.24-.78.3s-.71.09-1.12.11c-.41.02-.82.02-1.23,0-.41-.02-.77-.03-1.09-.03h-13.79c-.23,0-.44.03-.61.11-.29.14-.47.29-.54.43-.07.07-.14.21-.21.4-.07.2-.09.38-.06.56.07.22.12.42.14.62.02.2.06.4.13.61.29.86.63,1.56,1.05,2.12.41.55.97,1.05,1.68,1.47.29.18.58.3.89.35.3.06.62.14.94.24.29.07.68.13,1.18.16.5.03.93.02,1.28-.06h.48c.36-.07.69-.15.99-.24.3-.09.6-.19.88-.29.36-.18.76-.41,1.21-.7s.77-.57.99-.86c.18-.25.37-.49.56-.72.2-.23.44-.4.72-.51.36-.18.81-.26,1.37-.24s1.06.02,1.53.02c.21,0,.44,0,.67-.02.23-.02.44,0,.62.08h.53c.36.07.61.16.75.27.14.07.22.23.24.48s0,.46-.08.64c-.18.5-.37.95-.59,1.34-.21.39-.46.78-.75,1.18-.78,1.18-1.68,2.12-2.68,2.84s-2.25,1.32-3.75,1.82c-.39.14-.78.23-1.18.27s-.8.11-1.23.22c-.14.03-.3.04-.46.02s-.31,0-.45.03h-.59c-.18.07-.38.1-.62.08s-.44-.05-.61-.08c-.29-.03-.54-.03-.75,0-.21.03-.45.02-.69-.05-.18-.07-.38-.11-.59-.11s-.41-.03-.59-.11c-.39-.07-.78-.15-1.18-.24s-.75-.22-1.07-.4c-.39-.14-.76-.28-1.1-.4-.34-.13-.65-.28-.94-.46-1.14-.71-2.16-1.54-3.05-2.49-.9-.94-1.63-2.04-2.2-3.29-.18-.39-.32-.79-.43-1.2-.11-.41-.25-.83-.43-1.26-.03-.14-.05-.28-.05-.4s-.02-.26-.06-.4c-.14-.43-.23-.89-.26-1.39-.04-.5-.07-1-.11-1.5,0-.18-.01-.38-.03-.59-.02-.22-.01-.41.03-.59v-.64l.16-1.29c.14-.61.27-1.2.37-1.77.11-.57.27-1.1.48-1.61,1.53-3.71,4.14-6.33,7.81-7.87.5-.21,1.01-.37,1.53-.45.52-.09,1.06-.21,1.63-.35.29-.03.55-.05.81-.05s.52-.02.8-.06c1.82-.03,3.38.17,4.68.62s2.47,1.02,3.51,1.74c.32.21.64.46.97.72.32.27.61.55.86.83.1.18.25.32.43.43.29.39.55.79.81,1.21.25.41.52.83.8,1.26.18.32.33.65.46.99.13.34.26.7.4,1.1.18.46.32.94.43,1.45.11.5.23,1,.37,1.5.07.29.1.6.08.94-.02.34.01.65.08.93v.59ZM212.82,84.12c.25-.36.28-.79.08-1.31-.2-.52-.35-.9-.46-1.15-.5-.97-1.16-1.7-1.98-2.22-.82-.52-1.97-.79-3.43-.83-.11.07-.23.09-.38.05-.14-.03-.27-.03-.37,0-.18.07-.38.12-.59.14-.22.02-.41.06-.59.13-1.57.5-2.73,1.48-3.48,2.95-.07.14-.15.33-.24.56-.09.23-.15.46-.19.7s-.02.45.03.67c.05.21.17.39.35.54.29.18.68.26,1.18.26h7.39c.5,0,1.03,0,1.58-.02.55-.02.92-.17,1.09-.46Z"/>
        <path d="M242.86,65.5h3.59c.54,0,1.01.02,1.42.08.41.05.7.28.89.67.07.18.1.39.1.64v3.16c0,.18,0,.39-.02.62-.02.23-.01.44.02.62v.59c0,.29.02.54.06.77.03.23.12.44.26.62.25.32.7.49,1.37.51.66.02,1.29.03,1.9.03h.64c.21,0,.41.03.59.1.39.18.61.5.67.97.05.46.08.98.08,1.55,0,.25,0,.5.02.75.02.25,0,.46-.08.64-.18.57-.55.87-1.12.91-.57.03-1.21.05-1.93.05-.14,0-.3,0-.46-.03-.16-.02-.29,0-.4.03-.14.03-.27.05-.37.03-.11-.02-.22,0-.32.08-.29.07-.49.22-.61.45-.13.23-.22.51-.3.83-.03.18-.03.38,0,.59.03.22.03.41,0,.59v9.58c0,.89.03,1.67.08,2.33.06.66.28,1.24.67,1.74.18.22.42.37.72.46.3.09.61.17.93.24.11.03.22.05.35.03.13-.02.22-.01.3.02h.59c.39,0,.73.02,1.02.06.28.03.52.18.69.43.14.22.22.49.22.83v1.04c0,.75-.01,1.44-.03,2.06-.02.63-.31,1.05-.88,1.26-.18.07-.34.1-.48.08s-.3.01-.48.08h-.54c-.07,0-.18,0-.32-.02-.14-.02-.26-.01-.37.02-.18.04-.37.05-.56.03-.2-.02-.39-.03-.56-.03s-.36.01-.53.03c-.18.02-.34.01-.48-.03h-.59c-.18-.03-.37-.05-.59-.05s-.41-.02-.59-.05c-.25-.04-.48-.07-.7-.11-.22-.03-.43-.07-.64-.11-.39-.1-.77-.23-1.13-.37-.36-.14-.7-.3-1.02-.48-.11-.07-.21-.15-.32-.24-.11-.09-.23-.18-.38-.29-.07-.07-.16-.15-.26-.24-.11-.09-.2-.17-.27-.24-.5-.68-.87-1.43-1.13-2.25-.07-.14-.1-.28-.08-.4.02-.12.01-.28-.02-.45-.04-.07-.06-.16-.06-.27s-.02-.2-.05-.27v-.53c-.03-.14-.05-.3-.03-.48.02-.18.03-.36.03-.53v-12.85c0-.25,0-.5.03-.75.02-.25-.01-.48-.08-.69-.14-.5-.39-.82-.75-.97-.39-.18-.89-.23-1.5-.16-.61.07-1.12.02-1.55-.16-.29-.11-.46-.27-.54-.48-.07-.22-.14-.48-.21-.81v-1.12c0-.64.03-1.16.11-1.55.07-.39.37-.66.91-.8.14-.07.29-.1.43-.08.14.02.3.03.48.03.53,0,1.04-.03,1.5-.08.46-.06.78-.26.96-.62.11-.25.17-.54.19-.86s.03-.64.03-.96v-4.23c0-.32.03-.59.11-.8.18-.36.44-.59.8-.7.07-.03.17-.05.29-.03.13.02.22.01.3-.02Z"/>
        <path d="M264.91,63.57c.25.29.38.71.38,1.28v3.11c0,.5-.13.84-.38,1.02-.21.18-.49.29-.83.32-.34.04-.7.06-1.1.06h-3c-.39,0-.74-.02-1.05-.06-.3-.03-.56-.14-.77-.32-.14-.11-.24-.31-.3-.61-.05-.3-.09-.64-.1-1.02-.02-.38-.02-.76,0-1.15.02-.39.02-.73.02-1.01s.01-.54.03-.78.08-.44.19-.62c.07-.14.17-.25.29-.32.13-.07.26-.14.4-.21.07,0,.16-.01.27-.03s.2-.03.27-.03h3.91c.36,0,.7.02,1.02.06s.57.14.75.32ZM265.29,98.42c0,.71-.02,1.32-.06,1.82-.03.5-.36.84-.96,1.02-.22.07-.45.1-.7.08-.25-.02-.52-.02-.8-.02h-3c-.32,0-.63-.02-.94-.06-.3-.03-.53-.14-.67-.32-.22-.25-.33-.56-.35-.94-.02-.37-.03-.77-.03-1.2v-23.66c0-.36.07-.64.22-.86.21-.25.52-.41.91-.48.07-.03.17-.05.29-.03s.22.01.3-.03h2.68c.21,0,.45,0,.72-.02s.49-.01.67.02h.43c.21.07.41.13.59.16.18.04.32.14.43.32.14.18.22.43.24.75.02.32.03.66.03,1.01v22.43Z"/>
        <path d="M286.59,73.05c1.32-.04,2.48.1,3.48.43,1,.32,1.88.77,2.62,1.34.29.22.54.47.77.75.23.29.49.57.78.86.07.07.19.17.35.3s.33.15.51.08c.39-.11.77-.37,1.12-.78.36-.41.7-.72,1.02-.94.5-.39,1.04-.72,1.61-.99s1.21-.53,1.93-.78c.29-.07.63-.13,1.05-.18.41-.06.84-.09,1.28-.11s.87-.01,1.29.03c.41.03.78.09,1.1.16.18.03.34.05.48.05s.3.03.48.11c.5.14.98.29,1.45.43s.89.34,1.29.59c1.5.93,2.62,2.28,3.37,4.07.14.32.25.65.32.99.07.34.14.67.22.99.03.25.06.48.08.7.02.21.05.43.08.64v.54c.03.21.05.46.03.75-.02.29-.03.55-.03.8v13.54c0,.29,0,.62.03.99.02.37.02.73,0,1.07-.02.34-.06.66-.14.96-.07.3-.18.51-.32.62-.21.18-.49.28-.83.29-.34.02-.7.03-1.1.03h-2.84c-.5,0-.94-.03-1.34-.11-.39-.07-.66-.27-.8-.59-.11-.25-.16-.53-.16-.83v-13.36c0-.18,0-.38.02-.59s0-.41-.08-.59v-1.07c0-.22-.02-.43-.05-.64-.04-.14-.06-.29-.06-.45s-.02-.31-.05-.46c-.14-.53-.29-1.01-.45-1.42-.16-.41-.4-.77-.72-1.1-.5-.5-1.1-.85-1.82-1.07-.14-.03-.27-.04-.38-.02-.1.02-.23-.01-.37-.08-.14-.04-.31-.06-.51-.08-.2-.02-.38,0-.56.03-.22.07-.43.11-.64.11s-.43.03-.64.11c-1.04.36-1.78.89-2.25,1.6-.61.82-.97,1.85-1.1,3.08-.13,1.23-.19,2.58-.19,4.04v12.1c0,.36-.09.64-.27.85-.18.25-.44.4-.77.46-.34.05-.72.08-1.15.08h-2.89c-.32,0-.63,0-.94-.03-.3-.02-.56-.06-.77-.13-.36-.18-.56-.46-.62-.86-.05-.39-.08-.84-.08-1.34v-12.95c0-1.04-.03-2.01-.11-2.95-.07-.93-.3-1.69-.7-2.3-.29-.5-.65-.87-1.09-1.13-.45-.25-.99-.46-1.63-.64-.14-.03-.29-.05-.43-.03s-.3.01-.48-.02c-.39-.07-.77-.04-1.13.1-.07,0-.14.01-.21.03-.07.02-.14.03-.21.03-.57.18-1.13.48-1.66.91-.57.43-1.01.92-1.31,1.47s-.52,1.18-.64,1.88c-.13.69-.2,1.45-.22,2.28-.02.82-.02,1.71-.02,2.68v11.46c0,.32-.06.61-.16.85-.14.32-.41.52-.81.59-.39.07-.84.11-1.34.11h-2.78c-.36,0-.7,0-1.04-.03-.34-.02-.62-.1-.83-.24-.32-.18-.49-.51-.51-.99s-.03-.99-.03-1.53v-22.54c0-.39.01-.74.03-1.05s.1-.56.24-.78c.18-.21.46-.36.86-.43h.32c.18-.03.37-.06.56-.06h2.76c.29,0,.56.01.83.03.27.02.51.06.72.13.29.11.47.29.56.54.09.25.17.54.24.86.03.1.05.21.03.29-.02.09,0,.17.08.24.03.11.08.19.13.24.06.06.12.12.19.19.43.03.78-.1,1.07-.4s.55-.54.81-.72c.5-.36,1.01-.68,1.52-.97.52-.29,1.08-.52,1.69-.7.32-.1.64-.18.97-.21s.66-.09,1.02-.16c.1-.03.26-.05.48-.03.21.02.36.01.43-.02Z"/>
        <path d="M344.94,87.28c.07.29.07.61,0,.97-.07.36-.2.59-.37.69-.18.15-.44.24-.78.3s-.71.09-1.12.11c-.41.02-.82.02-1.23,0-.41-.02-.77-.03-1.09-.03h-13.79c-.23,0-.44.03-.61.11-.29.14-.47.29-.54.43-.07.07-.14.21-.21.4-.07.2-.09.38-.06.56.07.22.12.42.14.62.02.2.06.4.13.61.29.86.63,1.56,1.05,2.12.41.55.97,1.05,1.68,1.47.29.18.58.3.89.35.3.06.62.14.94.24.29.07.68.13,1.18.16.5.03.93.02,1.28-.06h.48c.36-.07.69-.15.99-.24.3-.09.6-.19.88-.29.36-.18.76-.41,1.21-.7s.77-.57.99-.86c.18-.25.37-.49.56-.72.2-.23.44-.4.72-.51.36-.18.81-.26,1.37-.24s1.06.02,1.53.02c.21,0,.44,0,.67-.02.23-.02.44,0,.62.08h.53c.36.07.61.16.75.27.14.07.22.23.24.48s0,.46-.08.64c-.18.5-.37.95-.59,1.34-.21.39-.46.78-.75,1.18-.78,1.18-1.68,2.12-2.68,2.84s-2.25,1.32-3.75,1.82c-.39.14-.78.23-1.18.27s-.8.11-1.23.22c-.14.03-.3.04-.46.02s-.31,0-.45.03h-.59c-.18.07-.38.1-.62.08s-.44-.05-.61-.08c-.29-.03-.54-.03-.75,0-.21.03-.45.02-.69-.05-.18-.07-.38-.11-.59-.11s-.41-.03-.59-.11c-.39-.07-.78-.15-1.18-.24s-.75-.22-1.07-.4c-.39-.14-.76-.28-1.1-.4-.34-.13-.65-.28-.94-.46-1.14-.71-2.16-1.54-3.05-2.49-.9-.94-1.63-2.04-2.2-3.29-.18-.39-.32-.79-.43-1.2-.11-.41-.25-.83-.43-1.26-.03-.14-.05-.28-.05-.4s-.02-.26-.06-.4c-.14-.43-.23-.89-.26-1.39-.04-.5-.07-1-.11-1.5,0-.18-.01-.38-.03-.59-.02-.22-.01-.41.03-.59v-.64l.16-1.29c.14-.61.27-1.2.37-1.77.11-.57.27-1.1.48-1.61,1.53-3.71,4.14-6.33,7.81-7.87.5-.21,1.01-.37,1.53-.45.52-.09,1.06-.21,1.63-.35.29-.03.55-.05.81-.05s.52-.02.8-.06c1.82-.03,3.38.17,4.68.62s2.47,1.02,3.51,1.74c.32.21.64.46.97.72.32.27.61.55.86.83.1.18.25.32.43.43.29.39.55.79.81,1.21.25.41.52.83.8,1.26.18.32.33.65.46.99.13.34.26.7.4,1.1.18.46.32.94.43,1.45.11.5.23,1,.37,1.5.07.29.1.6.08.94-.02.34.01.65.08.93v.59ZM336.91,84.12c.25-.36.28-.79.08-1.31-.2-.52-.35-.9-.46-1.15-.5-.97-1.16-1.7-1.98-2.22-.82-.52-1.97-.79-3.43-.83-.11.07-.23.09-.38.05-.14-.03-.27-.03-.37,0-.18.07-.38.12-.59.14-.22.02-.41.06-.59.13-1.57.5-2.73,1.48-3.48,2.95-.07.14-.15.33-.24.56-.09.23-.15.46-.19.7s-.02.45.03.67c.05.21.17.39.35.54.29.18.68.26,1.18.26h7.39c.5,0,1.03,0,1.58-.02.55-.02.92-.17,1.09-.46Z"/>
      </g>
    </g>
  </g>
</svg>