<?xml version="1.0" encoding="UTF-8"?>
<svg id="Layer_2" data-name="Layer 2" xmlns="http://www.w3.org/2000/svg" viewBox="0 0 358.93 96.48">
  <g id="Layer_1-2" data-name="Layer 1">
    <g>
      <path d="M28.76,33.68c1.13-.28,2.53-.91,3.2-1.33.43-.28.53-.44.65-.82,1.04-3.63,7.88-27.79,8.85-31.13.07-.43.95-.46,1.27-.36,2.93.43,3.55,3.65,5.13,5.72,4.18,6.52,8.69,13.91,15.32,17.69,1.04,1.04,1.09,2.81,2.53,3.18,16.31,2.42,35.06,1.23,51.13,1.99,5.07.22,3.1,3-.08,4.74-8.78,5.45-17.42,11.78-26.13,16.95-.67.49-2.01.91-1.28,1.74,2.62,4.61,18.33,30.19,19.95,33.58-.44,1.66-1.97,2.62-3.76,1.5-16.68-7.86-34.21-14.4-51.81-20.06-1.5-.45-3.05-.5-4.49.08-5.43,2.42-10.43,7.35-16.24,9.75-1.61.65-2.94,1.18-4.44,2.19-1.92,1.24-4.69,3.04-6.77,3.8-2.05.86-2.9.08-2.82-2-.7-7,8.02-25.2,1.94-29.1C15.44,47.45,1.55,41.99,0,34.93c-.02-.96.94-1.24,1.79-1.28,8.67-.49,18.39,1.33,26.8.08l.17-.04Z"/>
      <path d="M225.44,33.69c.63.71,1.6,2.07.62,2.84-2.83,2.92-16.19,15.94-18.69,18.75-.16.5.75,1.14,1.17,1.58,5.94,5.43,14.02,13.22,20.44,16.96,2.29,1.01,2.44,3.5,3.87,5.4.56.88,1.68,1.91.93,2.78-.71.5-2.01.31-2.95.18-12.07-1.22-23.9-5.33-36.05-5.19-.97.16-1.88.58-2.73,1.07-9.57,5.39-19.21,11.17-27.67,18.04-1.75,1.42-2.51-1.45-3.35-2.75-.31-.61-.44-.88-.52-1.45-.29-2.92-1.67-17.87-1.99-20.74-.03-.13-.07-.2-.13-.26-.67-.32-1.27-.39-2.33-.75-8-2.52-30.82-8.98-33.59-10.21-.87-.68-3.73-2.19-1.93-3.69,3.69-3.53,8.65-5.43,13.1-7.87.99-.56,1.91-1.22,2.82-1.9,4.42-3.46,9.97-5.21,14.8-8.05,2.16-1.12,1.47-3.52,1.43-5.5.76-6.49-1.31-12.73-1.63-19.27,0-1.52-.91-3.96.89-4.64,1.4-.37,3.54.59,4.81,1.57,5.28,3.93,9.45,9.99,14.79,12.69,1.72.73,2.29,1.67,3.33,3.37,1.55,2.16,4.78,4.84,6.53,5.96.85.51,1.02.68,1.68.74,2.5,0,25.14,0,36.08,0,2.91,0,4.94-.01,5.63,0,.21.03.38.09.57.26l.07.07Z"/>
      <path d="M358.93,30.45c-.03,1.14-1.11,1.55-2.06,1.99-8.35,4.6-16.88,12.1-24.6,18.13-.54.57-2.14,1.26-1.46,2.04,2.22,2.27,13.71,13.9,18.05,18.3.92,1.12,2.13,1.62,2.45,3.16.17.69.21,1.56-.32,2.09-24.69,4.06-50.88-13.84-70.04,10.69-2.07,1.52-4.84,2.69-6.12,4.45-.92,1.59-3.08.85-3.44-.79.99-8.1,2.89-16.91,2.31-25.26-.05-.94-.22-1.96-.84-2.64-2.74-2.35-7.85-1.81-11.39-3.2-5.5-2.77-13.61-4.73-19.77-7.75-1.38-.74-2.79-1.31-2.13-2.5.68-.87,2.01-.93,2.97-1.28,7.02-2.75,32.46-9.71,36.04-13.05,1.16-6.29,2.34-13.6,1.17-20.05-1.25-3.94-.44-7.77,4.31-5.41,3.07,2.2,24.6,17.71,32.6,23.41,2.7,0,31.38-2.21,41.93-2.86.22.03.31.19.34.43v.08Z"/>
    </g>
  </g>
</svg>