<?xml version="1.0" encoding="UTF-8"?>
<svg id="Layer_2" data-name="Layer 2" xmlns="http://www.w3.org/2000/svg" viewBox="0 0 115.03 122.9">
  <g id="Layer_1-2" data-name="Layer 1">
    <path d="M96.31,110.11c-4.38,5.14-10.69,8.26-17.34,7.44-2.67-.28-5.35-.75-8.04-.45-2.33.27-4.7.92-6.9,1.66-4.06,1.51-7.66.58-12.86,1.67-4.19.75-8.44,2.5-12.69,2.46-18.6-2.18-26.96-24.62-31.44-39.92-4.38-13.26-10.9-29.36-4.09-42.66,10.53-14.96,24.78-17.03,40.6-9.57,4.38,2.3,11.96,3.52,9.95-4.02-1.35-5.28-7.06-9.26-10.11-13.1-1.8-2.14-2.08-5.06-.3-6.79,5.4-4.47,9.29,4.5,13.87,5.96,2.8.77,5.07-3,8.34-5.78,5.07-3.96,12.73-7.85,18.8-6.85,10.48,3.23-1.91,14.77-7.33,16.98-4.76,2.91-13.12,2.24-14.68,6.4-1.12,3.57-1.73,9.71.69,12.64,2.12,1.18,4.79-.66,7.04-1.64,51.99-28.82,56.52,40.2,26.95,75.05l-.47.53ZM69.4,13.06c3.16-.24,9.16-2.08,9.28-5.94-3.28.39-7.32,3.11-9.34,5.78l.06.16Z"/>
  </g>
</svg>