<?xml version="1.0" encoding="UTF-8"?>
<svg id="Layer_1" xmlns="http://www.w3.org/2000/svg" version="1.1" viewBox="0 0 452.7 659">
  <!-- Generator: Adobe Illustrator 30.0.0, SVG Export Plug-In . SVG Version: 2.1.1 Build 123)  -->
  <path d="M359.4,43.7C326.3,19,288.8,4.5,247.7,1c-24.3-2.1-48.9-1-73,4.8-42.4,10.3-78.9,30.9-109.6,61.7-15.1,15.1-27.8,32.2-37.9,51C10.7,149.4,1.1,182.3.4,217.5c-.7,34-.2,106.7-.1,109,.2,4.3,2.5,5.5,6.4,5.5,8.3,0,16.6,0,24.9,0,8.7,0,9-.4,9-9.1,0-18.1,0-36.1,0-54.2h0c0-16.9.2-33.7,0-50.6-.1-8.1,1-16,2.5-23.7,8.8-46.4,31.3-84.9,68.7-114.2,46.4-36.3,99.1-48,155.9-35.1,56.6,12.8,98.5,46.6,125,98.7,13.3,26.2,20,54,20,83.5,0,18-1.2,35.9-3.4,53.8-3.2,25.2-8.8,49.9-17,73.8-8,23.1-17.6,45.7-30,66.9-14.5,24.8-30.4,48.7-50.3,69.4-34.8,36-70.4,71-105.9,106.3-20.2,20.1-44.9,26-71.8,19-33.5-8.7-55.4-40.1-54.6-70.3.2-9.2.1-18.3,0-27.5-.1-6.7-1.2-7.9-7.6-8.1-8.6-.2-17.2.1-25.7-.1-5-.1-6.8,2-6.7,6.9.2,10.1,0,20.1.1,30.2,0,5-.4,10.2.5,15,4.3,22.8,13.5,43,29.8,60.1,31.2,32.7,68.9,42.5,112.3,33.2,22.4-4.8,40.5-17.4,56.4-33.3,20.5-20.5,41-41.1,61.5-61.5,19.3-19.2,38.9-38.1,56-59.3,38.1-47.2,65.6-100,81.6-158.5,2.8-10.2,6-20.4,7.5-30.9,2.3-15.4,4.9-30.8,6-46.4,1.9-26,2.7-51.8-1.9-77.6-10.9-60-41.1-108.1-89.8-144.5Z"/>
  <path d="M172.2,277.8l16.8,35.7c27.9-13.2,52.9-.8,54-.3h-.2c0,0,18.4-35,18.4-35-1.7-.9-43-22.1-89.1-.4Z"/>
  <path d="M293.6,339.7c-2.8,6-2.3,7.2,4.1,10,8.4,3.6,17.1,6.5,25.3,10.6,4.7,2.3,6.3.7,7.9-3.2,6.1-14.1,10.4-28.9,14.5-43.6,3.9-14.1,6.7-28.6,8-43.4,1.6-19.4,4.4-38.5,1.8-58.1-5.3-39.9-23.9-71.2-56.9-93.7-30.5-20.8-64.2-27.6-100.3-18.9-49.2,11.8-81.4,42.6-96.1,90.8-2.7,8.8-46.8,210.4-46.8,210.4l73.7.3c-4,14.2-8.1,32-10,49.8-9.1.6-16.4.6-20.8.6-2.6,0-4.8,2-4.9,4.6l-.8,15-.8,14.7c-.1,2.8,2,5.1,4.8,5.1,1.4,0,3.1,0,5,0,35.1,0,150.7-6.3,201.5-86.6,1.5-2.3.7-5.4-1.7-6.8l-25.7-15c-2.3-1.3-5.1-.6-6.6,1.6-24.4,37.7-70.4,54.4-109.1,61.7,3.9-24.6,12-49.8,16-60.5l9.2-22.6-81.2.4c12.3-52.8,17.8-72.1,34.4-146.8,3.1-21.4,29.2-35.8,51.7-25,12,5.7,19.7,14.7,22,28,.7,3.9,1.6,7.5,7,7.4,9.8-.2,19.5,0,29.3,0,3.7,0,5.5-1.7,5.1-5.5-2.4-24.9-13.7-44.8-34.1-59.5-10.5-7.5-22.2-11.8-35.1-13.8,19.9-10.6,40.4-14.6,62.4-9,46.7,11.9,71.6,52.2,69.6,97.3-.7,15.2-1.7,30.6-5,45.6-4.4,19.8-8.8,39.6-17.5,58.2Z"/>
  <path d="M129.4,549.4c0,13.3,10.8,24.1,24.1,24.1s24.1-10.8,24.1-24.1-10.8-24.1-24.1-24.1-24.1,10.8-24.1,24.1Z"/>
</svg>